<svg xmlns="http://www.w3.org/2000/svg" viewBox="0 0 134.6 162.44"><defs><style>.cls-1{fill:#3b4eff;}.cls-2,.cls-7,.cls-8{fill:#2e2e2e;}.cls-3,.cls-5,.cls-6{fill:#f5f5ff;}.cls-3,.cls-4,.cls-5,.cls-6,.cls-7,.cls-8,.cls-9{stroke:#2e2e2e;}.cls-3,.cls-4,.cls-5,.cls-6,.cls-8,.cls-9{stroke-linecap:round;stroke-linejoin:round;}.cls-3,.cls-4{stroke-width:0.54px;}.cls-4,.cls-9{fill:none;}.cls-5{stroke-width:0.56px;}.cls-6{stroke-width:0.62px;}.cls-7{stroke-miterlimit:10;stroke-width:0.46px;}.cls-8{stroke-width:0.92px;}.cls-9{stroke-width:0.62px;}</style></defs><g id="Слой_2" data-name="Слой 2"><g id="OBJECTS"><circle class="cls-1" cx="67.3" cy="60.62" r="60.62" transform="translate(-7.56 111.6) rotate(-76.27)"/><path class="cls-2" d="M35.57,30.68A10.05,10.05,0,0,1,36.05,23a9.36,9.36,0,0,1,5.72-4.79,7,7,0,0,1,7.11-6.59,5.57,5.57,0,0,1,3.31-4.07,4.91,4.91,0,0,1,4.89.81,4.67,4.67,0,0,1,3.17-3.62,4.47,4.47,0,0,1,4.44,1.68c.87-2,2.82-2.42,4.88-2.57a5.88,5.88,0,0,1,5.27,2.77A4.82,4.82,0,0,1,80.51,5.3a5.6,5.6,0,0,1,3.35,5.29c1.3-1,3.37-.71,4.82.06a4.74,4.74,0,0,1,2.4,4.16,5.57,5.57,0,0,1,4.45,2.68,6.34,6.34,0,0,1,.67,5.43c1.82.24,3.15,2.4,3.75,4.21a5.5,5.5,0,0,1-1.14,5.34c1.49,1,2,3.32,2.26,5.15a6.84,6.84,0,0,1-1.38,5.18c1.19,1.16,1.36,3.63,1.14,5.32a5.43,5.43,0,0,1-2.71,4c1.11,1.19.52,3.76-.18,5.25A4,4,0,0,1,94,59.64c.47,1.58-.73,4-2,4.94a3.8,3.8,0,0,1-4.44.09c-.4,3.86-5,8.11-8.72,7.66A6.87,6.87,0,0,1,74,75.47a5.49,5.49,0,0,1-4.64-2.19c-.65,1.71-3.06,3.6-4.81,3.61A4.56,4.56,0,0,1,60.45,74c-3,1.76-8.05-.23-9.46-3.46-1.3,1.32-4.21,2-5.75,1a4.51,4.51,0,0,1-1.73-5,5.48,5.48,0,0,1-4.23-1.75,5.21,5.21,0,0,1-1.22-4.21c-1.37-.18-2.69-1.82-3.18-3.18a4.25,4.25,0,0,1,.68-4.07c-1.22-.94-1.76-3-1.85-4.63a5.59,5.59,0,0,1,1.66-4.26C33.19,42.42,32.86,38,35,35.94a2.52,2.52,0,0,1-1.17-2.34A4.11,4.11,0,0,1,35.57,30.68Z"/><path class="cls-3" d="M84,47.75c-2.47,4-2.23,8.67.54,10.51s7,.09,9.49-3.88,2.23-8.68-.53-10.51S86.52,43.77,84,47.75Z"/><path class="cls-4" d="M91.45,45.78a3.68,3.68,0,0,1,1,6.31"/><path class="cls-3" d="M50.65,47.75c2.48,4,2.24,8.67-.53,10.51s-7,.09-9.49-3.88-2.24-8.68.53-10.51S48.18,43.77,50.65,47.75Z"/><path class="cls-4" d="M43.24,45.78a3.69,3.69,0,0,0-1,6.31"/><path class="cls-5" d="M79.22,93.73a11.88,11.88,0,1,1-23.75.4c0-.13,0-.27,0-.4L56.8,76l.33-4.48.66-8.79H76.9l1,13.9.75,10.12Z"/><path class="cls-2" d="M78.7,86.77c-6.27.44-13.18-2.68-17.92-8.73a23.91,23.91,0,0,1-3.65-6.5l.66-8.79H76.9l1,13.9Z"/><path class="cls-3" d="M87.8,59.52a31,31,0,0,1-3.11,5.84,35.44,35.44,0,0,1-9.09,9.42,14.46,14.46,0,0,1-12.47,1.81c-3.25-1.11-5.92-3.43-8.31-5.88a31.59,31.59,0,0,1-7.24-10.48,32.12,32.12,0,0,1-1.83-10.1,111,111,0,0,1,.76-14.46,21.17,21.17,0,0,1,29.2-17.61A21.44,21.44,0,0,1,88,32.37c1.14,4.5.75,9.17.82,13.76,0,1.28.08,2.58.11,3.88A24.1,24.1,0,0,1,87.8,59.52Z"/><path class="cls-2" d="M89,50v.16l-.11-.1a7.34,7.34,0,0,1-2.5-5.13l-.78-14.82c-.78-.31-1.53-.63-2.29-1-1.13-.55-2.23-1.14-3.26-1.77a25.74,25.74,0,0,1-5.66-4.44,29.9,29.9,0,0,1-7,.78,28.75,28.75,0,0,1-8-1.06A25.09,25.09,0,0,1,54.12,27a33.09,33.09,0,0,1-3.86,2.13l-1,.46-.78,15.34a7.32,7.32,0,0,1-2.64,5.25l-.12.09v-.15a107.13,107.13,0,0,1,.66-13.49l.1-1A21.23,21.23,0,0,1,75.74,18a21,21,0,0,1,7.75,5.64,21.21,21.21,0,0,1,4.61,8.71,41.44,41.44,0,0,1,.83,10.58c0,1,0,2.14,0,3.2,0,.74,0,1.5.06,2.24C89,48.91,89,49.46,89,50Z"/><path class="cls-2" d="M83.49,23.64A21,21,0,0,0,75.74,18a21.55,21.55,0,0,0-18.89,1.28A21.17,21.17,0,0,0,51.38,24,10.66,10.66,0,0,0,52.8,25.8a5.11,5.11,0,0,0,6.06,4.85,4,4,0,0,0,2.9,2.57,3.17,3.17,0,0,0,3.11-1.48,4,4,0,0,0,3.31,1.86,3.54,3.54,0,0,0,2.88-2.08c.73,1.23,1.89,2.31,3.31,2.11a3.75,3.75,0,0,0,3-2.68,3.41,3.41,0,0,0,4.34-2.14,3.43,3.43,0,0,0-.4-2.5A10.61,10.61,0,0,0,83.49,23.64Z"/><path class="cls-6" d="M73.71,64.57c0,1.66-3.56,3-6,3s-6.89-1.35-6.89-3"/><path class="cls-7" d="M73.71,64.53v0H60.85v0c0-1.27,4.47-2.29,6.89-2.29S73.71,63.26,73.71,64.53Z"/><path class="cls-2" d="M72.68,63.25a2.61,2.61,0,0,0,2.51.06h0a.26.26,0,0,1,.36.12.24.24,0,0,1,0,.3,3.7,3.7,0,0,1-3.36,1.08h-.09a.85.85,0,0,1-.69-1,.86.86,0,0,1,1.3-.56Z"/><path class="cls-2" d="M62.54,64.81a3.72,3.72,0,0,1-3.37-1.08.27.27,0,0,1,0-.38.27.27,0,0,1,.31,0h0A2.63,2.63,0,0,0,62,63.25a.84.84,0,0,1,1.17.25.85.85,0,0,1-.25,1.18.91.91,0,0,1-.31.12Z"/><path class="cls-8" d="M65.43,64.29a3.14,3.14,0,0,0,4,.18"/><path class="cls-2" d="M70.59,42.11a5.85,5.85,0,0,1,2.62-2.76,8.33,8.33,0,0,1,3.69-1,8.14,8.14,0,0,1,3.74.75,5.87,5.87,0,0,1,2.81,2.56L80,41.57c-1,0-2,0-3,0s-2,.09-3,.17S71.9,42,70.59,42.11Z"/><path class="cls-2" d="M64.1,42.11c-1.3-.15-2.36-.26-3.41-.35s-2-.14-3-.17-2,0-3,0l-3.43.1a5.89,5.89,0,0,1,2.8-2.56,8.14,8.14,0,0,1,3.74-.75,8.29,8.29,0,0,1,3.69,1A5.8,5.8,0,0,1,64.1,42.11Z"/><path class="cls-2" d="M71.2,50.78c.23-.52.49-1,.73-1.53l0,0a7.28,7.28,0,0,1,2.4-2.38A6,6,0,0,1,77.74,46,7.12,7.12,0,0,1,81,47a7.77,7.77,0,0,1,1.36,1,3,3,0,0,1,.94,1.4h0a.25.25,0,0,1-.17.31.28.28,0,0,1-.18,0,5.48,5.48,0,0,1-1.3-.88,8.73,8.73,0,0,0-1.25-.79,7.22,7.22,0,0,0-2.78-.8,5.41,5.41,0,0,0-2.77.52,7.33,7.33,0,0,0-2.31,1.86l0,0c-.34.46-.66.92-1,1.37a.23.23,0,0,1-.39-.24Z"/><path class="cls-2" d="M75.14,48.79A2,2,0,1,1,77,50.9,2,2,0,0,1,75.14,48.79Z"/><path class="cls-4" d="M81.07,50.59a5,5,0,0,0,2-1"/><path class="cls-4" d="M71.15,47.47a6.85,6.85,0,0,1,8.34-2.93"/><path class="cls-2" d="M63.1,51c-.35-.45-.67-.91-1-1.37l0,0a7.55,7.55,0,0,0-2.31-1.86A5.45,5.45,0,0,0,57,47.3a7.13,7.13,0,0,0-2.77.8,7.74,7.74,0,0,0-1.25.79,5.55,5.55,0,0,1-1.31.88.26.26,0,0,1-.34-.13.33.33,0,0,1,0-.17h0a3.14,3.14,0,0,1,.94-1.4,8.59,8.59,0,0,1,1.36-1A7.12,7.12,0,0,1,57,46a6,6,0,0,1,3.38.83,7.31,7.31,0,0,1,2.41,2.38l0,0c.24.51.5,1,.73,1.53a.24.24,0,0,1-.12.31A.25.25,0,0,1,63.1,51Z"/><path class="cls-2" d="M59.56,48.79a2,2,0,1,0-1.82,2.11A2,2,0,0,0,59.56,48.79Z"/><path class="cls-4" d="M53.63,50.59a4.9,4.9,0,0,1-2-1"/><path class="cls-4" d="M63.55,47.47a6.86,6.86,0,0,0-8.34-2.93"/><path class="cls-9" d="M64.25,58a1.27,1.27,0,0,1-1.17-2"/><path class="cls-9" d="M70.45,58.07a1.28,1.28,0,0,0,1.17-2"/><path class="cls-9" d="M64.15,57.81a5,5,0,0,0,6.36.1"/><path class="cls-2" d="M113.49,139.6c-9.12,4.11-17.44,5.38-18.59,2.83s5.31-8,14.42-12.06,17.44-5.39,18.59-2.84S122.61,135.49,113.49,139.6Z"/><path class="cls-3" d="M109.48,162l-4.26-10.36-3.42-8.31-2.88-7-6.33-15.38c-3.33-8.09-.06-17.06,7.13-19.52a11.42,11.42,0,0,1,3.81-.61h.36c5.57.2,11,4.34,13.11,10.66l5.12,15,2.3,6.72,9.91,29"/><path class="cls-3" d="M127.72,127.22c-1.69-2.12-9.68-.78-18.39,3.14-9.12,4.12-15.59,9.52-14.43,12.08l.1.15-.1,0L84.83,119c-4-9.27.32-19.84,9.3-23a15.62,15.62,0,0,1,5.15-.88,17.17,17.17,0,0,1,15.08,9.56Z"/><path class="cls-2" d="M21.33,139.76c9.12,4.11,17.44,5.38,18.59,2.83s-5.31-8-14.42-12.07-17.44-5.38-18.59-2.83S12.21,135.64,21.33,139.76Z"/><path class="cls-3" d="M.27,162.17l10.12-28.93,2.34-6.71L18,111.6C20.21,105.16,25.81,101,31.5,101h.08a11.53,11.53,0,0,1,3.73.65c7.17,2.51,10.39,11.5,7,19.57l-6.44,15.33h0l-2.94,7L29.81,151l-4.7,11.18"/><path class="cls-3" d="M7.1,127.38c1.69-2.13,9.67-.79,18.39,3.14,9.12,4.12,15.59,9.52,14.43,12.07a1.4,1.4,0,0,1-.1.16l.1,0L50,119.18c3.95-9.28-.32-19.85-9.3-23a15.42,15.42,0,0,0-5.15-.89,17.18,17.18,0,0,0-15.08,9.57Z"/><polygon class="cls-3" points="105.45 162.18 29.15 162.18 29.54 150.99 29.82 142.93 30.17 133.02 31.31 101.02 31.48 95.66 48.25 90.21 51.01 89.21 52.38 88.71 55.95 86.79 57.03 86.79 77.68 86.79 78.11 86.79 82.12 88.63 83.48 89.13 86.24 90.12 103.27 95.66 103.39 101.03 104 119.05 104.46 132.82 104.8 142.79 104.8 142.84 105.1 151.84 105.45 162.18"/><path class="cls-3" d="M78.8,86.31l2.79,2.09,1.3.47a15.78,15.78,0,0,1-31.3.08l1.33-.48,3.16-2.54"/></g></g></svg>