<svg xmlns="http://www.w3.org/2000/svg" viewBox="0 0 207.76 207.75"><defs><style>.cls-1{fill:#fff;}</style></defs><g id="Слой_2" data-name="Слой 2"><g id="Слой_1-2" data-name="Слой 1"><path class="cls-1" d="M0,195.43c3.24-.05,6.48-.11,9.72-.14,2.7,0,2.71,0,2.71-2.64V137.51c0-.61,0-1.22,0-1.82-.13-1.44.39-2.06,1.93-2.05,11,0,21.9.06,32.85,0,2.1,0,2,1.17,2,2.6q0,28,0,55.95c0,3.12,0,3.12,3,3.12,2.29,0,4.59-.07,6.89,0,1.51.07,2-.5,2-2-.06-7.91,0-15.81,0-23.72V100.06c0-2.88,0-2.89,2.89-2.89q15.6,0,31.22,0c2.65,0,2.67,0,2.67,2.7v92.45c0,3,0,3,3,3h6.08c2.81,0,2.82,0,2.82-2.93V124.45c0-3,0-3,3-3q15.3,0,30.61,0c3.13,0,3.13,0,3.13,3v67.51c0,3.23,0,3.23,3.33,3.23,2.3,0,4.6,0,6.89,0,1.22,0,1.76-.45,1.67-1.67-.05-.6,0-1.21,0-1.82V76.05c0-3.21,0-3.21,3.18-3.21h30.82c2.77,0,2.78,0,2.78,2.8V192.2c0,3.09,0,3.09,3.07,3.09,2.56,0,5.13,0,7.7,0,1.28,0,1.83.44,1.81,1.76q-.09,4.47,0,8.92c0,1.31-.49,1.87-1.79,1.78-.6-.05-1.22,0-1.82,0H3c-1,0-2-.09-3-.14Zm170.84-55.14v12.57c0,13.38,0,26.76,0,40.14,0,1.74.45,2.43,2.27,2.32,2.29-.14,4.6,0,6.89,0,2.74,0,2.75,0,2.75-2.8V104.1c0-5.61,0-11.22,0-16.82,0-1.48-.42-2.08-2-2-2.43.1-4.86,0-7.29,0-2.64,0-2.65,0-2.65,2.7ZM85.41,152.6c0-13.52,0-27,0-40.55,0-2-.62-2.6-2.54-2.47-2.22.15-4.46,0-6.69,0-2.68,0-2.69,0-2.69,2.65v57.37c0,7.77.06,15.54,0,23.31,0,1.92.61,2.48,2.44,2.37a52.8,52.8,0,0,1,6.89,0c2,.15,2.65-.5,2.64-2.59C85.36,179.36,85.41,166,85.41,152.6Zm48.65,12c0-9.53,0-19.06,0-28.59,0-1.56-.42-2.19-2.06-2.12-2.63.12-5.28.08-7.91,0-1.33,0-2,.31-2,1.8q.06,28.89,0,57.77c0,1.5.64,1.84,2,1.81,2.57-.07,5.14-.13,7.7,0,1.83.1,2.29-.58,2.28-2.32C134,183.54,134.06,174.08,134.06,164.62ZM24.88,170.54c0,7.5.05,15,0,22.5,0,1.81.56,2.37,2.32,2.28,2.56-.13,5.14-.09,7.7,0,1.38,0,1.92-.41,1.92-1.85q-.06-22.8,0-45.61c0-1.34-.5-1.79-1.79-1.76-2.57.06-5.14.12-7.7,0-1.83-.09-2.47.45-2.45,2.37C24.94,155.81,24.88,163.17,24.88,170.54Z"/><path class="cls-1" d="M207.59,0a13.46,13.46,0,0,1,.14,1.41c0,15.06,0,30.13,0,45.19,0,1.66-.5,2.29-2.19,2.22-2.7-.1-5.41-.1-8.11,0-1.68.07-2.21-.55-2.2-2.21.07-7.7,0-15.4,0-23.11,0-.58-.05-1.17-.08-1.79-.88.08-1.2.75-1.65,1.2q-22,21.87-44,43.76c-6.56,6.52-13.19,13-19.7,19.56-1.37,1.38-2.16,1.4-3.54,0-15-15.1-30.09-30.11-45.08-45.21-1.47-1.48-2.21-1.43-3.65,0Q52.52,66.22,27.27,91.28c-5.12,5.1-10.32,10.13-15.4,15.27-1.23,1.25-2,1.11-3.08-.08-1.82-2-3.72-3.93-5.72-5.74-1.3-1.18-1.33-1.94,0-3.22,11.2-11.06,22.32-22.2,33.48-33.3Q57,43.84,77.51,23.5c2-2,2-2,3.91,0q22.5,22.5,45,45c1.37,1.38,2.11,1.4,3.49,0q23-23,46.06-45.94c2.87-2.86,5.79-5.68,8.68-8.52.46-.46.88-1,1.37-1.48a4.35,4.35,0,0,0-2.32-.25c-7.7,0-15.4-.05-23.1,0-1.68,0-2.27-.54-2.2-2.21.13-3.37.12-6.75.16-10.12Z"/></g></g></svg>