<svg xmlns="http://www.w3.org/2000/svg" viewBox="0 0 273.93 273.88"><defs><style>.cls-1{fill:#fff;}</style></defs><g id="Слой_2" data-name="Слой 2"><g id="Слой_1-2" data-name="Слой 1"><path class="cls-1" d="M11.05.58c3.21-.21,5.71,1.79,8.07,4.16Q46.93,32.58,74.78,60.38l59.33,59.32c2.85,2.85,2.86,2.85,5.69,0Q197.39,62.13,255,4.51C257.38,2.08,259.89,0,263.6,0c4,0,7.15,1.59,9,5.14A9.73,9.73,0,0,1,272,15.81a27.06,27.06,0,0,1-3.26,3.61L154.44,133.77c-3.13,3.13-3.13,3.14.07,6.33q57.5,57.48,115,115c2.44,2.44,4.41,5,4.35,8.71-.07,4-1.75,7.1-5.33,8.92a9.72,9.72,0,0,1-10.41-.67,26.45,26.45,0,0,1-3.61-3.26Q197.32,211.6,140.16,154.44c-3.19-3.19-3.2-3.19-6.34-.05q-57.48,57.48-115,115c-2.44,2.44-5,4.45-8.69,4.41-3.9,0-6.94-1.59-8.81-5a9.77,9.77,0,0,1,.48-10.68,26.45,26.45,0,0,1,3.25-3.62L119,140.55c4-4,4-3.27.1-7.2Q62,76.29,5,19.23c-2.44-2.43-4.41-5-4.35-8.7C.69,4.75,4.86.54,11.05.58Z"/></g></g></svg>