<svg width="37" height="36" viewBox="0 0 37 36" fill="none" xmlns="http://www.w3.org/2000/svg">
<path d="M12.8937 8.9055L12.8932 8.90493C10.8605 6.87573 8.82925 4.84507 6.79949 2.81295C6.54391 2.5563 5.9963 2.02744 5.18071 2.06355C4.62 2.06758 4.08798 2.2642 3.68873 2.65225C3.28283 3.04676 3.07386 3.58164 3.06887 4.14172C3.05726 4.96937 3.52697 5.50314 3.83856 5.81361C7.89376 9.87341 11.9524 13.9332 16.0146 17.993L3.85605 30.1525C3.6863 30.3114 3.53111 30.4852 3.39233 30.6718L3.38766 30.6781L3.38308 30.6844C3.14812 31.0109 3.01337 31.3988 2.99531 31.8006C2.9775 32.197 3.07395 32.5899 3.27301 32.9328C3.6732 33.651 4.35896 33.9841 5.10145 33.9858C5.93122 33.9927 6.4638 33.5118 6.76572 33.2099L13.0635 26.9116L18.9964 20.9782C23.0459 25.028 27.0964 29.0792 31.1479 33.1317C31.3061 33.3015 31.479 33.4568 31.6648 33.5958L31.6647 33.5959L31.6742 33.6028C31.9911 33.8342 32.3674 33.9705 32.759 33.9957C33.1452 34.0206 33.5305 33.9364 33.8709 33.7529C34.6252 33.3631 34.9742 32.6632 34.9874 31.9092L34.9875 31.9079C35.0009 31.0756 34.5288 30.5412 34.2185 30.2309C30.1395 26.1501 26.0605 22.0707 21.9815 17.9927L34.1213 5.84665C34.29 5.68897 34.4446 5.51685 34.5833 5.33223L34.5834 5.33225L34.5875 5.32666C34.8274 5.00272 34.9673 4.61565 34.99 4.21316C35.0122 3.8183 34.9206 3.42554 34.7262 3.08145C34.322 2.32333 33.6052 2 32.864 2C32.0267 2 31.4996 2.49667 31.2115 2.79053C27.1387 6.86427 23.0667 10.9363 18.9954 15.0066L12.8937 8.9055ZM16.5323 17.4763C16.5353 17.4728 16.5359 17.4723 16.5335 17.475C16.5331 17.4754 16.5327 17.4758 16.5323 17.4763Z" fill="white" stroke="white" stroke-width="2"/>
</svg>
