<svg width="49" height="49" viewBox="0 0 49 49" fill="none" xmlns="http://www.w3.org/2000/svg">
<g clip-path="url(#clip0_201_10)">
<rect width="49" height="49" fill="white"/>
<path d="M17.5045 0.0103035C17.5126 2.237 17.5229 4.46542 17.5355 6.69556C17.5355 6.96173 17.4101 7.07163 17.1611 7.07507H16.6837H7.75365C7.09764 7.07507 7.08562 7.08881 7.0839 7.7448V16.829C7.0839 17.5366 7.0839 17.54 6.36435 17.5366L0.0103039 17.5074C0.0103039 11.8095 0.00686924 6.11226 0 0.415574C0 0.0704073 0.0704097 0 0.415589 0C6.11248 0.013738 11.8088 0.0171725 17.5045 0.0103035Z" fill="#5D6571"/>
<path d="M48.9572 0.0103035C48.9692 0.182028 48.9898 0.353753 48.9898 0.525478C48.9898 5.97145 48.9898 11.4168 48.9898 16.8617C48.9898 17.5245 48.9898 17.5262 48.3372 17.5262C46.4104 17.5262 44.4836 17.5262 42.5568 17.5262C41.8904 17.5262 41.8853 17.5262 41.8853 16.8668C41.8853 13.841 41.8853 10.8158 41.8853 7.79116C41.8853 7.07507 41.8853 7.07335 41.1692 7.07335H32.1413C31.4337 7.07335 31.4303 7.07335 31.432 6.35382C31.4412 4.23703 31.4515 2.11909 31.4629 0L48.9572 0.0103035Z" fill="#5D6571"/>
<path d="M0.0102539 31.4616C2.23703 31.4513 4.4661 31.4393 6.69746 31.4256C6.74887 31.4168 6.80163 31.4204 6.85139 31.436C6.90115 31.4516 6.9465 31.4788 6.98371 31.5154C7.02092 31.5519 7.04893 31.5967 7.06544 31.6462C7.08196 31.6957 7.0865 31.7484 7.0787 31.7999C7.0787 31.9596 7.0787 32.1176 7.0787 32.2773V41.207C7.0787 41.863 7.09244 41.875 7.74845 41.875H16.8296C17.5371 41.875 17.5388 41.875 17.5388 42.5945C17.5388 44.5522 17.5388 46.5116 17.5388 48.4693C17.5388 48.8213 17.453 48.9844 17.0597 48.9844C11.4498 48.9741 5.8451 48.9713 0.245525 48.9758C0.166507 48.9707 0.0879123 48.9604 0.0102539 48.9449V31.4616Z" fill="#5D6571"/>
<path d="M40.2589 48.9898C37.5112 48.9898 34.7773 48.9778 32.0382 49.0001C31.5453 49.0001 31.4165 48.8438 31.4234 48.3716C31.4463 46.4117 31.4463 44.4523 31.4234 42.4935C31.4234 41.9886 31.6088 41.877 32.0639 41.8787C35.0915 41.8924 38.1174 41.8787 41.145 41.8787C41.8869 41.8787 41.8869 41.8787 41.8886 41.1386C41.8886 38.1437 41.8886 35.1488 41.8886 32.1539C41.8886 31.4258 41.8886 31.4241 42.6357 31.4241C44.5625 31.4241 46.491 31.4344 48.4178 31.4241C48.8403 31.4241 49.0034 31.5305 49.0017 31.9856C48.988 37.4659 48.988 42.9457 49.0017 48.4248C49.0017 48.8593 48.8747 49.0001 48.435 48.9984C45.7062 48.9812 42.9826 48.9898 40.2589 48.9898Z" fill="#5D6571"/>
</g>
<defs>
<clipPath id="clip0_201_10">
<rect width="49" height="49" fill="white"/>
</clipPath>
</defs>
</svg>
