<svg width="50" height="50" viewBox="0 0 50 50" fill="none" xmlns="http://www.w3.org/2000/svg">
<path fill-rule="evenodd" clip-rule="evenodd" d="M34.2365 42.8594C39.1302 42.7552 43.0323 38.6781 42.924 33.774V24.7281C42.9282 24.5094 42.9261 24.3156 42.9177 24.1219C42.7073 19.2511 38.7719 15.6177 33.7407 15.6177C33.7174 15.6177 33.696 15.6186 33.6731 15.6196C33.6466 15.6207 33.618 15.6219 33.5823 15.6219H16.4219C16.1594 15.6115 15.9698 15.6094 15.7802 15.6136C13.399 15.6656 11.1865 16.6365 9.54482 18.3552C7.89898 20.0698 7.02398 22.3219 7.07607 24.699V33.7406C7.0719 33.9656 7.07398 34.1615 7.08232 34.3531C7.2969 39.2552 11.4177 43.0886 16.3552 42.8531C22.0198 42.949 27.7761 42.949 33.5552 42.8511C33.8386 42.8636 34.0386 42.8657 34.2365 42.8594ZM33.5718 12.716C40.203 12.6618 45.5426 17.5847 45.8218 23.9951C45.8322 24.2472 45.8343 24.5055 45.8301 24.7618V33.7409C45.9718 40.216 40.7968 45.6243 34.2926 45.768C34.0259 45.7743 33.7739 45.768 33.5197 45.7576C30.6489 45.8076 27.7614 45.8326 24.8884 45.8326C22.0322 45.8326 19.1905 45.8076 16.3947 45.7597C9.98011 46.0326 4.46344 40.9826 4.17803 34.4847C4.16553 34.2284 4.16553 33.9701 4.16969 33.7118V24.7285C4.10094 21.6097 5.26344 18.6222 7.44469 16.3451C9.62386 14.066 12.5593 12.7743 15.7114 12.7076C15.9676 12.6993 16.2301 12.7014 16.4926 12.718L24.7322 12.716V12.2347C24.7134 10.8264 23.5426 9.67428 22.1176 9.67428H22.0968H20.0384H20.0009C17.7843 9.67428 15.9593 7.86803 15.9343 5.63678C15.9259 4.83262 16.5718 4.17637 17.3718 4.16803C18.0884 4.1347 18.8343 4.80345 18.8405 5.60553C18.8468 6.2472 19.3739 6.76595 20.0134 6.76595H20.0259H22.0864H22.128C25.128 6.76595 27.5989 9.20137 27.6384 12.216V12.716H33.5718ZM18.916 24.1359C19.6925 24.1359 20.3343 24.7032 20.4358 25.4393L20.4498 25.6439V27.7615H22.6038C23.4509 27.7615 24.1376 28.4367 24.1376 29.2696C24.1376 30.0331 23.5605 30.664 22.8119 30.7639L22.6038 30.7777H20.4498V32.8955C20.4498 33.7284 19.7631 34.4036 18.916 34.4036C18.1395 34.4036 17.4978 33.8362 17.3962 33.1001L17.3822 32.8955V30.7777H15.2284C14.3813 30.7777 13.6946 30.1025 13.6946 29.2696C13.6946 28.5061 14.2716 27.8752 15.0202 27.7753L15.2284 27.7615H17.3822V25.6439C17.3822 24.811 18.0689 24.1359 18.916 24.1359ZM33.0293 25.8651C33.0293 25.0322 32.3426 24.357 31.4955 24.357H31.2896L31.0814 24.3708C30.3328 24.4706 29.7558 25.1016 29.7558 25.8651C29.7558 26.698 30.4425 27.3731 31.2896 27.3731H31.4955L31.7036 27.3594C32.4523 27.2595 33.0293 26.6285 33.0293 25.8651ZM34.9959 31.277C35.843 31.277 36.5297 31.9522 36.5297 32.7851C36.5297 33.5485 35.9527 34.1795 35.2041 34.2793L34.9959 34.2931H34.79C33.9429 34.2931 33.2562 33.6179 33.2562 32.7851C33.2562 32.0216 33.8332 31.3906 34.5819 31.2908L34.79 31.277H34.9959Z" fill="white"/>
</svg>
