<svg width="48" height="46" viewBox="0 0 48 46" fill="none" xmlns="http://www.w3.org/2000/svg">
<path fill-rule="evenodd" clip-rule="evenodd" d="M32.8671 39.4307C37.5651 39.3348 41.3111 35.5839 41.2071 31.0721V22.7499C41.2111 22.5486 41.2091 22.3704 41.2011 22.1921C40.9991 17.711 37.2211 14.3683 32.3911 14.3683C32.3688 14.3683 32.3482 14.3691 32.3262 14.37C32.3008 14.371 32.2734 14.3721 32.2391 14.3721H15.7651C15.5131 14.3626 15.3311 14.3606 15.1491 14.3645C12.8631 14.4124 10.7391 15.3056 9.16307 16.8868C7.58307 18.4642 6.74307 20.5361 6.79307 22.7231V31.0414C6.78907 31.2484 6.79107 31.4286 6.79907 31.6049C7.00507 36.1148 10.9611 39.6415 15.7011 39.4249C21.1391 39.5131 26.6651 39.5131 32.2131 39.423C32.4851 39.4345 32.6771 39.4364 32.8671 39.4307ZM32.229 11.6987C38.595 11.6488 43.721 16.1779 43.989 22.0755C43.999 22.3074 44.001 22.5451 43.997 22.7808V31.0417C44.133 36.9987 39.165 41.9743 32.921 42.1066C32.665 42.1123 32.423 42.1066 32.179 42.097C29.423 42.143 26.651 42.166 23.893 42.166C21.151 42.166 18.423 42.143 15.739 42.0989C9.58095 42.35 4.28495 37.704 4.01095 31.7259C3.99895 31.4902 3.99895 31.2525 4.00295 31.0148V22.7502C3.93695 19.8809 5.05295 17.1324 7.14695 15.0375C9.23895 12.9407 12.057 11.7523 15.083 11.691C15.329 11.6833 15.581 11.6853 15.833 11.7006L23.743 11.6987V11.2559C23.725 9.96026 22.601 8.90034 21.233 8.90034H21.213H19.237H19.201C17.073 8.90034 15.321 7.23859 15.297 5.18585C15.289 4.44601 15.909 3.84226 16.677 3.8346C17.365 3.80393 18.081 4.41918 18.087 5.1571C18.093 5.74743 18.599 6.22468 19.213 6.22468H19.225H21.203H21.243C24.123 6.22468 26.495 8.46526 26.533 11.2387V11.6987H32.229ZM18.1594 22.205C18.9049 22.205 19.5209 22.7269 19.6184 23.4041L19.6319 23.5924V25.5406H21.6996C22.5129 25.5406 23.1721 26.1618 23.1721 26.928C23.1721 27.6304 22.6182 28.2109 21.8995 28.3028L21.6996 28.3155H19.6319V30.2639C19.6319 31.0301 18.9726 31.6513 18.1594 31.6513C17.414 31.6513 16.7979 31.1293 16.7004 30.4521L16.687 30.2639V28.3155H14.6193C13.8061 28.3155 13.1468 27.6943 13.1468 26.928C13.1468 26.2256 13.7008 25.6452 14.4195 25.5533L14.6193 25.5406H16.687V23.5924C16.687 22.8262 17.3462 22.205 18.1594 22.205ZM31.7082 23.7959C31.7082 23.0296 31.0489 22.4085 30.2357 22.4085H30.038L29.8382 22.4211C29.1195 22.513 28.5656 23.0935 28.5656 23.7959C28.5656 24.5621 29.2248 25.1833 30.038 25.1833H30.2357L30.4355 25.1706C31.1542 25.0787 31.7082 24.4983 31.7082 23.7959ZM33.5961 28.7748C34.4094 28.7748 35.0686 29.396 35.0686 30.1622C35.0686 30.8646 34.5147 31.4451 33.796 31.537L33.5961 31.5497H33.3985C32.5853 31.5497 31.926 30.9285 31.926 30.1622C31.926 29.4599 32.48 28.8794 33.1987 28.7875L33.3985 28.7748H33.5961Z" fill="white"/>
</svg>
