<svg xmlns="http://www.w3.org/2000/svg" xmlns:xlink="http://www.w3.org/1999/xlink" viewBox="0 0 2843.59 2769.95"><defs><style>.cls-1{fill:none;}.cls-2{fill:#f4f7fa;}.cls-3{fill:#bfc8d6;}.cls-16,.cls-27,.cls-3,.cls-36,.cls-43,.cls-49,.cls-50,.cls-79,.cls-80,.cls-88,.cls-94{opacity:0.3;}.cls-16,.cls-19,.cls-27,.cls-3,.cls-36,.cls-49,.cls-50,.cls-79,.cls-80,.cls-88,.cls-94{isolation:isolate;}.cls-4{fill:url(#Безымянный_градиент_28);}.cls-5{clip-path:url(#clip-path);}.cls-6{fill:#fcfdfe;}.cls-7{fill:#fe8794;}.cls-8{clip-path:url(#clip-path-2);}.cls-9{clip-path:url(#clip-path-3);}.cls-10{fill:url(#Безымянный_градиент_28-2);}.cls-11{clip-path:url(#clip-path-4);}.cls-12{clip-path:url(#clip-path-5);}.cls-13{fill:#97a6b7;}.cls-14{fill:url(#Безымянный_градиент_3);}.cls-15,.cls-19{fill:#fff;}.cls-16,.cls-17{fill:#d8dee8;}.cls-18{opacity:0.7;}.cls-19{opacity:0.35;}.cls-20{fill:url(#Безымянный_градиент_61);}.cls-21{fill:url(#Безымянный_градиент_61-2);}.cls-22{fill:url(#Безымянный_градиент_62);}.cls-23{fill:url(#Безымянный_градиент_77);}.cls-24{fill:#26264f;}.cls-25{fill:url(#Безымянный_градиент_76);}.cls-26{fill:url(#Безымянный_градиент_77-2);}.cls-27{fill:url(#Безымянный_градиент_76-2);}.cls-28{fill:url(#Безымянный_градиент_76-3);}.cls-29{fill:url(#Безымянный_градиент_71);}.cls-30{fill:url(#Безымянный_градиент_71-2);}.cls-31{fill:url(#Безымянный_градиент_77-3);}.cls-32{fill:url(#Безымянный_градиент_77-4);}.cls-33{fill:url(#Безымянный_градиент_77-5);}.cls-34{fill:url(#Безымянный_градиент_77-6);}.cls-35{fill:url(#Безымянный_градиент_77-7);}.cls-36{fill:url(#Безымянный_градиент_71-3);}.cls-37{fill:url(#Безымянный_градиент_77-8);}.cls-38{fill:url(#Безымянный_градиент_77-9);}.cls-39{opacity:0.2;}.cls-40{fill:url(#Безымянный_градиент_77-10);}.cls-41{fill:url(#Безымянный_градиент_27);}.cls-42{fill:url(#Безымянный_градиент_29);}.cls-44{fill:url(#Безымянный_градиент_29-3);}.cls-45{fill:url(#Безымянный_градиент_27-2);}.cls-46{fill:url(#Безымянный_градиент_28-3);}.cls-47{fill:url(#Безымянный_градиент_29-4);}.cls-48{fill:url(#Безымянный_градиент_61-3);}.cls-49{fill:url(#Безымянный_градиент_76-4);}.cls-50{fill:url(#Безымянный_градиент_61-4);}.cls-51{fill:url(#Безымянный_градиент_61-5);}.cls-52{fill:url(#Безымянный_градиент_61-6);}.cls-53{fill:url(#Безымянный_градиент_61-7);}.cls-54{fill:url(#Безымянный_градиент_61-8);}.cls-55{fill:url(#Безымянный_градиент_61-9);}.cls-56{fill:url(#Безымянный_градиент_61-10);}.cls-57{fill:url(#Безымянный_градиент_61-11);}.cls-58{fill:url(#Безымянный_градиент_61-12);}.cls-59{fill:url(#Безымянный_градиент_61-13);}.cls-60{fill:url(#Безымянный_градиент_62-2);}.cls-61{fill:url(#Безымянный_градиент_62-3);}.cls-62{fill:url(#Безымянный_градиент_62-4);}.cls-63{fill:url(#Безымянный_градиент_62-5);}.cls-64{fill:url(#Безымянный_градиент_62-6);}.cls-65{fill:url(#Безымянный_градиент_62-7);}.cls-66{fill:url(#Безымянный_градиент_62-8);}.cls-67{fill:url(#Безымянный_градиент_62-9);}.cls-68{fill:url(#Безымянный_градиент_62-10);}.cls-69{fill:url(#Безымянный_градиент_62-11);}.cls-70{fill:url(#Безымянный_градиент_61-14);}.cls-71{fill:url(#Безымянный_градиент_62-12);}.cls-72{fill:url(#Безымянный_градиент_62-13);}.cls-73{fill:url(#Безымянный_градиент_62-14);}.cls-74{fill:url(#Безымянный_градиент_62-15);}.cls-75{fill:url(#Безымянный_градиент_62-16);}.cls-76{fill:url(#Безымянный_градиент_62-17);}.cls-77{fill:url(#Безымянный_градиент_62-18);}.cls-78{fill:url(#Безымянный_градиент_62-19);}.cls-79{fill:url(#Безымянный_градиент_61-15);}.cls-80{fill:url(#Безымянный_градиент_62-20);}.cls-81{fill:url(#Безымянный_градиент_66);}.cls-82{fill:url(#Безымянный_градиент_66-2);}.cls-83{fill:url(#Безымянный_градиент_77-11);}.cls-84{fill:url(#Безымянный_градиент_66-3);}.cls-85{fill:url(#Безымянный_градиент_77-12);}.cls-86{fill:url(#Безымянный_градиент_71-4);}.cls-87{fill:url(#Безымянный_градиент_71-5);}.cls-88{fill:url(#Безымянный_градиент_71-6);}.cls-89{fill:url(#Безымянный_градиент_71-7);}.cls-90{fill:url(#Безымянный_градиент_77-13);}.cls-91{fill:url(#Безымянный_градиент_77-14);}.cls-92{fill:url(#Безымянный_градиент_76-5);}.cls-93{fill:url(#Безымянный_градиент_76-6);}.cls-94{fill:url(#Безымянный_градиент_76-7);}.cls-95{fill:url(#Безымянный_градиент_77-15);}</style><linearGradient id="Безымянный_градиент_28" x1="419.15" y1="1961.21" x2="835.45" y2="-700.15" gradientTransform="matrix(1, 0, 0, -1, 0, 2691.82)" gradientUnits="userSpaceOnUse"><stop offset="0" stop-color="#e38ddd"/><stop offset="1" stop-color="#9571f6"/></linearGradient><clipPath id="clip-path"><path class="cls-1" d="M877.69,2047.9c15.29-3,46-22.85,51.81-31.34,39-56.45,118.79-157.42,110-229.41-1.5-12.29-57.36-20.32-65.79-31.17-34.37-13.76-47.15-16.4-73.4-45.54-77.5-86,75.85-266.11-118.58-314-142.41-35.06-257.4,20.4-255.86-197.4s-195-602.27-414.58-436.76c-126,95,18.86,271.11-40.3,411.34-56.22,133.25,5.19,236.26,147.33,305.29s72.53,133.26,40.23,258.58C219.82,1888,448.42,1900.05,554.44,1896.6,639.81,1893.82,859.07,1944.35,877.69,2047.9Z"/></clipPath><clipPath id="clip-path-2"><path class="cls-1" d="M875.69,2303.58c11.67-5.3,32.5-26.18,35.61-33.61,20.71-49.38,65.84-139.77,45.54-190.75-3.47-8.7-49.6-3.13-58.35-9.35-30-3-40.71-2.35-67.08-18.32-77.84-47.16,11.42-210.64-152.82-205.84-120.3,3.52-202,67.77-241-92.21S170.4,1352,25.55,1518.38c-83.16,95.49,65.19,194.87,43.83,309.81-20.29,109.21,47.83,172.13,174.2,193.57s82.57,82.79,79.95,181.28c-3.15,118.3,181.78,80.22,265.88,55.94C657.08,2239.43,841.66,2231.49,875.69,2303.58Z"/></clipPath><clipPath id="clip-path-3"><rect class="cls-1" x="1111.54" y="295.56" width="1963.91" height="1471.46" transform="translate(1047.61 3117.54) rotate(-89.6)"/></clipPath><linearGradient id="Безымянный_градиент_28-2" x1="1690.36" y1="2483.45" x2="2301.22" y2="-1421.71" xlink:href="#Безымянный_градиент_28"/><clipPath id="clip-path-4"><path class="cls-1" d="M1712.66,2243c-21.86,4.45-73.37-5.13-85.76-13.17-82.49-53.46-243.44-143.52-271.23-243.65-4.74-17.11,64.85-58.29,70.09-77.27,38-37,53.47-47.52,72.3-100.46,55.59-156.32-246-311-14.7-480.72C1652.8,1203.4,1835.45,1214,1714.27,926.34S1643.08,22,2024.45,121.11c218.86,56.88,123.32,369.38,278.38,522.75,147.35,145.73,122.36,315.75-28.14,484.94s-23.13,216.11,88.15,364.43c133.67,178.17-162.51,319.15-304.82,372.58C1943.44,1908.83,1680.68,2095.68,1712.66,2243Z"/></clipPath><clipPath id="clip-path-5"><path class="cls-1" d="M1608.12,2204.7c-22-3.94-66.28-31.89-74.82-43.94-56.88-80.17-173.12-223.36-161.92-326.67,1.91-17.64,81.8-30.18,93.68-45.88,49-20.35,67.26-24.37,104.33-66.61,109.44-124.69-113.62-379.89,164.07-452.08,203.4-52.88,369.2,24.45,363-287.58s268.22-866.59,585.92-633.51c182.33,133.76-22,388.8,65.38,588.63,83,189.88-3,338.62-205.43,440.17s-101.4,192.24-52.84,371.2c58.34,215-269,236.46-421,233.48C1946.1,1979.52,1632.88,2056,1608.12,2204.7Z"/></clipPath><linearGradient id="Безымянный_градиент_3" x1="1601.06" y1="639.92" x2="1601.06" y2="391.2" gradientTransform="matrix(1, 0, 0, -1, 0, 2691.82)" gradientUnits="userSpaceOnUse"><stop offset="0.49" stop-color="#ebeff2"/><stop offset="1" stop-color="#fff"/></linearGradient><linearGradient id="Безымянный_градиент_61" x1="2174.58" y1="2004.83" x2="1909.19" y2="241.66" gradientTransform="matrix(1, 0, 0, -1, 0, 2691.82)" gradientUnits="userSpaceOnUse"><stop offset="0" stop-color="#444b8c"/><stop offset="1" stop-color="#26264f"/></linearGradient><linearGradient id="Безымянный_градиент_61-2" x1="2352.83" y1="1978" x2="2087.44" y2="214.83" xlink:href="#Безымянный_градиент_61"/><linearGradient id="Безымянный_градиент_62" x1="2423.47" y1="975.31" x2="1284.93" y2="2417.47" gradientTransform="matrix(1, 0, 0, -1, 0, 2691.82)" gradientUnits="userSpaceOnUse"><stop offset="0" stop-color="#aa80f9"/><stop offset="1" stop-color="#6165d7"/></linearGradient><linearGradient id="Безымянный_градиент_77" x1="2453.22" y1="279.39" x2="2501.16" y2="279.39" gradientTransform="matrix(1, 0, 0, -1, 0, 2691.82)" gradientUnits="userSpaceOnUse"><stop offset="0" stop-color="#ffc444"/><stop offset="1" stop-color="#f36f56"/></linearGradient><linearGradient id="Безымянный_градиент_76" x1="2437.15" y1="201.67" x2="2419.25" y2="385.58" gradientTransform="matrix(1, 0, 0, -1, 0, 2691.82)" gradientUnits="userSpaceOnUse"><stop offset="0" stop-color="#40447e"/><stop offset="1" stop-color="#3c3b6b"/></linearGradient><linearGradient id="Безымянный_градиент_77-2" x1="2747.52" y1="181.41" x2="2793.99" y2="181.41" xlink:href="#Безымянный_градиент_77"/><linearGradient id="Безымянный_градиент_76-2" x1="2453.77" y1="203.28" x2="2435.89" y2="387.2" xlink:href="#Безымянный_градиент_76"/><linearGradient id="Безымянный_градиент_76-3" x1="2380.18" y1="474.06" x2="2795.9" y2="474.06" xlink:href="#Безымянный_градиент_76"/><linearGradient id="Безымянный_градиент_71" x1="2466.96" y1="1179.3" x2="2350.74" y2="660.76" gradientTransform="matrix(1, 0, 0, -1, 0, 2691.82)" gradientUnits="userSpaceOnUse"><stop offset="0" stop-color="#ab316d"/><stop offset="1" stop-color="#792d3d"/></linearGradient><linearGradient id="Безымянный_градиент_71-2" x1="2263.9" y1="1224.81" x2="2147.67" y2="706.27" xlink:href="#Безымянный_градиент_71"/><linearGradient id="Безымянный_градиент_77-3" x1="2459.67" y1="1394.48" x2="2477.87" y2="1232.6" xlink:href="#Безымянный_градиент_77"/><linearGradient id="Безымянный_градиент_77-4" x1="1775.54" y1="1174.44" x2="1824.39" y2="989.57" xlink:href="#Безымянный_градиент_77"/><linearGradient id="Безымянный_градиент_77-5" x1="2247.58" y1="1101.72" x2="2357.17" y2="1101.72" xlink:href="#Безымянный_градиент_77"/><linearGradient id="Безымянный_градиент_77-6" x1="2300.9" y1="1146.12" x2="2361" y2="1121.14" xlink:href="#Безымянный_градиент_77"/><linearGradient id="Безымянный_градиент_77-7" x1="2297.81" y1="1138.68" x2="2357.91" y2="1113.71" xlink:href="#Безымянный_градиент_77"/><linearGradient id="Безымянный_градиент_71-3" x1="2319.33" y1="1212.39" x2="2203.11" y2="693.85" xlink:href="#Безымянный_градиент_71"/><linearGradient id="Безымянный_градиент_77-8" x1="925.72" y1="2157.68" x2="1219.76" y2="1567.61" xlink:href="#Безымянный_градиент_77"/><linearGradient id="Безымянный_градиент_77-9" x1="1098.68" y1="1770.12" x2="1384.28" y2="1240.41" xlink:href="#Безымянный_градиент_77"/><linearGradient id="Безымянный_градиент_77-10" x1="1020.22" y1="1734.91" x2="1297.67" y2="1178.12" xlink:href="#Безымянный_градиент_77"/><linearGradient id="Безымянный_градиент_27" x1="1267.76" y1="2536.96" x2="817.46" y2="1411.21" gradientTransform="matrix(1, 0, 0, -1, 0, 2691.82)" gradientUnits="userSpaceOnUse"><stop offset="0" stop-color="#311944"/><stop offset="1" stop-color="#893976"/></linearGradient><linearGradient id="Безымянный_градиент_29" x1="984.92" y1="2101.12" x2="1192.1" y2="1716.85" gradientTransform="matrix(1, 0, 0, -1, 0, 2691.82)" gradientUnits="userSpaceOnUse"><stop offset="0" stop-color="#ff9085"/><stop offset="1" stop-color="#fb6fbb"/></linearGradient><linearGradient id="Безымянный_градиент_29-3" x1="137.99" y1="2079.16" x2="341.07" y2="1671.62" gradientTransform="translate(1290.18 2691.82) rotate(180)" xlink:href="#Безымянный_градиент_29"/><linearGradient id="Безымянный_градиент_27-2" x1="663.17" y1="1829.73" x2="861.77" y2="1782.82" xlink:href="#Безымянный_градиент_27"/><linearGradient id="Безымянный_градиент_28-3" x1="461.47" y1="1883.69" x2="631.73" y2="1567.91" gradientTransform="translate(1290.18 2691.82) rotate(180)" xlink:href="#Безымянный_градиент_28"/><linearGradient id="Безымянный_градиент_29-4" x1="411.57" y1="1862.84" x2="578.42" y2="1528.01" gradientTransform="translate(1290.18 2691.82) rotate(180)" xlink:href="#Безымянный_градиент_29"/><linearGradient id="Безымянный_градиент_61-3" x1="693.86" y1="1116.05" x2="1389.25" y2="-175.39" xlink:href="#Безымянный_градиент_61"/><linearGradient id="Безымянный_градиент_76-4" x1="905.59" y1="902.92" x2="1406.14" y2="902.92" xlink:href="#Безымянный_градиент_76"/><linearGradient id="Безымянный_градиент_61-4" x1="1477.53" y1="460.15" x2="1820.37" y2="812.74" xlink:href="#Безымянный_градиент_61"/><linearGradient id="Безымянный_градиент_61-5" x1="746.63" y1="616.85" x2="460.93" y2="1081.76" xlink:href="#Безымянный_градиент_61"/><linearGradient id="Безымянный_градиент_61-6" x1="741.21" y1="540.01" x2="1069.97" y2="540.01" xlink:href="#Безымянный_градиент_61"/><linearGradient id="Безымянный_градиент_61-7" x1="876.65" y1="814.68" x2="894.83" y2="645.86" xlink:href="#Безымянный_градиент_61"/><linearGradient id="Безымянный_градиент_61-8" x1="927.88" y1="610.76" x2="897.03" y2="326.17" xlink:href="#Безымянный_градиент_61"/><linearGradient id="Безымянный_градиент_61-9" x1="921.79" y1="645.2" x2="918.99" y2="401.27" xlink:href="#Безымянный_градиент_61"/><linearGradient id="Безымянный_градиент_61-10" x1="1249.15" y1="560.55" x2="1554.13" y2="560.55" xlink:href="#Безымянный_градиент_61"/><linearGradient id="Безымянный_градиент_61-11" x1="1369.13" y1="867.72" x2="1387.31" y2="698.89" xlink:href="#Безымянный_градиент_61"/><linearGradient id="Безымянный_градиент_61-12" x1="1429.77" y1="631.24" x2="1398.93" y2="346.66" xlink:href="#Безымянный_градиент_61"/><linearGradient id="Безымянный_градиент_61-13" x1="1423.67" y1="665.68" x2="1420.87" y2="421.75" xlink:href="#Безымянный_градиент_61"/><linearGradient id="Безымянный_градиент_62-2" x1="802.43" y1="1082.24" x2="864.76" y2="901.08" xlink:href="#Безымянный_градиент_62"/><linearGradient id="Безымянный_градиент_62-3" x1="1354.44" y1="1272.18" x2="1416.77" y2="1091.02" xlink:href="#Безымянный_градиент_62"/><linearGradient id="Безымянный_градиент_62-4" x1="841.24" y1="701.69" x2="791.25" y2="749.74" xlink:href="#Безымянный_градиент_62"/><linearGradient id="Безымянный_градиент_62-5" x1="746.04" y1="602.62" x2="696.04" y2="650.67" xlink:href="#Безымянный_градиент_62"/><linearGradient id="Безымянный_градиент_62-6" x1="745.84" y1="602.42" x2="695.85" y2="650.47" xlink:href="#Безымянный_градиент_62"/><linearGradient id="Безымянный_градиент_62-7" x1="840.8" y1="701.23" x2="790.81" y2="749.28" xlink:href="#Безымянный_градиент_62"/><linearGradient id="Безымянный_градиент_62-8" x1="665.52" y1="855.69" x2="770.71" y2="632.33" xlink:href="#Безымянный_градиент_62"/><linearGradient id="Безымянный_градиент_62-9" x1="588.31" y1="819.34" x2="693.5" y2="595.97" xlink:href="#Безымянный_градиент_62"/><linearGradient id="Безымянный_градиент_62-10" x1="550.73" y1="801.64" x2="655.92" y2="578.28" xlink:href="#Безымянный_градиент_62"/><linearGradient id="Безымянный_градиент_62-11" x1="702.02" y1="872.88" x2="807.21" y2="649.51" xlink:href="#Безымянный_градиент_62"/><linearGradient id="Безымянный_градиент_61-14" x1="1760.66" y1="648.9" x2="1456.77" y2="1144.98" xlink:href="#Безымянный_градиент_61"/><linearGradient id="Безымянный_градиент_62-12" x1="1900.2" y1="700" x2="1832.02" y2="768.18" xlink:href="#Безымянный_градиент_62"/><linearGradient id="Безымянный_градиент_62-13" x1="1781.04" y1="580.83" x2="1712.87" y2="649.01" xlink:href="#Безымянный_градиент_62"/><linearGradient id="Безымянный_градиент_62-14" x1="1782.78" y1="582.58" x2="1714.6" y2="650.76" xlink:href="#Безымянный_градиент_62"/><linearGradient id="Безымянный_градиент_62-15" x1="1897.53" y1="697.33" x2="1829.35" y2="765.51" xlink:href="#Безымянный_градиент_62"/><linearGradient id="Безымянный_градиент_62-16" x1="1680.69" y1="884.42" x2="1803.41" y2="463.66" xlink:href="#Безымянный_градиент_62"/><linearGradient id="Безымянный_градиент_62-17" x1="1616.63" y1="865.73" x2="1739.36" y2="444.97" xlink:href="#Безымянный_градиент_62"/><linearGradient id="Безымянный_градиент_62-18" x1="1543.47" y1="844.39" x2="1666.2" y2="423.63" xlink:href="#Безымянный_градиент_62"/><linearGradient id="Безымянный_градиент_62-19" x1="1752.17" y1="905.26" x2="1874.89" y2="484.5" xlink:href="#Безымянный_градиент_62"/><linearGradient id="Безымянный_градиент_61-15" x1="234.46" y1="868.68" x2="929.85" y2="-422.77" xlink:href="#Безымянный_градиент_61"/><linearGradient id="Безымянный_градиент_62-20" x1="905.59" y1="884.64" x2="1406.14" y2="884.64" xlink:href="#Безымянный_градиент_62"/><linearGradient id="Безымянный_градиент_66" x1="-2157.12" y1="1670.15" x2="-1562.06" y2="1265.96" gradientTransform="translate(-1252.96 2691.82) rotate(180)" gradientUnits="userSpaceOnUse"><stop offset="0" stop-color="#311944"/><stop offset="1" stop-color="#6b3976"/></linearGradient><linearGradient id="Безымянный_градиент_66-2" x1="-2420.26" y1="736.06" x2="-2340.14" y2="736.06" xlink:href="#Безымянный_градиент_66"/><linearGradient id="Безымянный_градиент_77-11" x1="-2382.51" y1="704.48" x2="-2262.95" y2="1063.17" gradientTransform="translate(-1252.96 2691.82) rotate(180)" xlink:href="#Безымянный_градиент_77"/><linearGradient id="Безымянный_градиент_66-3" x1="-2407.53" y1="883.21" x2="-2358.52" y2="883.21" xlink:href="#Безымянный_градиент_66"/><linearGradient id="Безымянный_градиент_77-12" x1="-2435.93" y1="748.63" x2="-2355.9" y2="988.72" gradientTransform="translate(-1252.96 2691.82) rotate(180)" xlink:href="#Безымянный_градиент_77"/><linearGradient id="Безымянный_градиент_71-4" x1="-2337.32" y1="1153.12" x2="-2277.63" y2="808.03" gradientTransform="translate(-1252.96 2691.82) rotate(180)" xlink:href="#Безымянный_градиент_71"/><linearGradient id="Безымянный_градиент_71-5" x1="-2253.03" y1="744.14" x2="-2168.16" y2="1012.75" gradientTransform="translate(-1252.96 2691.82) rotate(180)" xlink:href="#Безымянный_градиент_71"/><linearGradient id="Безымянный_градиент_71-6" x1="-2253.01" y1="744.13" x2="-2168.14" y2="1012.75" gradientTransform="translate(-1252.96 2691.82) rotate(180)" xlink:href="#Безымянный_градиент_71"/><linearGradient id="Безымянный_градиент_71-7" x1="-2133.58" y1="1187.95" x2="-2074.03" y2="843.65" gradientTransform="translate(-1252.96 2691.82) rotate(180)" xlink:href="#Безымянный_градиент_71"/><linearGradient id="Безымянный_градиент_77-13" x1="5360.28" y1="2000.82" x2="5365.67" y2="2144.43" gradientTransform="matrix(0.98, 0.18, 0.18, -0.98, -4846.18, 2281.64)" xlink:href="#Безымянный_градиент_77"/><linearGradient id="Безымянный_градиент_77-14" x1="5358.6" y1="2127.61" x2="5356.29" y2="1941.67" gradientTransform="matrix(0.98, 0.18, 0.18, -0.98, -4846.18, 2281.64)" xlink:href="#Безымянный_градиент_77"/><linearGradient id="Безымянный_градиент_76-5" x1="-725.58" y1="1192.46" x2="-494.38" y2="1192.46" gradientTransform="translate(257.03 2691.82) rotate(180)" xlink:href="#Безымянный_градиент_76"/><linearGradient id="Безымянный_градиент_76-6" x1="-873.43" y1="1338.32" x2="-721.84" y2="1187.94" gradientTransform="translate(257.03 2691.82) rotate(180)" xlink:href="#Безымянный_градиент_76"/><linearGradient id="Безымянный_градиент_76-7" x1="-873.42" y1="1338.31" x2="-721.84" y2="1187.93" gradientTransform="translate(257.03 2691.82) rotate(180)" xlink:href="#Безымянный_градиент_76"/><linearGradient id="Безымянный_градиент_77-15" x1="3869.57" y1="1238.02" x2="3792.71" y2="1165.59" gradientTransform="matrix(1, 0, 0, -1, -3031.74, 2691.82)" xlink:href="#Безымянный_градиент_77"/></defs><g id="Слой_2" data-name="Слой 2"><g id="Слой_1-2" data-name="Слой 1"><g id="Слой_2-2" data-name="Слой 2"><g id="Illustration"><path class="cls-2" d="M2724,791.48c74.13-675.1-580.38-909.64-1044.37-736.79C1211.89,229,1103.45-59.91,445.71,22.62c-666,83.57-327.86,1129-327.86,1129s106,909.08,231.51,1328.11c124.87,416.77,1320.12,266,1610.88,253.55,289.09-12.37,540.29,11.5,791.81-446.11C3003.11,1830.42,2650.15,1464.34,2724,791.48Z"/><path class="cls-3" d="M1540.9,572.47l-64.9,4.38a507.25,507.25,0,0,0-29.38-83.61l53.85-36.13a32,32,0,0,0,8.58-44.35l-.15-.22-62.8-92.4a32.57,32.57,0,0,0-44.89-9l-54.56,36.42a522.62,522.62,0,0,0-67.31-58.15l28.77-59.07a32.45,32.45,0,0,0-15.18-43.22l-101.1-49.75c-16.2-8-35.67-1.51-43.46,14.45l-29,59.27a520.51,520.51,0,0,0-87.67-17.36l-5-66.46a33.23,33.23,0,0,0-35.1-30.38l-113,6.66a32,32,0,0,0-30.39,33.53c0,.27,0,.54,0,.81l5.06,66.66a513.69,513.69,0,0,0-85,27.95L730.19,177a33.61,33.61,0,0,0-45.94-9.19l-94.59,62.12a32.07,32.07,0,0,0-9.29,44.39c.18.28.36.54.55.81l38.24,55.59a510.7,510.7,0,0,0-59.35,66.87L498.62,368c-16.57-8-36.49-1.38-44.49,14.8L404.06,484.1c-8,16.21-1,35.83,15.57,43.81L480.38,557a499.39,499.39,0,0,0-17.11,88.12L396,649.66c-18.41,1.24-32.24,16.88-30.87,34.93l8.57,112.88c1.37,18,17.41,31.63,35.82,30.34l66.71-4.7a503.7,503.7,0,0,0,29.94,85.37L451.3,945.11A32.34,32.34,0,0,0,442,989.9c.15.23.31.47.48.7l64.84,93.4a33.64,33.64,0,0,0,46.26,8.55L608.05,1056a520.81,520.81,0,0,0,69.48,59l-28.46,58.22a32.33,32.33,0,0,0,14.86,43.24l.62.29,103,48.5a33.31,33.31,0,0,0,44.08-15.39l28.08-57.67a519.2,519.2,0,0,0,89.79,16.37l4.84,63.75a32.56,32.56,0,0,0,35.09,29.83h.12l112.84-8.9a32.68,32.68,0,0,0,30.15-34.88l-4.83-63.56a513.29,513.29,0,0,0,85.51-29.79l36,52.36a32.58,32.58,0,0,0,45.19,8.35l92.54-63.1a32.22,32.22,0,0,0,8.55-44.76l-.06-.09-36.13-52.68a510.88,510.88,0,0,0,58.32-67.77l57.74,27.71a32.27,32.27,0,0,0,43.06-15l48.19-100a32.2,32.2,0,0,0-15-43h0l-57.85-28a499.76,499.76,0,0,0,16.07-87.22l64.37-4.53a31.92,31.92,0,0,0,29.66-34,2.11,2.11,0,0,0,0-.25l-8.4-110.64A32.45,32.45,0,0,0,1540.9,572.47Zm-585-198.81c181.88-11.56,339.57,124.62,353.19,304.1s-121.87,335.87-303.6,349.39c-182.84,13.6-343-122.41-356.8-303.85s124.21-338,307.2-349.64Z"/><path class="cls-4" d="M877.69,2047.9c15.29-3,46-22.85,51.81-31.34,39-56.45,118.79-157.42,110-229.41-1.5-12.29-57.36-20.32-65.79-31.17-34.37-13.76-47.15-16.4-73.4-45.54-77.5-86,75.85-266.11-118.58-314-142.41-35.06-257.4,20.4-255.86-197.4s-195-602.27-414.58-436.76c-126,95,18.86,271.11-40.3,411.34-56.22,133.25,5.19,236.26,147.33,305.29s72.53,133.26,40.23,258.58C219.82,1888,448.42,1900.05,554.44,1896.6,639.81,1893.82,859.07,1944.35,877.69,2047.9Z"/><g class="cls-5"><path class="cls-6" d="M983,1908.2l1.26-3.06C512.69,1710.56,207.69,1257.29,168.36,692.66l-3.31.22c18.65,267.6,100.36,519.7,236.32,729.05C544.3,1642,745.42,1810.17,983,1908.2Z"/><path class="cls-6" d="M235.29,1798.2c129.62-51.64,350.86-66.58,493.18-33.31l.76-3.22c-142.89-33.41-365-18.39-495.16,33.46Z"/><path class="cls-6" d="M890.85,1869l2.06-2.6c-59.45-47.31-92.69-122.85-98.81-224.53-4.49-74.56,5.43-161.17,29.5-257.43l-3.21-.81c-24.15,96.6-34.11,183.55-29.6,258.44C797,1744.68,830.63,1821,890.85,1869Z"/><path class="cls-6" d="M383.22,1391.47l2.2-2.48C278,1294.05,128.22,1276.18,21.55,1277.9l.05,3.32C127.69,1279.5,276.55,1297.24,383.22,1391.47Z"/><path class="cls-6" d="M243.62,1094.38l3.28-.44C225.24,933.86,309,786.4,360.79,712.75l-2.71-1.91C306,784.89,221.81,933.18,243.62,1094.38Z"/></g><path class="cls-7" d="M875.69,2303.58c11.67-5.3,32.5-26.18,35.61-33.61,20.71-49.38,65.84-139.77,45.54-190.75-3.47-8.7-49.6-3.13-58.35-9.35-30-3-40.71-2.35-67.08-18.32-77.84-47.16,11.42-210.64-152.82-205.84-120.3,3.52-202,67.77-241-92.21S170.4,1352,25.55,1518.38c-83.16,95.49,65.19,194.87,43.83,309.81-20.29,109.21,47.83,172.13,174.2,193.57s82.57,82.79,79.95,181.28c-3.15,118.3,181.78,80.22,265.88,55.94C657.08,2239.43,841.66,2231.49,875.69,2303.58Z"/><g class="cls-8"><path class="cls-6" d="M934,2179.57l.45-2.51C521.6,2131.17,194,1861.47,58.2,1455.62l-2.6.84c64.37,192.35,176.29,360.39,323.66,486C534.19,2074.44,726,2156.44,934,2179.57Z"/><path class="cls-6" d="M316.09,2252.33c94.05-64.45,268.11-120.8,388-125.6v-2.52C583.72,2129,409,2185.61,314.52,2250.32Z"/><path class="cls-6" d="M853.12,2169.69l1.17-2.32c-56.26-22.49-96.8-71-120.49-144.33-17.37-53.73-25.45-119.26-24-194.77l-2.72.07c-1.44,75.77,6.67,141.55,24.12,195.53C755.11,2097.85,796.13,2146.92,853.12,2169.69Z"/><path class="cls-6" d="M359.13,1923.81l1.29-2.27C257,1874,134,1891.62,49.06,1914.77l.65,2.41C134.19,1894.16,256.45,1876.62,359.13,1923.81Z"/><path class="cls-6" d="M192.62,1734.67l2.54-1c-46.9-112.91-7.25-238.18,20.55-302.8l-2.51-.85C185.24,1495,145.39,1621,192.62,1734.67Z"/></g><g class="cls-9"><path class="cls-10" d="M1712.66,2243c-21.86,4.45-73.37-5.13-85.76-13.17-82.49-53.46-243.44-143.52-271.23-243.65-4.74-17.11,64.85-58.29,70.09-77.27,38-37,53.47-47.52,72.3-100.46,55.59-156.32-246-311-14.7-480.72C1652.8,1203.4,1835.45,1214,1714.27,926.34S1643.08,22,2024.45,121.11c218.86,56.88,123.32,369.38,278.38,522.75,147.35,145.73,122.36,315.75-28.14,484.94s-23.13,216.11,88.15,364.43c133.67,178.17-162.51,319.15-304.82,372.58C1943.44,1908.83,1680.68,2095.68,1712.66,2243Z"/><g class="cls-11"><path class="cls-6" d="M1496.8,2115.59l-3.35-3.37c518.1-515.65,674.1-1282.82,417.36-2052.17l4.51-1.5c121.68,364.61,151.36,743.21,85.8,1094.85C1932.21,1523.09,1757.81,1855.8,1496.8,2115.59Z"/><path class="cls-6" d="M2426.9,1560.91c-199.92,2.51-501.11,103.73-671.41,225.65l-2.76-3.86c171-122.39,473.37-224,674.11-226.53Z"/><path class="cls-6" d="M1597.34,2013.2l-4.15-2.31c52.86-95.17,55.57-213.41,8.06-351.43-34.83-101.21-95.36-210.49-179.9-324.82l3.82-2.82c84.82,114.72,145.58,224.43,180.57,326.09C1653.71,1797.26,1650.88,1916.79,1597.34,2013.2Z"/><path class="cls-6" d="M2008.49,1103.13l-4.26-2.09c90.4-184.52,278.93-290.1,421.17-346.17l1.74,4.42C2285.68,815.05,2098.22,920,2008.49,1103.13Z"/><path class="cls-6" d="M2030.88,633.29l-4.59,1.21c-58.88-223.87-250.42-373.38-359.35-442.58l2.54-4C1779,257.48,1971.55,407.85,2030.88,633.29Z"/></g><path class="cls-7" d="M1608.12,2204.7c-22-3.94-66.28-31.89-74.82-43.94-56.88-80.17-173.12-223.36-161.92-326.67,1.91-17.64,81.8-30.18,93.68-45.88,49-20.35,67.26-24.37,104.33-66.61,109.44-124.69-113.62-379.89,164.07-452.08,203.4-52.88,369.2,24.45,363-287.58s268.22-866.59,585.92-633.51c182.33,133.76-22,388.8,65.38,588.63,83,189.88-3,338.62-205.43,440.17s-101.4,192.24-52.84,371.2c58.34,215-269,236.46-421,233.48C1946.1,1979.52,1632.88,2056,1608.12,2204.7Z"/><g class="cls-12"><path class="cls-6" d="M1454.66,2006.49l-1.86-4.36c672-287.56,1100.65-942.68,1146.52-1752.45l4.74.27C2582.32,633.72,2469.91,996.46,2279,1299,2078.28,1617,1793.23,1861.62,1454.66,2006.49Z"/><path class="cls-6" d="M2523.94,1835c-186.68-71.58-504-88.89-707.27-38.57l-1.14-4.61c204.11-50.51,522.66-33.13,710.11,38.75Z"/><path class="cls-6" d="M1585.94,1948.53l-3-3.67c84.3-68.89,130.53-177.75,137.42-323.56,5.05-106.91-10.78-230.83-47.06-368.31l4.59-1.21c36.4,138,52.28,262.35,47.21,369.74C1718.15,1768.73,1671.33,1878.75,1585.94,1948.53Z"/><path class="cls-6" d="M2304.42,1255l-3.18-3.52c152.22-138,366.42-166.41,519.32-165.92v4.75C2668.49,1089.78,2455.55,1118,2304.42,1255Z"/><path class="cls-6" d="M2498.94,826.69l-4.71-.57C2522.29,596.34,2399.6,386.61,2324,282l3.85-2.79C2403.86,384.39,2527.2,595.31,2498.94,826.69Z"/></g></g><path class="cls-13" d="M1829.82,2288.94a105.8,105.8,0,0,1-70.16-79.66l-52.11-258.08L1261.46,1967l-54.91,268.9c-7.69,37.66,23.08,75.43,58.53,89.3l186.62,73A242.52,242.52,0,0,0,1560.8,2414l394.4-33.74a24.47,24.47,0,0,0,22.12-21.68c1.34-11.63,9.42-24.68-1.57-28.33Z"/><path class="cls-14" d="M1834.23,2273.25a104.89,104.89,0,0,1-70.08-78.66l-52.1-254.84-435.18,15.66L1222,2220.89a77.66,77.66,0,0,0,48,88.16l186.43,72.1a245,245,0,0,0,109,15.62l394-33.32a24.31,24.31,0,0,0,5.52-47.32Z"/><path class="cls-13" d="M350,2122.74c-48.38,2.88-88-28.5-88-70V558.08c0-41.47,39.57-73.5,88-71.4l106.72,37.63L2587,624c35.51,1.54,64.27-8.92,64.27,26.35V1921.58c0,35.27-28.76,65.68-64.27,67.8Z"/><path class="cls-15" d="M370.11,2122.74c-48.37,2.88-87.95-28.5-87.95-70V558.08c0-41.47,39.58-73.5,87.95-71.4l2237,96.93c35.52,1.54,64.27,31.48,64.27,66.75V1921.58c0,35.27-28.75,65.68-64.27,67.8Z"/><path class="cls-16" d="M2607.11,613.52l-2237-92c-25.86-1.07-46.88,16-46.88,38.17V2050.51c0,22.15,21,38.89,46.88,37.41l2237-128.46c19-1.09,34.43-17.32,34.43-36.24v-1274C2641.55,630.28,2626.15,614.31,2607.11,613.52Z"/><path class="cls-17" d="M370.11,1960.94c-10.07.5-18.27-6.11-18.27-14.72V560.77c0-8.61,8.2-15.3,18.27-14.9l2237,88.6a14.11,14.11,0,0,1,13.46,13.92v1187.9a14.27,14.27,0,0,1-13.46,14.06Z"/><polygon class="cls-2" points="494.31 1847.94 1032.73 1825.48 1032.73 1543.19 494.31 1556.25 494.31 1847.94"/><g class="cls-18"><polygon class="cls-2" points="1936.71 1361.88 2018.52 1360.75 2018.52 762.68 1936.71 760.58 1936.71 1361.88"/><polygon class="cls-2" points="1789.1 1363.92 1872.48 1362.77 1872.48 1060.85 1789.1 1060.36 1789.1 1363.92"/><polygon class="cls-2" points="1638.59 1366 1723.61 1364.82 1723.61 697.35 1638.59 694.85 1638.59 1366"/><polygon class="cls-2" points="1485.11 1368.11 1571.81 1366.92 1571.81 792.88 1485.11 790.88 1485.11 1368.11"/><polygon class="cls-2" points="1328.57 1370.27 1416.99 1369.05 1416.99 1213.61 1328.57 1213.95 1328.57 1370.27"/><polygon class="cls-2" points="1168.87 1372.48 1259.09 1371.23 1259.09 1002.2 1168.87 1001.36 1168.87 1372.48"/><polygon class="cls-2" points="1005.91 1374.72 1097.97 1373.45 1097.97 836.21 1005.91 834.41 1005.91 1374.72"/><polygon class="cls-2" points="839.63 1377.02 933.59 1375.72 933.59 979.93 839.63 978.94 839.63 1377.02"/><polygon class="cls-2" points="669.88 1379.36 765.78 1378.04 765.78 757.76 669.88 755.46 669.88 1379.36"/><polygon class="cls-2" points="496.56 1381.75 594.5 1380.4 594.5 683.76 496.56 681 496.56 1381.75"/></g><polygon class="cls-2" points="2134.05 1781.21 2536.43 1764.42 2536.43 1723.7 2134.05 1739.37 2134.05 1781.21"/><polygon class="cls-2" points="2093.64 1241.14 2496.03 1238.75 2496.03 1198.03 2093.64 1199.3 2093.64 1241.14"/><polygon class="cls-2" points="2093.64 1169.52 2496.03 1169.04 2496.03 1128.32 2093.64 1127.68 2093.64 1169.52"/><polygon class="cls-2" points="2134.05 1723.38 2199.61 1720.89 2199.61 1656.72 2134.05 1658.93 2134.05 1723.38"/><path class="cls-17" d="M2182.62,1512c0,85.1,70,151.69,155.34,148.77,84.42-2.89,152.16-72.78,152.16-156.14s-67.74-150-152.16-148.84C2252.55,1356.91,2182.62,1426.85,2182.62,1512Z"/><path class="cls-19" d="M2191.63,1507.16c1.94-61.28,42.32-113.61,97.83-133.84a147.55,147.55,0,0,1,48.5-8.93c79.66-1.14,143.62,61.72,143.62,140.4s-64,144.6-143.62,147.28c-80.52,2.71-146.41-60.07-146.41-140.33C2191.55,1510.21,2191.55,1508.69,2191.63,1507.16Z"/><path class="cls-2" d="M2191.63,1507.16c1.94-61.28,42.32-113.61,97.83-133.84a147.55,147.55,0,0,1,48.5-8.93c79.66-1.14,143.62,61.72,143.62,140.4s-64,144.6-143.62,147.28c-80.52,2.71-146.41-60.07-146.41-140.33C2191.55,1510.21,2191.55,1508.69,2191.63,1507.16Z"/><path class="cls-15" d="M2191.63,1507.16c1.94-61.28,42.32-113.61,97.83-133.84l48.5,134.91Z"/><path class="cls-2" d="M642.19,1670.26c34.2,1.29,39.28-18.51,73-20.43,57.11-3.26,71.1,52.33,126.14,51.48,44.93-.69,56.23-38.22,100.71-34.06,33.06,3.09,39.57,25.1,71.8,28.26a77.47,77.47,0,0,0,18.94-.52v130.49l-538.43,22.46V1617.08c28.86,2.08,49.93,8.61,65,15.22C595.63,1648.21,607.68,1669,642.19,1670.26Z"/><polygon class="cls-2" points="2093.64 1070.93 2496.03 1073.08 2496.03 720.04 2093.64 708.22 2093.64 1070.93"/><polygon class="cls-2" points="496.56 1524.23 2018.52 1490.24 2018.52 1426.43 496.56 1454.02 496.56 1524.23"/><polygon class="cls-2" points="1097.97 1822.75 2018.52 1784.34 2018.52 1514.92 1097.97 1536.97 1097.97 1822.75"/><path class="cls-20" d="M2343.14,1525.08c29.77,15.12,67.17,1.24,83.54-31s5.5-70.62-24.27-85.73c-1.54-.79-3.11-1.44-4.69-2.07a378.17,378.17,0,0,0,12.49-53.8,47.11,47.11,0,0,0,5.16-.19c34-3,60.92-34.24,60.21-69.71s-28.82-61.78-62.78-58.75c-1.78.16-3.52.44-5.26.75A346.83,346.83,0,0,0,2393,1173.2c1.56-.91,3.12-1.86,4.64-2.92,29.06-20.36,38.35-60.54,20.75-89.75s-55.42-36.38-84.48-16c-1.49,1-2.89,2.17-4.28,3.32a307.4,307.4,0,0,0-37.68-35.18c1-1.57,1.89-3.16,2.74-4.83,16.37-32.24,37.75-67.45,7.75-82.1-69.41-33.88-99.19-4.87-115.56,27.36-.85,1.67-1.58,3.37-2.28,5.07A307.1,307.1,0,0,0,2134,968.5c.1-1.79.18-3.59.15-5.41-.71-35.47,9.81-54.67-24.28-55.33-74.36-1.44-99.43,30.83-98.72,66.3a52.15,52.15,0,0,0,.37,5.47,346.16,346.16,0,0,0-50.06,18.57c-.77-1.58-1.58-3.15-2.5-4.68-17.59-29.21-55.42-36.38-84.48-16s-38.35,60.54-20.75,89.74c.9,1.5,1.89,2.9,2.89,4.28a377.87,377.87,0,0,0-36,41.84c-1.44-.91-2.9-1.79-4.44-2.57-29.77-15.12-67.18-1.24-83.54,31s-5.5,70.62,24.27,85.73c1.54.78,3.11,1.44,4.69,2.07a378.49,378.49,0,0,0-12.49,53.8,49.72,49.72,0,0,0-5.16.18c-34,3-60.93,34.24-60.21,69.72s28.82,61.78,62.78,58.75c1.78-.16,3.52-.44,5.25-.75a346.74,346.74,0,0,0,14.55,51.37c-1.57.92-3.12,1.86-4.63,2.93-29.07,20.36-38.36,60.54-20.75,89.74s75.86,42.78,104.91,22.42c1.49-1-17.55-8.56-16.15-9.71a305.82,305.82,0,0,0,37.67,35.18c-1,1.57-1.88,3.16-2.74,4.83-16.37,32.24-5.5,70.62,24.28,85.73s67.16,1.24,83.53-31c.85-1.67,1.58-3.37,2.29-5.07a306.78,306.78,0,0,0,50.62,9.67c-.1,1.79-.18,3.59-.14,5.4.71,35.48,28.82,61.78,62.79,58.75s60.92-34.24,60.21-69.71a52,52,0,0,0-.38-5.47,346.16,346.16,0,0,0,50.06-18.57c.77,1.58,1.58,3.15,2.5,4.68,17.59,29.21,55.42,36.38,84.48,16s38.34-60.54,20.75-89.75c-.9-1.49-1.89-2.89-2.9-4.27a379,379,0,0,0,36.06-41.84C2340.14,1523.42,2341.6,1524.3,2343.14,1525.08ZM1972,1529.79c-108.09-54.88-147.54-194.24-88.12-311.28s195.22-167.43,303.31-112.55,147.54,194.24,88.12,311.28S2080.12,1584.67,1972,1529.79Z"/><path class="cls-21" d="M2415.37,1352.29c34-3,60.92-34.24,60.21-69.71s-28.82-61.78-62.78-58.75c-1.78.16-3.52.44-5.26.75A346.83,346.83,0,0,0,2393,1173.2c1.56-.91,3.12-1.86,4.64-2.92,29.06-20.36,65-69.55,44.51-96.8-38.92-51.71-79.18-29.33-108.24-9-1.49,1-2.89,2.17-4.28,3.31a308,308,0,0,0-37.68-35.17c1-1.57,1.89-3.16,2.74-4.83a67.67,67.67,0,0,0,3.81-53.33q-42.11,74.1-82.95,148.88c86.23,63.19,113.69,187.71,59.79,293.87-45.68,90-136.47,140.48-225.12,134.15-4,10.25-7.84,20.56-12.08,30.72-11.49,27.56-24.54,54.56-37.63,81.52q12.35,2.33,24.76,3.64c-.1,1.79-.18,3.59-.14,5.4.71,35.48,22.25,65.62,83.81,62.35,34-1.8,39.9-37.84,39.19-73.31a52,52,0,0,0-.38-5.47,346.16,346.16,0,0,0,50.06-18.57c.77,1.58,1.58,3.15,2.5,4.68,17.59,29.21,78.64,41.62,107.7,21.26s15.12-65.78-2.47-95c-.9-1.49-1.89-2.89-2.9-4.27a379,379,0,0,0,36.06-41.84c1.44.91,2.9,1.79,4.44,2.57,29.77,15.12,67.17,1.24,83.54-31s5.5-70.62-24.27-85.73c-1.54-.79-3.11-1.44-4.69-2.07a378.17,378.17,0,0,0,12.49-53.8A44.66,44.66,0,0,0,2415.37,1352.29Z"/><path class="cls-22" d="M2375.16,1528.72c29.77,15.12,67.17,1.24,83.54-31s5.5-70.62-24.27-85.73c-1.54-.78-3.12-1.44-4.69-2.07a378.17,378.17,0,0,0,12.49-53.8,47.11,47.11,0,0,0,5.16-.19c34-3,60.92-34.23,60.21-69.71s-28.82-61.78-62.78-58.75c-1.78.16-3.52.44-5.26.75a347.17,347.17,0,0,0-14.54-51.38c1.56-.91,3.12-1.85,4.64-2.92,29.06-20.36,38.35-60.54,20.75-89.75s-55.42-36.38-84.48-16c-1.49,1-2.89,2.17-4.28,3.32a307.4,307.4,0,0,0-37.68-35.18c1-1.57,1.89-3.16,2.74-4.83,16.37-32.24,5.5-70.62-24.27-85.74s-67.17-1.23-83.54,31c-.85,1.67-1.59,3.37-2.28,5.07a307.1,307.1,0,0,0-50.63-9.67c.1-1.79.18-3.59.15-5.4-.71-35.48-28.83-61.78-62.79-58.75s-60.92,34.24-60.21,69.71a54.79,54.79,0,0,0,.37,5.47,346.16,346.16,0,0,0-50.06,18.57c-.77-1.58-1.58-3.15-2.5-4.68-17.59-29.21-55.42-36.38-84.48-16s-38.35,60.54-20.75,89.75c.9,1.49,1.89,2.89,2.89,4.27a377.87,377.87,0,0,0-36,41.84c-1.44-.91-2.9-1.79-4.45-2.57-29.77-15.12-67.17-1.24-83.53,31s-5.5,70.62,24.27,85.73c1.54.78,3.11,1.44,4.69,2.07A380.21,380.21,0,0,0,1781,1287a47,47,0,0,0-5.15.19c-34,3-60.93,34.24-60.21,69.71s28.82,61.78,62.78,58.75c1.78-.16,3.52-.44,5.25-.75a346.86,346.86,0,0,0,14.55,51.38c-1.57.91-3.12,1.85-4.63,2.92-29.07,20.36-38.36,60.54-20.75,89.75s55.41,36.38,84.48,16c1.49-1.05,2.88-2.17,4.27-3.32a307.4,307.4,0,0,0,37.68,35.18,54.47,54.47,0,0,0-2.73,4.83c-16.38,32.24-5.5,70.62,24.27,85.74s67.16,1.23,83.53-31c.85-1.67,1.58-3.37,2.28-5.07a306.7,306.7,0,0,0,50.63,9.67c-.1,1.79-.18,3.59-.14,5.41.71,35.47,28.82,61.77,62.79,58.74s60.92-34.24,60.21-69.71a52,52,0,0,0-.38-5.47,346.16,346.16,0,0,0,50.06-18.57c.77,1.58,1.58,3.15,2.5,4.68,17.59,29.21,55.42,36.38,84.47,16s38.35-60.54,20.76-89.75c-.91-1.49-1.89-2.89-2.9-4.27a379,379,0,0,0,36.06-41.84C2372.16,1527.06,2373.62,1527.94,2375.16,1528.72Zm-371.11,4.71c-108.09-54.88-147.54-194.24-88.12-311.28s195.22-167.43,303.31-112.55,147.54,194.24,88.12,311.28-195.22,167.43-303.31,112.55Z"/><polygon class="cls-23" points="2453.22 2413.27 2494.16 2433.27 2501.16 2414.76 2473.57 2391.6 2453.22 2413.27"/><path class="cls-24" d="M2494.81,2417.23a6,6,0,0,1,6.48-4.76,13.61,13.61,0,0,1,8.62,3.74c4.48,4.71,3.15,11.94.71,25-2.32,12.38-3.59,18.65-9,22.35s-11.87,3-16.53,2.43c-4.27-.47-11-1.23-13.08-5.89a7.59,7.59,0,0,1,.37-6.92c2.86-4.38,9.73-1.66,13.85-6.2.65-.72,1.14-1.52,2.49-7.36C2491.8,2426.24,2493.49,2423.25,2494.81,2417.23Z"/><path class="cls-25" d="M2380.18,1957.2c-13.52,9.48-100.71,72.82-111.13,186.78-8,87.39,34.13,150.75,46.48,168.77,50.4,73.45,121.57,98.5,143.66,105.33l22.26-21.29a201,201,0,0,1,36.63-360.09c3.77-8.46,17.37-41.47,2.87-67C2502.29,1936.69,2440.83,1923,2380.18,1957.2Z"/><path class="cls-24" d="M2795.19,2532.53l3.91,6.25c0,10.67.16,19.68-9.77,15.8-9.69-3.78-35.13-9-40.77-11.31-12-4.88-23.5-13.21-24.48-18.79s33.12,0,43.76.24S2795.19,2532.53,2795.19,2532.53Z"/><path class="cls-26" d="M2780.31,2484.09l13.68,51.67s-8.78,5.19-24-8.42l-22.47-43.25Z"/><path class="cls-27" d="M2518.12,2036.7c3.77-8.46,17.38-41.47,2.87-67-17.73-31.24-73.87-45.07-131.33-17.34,13.11,37.46,9,58,.1,70-13.61,18.37-39,17.65-44.07,37.36-5.71,22.3,23.26,37,17.25,58.43-5.4,19.21-30.62,14.15-46.94,36.4-19.58,26.71-14.48,76.58,9.58,103.45,18.6,20.77,39.15,17.33,50.77,41.19,9.13,18.76-1.38,25.41,6.7,42.15,14.3,29.63,53.55,22,75.68,52.69a62.39,62.39,0,0,1,8.39,16.51l14.34-13.72a201,201,0,0,1,36.66-360.12Z"/><path class="cls-28" d="M2380.18,1968.3C2408.87,2039,2479,2172.9,2539,2262.2a1345.38,1345.38,0,0,0,214.74,247.7,56.62,56.62,0,0,0,42.14-4.79,559.45,559.45,0,0,0-27.77-89.08c-39.86-98-83.8-125.21-124.53-191.58-86.34-140.68-36.13-258.45-94.38-280.84C2525.81,1934.61,2456.17,1891.81,2380.18,1968.3Z"/><path class="cls-29" d="M2454.89,1372.88c1.6-13.52,1-7.92,2.65-21.44,8.78,4.38,112.64,58.42,128.27,176.62,11.63,88-30.31,176.35-107.29,226.06-149.63-108.42-173.47-142.72-167.31-153.9,9.39-17,86,24.27,141.77-16,29-20.88,37.84-53.29,41.16-65.39C2514.67,1444,2461,1379.91,2454.89,1372.88Z"/><path class="cls-30" d="M1804,1568.37l29.8-21.5a373.21,373.21,0,0,0,124.87,59.1c65.65,17.1,104.33,4.15,196.81-2.35,137.31-9.64,206-14.46,259.14,15.3,88.63,49.59,125.87,157.56,136.66,188.84,11.64,33.74,17.77,68.81,24.27,106,8.43,48.25,12.5,72.62,5.28,84.27-25.66,41.41-152.11,34.69-235-29.54-67.43-52.22-49.91-98.84-119.29-152.23-62.23-47.89-109.72-36.09-187.92-62.58C1975,1732.14,1889.55,1684.73,1804,1568.37Z"/><path class="cls-31" d="M2463.91,1297.62s16.42,24.49,12.8,47.48-21.82,27.78-21.82,27.78Z"/><path class="cls-32" d="M1826.16,1552.41l-16.89-21.13-23.94-22.3s-7.35,6.31,8.44,22.27a11.58,11.58,0,0,1,3.21,10c-.84,6.67-7.11,11.33-13.83,11.11l-39.65.29s22.73,21.56,60.54,15.73Z"/><path class="cls-33" d="M2251.11,1596.27a3.68,3.68,0,0,0-.8,7.23c25.4,6.66,64.79,15.84,78.17,12.68,3.89-.93,24.93-7.17,27.35-8.21,5.91-2.54-9.28-6.61-14.76-10l-6-1.2a10.5,10.5,0,0,1-4.72-11.48l3.79-15.42-24.38-6.48-6,17.79a19.93,19.93,0,0,1-18.05,13.58Z"/><path class="cls-34" d="M2312.65,1579.26c-1.9-1-17.35-2.92-19.48-11.24-2.9-11.28,7.24-25,8.51-27.22,5.29-9.25,6.62-10.5,9.07-12.07l3.42-2,.4-.15c2.18-.72,9.55-.77,11-.42,4.74,1.13,9.38,20.66,7.31,48.08.17,1,.34,2.11.5,3.18C2333.83,1580.19,2312.55,1580.24,2312.65,1579.26Z"/><path class="cls-24" d="M2298.12,1525c1.78,5.18,8.84,10.53,12,12.91a14.1,14.1,0,0,1,3,3.44,5,5,0,0,1,.46,1c1.74,5.4-6.92,11.52-5.33,14,1.15,1.76,7-.43,7.65,1.08s-4.26,4.25-3.56,6c.52,1.29,3.51.18,5.34,2.19.9,1,.61,1.76,1.53,4.77a26.13,26.13,0,0,0,1.84,4.6c2.83,5.06,11.11,7.07,12.76,5.11.46-.55.09-1,.58-2.88a15,15,0,0,1,1.72-3.7c1.78-2.82,6-4.77,10.25-7.7,7.89-5.42,10.11-10.14,10.78-11.73.08-.18.14-.35.2-.5s.21-.54.3-.81c1.78-5.77-2.78-12-5.25-14.9a79.59,79.59,0,0,0-18.14-15.65c-2.37-1.48-25.37-15.67-33.8-8.65C2297.44,1516,2296.91,1521.47,2298.12,1525Z"/><path class="cls-35" d="M2311.35,1554.37c2.15-2.82,5.75,0,5.69,3.66s-3.74,7.48-7.21,6.67S2308.46,1558.16,2311.35,1554.37Z"/><path class="cls-36" d="M2476,1973.8c-21.91-26.57,10.41-79-20.44-109.84-22.37-22.34-47.71-3-79.18-25.54-41.84-29.92-18-86.2-56.2-102.18-40.31-16.88-76.32,22.39-127.72,2.56-33.87-13.08-27.85-33.85-61.3-53.65-58-34.33-109.68,8.3-189-2.55a197.93,197.93,0,0,1-44.66-11.58c52.1,45.08,101,69.06,141.17,82.67,78.2,26.49,125.69,14.69,187.92,62.58,69.38,53.39,51.86,100,119.29,152.23,82.94,64.23,209.39,71,235.05,29.54,3-4.83,4-11.88,3.63-21.86C2518.46,1995.23,2488.55,1989,2476,1973.8Z"/><path class="cls-37" d="M1389.4,1064.62c0-102-94.06-181.57-206.09-177.93-63.8,2.08-119.3,30.84-154,73.3h0c-.22.26-.42.54-.63.8-.6.74-1.18,1.5-1.77,2.25q-1.62,2.06-3.15,4.15-.91,1.23-1.8,2.49c-1,1.39-2,2.8-2.9,4.22-.54.81-1.09,1.62-1.61,2.44q-1.59,2.46-3.07,5c-.36.6-.74,1.2-1.1,1.81-1.31,2.26-2.57,4.56-3.78,6.88-.32.61-.62,1.24-.93,1.86-.88,1.75-1.74,3.5-2.55,5.27-.41.86-.79,1.74-1.17,2.62q-1,2.34-2,4.73c-.37.92-.74,1.84-1.1,2.77-.62,1.63-1.21,3.27-1.79,4.92-.31.87-.61,1.73-.91,2.6-.68,2.07-1.31,4.17-1.92,6.27-.12.44-.27.88-.39,1.32-.7,2.54-1.33,5.11-1.91,7.69-.17.76-.31,1.53-.47,2.29q-.57,2.79-1.08,5.59c-.16,1-.3,1.91-.44,2.87q-.4,2.6-.72,5.22-.18,1.5-.33,3c-.19,1.84-.33,3.69-.46,5.55,0,.87-.13,1.73-.17,2.6-.14,2.71-.22,5.44-.22,8.19,0,65.43,39.62,123.15,99,154q8.19,4.27,16.88,7.84,4.35,1.79,8.82,3.39a218.42,218.42,0,0,0,67.61,12.67h0c3.3.1,6.58.11,9.85.06,1.1,0,2.18-.07,3.29-.11,2.16-.06,4.32-.12,6.46-.25,1.31-.07,2.61-.19,3.92-.29,1.91-.14,3.83-.29,5.73-.48,1.39-.15,2.77-.32,4.16-.49,1.79-.22,3.59-.44,5.37-.7,1.43-.21,2.84-.44,4.25-.68q2.6-.42,5.16-.91c1.43-.27,2.86-.56,4.28-.86q2.51-.54,5-1.12c1.42-.34,2.84-.68,4.25-1,1.64-.42,3.26-.87,4.89-1.33,1.39-.39,2.79-.79,4.17-1.21.51-.16,1-.29,1.55-.45h0C1333.11,1209.05,1389.4,1143.23,1389.4,1064.62Z"/><path class="cls-38" d="M1374,1064.65c0,101.7-93.58,181.42-205,178.16-107.32-3.14-191.42-82.56-191.42-177.51s84.1-174.65,191.42-178.14C1280.42,883.54,1374,962.94,1374,1064.65Z"/><path class="cls-15" d="M1156.14,960.14l-30,55.25-60.58,7.27c-8.74,1-12.88,11.95-7,18.48l40.91,45.51-14,62.64c-2,9.21,6.88,16.83,15.14,12.87l57-27.35,55.33,33.58A11.34,11.34,0,0,0,1230,1157l-8.47-65.3,47.93-43.66a11.35,11.35,0,0,0-5.7-19.6l-62.91-11-25.22-57C1172,952.28,1160.55,952.11,1156.14,960.14Z"/><g class="cls-39"><path class="cls-40" d="M1217.44,1198.55c-24.19-53.25.26-102.46-32.4-136.61-32.8-34.31-74.88-2.24-119.48-29.69-17-10.5-35.9-30.59-49.82-72-24,29.49-38.2,65.85-38.2,105.07,0,95,84.1,174.37,191.42,177.51a218.48,218.48,0,0,0,72-9.85A122.37,122.37,0,0,1,1217.44,1198.55Z"/></g><path class="cls-41" d="M1201.17,696.13a115.54,115.54,0,0,1-.25,11.77c-.18,1.67-.21,3.32-.47,5-.52,3.27-1.08,6.51-1.89,9.68-.4,1.59-.79,3.18-1.24,4.75-.32,1-.64,2.08-1,3.12-8.1,24.26-24.59,45.29-46.57,61-.48.34-.93.68-1.4,1a153.57,153.57,0,0,1-24.46,13.86l-1.63.72q-5.74,2.52-11.79,4.64c-1.71.6-3.46,1.17-5.2,1.71-1.17.38-2.35.73-3.54,1.07q-2.64.78-5.36,1.45c-1.19.3-2.4.6-3.61.87a177.42,177.42,0,0,1-47.85,4.31c-1.23-.06-2.46-.12-3.67-.2l-1-.08h-.3a21.64,21.64,0,0,1-2.3-.17l-1.16-.1-2.52-.24-1.07-.14c-.85-.08-1.73-.18-2.58-.3l-.93-.12-2.76-.37-.7-.12q-1.5-.21-3-.48c-.14,0-.27-1.42-.39-1.44-1.14-.2-2.27-2-3.38-2h0c-9.45,0-18.54-3-27.18-6.16v.65c-2.7-1-5.36-1.72-8-2.85-2.32-1-4.61-1.89-6.85-3-1.09.88-2.36,1.88-3.77,2.85a150.61,150.61,0,0,1-46.86-31.23,76.93,76.93,0,0,0,4.29-6.41c-18.61-21.2-29.53-47.26-29.53-75,0-66.61,62.8-122.51,143.69-125,2.64-.08,4.56-.1,7.17-.06,79.25,1,145.83,53.63,148.26,121.45v3.08C1200.37,694.4,1201.17,695.26,1201.17,696.13Z"/><path class="cls-42" d="M1191.15,695.67c0,71.14-68.82,126.06-151.23,125q-2.87,0-5.76-.15c-1.75-.08-3.49-.18-5.22-.32s-3.54-.28-5.28-.46a6.61,6.61,0,0,1-1.08-.12c-1.13-.12-2.24-.24-3.37-.39s-2.2-.28-3.32-.46c-1.58-.22-3.17-.48-4.74-.76-.95-.17-1.89-.33-2.82-.51a171.23,171.23,0,0,1-27.16-7.59c-2.66-1-5.26-2-7.82-3.13a151.08,151.08,0,0,1-46.86-31.27c-22.54-22.32-36-51.07-36-81.94,0-66.61,62.8-122.52,143.69-125a178.42,178.42,0,0,1,18.64.4c65.77,4.75,120.59,45.07,134.76,99.06h0c.35,1.36.69,2.73,1,4.1.1.45.19.89.28,1.34.23,1.09.46,2.18.65,3.29.29,1.62.55,3.24.76,4.88v.08c.08.62.16,1.25.22,1.87s.18,1.55.24,2.32.16,1.73.2,2.58l.06.8q.09,1.5.12,3C1191.13,693.29,1191.15,694.56,1191.15,695.67Z"/><path class="cls-42" d="M1191.15,695.67c0,71.14-68.82,126.06-151.23,125q-2.87,0-5.76-.15c-1.75-.08-3.49-.18-5.22-.32s-3.54-.28-5.28-.46a6.61,6.61,0,0,1-1.08-.12c-1.13-.12-2.24-.24-3.37-.39s-2.2-.28-3.32-.46c-1.58-.22-3.17-.48-4.74-.76-.95-.17-1.89-.33-2.82-.51a171.23,171.23,0,0,1-27.16-7.59c-2.66-1-5.26-2-7.82-3.13a151.08,151.08,0,0,1-46.86-31.27c-22.54-22.32-36-51.07-36-81.94,0-66.61,62.8-122.52,143.69-125a178.42,178.42,0,0,1,18.64.4c65.77,4.75,120.59,45.07,134.76,99.06h0c.35,1.36.69,2.73,1,4.1.1.45.19.89.28,1.34.23,1.09.46,2.18.65,3.29.29,1.62.55,3.24.76,4.88v.08c.08.62.16,1.25.22,1.87s.18,1.55.24,2.32.16,1.73.2,2.58l.06.8q.09,1.5.12,3C1191.13,693.29,1191.15,694.56,1191.15,695.67Z"/><path class="cls-15" d="M951.77,660.9h0c6.08-17.34,21.27-29.78,39.22-30,23.7-.28,43.16,20.82,43.16,47.14,0-26.32,19.69-47.89,44.3-48.19,19.1-.23,35.61,12.42,42.3,30.53h0c25.65,65.38-86.6,122.75-86.6,122.75S928.88,722.37,951.77,660.9Z"/><g class="cls-43"><path class="cls-44" d="M998.11,787.2c17.81-36.38-.19-71.2,23.93-94.83,24.87-24.36,57.73-1.38,93.82-21.54,14.16-7.9,30-23.14,41.93-54.6,20.85,21.77,33.35,49.37,33.35,79.43,0,72.79-72,128.62-157,124.87a175.22,175.22,0,0,1-53-10.56A77.94,77.94,0,0,0,998.11,787.2Z"/></g><path class="cls-45" d="M794.75,788.51c65.4,2,120.34,41.94,131,92.49v.2c.58,2.76,1,5.56,1.34,8.39l.06.56c.13,1.32.24,2.64.31,4v.72c.06,1.36.11,2.73.11,4.1,0,58.74-60,103.26-132.94,99.48-1.94-.1-3.87-.24-5.79-.4h-.57c-1.81-.16-3.62-.36-5.41-.58l-.84-.11c-1.74-.22-3.47-.47-5.18-.75l-1-.15c-1.69-.29-3.36-.59-5-.92l-1-.21c-1.65-.34-3.3-.7-4.93-1.09L764,994q-2.43-.59-4.83-1.25l-.85-.24c-1.44-.41-2.86-.84-4.27-1.28l-1.08-.34c-1.43-.46-2.85-.95-4.26-1.45l-.92-.31h0c-48.52-17.5-82.63-56.88-82.63-100.93C665.26,830.91,722.82,786.3,794.75,788.51Z"/><path class="cls-46" d="M651.42,888.13c0,57.22,57.55,106.58,129.48,110.3,73,3.78,132.94-40.74,132.94-99.48s-60-108.2-132.94-110.44C709,786.3,651.42,830.91,651.42,888.13Z"/><path class="cls-15" d="M734.2,870.13c0,16.8,19.56,56.76,33.37,82.89,5.76,10.89,20.92,11.62,26.7,1.26,13.92-25,33.78-63.52,33.78-80.48,0-26.17-21.17-48.11-47.15-49a44.89,44.89,0,0,0-46.67,43C734.2,868.6,734.19,869.37,734.2,870.13Zm21.57.85a24.11,24.11,0,0,1,23.85-24.36c.43,0,.85,0,1.28,0A26.5,26.5,0,0,1,806.16,873a24.12,24.12,0,0,1-23.85,24.36l-1.41,0A26.49,26.49,0,0,1,755.77,871Z"/><g class="cls-43"><path class="cls-47" d="M749.15,970.14c15.75-30.18-.17-59.79,21.14-78.89,21.73-19.48,50.13.62,80.86-14.81,11.94-6,25.24-17.85,35.15-43,17.26,18.48,27.54,41.22,27.54,65.49,0,58.74-60,103.26-132.94,99.48A162.8,162.8,0,0,1,734,989.05,64.44,64.44,0,0,0,749.15,970.14Z"/></g><path class="cls-48" d="M1948.8,2362.59l-123.36-600.53c-24.48-119.21-138.5-192.52-251.45-159.79l-51,14.79a204.32,204.32,0,0,1-56.4,8.07l-114,.25-468.91,1-123.48.27a237.74,237.74,0,0,1-62.62-8.28L640,1602.79c-130.44-35.33-266.63,45-296.49,177.09L189.72,2460.39c-25.73,113.8,39,222.58,150,253.81h0c123.56,34.74,257-42.53,291.07-166.47l52.82-192.45c11-39.93,47-68.86,87.85-70.74L1456.3,2253c37-1.7,69.34,22.58,79.11,59.29l46.7,175.5c29.74,111.77,144,165.85,246.44,118.31h0C1918,2564.61,1969,2460.84,1948.8,2362.59Z"/><path class="cls-49" d="M1348.67,1941.9l-381.46,10.65c-34,.94-61.62-30.42-61.62-70.07v-256l500.55-1.25v246C1406.14,1909.41,1380.47,1941,1348.67,1941.9Z"/><path class="cls-50" d="M1661.4,2454.65c-1.2-44.81,20.14-67.89,15.58-136.36-2.13-32-8.18-123-68.17-169.47-57.48-44.52-136.89-26.81-239.6-3.9-132.35,29.52-127.22,61.21-220.12,74-135.44,18.68-183.73-43.53-282.46-11.69-49.22,15.88-86.8,47.36-115,80.47a92.2,92.2,0,0,1,19.88-3.18L1456.3,2253c37-1.7,69.34,22.58,79.11,59.29l46.7,175.5c24.14,90.7,103.94,143.4,187.9,134.65C1684.08,2554.51,1662.55,2497.33,1661.4,2454.65Z"/><path class="cls-51" d="M837.61,1880.89c0,111.25-91,204.4-204.9,208.11-115.57,3.76-210.57-85.84-210.57-200.18s95-207.56,210.57-208.22C746.55,1680,837.61,1769.63,837.61,1880.89Z"/><path class="cls-52" d="M1070,2145.67c0,89.92-72.35,166.32-162.57,170.69-91.33,4.42-166.19-66.49-166.19-158.42s74.86-168.42,166.19-170.82C997.62,1984.74,1070,2055.74,1070,2145.67Z"/><path class="cls-53" d="M1038.64,2146.84c0,72.59-58.47,134.15-131.24,137.51-73.48,3.4-133.58-53.73-133.58-127.62s60.1-135.51,133.58-137.6C980.17,2017.06,1038.64,2074.24,1038.64,2146.84Z"/><path class="cls-54" d="M1012.66,2148.3c0,50.57-40.68,93.53-91.42,96-51.35,2.48-93.45-37.39-93.45-89.08s42.1-94.71,93.45-96.06C972,2057.81,1012.66,2097.74,1012.66,2148.3Z"/><path class="cls-55" d="M995,2149c0,40.82-32.88,75.43-73.8,77.33-41.32,1.91-75.11-30.22-75.11-71.77s33.79-76.2,75.11-77.37A71.27,71.27,0,0,1,995,2145.88C995,2146.92,995,2148,995,2149Z"/><path class="cls-56" d="M1554.13,2125.58c0,86.65-67.15,160.14-150.87,164.19-84.7,4.1-154.11-64.3-154.11-152.8s69.41-162.09,154.11-164.32C1487,1970.45,1554.13,2038.93,1554.13,2125.58Z"/><path class="cls-57" d="M1525.05,2126.66c0,70-54.27,129.16-121.79,132.28-68.15,3.15-123.88-52-123.88-123.1s55.73-130.42,123.88-132.35C1470.78,2001.56,1525.05,2056.72,1525.05,2126.66Z"/><path class="cls-58" d="M1514.55,2127.82c0,50.57-40.68,93.53-91.42,96-51.35,2.49-93.45-37.38-93.45-89.08s42.1-94.7,93.45-96C1473.86,2037.33,1514.55,2077.25,1514.55,2127.82Z"/><path class="cls-59" d="M1496.92,2128.48c0,40.82-32.88,75.43-73.8,77.32-41.32,1.91-75.11-30.21-75.11-71.76s33.79-76.2,75.11-77.38a71.28,71.28,0,0,1,73.75,68.73C1496.91,2126.42,1496.92,2127.45,1496.92,2128.48Z"/><path class="cls-60" d="M837.65,1759.21h0a25,25,0,0,1-25.38-24.62v-44.85a25.5,25.5,0,0,1,25.38-25.43h0a25.1,25.1,0,0,1,25.28,24.93c0,.06,0,.12,0,.18v44.32A25.6,25.6,0,0,1,837.65,1759.21Z"/><path class="cls-61" d="M1453.17,1751.76h0c-12.77.14-23.13-10.56-23.13-23.91v-42.46c0-13.34,10.36-24.2,23.13-24.26h0c12.74-.06,23.06,10.67,23.06,24v42.32C1476.23,1740.72,1465.91,1751.62,1453.17,1751.76Z"/><path class="cls-62" d="M654.55,1736.87l-43.63.41a23.35,23.35,0,0,0-23.3,23.09V1810a22.21,22.21,0,0,0,3.89,12.59l19.73,28.85a22.9,22.9,0,0,0,19.36,9.87l4.33-.08a23.69,23.69,0,0,0,19.29-10.52l19.57-29.35a22.84,22.84,0,0,0,3.85-12.64v-49.36a22.65,22.65,0,0,0-22.81-22.49Z"/><path class="cls-63" d="M654.55,2031.9l-43.63,1.25a22.31,22.31,0,0,1-23.35-21.22c0-.31,0-.62,0-.93v-49.7a22.94,22.94,0,0,1,3.89-12.74L611.17,1919a23.91,23.91,0,0,1,19.36-10.61l4.33-.09a22.74,22.74,0,0,1,19.29,9.78l19.57,28.61a22.16,22.16,0,0,1,3.85,12.49v49.36A23.74,23.74,0,0,1,654.55,2031.9Z"/><path class="cls-64" d="M481,1866v43.33c0,12.72,10.59,22.8,23.63,22.51l51-1.12a24.16,24.16,0,0,0,12.95-4.11l29.8-20a23.27,23.27,0,0,0,10.4-19.24v-4.27a22.28,22.28,0,0,0-10.4-18.84l-29.79-18.86a23.55,23.55,0,0,0-12.95-3.61l-51,.83C491.55,1842.83,481,1853.31,481,1866Z"/><path class="cls-65" d="M781.55,1860.72v42.48a23.29,23.29,0,0,1-22.78,23.08l-49.69,1.09a22.82,22.82,0,0,1-12.71-3.5L667,1905.23a22.15,22.15,0,0,1-10.33-18.76v-4.25A23.15,23.15,0,0,1,667,1863.06l29.41-19.76a23.5,23.5,0,0,1,12.71-4l49.69-.81a22.25,22.25,0,0,1,22.77,21.71C781.54,1860.38,781.55,1860.55,781.55,1860.72Z"/><path class="cls-66" d="M664.24,1739l-43.63.41a23.35,23.35,0,0,0-23.3,23.09v49.66a22.21,22.21,0,0,0,3.89,12.59l19.73,28.85a22.87,22.87,0,0,0,19.36,9.87l4.33-.08a23.69,23.69,0,0,0,19.29-10.52l19.57-29.35a22.84,22.84,0,0,0,3.85-12.64v-49.36A22.65,22.65,0,0,0,664.55,1739Z"/><path class="cls-67" d="M664.24,2034.06l-43.63,1.25a22.31,22.31,0,0,1-23.28-21.3c0-.3,0-.6,0-.9v-49.65a22.94,22.94,0,0,1,3.89-12.74l19.73-29.61a23.91,23.91,0,0,1,19.36-10.61l4.33-.09a22.74,22.74,0,0,1,19.29,9.78l19.57,28.61a22.16,22.16,0,0,1,3.85,12.49v49.36A23.73,23.73,0,0,1,664.24,2034.06Z"/><path class="cls-68" d="M490.7,1868.19v43.33c0,12.72,10.59,22.8,23.63,22.51l51-1.12a24.34,24.34,0,0,0,13-4.1l29.8-20a23.27,23.27,0,0,0,10.4-19.24v-4.27a22.28,22.28,0,0,0-10.4-18.84l-29.8-18.88a23.52,23.52,0,0,0-13-3.61l-51,.83C501.29,1845,490.7,1855.47,490.7,1868.19Z"/><path class="cls-69" d="M791.24,1862.88v42.48a23.29,23.29,0,0,1-22.78,23.08l-49.69,1.1a22.91,22.91,0,0,1-12.71-3.51l-29.42-18.64a22.15,22.15,0,0,1-10.32-18.76v-4.25a23.19,23.19,0,0,1,10.32-19.16l29.42-19.76a23.5,23.5,0,0,1,12.71-4l49.69-.81a22.25,22.25,0,0,1,22.77,21.71C791.23,1862.54,791.24,1862.71,791.24,1862.88Z"/><path class="cls-70" d="M1472,1867.65c0,106.11,81.86,189.47,181.55,186.23,98.3-3.2,177-89.63,177-193.08s-78.69-186.87-177-186.32C1553.84,1675.05,1472,1761.53,1472,1867.65Z"/><path class="cls-71" d="M1699,1744.54c0,26.6-20.34,48.46-45.51,48.81s-45.81-21.06-45.81-47.84,20.54-48.63,45.81-48.81S1699,1717.94,1699,1744.54Z"/><path class="cls-72" d="M1699,1982.08c0,26.6-20.34,48.8-45.51,49.58s-45.81-20.29-45.81-47.06,20.54-49,45.81-49.59S1699,1955.48,1699,1982.08Z"/><path class="cls-73" d="M1540,1817.63c25.58-.4,46.25,21,46.25,47.83s-20.67,49-46.25,49.6-46.55-20.83-46.55-47.82S1514.36,1818,1540,1817.63Z"/><path class="cls-74" d="M1765.22,1814.1c24.78-.39,44.8,20.7,44.8,47.09s-20,48.24-44.8,48.8-45.08-20.52-45.08-47.08S1740.36,1814.49,1765.22,1814.1Z"/><path class="cls-75" d="M1708.78,1746.7c0,26.6-20.34,48.46-45.51,48.81s-45.81-21.06-45.81-47.84,20.54-48.63,45.81-48.81S1708.78,1720.1,1708.78,1746.7Z"/><path class="cls-76" d="M1708.78,1984.24c0,26.6-20.34,48.8-45.51,49.58s-45.81-20.29-45.81-47.06,20.54-49,45.81-49.59S1708.78,1957.64,1708.78,1984.24Z"/><path class="cls-77" d="M1549.77,1819.79c25.58-.4,46.25,21,46.25,47.83s-20.67,49-46.25,49.6-46.55-20.83-46.55-47.82S1524.1,1820.2,1549.77,1819.79Z"/><path class="cls-78" d="M1775,1816.26c24.78-.38,44.8,20.7,44.8,47.09s-20,48.24-44.8,48.8-45.08-20.52-45.08-47.08S1750.1,1816.65,1775,1816.26Z"/><path class="cls-79" d="M399.12,2637.76c3.9-49.3,70.28-56.64,83.76-118.83,18.48-85.25-93.87-128.5-83.76-220.12,9.89-89.61,126-126.71,109.09-181.16-8.42-27.05-38.65-23-79.87-60.39-57.95-52.59-71.13-126.8-74-148-18-132.21,88-231.4,107.13-249.34A342.84,342.84,0,0,1,561,1595.14c-102.21,7.1-193.65,79.45-217.46,184.78L189.72,2460.39c-25.73,113.8,39,222.58,150,253.81h0a226.39,226.39,0,0,0,105.6,3.87C406.49,2684.49,397.55,2657.92,399.12,2637.76Z"/><path class="cls-80" d="M1267.91,1854.67c-55.27-30.51-88,5.86-128.15-21.8-46.77-32.26-17.71-92.42-64.7-128.19-39.57-30.13-77.42-.57-134.61-23a141.19,141.19,0,0,1-34.86-19.92v220.75c0,39.65,27.66,71,61.62,70.07l381.46-10.65a50.09,50.09,0,0,0,22.58-6.16,156.71,156.71,0,0,1-27-12.67C1303.85,1899.2,1305.13,1875.22,1267.91,1854.67Z"/><path class="cls-81" d="M871.47,1236.65c11.19-7.26,1-28.37.39-73.72-.74-55.57,14-65.93,2.16-87.73-14.49-26.66-51-37.7-75.16-38.22-5.33-.11-6.58-3-51.25,8.55-80.48,20.84-100.63-1.5-136.67,20.82-34.82,21.56-19.58,45.18-53.39,70.47-54.81,41-112.45-3.33-151.62,31-37,32.44-37.9,115.07,1.07,160.16,44.18,51.13,123.85,35.77,177.24,25.63,11.24-2.13,68-14,127.06-57.66a338.12,338.12,0,0,0,69.41-68.87c3.35-3.77,8.58-8.34,15.48-9.07,8.29-.89,14.94,4.18,18.15,6.4C831.19,1236,860.47,1243.78,871.47,1236.65Z"/><path class="cls-7" d="M826.49,1213.35c14.39-13.11,65.75,12.16,99.8,45.71,40,39.4,36.91,71.36,71.81,120.31,17.35,24.34,47.1,57.11,99.8,85.81l-11.19,28c-25.48,1.53-75.51.63-122.18-29.84-32.43-21.17-49.11-49.23-81.15-104.47C851.22,1303.41,808.55,1229.74,826.49,1213.35Z"/><path class="cls-82" d="M1150.9,1955.74l-40.1-24.09h-18.09s-6.17,22.95-5.47,24.09c8.06,13.21,45.6,23.26,69,24.1,3.89.13,9.31.15,10.72-2.67C1169.36,1972.4,1158.75,1962.39,1150.9,1955.74Z"/><path class="cls-83" d="M1110.09,1905.36c-2.57,14.91.69,22.69,4.2,27,2.47,3.06,4.67,3.93,19.35,16.62,4.86,4.2,7.33,6.45,6.77,7.63-.65,1.34-4.93.61-14.18-1.61-20.16-4.85-30.3-7.37-32.77-12.23-2.24-4.39-.26-6.37-.39-18.34a62.83,62.83,0,0,0-3-18.2Z"/><path class="cls-84" d="M1139.08,1787.15s18.11,21.62,15.17,45.31-34.68-11-39.1-22.65-9.59-28.39-9.59-28.39S1127.81,1767.58,1139.08,1787.15Z"/><path class="cls-85" d="M1132.17,1753.33s-4.92,25.18,4.46,38.47c4.67,6.62,11,12.24,9.11,17.62-1.24,3.62-6,6.21-9.94,5.8-7.65-.78-11.88-12.5-14.87-20.76-4.41-12.21-6.87-38.32-6.87-38.32Z"/><path class="cls-86" d="M1117.73,1774.56l16.71-6.09c8.69-19.85,19.3-52.46,15.76-92.09-9.11-101.92-103.38-155.93-113.85-161.71-25.68,12.89-51.7,31.07-52.64,54-1.18,28.77,38,44,74.85,86C1080.67,1679.94,1104.3,1717.57,1117.73,1774.56Z"/><path class="cls-87" d="M1111.72,1917c18.41-71.91,13.71-130.59,8.4-164.39-8-51.09-24.35-155-93.74-193.77-15.15-8.46-36.81-16-63.21-39.57a223,223,0,0,1-44.51-54.87c-92.8-27.22-178.39-16.19-216.16,33.58-4.36,5.75-15.29,18.23-17.4,36.62-4.77,41.5,36,91.45,81.76,101.89,58.15,13.26,91.88-46.45,143.4-26.58,14.41,5.55,26.63,19.32,51.07,46.86a390.56,390.56,0,0,1,55.17,80.3c19.69,38.52,34.61,67,36.79,103.81.51,8.59.81,25.93,10.87,44.64a93,93,0,0,0,26,29.85Z"/><path class="cls-88" d="M685.1,1534.62c2.11-18.39,13-30.87,17.4-36.62,37.77-49.77,123.36-60.8,216.16-33.58a223,223,0,0,0,44.51,54.87c26.4,23.53,48.06,31.11,63.21,39.57,42.37,23.66,64.94,71.62,77.93,117-19.28-29.89-35.78-37.83-48.55-38-18.27-.21-26.44,15.42-48.26,13.29-23.33-2.28-28.66-21.57-47.57-23.79-5.66-.66-12.62.21-21,4.67-11.16-11.69-19.48-18.61-28.68-22.15-51.52-19.87-85.25,39.84-143.4,26.58C721.11,1626.07,680.33,1576.12,685.1,1534.62Z"/><path class="cls-89" d="M1063.65,1591a305.71,305.71,0,0,0-46.19,1c-92.59,9.15-118.12,55-194.64,66.12-18.1,2.65-98.7,14.42-133.61-32.18-25.06-33.45-21.27-91.09,6.14-113.76,11.61-9.59,23.09-9.33,97.39-8.65,28,.25,56,.34,83.94.7,118.45,1.51,141.1-6.7,162.65,12.89C1049.38,1526.33,1064.08,1546,1063.65,1591Z"/><path class="cls-7" d="M813.6,1211s-138.21-40.31-152.55,60.88c-13.74,97,56.66,141.48,24.63,239.72-3.71,11.38,263.1-40.78,263.1-40.78-35.62-44.43-43.9-81.09-44.75-106.57-.93-28,7.12-40.65,0-73.68,0,0-7.94-36.85-36.61-68.5C863.31,1217.53,858.4,1212.79,813.6,1211Z"/><path class="cls-90" d="M783.21,1155.11c1.12,5.24,6.84,33.38-4.68,40.62-2.49,1.57-7.29,2.47-16.88,4.26-6.28,1.18-11.55,1.9-15.26,2.35a38.38,38.38,0,0,0,7.57,19.38c15.26,19.58,45.87,14.52,50.23,13.72,15.4-2.8,30.55-7.56,34.21-10.46,5.57-4.43,10-7.75,12.54-11.13-6-2.88-18-10.47-26.06-12.95a150.37,150.37,0,0,0-16.84-4.13l-2.55-16.31Z"/><path class="cls-91" d="M782.67,1169.13s2.08,20.62,22.13,24.25c17.94,3.26,31.45-40.11,22.27-51.33-3.07-3.74-10.63-7.3-17.19-7.11-4.61.13-20.18,6.06-22.36,21.65-3.1-3.27-7-4.21-8.87-2.84-2.42,1.74-1.12,6.78-.83,7.93A14.52,14.52,0,0,0,782.67,1169.13Z"/><path class="cls-92" d="M977,1482.18l-211.54,10.3a8.89,8.89,0,0,0-7.11,4.17l-5.85,9.4a6.87,6.87,0,0,0,2.19,9.47,7,7,0,0,0,3.9,1L982.61,1508Z"/><path class="cls-93" d="M1197,1364.39l-218.54,4.23a18.33,18.33,0,0,0-15.58,9.27L887.16,1511l230.81-9.2a18.79,18.79,0,0,0,15.37-9.12l70.11-117.14a7.39,7.39,0,0,0-6.49-11.15Z"/><path class="cls-94" d="M962.84,1377.89a18.33,18.33,0,0,1,15.58-9.27l4.79-.09c.71,7,2.88,13.51,7.2,18.72,13.47,16.26,35.86,6.23,52.55,23.44,18.33,18.91,1.39,41.42,17.78,59,17.25,18.52,45.15,3.44,77.22,15.3l-4.62,7.71a18.79,18.79,0,0,1-15.37,9.12L887.16,1511Z"/><path class="cls-7" d="M782.65,1475.12q4.13-10.9,8.26-21.82c-30.43-8.34-72.52-20.67-115.69-36.09-6.76-2.42-14.79-5.41-17.42-12.52-7.38-20,39.54-40.64,57.79-84.21,16.87-40.3,7.58-96.23-12-102.84-40.74-13.75-185.23,166.1-133.62,241.92C599.14,1502.41,689.07,1509.24,782.65,1475.12Z"/><path class="cls-95" d="M790.91,1453.3c19.1-10.14,42,.26,43.44,1a57.18,57.18,0,0,1,16.48,11.82c.7,1,9,12.44,6,16.11-2.42,3-11.79.51-23.06-6.5a87.27,87.27,0,0,0-20.17-.49c-15.46,1.43-22.55,6.31-28.15,2.09-4.11-3.08-5.52-9.61-4-14.46C783,1457.61,787.67,1455,790.91,1453.3Z"/></g></g></g></g></svg>