<svg width="48" height="46" viewBox="0 0 48 46" fill="none" xmlns="http://www.w3.org/2000/svg">
<path fill-rule="evenodd" clip-rule="evenodd" d="M40.6789 14.6801C42.0189 15.6749 42.8409 17.1526 42.9809 18.7607L43.0009 19.146V34.6882C43.0009 38.6941 39.6989 41.9524 35.5609 42.1632H31.5809C29.6789 42.1268 28.1409 40.7085 28.0009 38.926L27.9809 38.6557V33.176C27.9809 32.5799 27.5189 32.0835 26.9009 31.9857L26.7209 31.9666H21.3789C20.7409 31.9857 20.2209 32.4266 20.1409 33.0016L20.1209 33.176V38.6385C20.1209 38.7516 20.0989 38.8857 20.0809 38.9816L20.0609 39.0218L20.0389 39.1541C19.8009 40.7851 18.4009 42.0291 16.6609 42.146L16.4009 42.1632H12.8209C8.64086 42.1632 5.22085 39.0218 5.00085 35.0716V19.146C5.01885 17.5149 5.76085 16.0007 7.00085 14.9466L19.4609 5.34405C22.0009 3.41013 25.5609 3.33347 28.1789 5.11405L28.5009 5.34405L40.6789 14.6801ZM40.199 34.9951L40.221 34.6884V19.1634C40.199 18.3411 39.841 17.5726 39.221 16.9995L38.961 16.7867L26.761 7.43338C25.241 6.26422 23.081 6.20863 21.481 7.22255L21.179 7.43338L9.01896 16.827C8.32096 17.3234 7.90096 18.0709 7.80096 18.8567L7.77896 19.1634V34.6884C7.77896 37.2376 9.85896 39.3267 12.501 39.4801H16.401C16.841 39.4801 17.221 39.1945 17.279 38.792L17.321 38.447L17.341 38.3492V33.1761C17.341 31.1253 18.981 29.4578 21.081 29.3026H26.721C28.859 29.3026 30.599 30.8761 30.761 32.8886V38.6559C30.761 39.0584 31.061 39.4053 31.461 39.4801H35.179C37.859 39.4801 40.039 37.5078 40.199 34.9951Z" fill="white"/>
</svg>
