<svg xmlns="http://www.w3.org/2000/svg" viewBox="0 0 126.82 151.78"><defs><style>.cls-1{fill:#ffce33;}.cls-2{fill:#2e2e2e;}.cls-3{fill:#f5f5ff;}.cls-3,.cls-4,.cls-5,.cls-6{stroke:#2e2e2e;}.cls-3,.cls-4,.cls-5,.cls-6,.cls-8{stroke-linecap:round;stroke-linejoin:round;}.cls-3,.cls-4,.cls-8{stroke-width:0.5px;}.cls-4,.cls-5,.cls-6,.cls-8{fill:none;}.cls-5{stroke-width:0.58px;}.cls-6{stroke-width:0.61px;}.cls-7{fill:#fff;}.cls-8{stroke:#fff;}</style></defs><g id="Слой_2" data-name="Слой 2"><g id="OBJECTS"><circle class="cls-1" cx="63.41" cy="60.62" r="60.62"/><path class="cls-2" d="M95.48,63.55a132.4,132.4,0,0,0-7-30.82,26.42,26.42,0,0,0-.68-4.39,25.27,25.27,0,0,0-6.37-11.48,23.84,23.84,0,0,0-13.52-7l-.51-.08c-.22,0-.43-.06-.65-.08-.41-.05-.82-.07-1.23-.1s-.66,0-1,0H64A24.47,24.47,0,0,0,40.68,28.34c-.14.6-.26,1.21-.37,1.82-5.68,12-7.62,25.78-7.4,39.17A16.49,16.49,0,0,1,37,63.23a13.82,13.82,0,0,0,0,11.48L37,75h.12l.06.14,0-.14H91.09l-.21-.52a14.46,14.46,0,0,0,2-.39c-.12-1.38-.24-2.77-.35-4.15C93.2,71,94,71.4,94.64,72.47a74.11,74.11,0,0,0-2-11.19C93.76,62,94.9,62.36,95.48,63.55Z"/><path class="cls-3" d="M75.63,88.47a11.46,11.46,0,1,1-22.89.39c0-.13,0-.26,0-.39L54,71l.17-2.25L55,57.89h18.4l.83,11.26.18,2.46Z"/><path class="cls-2" d="M75,79.93c-5.8.71-12.34-2.08-16.77-7.74a21.3,21.3,0,0,1-3.77-7.36l.52-7h18.4L74.19,69l.19,2.46Z"/><path class="cls-3" d="M79.79,40.38c-2.31,3.71-2.09,8.11.5,9.82s6.56.09,8.87-3.62,2.09-8.11-.5-9.82S82.1,36.66,79.79,40.38Z"/><path class="cls-4" d="M86.71,38.54a3.45,3.45,0,0,1,.91,5.9"/><path class="cls-3" d="M48.58,40.38c2.31,3.71,2.09,8.11-.5,9.82s-6.55.09-8.87-3.62-2.08-8.11.5-9.82S46.27,36.66,48.58,40.38Z"/><path class="cls-4" d="M41.66,38.54a3.45,3.45,0,0,0-.9,5.9"/><path class="cls-3" d="M85.91,34.24c0,.35,0,.69,0,1,0,1-.12,2-.25,3l-.14,1.4-.06.76-.1,1.1c-.06.67-.1,1.33-.15,2,0,.42,0,.83-.07,1.25-.09,1.66-.18,3.31-.4,5,0,0,0,.06,0,.08,0,.31-.09.63-.15.93h0c-.06.34-.12.67-.21,1A13.63,13.63,0,0,1,84,53.21h0a4.17,4.17,0,0,1-.17.54c-.11.36-.26.73-.4,1.1A22.76,22.76,0,0,1,82,57.71a31.55,31.55,0,0,1-9.09,9.85s0,0,0,0c-.42.3-.84.57-1.25.82a13.6,13.6,0,0,1-13.48.49,17.68,17.68,0,0,1-2.61-1.59s0,0,0,0a29.93,29.93,0,0,1-8.32-9.59c-.16-.27-.3-.53-.45-.8l-.21-.43c-.12-.23-.24-.48-.36-.73-.34-.65-.64-1.33-.92-2-.07-.19-.15-.37-.21-.56a31.5,31.5,0,0,1-1.61-8.56c0-.45-.08-.92-.11-1.37s-.08-1-.12-1.53L43,40.37c0-.15,0-.3-.07-.44a4.33,4.33,0,0,1-.08-.5c-.11-.62-.19-1.25-.26-1.9-.1-1.06-.16-2.16-.16-3.29,0-.09,0-.19,0-.29,0-.52,0-1,.05-1.54l0-.54c0-.59.12-1.17.21-1.73A27.26,27.26,0,0,1,46,20.61,24.07,24.07,0,0,1,52.82,13c.15-.12.31-.23.46-.33l.57-.38A21.43,21.43,0,0,1,56.16,11a19,19,0,0,1,7.46-1.74s0,0,0,0v0h.53c.33,0,.69,0,1,0s.86.05,1.29.11c.23,0,.46,0,.68.09l.54.09A19.07,19.07,0,0,1,72,10.94a18.68,18.68,0,0,1,3.06,1.69l.15.1A19.36,19.36,0,0,1,77,14.08a24,24,0,0,1,5.44,6.64h0c.1.15.17.3.26.45s0,0,0,0a27.51,27.51,0,0,1,2.87,8.87s0,0,0,.07c.09.56.15,1.14.2,1.73,0,.1,0,.2,0,.3,0,.58.07,1.18.07,1.78C85.91,34.05,85.91,34.15,85.91,34.24Z"/><path class="cls-2" d="M52.88,13A76,76,0,0,1,43.2,39.63l-.17.3a4.33,4.33,0,0,1-.08-.5c-.11-.62-.19-1.25-.25-1.9a31.9,31.9,0,0,1-.17-3.29c0-.09,0-.19,0-.29a25,25,0,0,1,.29-3.81,26.63,26.63,0,0,1,4.51-11.58A22.86,22.86,0,0,1,52.88,13Z"/><path class="cls-2" d="M86,34.24c0,.35,0,.69,0,1,0,1-.12,2-.25,3l-.14,1.4-.06.76c-.19-.29-.34-.55-.48-.78a76.12,76.12,0,0,1-9.72-26.9,19.36,19.36,0,0,1,1.78,1.35,24.28,24.28,0,0,1,5.7,7.1s0,0,0,0a27.51,27.51,0,0,1,2.87,8.87s0,0,0,.07A26.37,26.37,0,0,1,86,34C86,34.05,86,34.15,86,34.24Z"/><path class="cls-2" d="M85.89,32.17a4.57,4.57,0,0,1-2.15,1.24c-2.36.58-4.81-1.07-5.95-3.22s-.79-5.09-.91-7.52c-.52,3.9-3.14,7.15-6.43,9.32,2.5-2.56,3.33-6.84,2.76-10.37a10.8,10.8,0,0,1-.9,2.43A15,15,0,0,1,58.8,32.14l-6.31,0c3.09-1.57,4.84-4.86,6.4-8a30.19,30.19,0,0,1-13.23,8.91,3,3,0,0,1-3.06-.64h0v0c.05-.77.13-1.53.25-2.25A27.26,27.26,0,0,1,46,20.61,24.07,24.07,0,0,1,52.88,13c.15-.12.31-.23.46-.33l.57-.38A21.43,21.43,0,0,1,56.22,11a19,19,0,0,1,7.46-1.74s0,0,0,0v0h.53c.33,0,.69,0,1,0s.86.05,1.29.11c.23,0,.46,0,.68.09l.54.09a19.07,19.07,0,0,1,4.32,1.37,18.68,18.68,0,0,1,3.06,1.69l.15.1a19.36,19.36,0,0,1,1.78,1.35,24,24,0,0,1,5.44,6.64h0c.1.15.17.3.26.45s0,0,0,0a27.51,27.51,0,0,1,2.87,8.87s0,0,0,.07c.11.65.17,1.33.22,2Z"/><path class="cls-2" d="M79.73,26.92a25.87,25.87,0,0,1,.47,31c4.2-4,6.92-8.47,7.52-14.23a24.8,24.8,0,0,0-4.24-16.49,3.58,3.58,0,0,0-1.63-1.48A2,2,0,0,0,79.73,26.92Z"/><path class="cls-2" d="M68.57,36.86A5.69,5.69,0,0,1,71.21,35a9.77,9.77,0,0,1,3.05-.56,10.2,10.2,0,0,1,3,.41A7,7,0,0,1,80.1,36.4a19.5,19.5,0,0,1-3,.55c-1,.1-1.87.15-2.8.16s-1.84,0-2.78,0S69.67,37,68.57,36.86Z"/><path class="cls-2" d="M59.8,36.86A5.64,5.64,0,0,0,57.16,35a9.72,9.72,0,0,0-3-.56,10.14,10.14,0,0,0-3,.41,7,7,0,0,0-2.8,1.52,19.72,19.72,0,0,0,3,.55c1,.1,1.88.15,2.8.16s1.85,0,2.78,0S58.7,37,59.8,36.86Z"/><path class="cls-2" d="M68.24,45A15.25,15.25,0,0,1,70,42.72,6.59,6.59,0,0,1,72.53,41a5.06,5.06,0,0,1,3.15-.1,6.42,6.42,0,0,1,2.67,1.56l-.06,0c.42.33.85.64,1.27,1l-.29-.1s.14,0,.26,0a2.75,2.75,0,0,0,.41-.17,5.9,5.9,0,0,0,.81-.47h0a.22.22,0,0,1,.3.31,6.39,6.39,0,0,1-.71.76,3.47,3.47,0,0,1-.42.34,1.41,1.41,0,0,1-.66.28h0a.46.46,0,0,1-.23-.06l-.06,0c-.46-.27-.9-.57-1.36-.86l0,0,0,0a6,6,0,0,0-2.23-1.26,4.29,4.29,0,0,0-2.46,0,6.48,6.48,0,0,0-2.28,1.28c-.7.57-1.33,1.29-2,2a.23.23,0,0,1-.31,0A.23.23,0,0,1,68.24,45Z"/><path class="cls-2" d="M72,43.18a1.85,1.85,0,0,1,2-1.7,1.84,1.84,0,0,1-.26,3.67A1.85,1.85,0,0,1,72,43.18Z"/><path class="cls-4" d="M77.45,44.88A4.59,4.59,0,0,0,79.31,44"/><path class="cls-4" d="M68.43,42.87a6.55,6.55,0,0,1,4-3.07"/><path class="cls-2" d="M59.8,45.31c-.69-.66-1.33-1.38-2-2a6.57,6.57,0,0,0-2.28-1.28,4.33,4.33,0,0,0-2.47,0,5.94,5.94,0,0,0-2.22,1.26l0,0,0,0c-.45.29-.89.59-1.35.86l-.07,0a.37.37,0,0,1-.22.06h0a1.32,1.32,0,0,1-.66-.28,2.93,2.93,0,0,1-.43-.34,7.25,7.25,0,0,1-.7-.76.22.22,0,0,1,0-.31.23.23,0,0,1,.27,0h0a5.78,5.78,0,0,0,.8.47,2.75,2.75,0,0,0,.41.17c.13,0,.29.06.27,0l-.29.1c.41-.35.84-.66,1.26-1l0,0a6.36,6.36,0,0,1,2.67-1.56,5,5,0,0,1,3.14.1,6.63,6.63,0,0,1,2.53,1.69A15.86,15.86,0,0,1,60.13,45a.21.21,0,0,1-.05.3A.22.22,0,0,1,59.8,45.31Z"/><path class="cls-2" d="M56.33,43.18a1.84,1.84,0,1,0-1.7,2A1.84,1.84,0,0,0,56.33,43.18Z"/><path class="cls-4" d="M50.92,44.88A4.61,4.61,0,0,1,49.07,44"/><path class="cls-4" d="M59.94,42.87a6.52,6.52,0,0,0-4-3.07"/><path class="cls-2" d="M64.32,61.4c.9,0,1.79-.15,2.7-.27a17.14,17.14,0,0,0,3.06-.54L70,60a2.92,2.92,0,0,1-1.84-.76L67.93,59A5.53,5.53,0,0,0,66.16,58a2.07,2.07,0,0,0-2.07.45A2.08,2.08,0,0,0,62,58,5.6,5.6,0,0,0,60.25,59l-.22.18a3,3,0,0,1-1.85.76l-.08.61a17.93,17.93,0,0,0,3.85.73A14.49,14.49,0,0,0,64.32,61.4Z"/><path class="cls-5" d="M69.1,60.52a9.38,9.38,0,0,0,1.93-.6"/><path class="cls-5" d="M59.28,60.52a9.66,9.66,0,0,1-1.94-.6"/><path class="cls-4" d="M60.82,63.06a16.15,16.15,0,0,0,6.64.17"/><path class="cls-6" d="M61.84,53.26a3.78,3.78,0,0,0,4.69.22"/><line class="cls-4" x1="64.19" y1="42.82" x2="64.19" y2="50.41"/><path class="cls-2" d="M19.54,125.08c8.12,3.66,15.53,4.79,16.56,2.52s-4.73-7.08-12.85-10.75-15.54-4.79-16.56-2.52S11.42,121.41,19.54,125.08Z"/><path class="cls-3" d="M.25,151.53c0-.1.07-.19.1-.29l10.82-30.91,2.36-6.74L18.29,100a14.09,14.09,0,0,1,8.39-8.78,11,11,0,0,1,3.67-.64,10.3,10.3,0,0,1,3.4.58C40.13,93.39,43,101.39,40,108.58l-6.2,14.76-2.25,5.35-1.83,4.36-7.77,18.48"/><path class="cls-2" d="M6.86,114.05c1.51-1.89,8.62-.7,16.39,2.8,8.12,3.67,13.88,8.48,12.84,10.76a.66.66,0,0,1-.08.13l.08,0,9-21c3.52-8.25-.29-17.67-8.29-20.46a13.81,13.81,0,0,0-4.59-.79A15.29,15.29,0,0,0,18.77,94Z"/><path class="cls-2" d="M107.28,125.08c-8.12,3.66-15.54,4.79-16.56,2.52s4.73-7.08,12.85-10.75,15.53-4.79,16.56-2.52S115.4,121.41,107.28,125.08Z"/><path class="cls-3" d="M104.89,151.53l-8.24-19.59-1.36-3.25L93,123.34l-1.49-3.54-2.53-6-2.18-5.18c-3-7.19-.15-15.19,6.23-17.43a10.24,10.24,0,0,1,3.39-.58,10.86,10.86,0,0,1,3,.43,14,14,0,0,1,9.08,9l4.76,13.6,2.36,6.74,10.82,30.91c0,.1.07.19.1.29"/><path class="cls-2" d="M120,114.05c-1.5-1.89-8.61-.7-16.38,2.8-8.12,3.67-13.88,8.48-12.85,10.76l.09.13-.09,0-9-21C78.23,98.49,82,89.07,90,86.28a13.89,13.89,0,0,1,4.59-.79A15.29,15.29,0,0,1,108.05,94Z"/><path class="cls-2" d="M100.05,103.81l-2.56,12.24a17.64,17.64,0,0,1,1.18,3.53,18.48,18.48,0,0,1,.43,4,17.82,17.82,0,0,1-.62,4.7,17.41,17.41,0,0,1-1.43,3.7,18.39,18.39,0,0,1-3.91,5.1l-3,14.49H36l-3-14.9a18.25,18.25,0,0,1-5.52-13.09A18.55,18.55,0,0,1,28,119a19.43,19.43,0,0,1,.87-2.64l-2.54-12.59c-1.09-4.64-.88-9.18.76-12.6a9.88,9.88,0,0,1,7.09-5.63A13.72,13.72,0,0,1,37,85.3H90.72a13.16,13.16,0,0,1,2.76.28A8.53,8.53,0,0,1,99.85,91C101.26,94.45,101.16,99.08,100.05,103.81Z"/><path class="cls-7" d="M100.05,103.81c-.38,2-.72,4.1-1.13,6.15s-.78,4.09-1.21,6.13V116a18.33,18.33,0,0,1,1.54,5.57,18.62,18.62,0,0,1-.31,5.77,17.62,17.62,0,0,1-2.1,5.36A17.91,17.91,0,0,1,93.14,137a19.16,19.16,0,0,0,3.44-4.53,18.7,18.7,0,0,0,1.93-5.31,18.5,18.5,0,0,0-1.22-11.06.23.23,0,0,1,0-.14c.42-2,.89-4.07,1.34-6.11S99.57,105.84,100.05,103.81Z"/><path class="cls-7" d="M33,136.63a18,18,0,0,1-3.41-4.29,18.16,18.16,0,0,1-2-5.15,18.94,18.94,0,0,1-.3-5.52,18,18,0,0,1,1.38-5.35l0,.13c-.84-4.2-1.6-8.42-2.31-12.64,1,4.17,1.9,8.35,2.76,12.55a.2.2,0,0,1,0,.13A18.81,18.81,0,0,0,28,127.11a19.07,19.07,0,0,0,1.77,5.1A19.42,19.42,0,0,0,33,136.63Z"/><rect class="cls-2" x="49.77" y="80.82" width="27.01" height="8.22"/><path class="cls-8" d="M77.21,85.05c.08,1,.12,2.07.12,3.12,0,12.64-6.24,22.88-13.94,22.88s-14-10.24-14-22.88c0-.9,0-1.79.1-2.66"/></g></g></svg>