<svg xmlns="http://www.w3.org/2000/svg" viewBox="0 0 126.8 153.09"><defs><style>.cls-1{fill:#ffce33;}.cls-2{fill:#2e2e2e;}.cls-3,.cls-6,.cls-7,.cls-8,.cls-9{fill:none;}.cls-10,.cls-3,.cls-5,.cls-6,.cls-7,.cls-8,.cls-9{stroke:#2e2e2e;}.cls-10,.cls-3,.cls-6,.cls-7,.cls-8,.cls-9{stroke-linecap:round;stroke-linejoin:round;}.cls-3{stroke-width:0.46px;}.cls-10,.cls-4,.cls-5{fill:#f5f5ff;}.cls-5{stroke-miterlimit:10;}.cls-10,.cls-5,.cls-6{stroke-width:0.5px;}.cls-7{stroke-width:0.48px;}.cls-8{stroke-width:0.38px;}.cls-9{stroke-width:0.28px;}</style></defs><g id="Слой_2" data-name="Слой 2"><g id="OBJECTS"><circle class="cls-1" cx="63.4" cy="60.8" r="60.62"/><path class="cls-2" d="M89.45,38.33C85.61,32.76,79,29.47,77.38,22.57c-.69-2.95-.29-6.08-.59-9.11C76.08,6.13,71.07.38,64.8,0l-.37,0c-.33,0-.65,0-1,0s-.66,0-1,0L62.1,0c-6.27.36-11.28,6.11-12,13.44-.29,3,.1,6.16-.58,9.11-1.6,6.9-8.24,10.19-12.08,15.76a22,22,0,0,0-2.29,19.23c1.78,4.89,5.38,9.27,5,14.57-.25,3.81-2.57,7.13-2.73,11-.22,5.09,3.86,9.56,8.2,9.92s31.25.36,35.6,0,8.42-4.83,8.2-9.92c-.16-3.82-2.48-7.14-2.73-11-.35-5.3,3.25-9.68,5-14.57A22,22,0,0,0,89.45,38.33Z"/><path class="cls-3" d="M65.39,2.16C71.64,1.45,78,7,79.15,14.21c.54,3.26.14,6.72,1,9.89,1.94,7.17,9.42,10.41,12.1,17.24,1.65,4.2,1.18,9.24-.53,13.39a30.39,30.39,0,0,1-7.65,10.42"/><path class="cls-3" d="M71,24.46c9.73,10.39,15.39,25.8,15.13,41.21,0,2.53-.22,5.17.69,7.47.73,1.86,2.1,3.28,3,5,2.44,4.7.7,11.68-3.54,14.09"/><path class="cls-4" d="M59.12,13.57,57,11.6c-2.07-1.93-.41-4.51,3.16-4.84a36.22,36.22,0,0,1,3.76-.18c1.38,0,2.77.09,4.14.22,3.82.37,5.7,3.25,3.39,5.13l-2.42,2a6.25,6.25,0,0,1-4,1.16l-1.76,0A6.42,6.42,0,0,1,59.12,13.57Z"/><path class="cls-4" d="M48.65,18.29a20.06,20.06,0,0,1,3.6-3.59c.33-.27.68-.52,1-.77l1.11-.65,1.12-.65c.38-.2.77-.37,1.17-.54a19.6,19.6,0,0,1,5-1.34,16.51,16.51,0,0,1,5.2.15h0A17.32,17.32,0,0,1,70.76,12a19.94,19.94,0,0,1,3.55,1.92,12.7,12.7,0,0,1,1.61,1.2,14.56,14.56,0,0,1,1.51,1.32A20.66,20.66,0,0,1,80,19.51a25.32,25.32,0,0,0-2.82-2.76c-.5-.43-1-.8-1.57-1.18a12.36,12.36,0,0,0-1.63-1.07,23.88,23.88,0,0,0-3.5-1.67,19.47,19.47,0,0,0-3.71-1h0a18.73,18.73,0,0,0-9.7,1c-.39.14-.77.29-1.15.46l-1.11.56-1.12.56c-.35.22-.7.44-1,.68A25.82,25.82,0,0,0,48.65,18.29Z"/><path class="cls-5" d="M75.18,89.93a11.45,11.45,0,1,1-22.88.39c0-.13,0-.27,0-.39l1.27-17.47.16-2.25L54,66.4l.52-7.05h18.4l.82,11.26L74,73.07l.61,8.43Z"/><path class="cls-2" d="M74.56,81.5c-5.8.71-12.34-2.08-16.77-7.74A21.3,21.3,0,0,1,54,66.4l.52-7.05h18.4l.82,11.26L74,73.07Z"/><path class="cls-5" d="M79.77,41.84c-2.31,3.71-2.09,8.11.5,9.82s6.55.09,8.87-3.62,2.08-8.11-.5-9.82S82.08,38.13,79.77,41.84Z"/><path class="cls-6" d="M86.69,40a3.45,3.45,0,0,1,.9,5.9"/><path class="cls-5" d="M48.56,41.84c2.31,3.71,2.09,8.11-.5,9.82s-6.56.09-8.87-3.62-2.09-8.11.5-9.82S46.25,38.13,48.56,41.84Z"/><path class="cls-6" d="M41.64,40a3.45,3.45,0,0,0-.91,5.9"/><path class="cls-5" d="M85.52,36.7c0,.35,0,.69,0,1,0,1-.12,2-.25,3l-.14,1.4-.06.76,0,.45L85,44c-.06.67-.1,1.33-.14,2l0,.5c0,.25,0,.5,0,.75-.1,1.66-.19,3.31-.41,4.95,0,0,0,.06,0,.08,0,.31-.1.63-.16.94s-.11.67-.2,1c-.11.5-.24,1-.39,1.5,0,.18-.11.35-.17.54-.12.36-.26.73-.41,1.1a24.14,24.14,0,0,1-1.39,2.85A31.7,31.7,0,0,1,72.5,70a.06.06,0,0,1,0,0c-.42.3-.84.57-1.25.82a13.6,13.6,0,0,1-13.48.49,17.59,17.59,0,0,1-2.6-1.59,0,0,0,0,1,0,0,30.05,30.05,0,0,1-8.32-9.59c-.16-.27-.3-.53-.45-.8l-.21-.43c-.12-.23-.23-.48-.36-.73-.34-.65-.64-1.33-.91-2-.07-.19-.16-.37-.22-.56A31.5,31.5,0,0,1,43,47.1c0-.29,0-.59-.08-.89s0-.32,0-.48l-.12-1.53-.12-1.37c0-.15,0-.3-.07-.44a4.33,4.33,0,0,1-.08-.5c-.11-.62-.19-1.25-.25-1.9,0-.29-.06-.59-.08-.89q-.09-1.17-.09-2.4c0-.09,0-.19,0-.29,0-.7,0-1.4.09-2.08s.11-1.17.2-1.73a27.26,27.26,0,0,1,3.21-9.53c.41-.71.84-1.39,1.3-2.05a22.86,22.86,0,0,1,5.54-5.6c.15-.12.31-.23.46-.33l.57-.38a21.43,21.43,0,0,1,2.31-1.24,18.74,18.74,0,0,1,11-1.53l.54.09a18.75,18.75,0,0,1,4.32,1.37q.66.28,1.29.63a19,19,0,0,1,1.78,1.06l.14.1a21,21,0,0,1,1.79,1.35,23.34,23.34,0,0,1,4.5,5.12q.49.75.93,1.53c.1.15.17.3.27.47a27.51,27.51,0,0,1,2.87,8.87s0,0,0,.07c.08.56.14,1.14.19,1.73s.09,1.38.09,2.08C85.52,36.51,85.52,36.61,85.52,36.7Z"/><path class="cls-2" d="M85.52,36.7c0,.35,0,.69,0,1,0,1-.12,2-.25,3l-.14,1.4-.06.76,0,.45L85,44c-.06.67-.1,1.33-.14,2l0,.5A40.35,40.35,0,0,1,81.7,28.73a15.71,15.71,0,0,0-7.5-6.87,16.6,16.6,0,0,0-10.4-1.17,16.58,16.58,0,0,0-10.41,1.17,15.73,15.73,0,0,0-7.49,6.87,40.24,40.24,0,0,1-3,17.48c0-.16,0-.32,0-.48l-.12-1.53-.12-1.37c0-.15,0-.3-.07-.44a4.33,4.33,0,0,1-.08-.5c-.11-.62-.19-1.25-.25-1.9,0-.29-.06-.59-.08-.89q-.09-1.17-.09-2.4c0-.09,0-.19,0-.29,0-.7,0-1.4.09-2.08s.11-1.17.2-1.73a27.26,27.26,0,0,1,3.21-9.53c.41-.71.84-1.39,1.3-2.05a22.86,22.86,0,0,1,5.54-5.6c.15-.12.31-.23.46-.33l.57-.38a21.43,21.43,0,0,1,2.31-1.24,18.74,18.74,0,0,1,11-1.53l.54.09a18.75,18.75,0,0,1,4.32,1.37q.66.28,1.29.63a19,19,0,0,1,1.78,1.06l.14.1a21,21,0,0,1,1.79,1.35,23.34,23.34,0,0,1,4.5,5.12q.49.75.93,1.53c.1.15.17.3.27.47a27.51,27.51,0,0,1,2.87,8.87s0,0,0,.07c.08.56.14,1.14.19,1.73s.09,1.38.09,2.08C85.52,36.51,85.52,36.61,85.52,36.7Z"/><path class="cls-7" d="M76.19,21.64a6.56,6.56,0,0,0,5.49,5.59"/><path class="cls-7" d="M75.37,20a11,11,0,0,0,2.71,6.75A9.89,9.89,0,0,0,84.31,30"/><path class="cls-7" d="M75.5,21.44a10.94,10.94,0,0,0,2.71,6.74,9.74,9.74,0,0,0,6.22,3.23"/><path class="cls-7" d="M51.4,21.64a6.56,6.56,0,0,1-5.49,5.59"/><path class="cls-7" d="M52.22,20a11,11,0,0,1-2.71,6.75A9.89,9.89,0,0,1,43.28,30"/><path class="cls-7" d="M52.09,21.44a10.94,10.94,0,0,1-2.71,6.74,9.74,9.74,0,0,1-6.22,3.23"/><path class="cls-2" d="M69.62,38.77A5.18,5.18,0,0,1,71.86,36a7.3,7.3,0,0,1,7-.42,5.17,5.17,0,0,1,2.56,2.51c-1.23-.13-2.22-.21-3.18-.24s-1.86,0-2.77,0a26.58,26.58,0,0,0-2.74.29C71.79,38.29,70.82,38.5,69.62,38.77Z"/><path class="cls-2" d="M59,38.77c-1.2-.27-2.18-.48-3.13-.62a26.48,26.48,0,0,0-2.75-.29c-.9,0-1.81-.07-2.76,0s-2,.11-3.18.24a5.15,5.15,0,0,1,2.55-2.51,7.33,7.33,0,0,1,7,.42A5.22,5.22,0,0,1,59,38.77Z"/><path class="cls-2" d="M68.91,45.24c.29-.44.6-.86.91-1.3A6.64,6.64,0,0,1,71,42.74a6.51,6.51,0,0,1,3.11-1.32,6.88,6.88,0,0,1,3.39.42,7.51,7.51,0,0,1,1.49.84c.42.32.84.64,1.25,1l-.29-.09h0s.14,0,.26,0l.41-.17a6,6,0,0,0,.81-.48h0a.22.22,0,0,1,.3.32A6.39,6.39,0,0,1,81,44a3.66,3.66,0,0,1-.42.34,1.36,1.36,0,0,1-.66.27h0a.37.37,0,0,1-.23-.05l-.06,0c-.45-.27-.89-.57-1.33-.85A6.2,6.2,0,0,0,77,43a6.17,6.17,0,0,0-6.67,1.45c-.38.37-.74.75-1.12,1.11a.22.22,0,0,1-.31,0A.23.23,0,0,1,68.91,45.24Z"/><path class="cls-2" d="M72.55,43.64a1.84,1.84,0,1,1,1.7,2A1.84,1.84,0,0,1,72.55,43.64Z"/><path class="cls-6" d="M78.12,45.1A4.59,4.59,0,0,0,80,44.21"/><path class="cls-6" d="M69,43.18a6.55,6.55,0,0,1,4.35-2.61"/><path class="cls-2" d="M59.37,45.52c-.38-.36-.75-.74-1.12-1.11a6.13,6.13,0,0,0-3.87-1.84,6.12,6.12,0,0,0-2.81.39,6.39,6.39,0,0,0-1.27.66c-.45.28-.88.58-1.33.85l-.07,0a.36.36,0,0,1-.22.05h0a1.36,1.36,0,0,1-.66-.27A3.66,3.66,0,0,1,47.6,44a6.39,6.39,0,0,1-.71-.76.22.22,0,0,1,0-.31.24.24,0,0,1,.27,0h0a5.84,5.84,0,0,0,.8.48l.42.17c.12,0,.28.06.26,0h0l-.29.09c.4-.33.83-.65,1.24-1a7.59,7.59,0,0,1,1.5-.84,6.88,6.88,0,0,1,3.39-.42,6.55,6.55,0,0,1,3.11,1.32,6.64,6.64,0,0,1,1.17,1.2c.3.44.61.86.91,1.3a.24.24,0,0,1-.07.31A.21.21,0,0,1,59.37,45.52Z"/><path class="cls-2" d="M56.06,43.64a1.83,1.83,0,1,0-1.7,2A1.84,1.84,0,0,0,56.06,43.64Z"/><path class="cls-6" d="M50.49,45.1a4.61,4.61,0,0,1-1.85-.89"/><path class="cls-6" d="M59.59,43.18a6.55,6.55,0,0,0-4.35-2.61"/><path class="cls-6" d="M65.17,56a3.51,3.51,0,0,0,1.28-1"/><path class="cls-6" d="M63.45,56a3.43,3.43,0,0,1-1.28-1"/><line class="cls-5" x1="64.13" y1="47.18" x2="64.13" y2="53.75"/><path class="cls-2" d="M70.8,61l-.18.17h0a3.64,3.64,0,0,1-2,.22,10.57,10.57,0,0,0-2-.15,16.85,16.85,0,0,0-2.32.61h0A17.63,17.63,0,0,0,62,61.25a10.51,10.51,0,0,0-2,.15,3.59,3.59,0,0,1-2-.23L57.81,61a5.28,5.28,0,0,0,2.41-.78l.22-.16a5.32,5.32,0,0,1,1.77-1,2.22,2.22,0,0,1,2.07.41,2.25,2.25,0,0,1,2.08-.41,5.32,5.32,0,0,1,1.77,1l.22.16A5.36,5.36,0,0,0,70.8,61Z"/><path class="cls-8" d="M62.12,64.83a2.09,2.09,0,0,0,.34.08,6,6,0,0,0,1.11.2l.33,0h.43"/><path class="cls-8" d="M70.61,61.18a6.41,6.41,0,0,1-3.42,3.37,7.36,7.36,0,0,1-2.86.59H63.9l-.33,0a8.33,8.33,0,0,1-1.11-.2A6.65,6.65,0,0,1,58,61.17a3.59,3.59,0,0,0,2,.23,10.51,10.51,0,0,1,2-.15,17.63,17.63,0,0,1,2.32.61h0a16.85,16.85,0,0,1,2.32-.61,10.57,10.57,0,0,1,2,.15,3.64,3.64,0,0,0,2-.22h0L70.8,61a5.36,5.36,0,0,1-2.45-.77l-.22-.16a5.32,5.32,0,0,0-1.77-1,2.25,2.25,0,0,0-2.08.41,2.22,2.22,0,0,0-2.07-.41,5.32,5.32,0,0,0-1.77,1l-.22.16a5.28,5.28,0,0,1-2.41.78l.16.16"/><path class="cls-9" d="M70.51,61.39a8.47,8.47,0,0,1-3.1,1.18,16.52,16.52,0,0,1-3.12.29h-.83c-.41,0-.82-.06-1.21-.1s-.8-.11-1.17-.18a9.26,9.26,0,0,1-2.88-1"/><path class="cls-2" d="M19.53,126.54c8.12,3.66,15.53,4.79,16.56,2.52S31.36,122,23.24,118.32s-15.54-4.8-16.56-2.53S11.41,122.88,19.53,126.54Z"/><path class="cls-5" d="M.24,153c0-.1.07-.19.1-.29l10.82-30.91,2.36-6.74,4.76-13.6a14.09,14.09,0,0,1,8.39-8.78A11,11,0,0,1,30.34,92a10.3,10.3,0,0,1,3.4.58C40.12,94.85,43,102.85,40,110l-6.2,14.76-2.25,5.35-1.83,4.36L21.92,153"/><path class="cls-2" d="M6.85,115.52c1.51-1.9,8.62-.7,16.38,2.79,8.13,3.67,13.89,8.48,12.85,10.76a.91.91,0,0,1-.08.13l.08,0,9-21c3.52-8.26-.29-17.68-8.29-20.47A13.81,13.81,0,0,0,32.18,87a15.32,15.32,0,0,0-13.43,8.52Z"/><path class="cls-2" d="M107.27,126.54c-8.12,3.66-15.54,4.79-16.56,2.52s4.73-7.08,12.85-10.74,15.53-4.8,16.56-2.53S115.39,122.88,107.27,126.54Z"/><path class="cls-5" d="M104.88,153,96.64,133.4l-1.36-3.25L93,124.8l-1.49-3.54-2.53-6L86.83,110c-3-7.19-.15-15.19,6.23-17.43A10.24,10.24,0,0,1,96.45,92a10.86,10.86,0,0,1,3,.43,14,14,0,0,1,9.08,9l4.76,13.6,2.36,6.74,10.82,30.91c0,.1.07.19.1.29"/><path class="cls-2" d="M119.94,115.52c-1.5-1.9-8.61-.7-16.38,2.79-8.12,3.67-13.88,8.48-12.85,10.76l.09.13-.09,0-9-21C78.22,100,82,90.53,90,87.74A13.89,13.89,0,0,1,94.61,87,15.29,15.29,0,0,1,108,95.47Z"/><path class="cls-10" d="M99.69,105.12l-2.56,12.24a17.64,17.64,0,0,1,1.18,3.53,18.48,18.48,0,0,1,.43,4,17.82,17.82,0,0,1-.62,4.7,17.41,17.41,0,0,1-1.43,3.7,18.39,18.39,0,0,1-3.91,5.1l-3,14.49H35.6l-3-14.9a18.25,18.25,0,0,1-5.52-13.09,18.55,18.55,0,0,1,.56-4.5,19.43,19.43,0,0,1,.87-2.64L26,105.12c-1.09-4.64-.88-9.18.76-12.6a9.88,9.88,0,0,1,7.09-5.63,13.72,13.72,0,0,1,2.81-.28H90.36a13.16,13.16,0,0,1,2.76.28,8.53,8.53,0,0,1,6.37,5.42C100.9,95.76,100.8,100.39,99.69,105.12Z"/><path class="cls-10" d="M74.81,86l4.26.64C76.65,92.89,70.44,97.74,63.66,98c-7.28.32-14.36-4.66-16.93-11.42L52.78,86"/></g></g></svg>