<svg width="488" height="330" viewBox="0 0 488 330" fill="none" xmlns="http://www.w3.org/2000/svg">
<g clip-path="url(#clip0_51_1567)">
<path d="M43.2748 328.8C43.2748 328.8 -39.1484 262.38 23.5078 199.424C90.2174 132.398 31.1143 46.3572 121.667 11.6417C219.564 -25.8884 244.759 40.218 285.744 30.0617C367.482 9.81577 471.181 19.7851 453.929 118.129C432.271 241.579 521.124 225.834 468.352 329.207L43.2748 328.8Z" fill="#EBF3FA"/>
<g opacity="0.5">
<path opacity="0.5" d="M203.486 127.759C203.486 127.759 231.247 125.689 228.872 102.701C228.872 102.701 225.507 87.6284 217.965 80.3892C217.965 80.3892 210.911 109.337 205.951 107.594C200.99 105.85 215.988 75.9534 215.988 75.9534C215.988 75.9534 198.106 52.4185 188.615 48.7867C188.615 48.7867 191.499 81.9657 187.091 78.9818C182.683 75.9979 178.179 41.6187 178.179 41.6187C178.179 41.6187 156.533 24.9779 146.099 38.0781C135.665 51.1782 138.497 61.771 141.595 64.4788C144.694 67.1866 167.378 78.2247 165.411 81.055C163.445 83.8852 146.02 81.222 138.761 74.1297C138.761 74.1297 137.22 103.552 150.071 108.496C162.922 113.439 170.318 107.226 178.206 110.437C186.094 113.648 190.692 118.639 185.921 118.899C181.15 119.16 168.914 111.21 160.301 113.695C151.687 116.18 145.186 117.129 155.501 125.368C165.816 133.607 187.001 142.383 195.243 135.068L203.486 127.759Z" fill="#AEC3FF"/>
<path opacity="0.5" d="M154.861 48.2188C154.861 48.2188 206.956 100.455 203.486 127.759C203.486 127.759 198.498 138.243 199.261 153.534L197.189 158.224C197.189 158.224 197.791 139.034 195.243 135.065C195.243 135.074 218.121 121.36 154.861 48.2188Z" fill="#AEC3FF"/>
<path opacity="0.5" d="M199.261 153.534C199.261 153.534 201.951 173.689 188.287 189.684L186.156 187.756C186.156 187.756 197.625 168.331 197.251 155.467C196.878 142.603 199.261 153.534 199.261 153.534Z" fill="#AEC3FF"/>
</g>
<path d="M148.693 235.34C148.693 235.34 160.103 198.838 133.169 190.506C133.169 190.506 114.611 187.35 102.772 193.4C102.772 193.4 131.712 216.728 127.314 222.213C122.916 227.697 96.8231 193.741 96.8231 193.741C96.8231 193.741 61.6073 204.955 52.8414 215.29C52.8414 215.29 91.4476 228.013 85.922 232.171C80.3964 236.328 39.6467 225.081 39.6467 225.081C39.6467 225.081 10.2985 244.514 19.8087 264.319C29.319 284.124 42.6013 285.752 47.1678 283.131C51.7342 280.51 75.3295 256.982 77.5314 260.896C79.7333 264.811 68.1192 285.774 56.5884 291.528C56.5884 291.528 88.7974 308.051 100.691 294.073C112.585 280.096 109.284 267.574 116.782 259.075C124.28 250.575 132.145 247.173 130.087 253.408C128.029 259.643 113.06 271.34 111.584 283.578C110.107 295.817 107.939 304.579 122.291 295.481C136.643 286.382 156.935 263.638 152.815 249.486L148.693 235.34Z" fill="#AEC3FF"/>
<path d="M35.5118 258.146C35.5118 258.146 119.812 217.396 148.693 235.34C148.693 235.34 158.51 248.195 152.815 249.493C152.815 249.493 148.77 213.477 35.5118 258.146Z" fill="#AEC3FF"/>
<path d="M332.045 108.965C332.045 108.965 344.024 54.7388 384.44 48.7755C384.44 48.7755 392.303 47.7445 394.922 56.9923C397.541 66.2401 381.906 66.3069 372.242 70.0257C362.577 73.7444 340.047 89.5167 332.045 108.965Z" fill="#D2E0FF"/>
<path d="M331.119 98.8181C331.119 98.8181 326.917 53.8994 356.411 37.9579C356.411 37.9579 362.181 34.9562 366.468 41.2981C370.755 47.6399 358.795 52.0979 352.308 57.6671C345.821 63.2363 332.457 81.6629 331.119 98.8181Z" fill="#D2E0FF"/>
<path d="M119.995 178.926C119.995 178.926 89.7023 148.671 60.4959 163.735C60.4959 163.735 54.866 166.75 56.9512 174.101C59.0363 181.452 69.4077 174.143 77.3375 172.061C85.2673 169.979 106.675 169.817 119.995 178.926Z" fill="#AEC3FF"/>
<path d="M116.417 171.778C116.417 171.778 100.674 140.065 74.5789 143.405C74.5789 143.405 69.5224 144.133 69.3035 150.35C69.0846 156.567 78.8346 153.888 85.4257 154.523C92.0168 155.158 108.462 161.05 116.417 171.778Z" fill="#AEC3FF"/>
<path d="M367.855 138.328C367.855 138.328 346.663 125.655 356.553 108.458C356.553 108.458 364.464 97.8982 372.94 95.1815C372.94 95.1815 368.42 120.827 372.94 121.431C377.461 122.034 376.047 92.4671 376.047 92.4671C376.047 92.4671 398.358 81.0014 407.116 81.9054C407.116 81.9054 393.27 106.95 397.791 106.347C402.311 105.743 417.86 80.3979 417.86 80.3979C417.86 80.3979 440.747 75.8709 444.419 90.3538C448.09 104.837 442.158 112.078 438.768 112.982C435.377 113.886 413.623 113.588 414.188 116.603C414.753 119.618 429.445 124.448 437.638 121.725C437.638 121.725 428.597 145.551 416.732 144.353C404.868 143.155 401.192 135.301 393.846 134.698C386.5 134.094 381.126 136.208 384.805 138.319C388.483 140.43 400.91 139.011 406.842 144.398C412.775 149.784 417.579 153.104 406.561 155.518C395.543 157.932 375.766 156.422 371.81 147.371L367.855 138.328Z" fill="#AEC3FF"/>
<path d="M433.966 94.8811C433.966 94.8811 374.636 115.399 367.855 138.328C367.855 138.328 368.136 148.587 362.204 160.353V164.88C362.204 164.88 368.42 149.493 371.81 147.38C371.81 147.38 358.53 127.466 433.966 94.8811Z" fill="#AEC3FF"/>
<path d="M362.204 160.353C362.204 160.353 353.054 175.192 358.269 193.254L360.623 192.585C360.623 192.585 358.33 172.691 363.126 162.686C367.921 152.682 362.204 160.353 362.204 160.353Z" fill="#AEC3FF"/>
<path d="M160.905 328.143L185.137 328.715C186.459 327.571 184.317 324.847 182.026 324.614C181.031 324.509 179.765 324.703 178.318 324.994C178.083 320.256 176.617 298.941 169.423 299.633C161.335 300.399 169.229 308.997 171.408 314.03C173.022 317.755 174.694 323.084 175.458 325.609C174.799 325.745 174.119 325.878 173.422 325.999C172.426 322.465 168.689 310.576 163.622 311.144C157.665 311.812 159.955 316.593 164.108 319.501C167.157 321.639 170.889 324.663 172.657 326.121C171.087 326.377 169.497 326.475 167.909 326.415C163.758 326.201 161.706 327.459 160.905 328.143Z" fill="#A8D29F"/>
<path d="M443.109 328.377H415.302C413.811 327.027 416.332 323.961 418.968 323.756C420.11 323.663 421.559 323.919 423.211 324.293C423.594 318.864 425.78 294.465 434.014 295.445C443.274 296.543 434.014 306.191 431.397 311.903C429.458 316.134 427.412 322.2 426.478 325.063C427.229 325.237 428.009 325.408 428.803 325.564C430.029 321.54 434.598 308.002 440.405 308.79C447.223 309.714 444.483 315.143 439.65 318.365C436.105 320.734 431.749 324.103 429.681 325.729C431.476 326.064 433.297 326.22 435.119 326.194C439.881 326.072 442.206 327.571 443.109 328.377Z" fill="#A8D29F"/>
<path d="M247.132 51.6326L262.189 45.8496V51.6326L247.132 56.8388V51.6326Z" fill="#233862"/>
<path d="M248.512 51.343V74.9469C248.512 74.9469 239.901 77.7237 239.09 72.8648C238.278 68.006 247.05 70.7828 247.05 70.7828L247.128 51.9999L248.512 51.343Z" fill="#233862"/>
<path d="M262.189 46.5999V70.2037C262.189 70.2037 253.577 72.9805 252.766 68.1217C251.955 63.2629 260.727 66.0396 260.727 66.0396L260.804 47.259L262.189 46.5999Z" fill="#233862"/>
<path d="M295.009 133.046L311.475 128.236L311.022 134.386L294.602 138.582L295.009 133.046Z" fill="#739AF0"/>
<path d="M296.506 132.861L294.665 157.959C294.665 157.959 285.281 160.144 284.804 154.904C284.326 149.664 293.434 153.399 293.434 153.399L294.984 133.431L296.506 132.861Z" fill="#739AF0"/>
<path d="M311.417 129.035L309.573 154.131C309.573 154.131 300.19 156.318 299.715 151.078C299.239 145.839 308.343 149.573 308.343 149.573L309.894 129.603L311.417 129.035Z" fill="#739AF0"/>
<path d="M280.692 69.7741L312.05 60.7891L311.137 72.4819L279.873 80.3001L280.692 69.7741Z" fill="#F77D48"/>
<path d="M283.53 69.4377L279.808 117.149C279.808 117.149 261.961 121.213 261.085 111.243C260.21 101.274 277.508 108.467 277.508 108.467L280.636 70.5044L283.53 69.4377Z" fill="#F77D48"/>
<path d="M311.936 62.3098L308.214 110.019C308.214 110.019 290.367 114.085 289.489 104.115C288.611 94.1461 305.914 101.336 305.914 101.336L309.042 63.3764L311.936 62.3098Z" fill="#F77D48"/>
<path d="M345.339 185.593L346.173 185.275C347.926 184.597 349.356 183.207 350.152 181.408C350.948 179.609 351.047 177.547 350.425 175.671L348.903 171.122C348.27 169.248 346.968 167.718 345.281 166.867C343.595 166.015 341.661 165.912 339.904 166.579L339.069 166.897C337.318 167.575 335.888 168.964 335.091 170.763C334.295 172.561 334.196 174.623 334.818 176.499L336.342 181.049C336.975 182.922 338.277 184.452 339.963 185.304C341.649 186.155 343.582 186.26 345.339 185.593Z" fill="#ED7D2B"/>
<path d="M409.065 210.431C407.255 222.211 394.628 227.027 382.059 229.372C365.123 232.53 349.018 213.466 348.28 212.304C347.541 211.141 344.395 210.538 353.269 201.016C365.974 187.388 343.444 179.45 341.34 165.339C341.34 165.339 335.364 157.155 342.197 152.67C346.186 150.054 352.831 150.6 353.457 150.39C355.37 149.756 357.32 149.259 359.295 148.903C367.16 147.507 373.38 148.978 377.059 152.02C383.051 156.986 381.285 174.257 389.494 173.918C397.703 173.58 405.4 176.84 404.591 186.658C403.782 196.476 411.05 197.516 409.065 210.431Z" fill="#163560"/>
<path d="M404.643 185.89L403.49 184.743C404.159 181.066 403.531 177.891 401.038 175.37C398.875 173.19 396.477 172.311 393.712 173.057C387.04 174.86 385.672 173.355 385.616 173.262L385.199 173.789V172.954L385.547 172.168C385.56 172.186 387.321 174.261 393.585 172.567C396.504 171.774 399.497 172.643 401.778 174.947C404.401 177.584 405.35 182.044 404.643 185.89Z" fill="#163560"/>
<path d="M344.476 204.733C344.476 204.733 315.507 218.73 309.563 218.447C303.618 218.165 270.442 203.005 270.442 203.005L271.563 209.908C271.563 209.908 294.531 229.808 304.417 230.795C314.15 231.766 347.429 221.467 350.64 219.291C353.851 217.116 353.813 206.933 344.476 204.733Z" fill="#ED985F"/>
<path d="M342.62 219.305C345.496 221.436 349.103 223.193 353.632 224.308C370.607 228.497 377.113 213.174 379.557 202.66C377.24 201.243 375.063 200.932 373.804 200.771C372.578 200.618 371.287 200.515 370.219 200.457C368.314 198.899 365.471 192.519 364.844 182.61L364.045 182.832L350.667 186.743C350.667 186.743 351.28 191.285 351.58 195.576C351.814 198.936 350.996 201.128 350.402 201.914C349.36 202.154 349.583 203.332 349.583 203.332C349.584 203.336 349.584 203.341 349.583 203.345C346.79 208.415 344.458 213.76 342.62 219.305Z" fill="#FFB27D"/>
<path d="M350.667 186.751C350.667 186.751 351.293 191.29 351.58 195.585C359.16 194.774 362.677 187.07 364.045 182.841L350.667 186.751Z" fill="#ED985F"/>
<path d="M348.405 191.016C348.405 191.016 366.393 189.956 365.603 178C364.812 166.044 366.602 157.859 355.083 158.03C343.565 158.202 341.634 162.929 340.99 166.989C340.346 171.048 343.703 190.982 348.405 191.016Z" fill="#FFB27D"/>
<path d="M384.68 258.365C386.304 249.498 391.602 214.052 386.304 202.657C384.402 198.562 376.938 198.193 368.747 198.551C366.199 200.308 360.634 206.594 352.306 205.416C350.385 205.145 350.402 202.604 350.75 201.332C347.595 201.481 344.475 202.111 341.486 203.203C338.742 204.189 330.952 209.939 330.952 209.939C330.952 209.939 335.504 215.802 341.203 218.376C340.235 227.633 341.676 231.717 350.667 253.101C358.267 271.173 349.643 287.447 349.643 287.447C349.643 287.447 394.375 325.856 394.626 306.298C394.811 291.575 382.603 269.701 384.68 258.365Z" fill="#739AF0"/>
<path d="M347.425 329.212C346.223 329.067 345.065 328.644 344.032 327.972C342.998 327.3 342.115 326.396 341.442 325.322C341.234 324.977 340.996 324.605 340.75 324.208C335.658 315.969 333.677 290.767 322.224 263.909C319.434 257.372 309.421 256.196 306.69 248.803C306.69 248.803 299.969 224.847 319.553 224.139C339.136 223.431 372.004 290.8 372.515 297.866C373.03 304.709 385.47 333.795 347.425 329.212Z" fill="#DD6D22"/>
<path d="M269.585 328.66H297.461C297.461 328.66 298.503 323.912 296.673 320.681C295.052 317.822 295.674 316.194 296.881 313.829C295.401 314.513 293.797 314.836 292.185 314.774C290.797 314.689 289.329 314.014 288.04 313.215C286.841 314.676 281.703 320.893 280.098 322.122C278.269 323.525 270.145 323.026 269.585 328.66Z" fill="#1A2E4F"/>
<path d="M386.037 214.531C386.037 214.531 380.885 230.677 357.356 238.063C333.827 245.449 331.634 222.151 350.629 219.285C369.625 216.419 386.037 214.531 386.037 214.531Z" fill="#4868C1"/>
<path d="M306.054 231.064C304.385 244.503 297.819 286.919 286.257 307.612C282.529 314.292 295.64 318.025 295.72 318.005C297.479 317.512 300.411 314.517 301.766 313.217C311.15 304.181 330.21 278.599 330.21 258.088C330.21 248.088 330.372 228.989 323.564 224.134C319.365 221.144 306.723 225.727 306.054 231.064Z" fill="#ED7D2B"/>
<path d="M364.047 328.66C364.047 328.66 363.005 327.126 361.214 324.206C359.068 320.739 356.697 313.916 353.82 305.169C350.794 295.986 347.208 284.683 342.727 272.935C341.342 269.307 339.874 265.633 338.311 261.968C335.521 255.428 327.847 256.332 325.116 248.939C325.116 248.939 314.463 223.315 334.046 222.609C353.63 221.903 390.845 291.156 392.985 297.875C395.326 305.207 406.749 335.694 364.047 328.66Z" fill="#F99746"/>
<path d="M290.042 328.66H317.916C317.916 328.66 318.958 323.912 317.128 320.681C315.507 317.822 316.129 316.194 317.336 313.829C315.857 314.513 314.253 314.835 312.642 314.774C311.254 314.689 309.784 314.014 308.497 313.215C307.296 314.676 302.161 320.893 300.555 322.122C298.731 323.525 290.609 323.026 290.042 328.66Z" fill="#2B478B"/>
<path d="M353.82 305.172C350.794 295.988 347.208 284.685 342.727 272.937C343.897 264.03 346.422 256.236 350.667 253.101C350.667 253.101 360.97 287.179 353.82 305.172Z" fill="#ED7D2B"/>
<path d="M322.324 230.113C320.656 243.55 318.281 286.919 306.719 307.605C302.991 314.286 316.102 318.018 316.181 317.998C317.941 317.506 320.873 314.511 322.228 313.21C331.611 304.174 350.671 278.593 350.671 258.082C350.671 248.081 339.68 229.784 332.873 224.929C328.673 221.945 322.987 224.776 322.324 230.113Z" fill="#F99746"/>
<path d="M345.035 184.139C345.035 184.139 346.737 183.422 351.522 183.837C351.522 183.837 351.268 185.83 347.739 186.028C345.74 186.139 345.035 184.139 345.035 184.139Z" fill="white"/>
<path d="M290.632 217.004L276.388 219.153C275.824 219.238 275.251 219.081 274.796 218.715C274.34 218.349 274.039 217.805 273.959 217.203L270.164 188.513C270.125 188.214 270.141 187.91 270.211 187.618C270.282 187.326 270.406 187.052 270.575 186.811C270.745 186.57 270.958 186.367 271.201 186.214C271.444 186.061 271.713 185.961 271.993 185.919L286.236 183.77C286.8 183.685 287.371 183.842 287.827 184.206C288.282 184.571 288.584 185.113 288.666 185.714L292.461 214.401C292.501 214.701 292.486 215.006 292.416 215.299C292.346 215.591 292.223 215.867 292.053 216.109C291.883 216.351 291.67 216.554 291.426 216.708C291.182 216.862 290.912 216.962 290.632 217.004Z" fill="#254F82"/>
<path d="M287.777 217.436L273.534 219.585C272.969 219.67 272.396 219.512 271.941 219.146C271.485 218.779 271.185 218.235 271.105 217.632L267.314 188.945C267.274 188.646 267.29 188.342 267.36 188.05C267.431 187.758 267.554 187.484 267.724 187.243C267.894 187.002 268.107 186.799 268.35 186.646C268.594 186.493 268.863 186.392 269.142 186.351L283.386 184.202C283.95 184.117 284.523 184.274 284.979 184.64C285.434 185.006 285.735 185.55 285.815 186.152L289.61 214.842C289.689 215.446 289.541 216.058 289.197 216.545C288.853 217.031 288.343 217.352 287.777 217.436Z" fill="#163560"/>
<path d="M268.995 190.646C268.943 190.257 269.001 189.86 269.16 189.505C269.32 189.151 269.574 188.855 269.892 188.655C270.209 188.455 270.574 188.36 270.942 188.382C271.31 188.404 271.663 188.542 271.957 188.778C272.252 189.015 272.474 189.339 272.596 189.71C272.717 190.081 272.733 190.483 272.641 190.864C272.549 191.245 272.354 191.588 272.079 191.85C271.804 192.112 271.463 192.281 271.098 192.336C270.856 192.373 270.61 192.358 270.373 192.293C270.136 192.228 269.914 192.114 269.718 191.957C269.523 191.8 269.358 191.603 269.234 191.378C269.11 191.154 269.029 190.905 268.995 190.646Z" fill="#254F82"/>
<path d="M265.879 198.769C266.569 196.712 268.742 193.933 269.678 193.737C272.535 193.133 272.535 197.15 271.928 199.749C271.511 201.553 270.139 202.844 269.272 203.779L269.897 208.456C265.064 205.605 264.972 201.464 265.879 198.769Z" fill="#FFB27D"/>
<path d="M312.745 304.655C308.474 304.655 304.804 302.099 300.542 299.13C296.128 296.055 291.126 292.573 284.005 290.602C275.725 288.31 266.282 288.582 255.126 291.435C240.874 295.078 226.923 296.309 214.779 294.997C202.464 293.661 192.293 289.731 185.362 283.628C181.728 280.425 178.975 276.631 177.182 272.349C175.305 267.878 174.471 262.845 174.694 257.389L175.122 257.409C174.688 268.047 178.225 276.749 185.633 283.276C192.499 289.321 202.591 293.218 214.825 294.543C226.919 295.855 240.826 294.628 255.03 290.996C280.346 284.523 292.146 292.746 300.78 298.752C307.35 303.328 312.096 306.635 319.726 301.965C325.858 298.211 328.089 290.608 326.359 279.403C324.899 269.962 320.916 260.193 318.671 255.212C316.565 250.599 315.247 245.622 314.778 240.515C314.334 235.493 314.888 231.726 316.475 228.998C318.258 225.932 321.331 224.132 325.875 223.498C339.22 221.629 346.188 215.59 346.188 210.582C346.188 208.558 345.392 205.948 344.47 202.924C342.821 197.509 340.948 191.37 342.802 185.95L343.202 186.108C341.39 191.379 343.238 197.438 344.87 202.784C345.804 205.844 346.609 208.487 346.609 210.578C346.609 216.644 337.91 222.262 325.923 223.939C317.599 225.103 314.29 230.2 315.197 240.461C315.662 245.513 316.966 250.437 319.048 255C321.304 260.004 325.303 269.817 326.773 279.314C328.537 290.74 326.235 298.489 319.932 302.348C317.274 303.985 314.93 304.655 312.745 304.655Z" fill="#163560"/>
<path d="M346.478 210.796L346.317 210.373C351.113 208.309 355.004 205.252 357.904 201.299C360.227 198.135 361.923 194.396 362.942 190.165C363.993 185.779 364.295 181.227 363.835 176.727L364.252 176.657C364.719 181.219 364.414 185.833 363.351 190.279C362.308 194.57 360.594 198.373 358.236 201.589C355.292 205.599 351.345 208.701 346.478 210.796Z" fill="#163560"/>
<path d="M283.073 203.278C284.076 203.074 286.232 202.205 288.413 201.564C287.763 201.025 287.037 200.361 286.835 199.68C286.447 198.366 286.186 197.943 287.483 198.359C288.78 198.776 293.322 200.998 293.322 200.998C295.901 201.804 298.278 205.697 298.278 205.697C298.278 205.697 330.216 217.686 334.057 217.893C340.002 218.211 379.567 202.653 379.567 202.653C388.902 204.853 386.809 217.105 383.595 219.278C380.382 221.451 351.914 232.512 335.041 232.721C326.492 232.828 295.411 211.491 295.411 211.491C295.411 211.491 291.777 209.709 288.922 210.271C286.068 210.832 279.449 210.271 278.021 207.777C276.593 205.283 281.384 203.626 283.073 203.278Z" fill="#FFB27D"/>
<path d="M359.172 210.333C359.172 210.333 362.717 222.295 374.863 225.016C374.863 225.016 394.932 218.414 384.94 203.813C384.94 203.813 375.059 195.975 359.172 210.333Z" fill="#739AF0"/>
<path d="M341.336 165.33C341.336 165.33 344.437 166.773 349.454 164.606C354.47 162.439 355.429 166.49 355.486 168.327C355.617 172.689 359.168 172.616 359.168 172.616L368.174 166.459V155.058L353.265 151.065L340.907 155.519C340.907 155.519 340.262 161.584 341.336 165.33Z" fill="#163560"/>
<path d="M364.231 165.405L361.52 165.679C361.52 165.71 359.533 166.252 359.529 166.305C359.631 165.058 357.417 156.126 353.459 150.381C355.372 149.747 357.322 149.25 359.297 148.894C362.682 154.577 364.531 164.348 364.231 165.405Z" fill="#ED7D2B"/>
<path d="M366.358 183.209L367.208 182.952C369 182.405 370.516 181.123 371.426 179.386C372.336 177.65 372.566 175.6 372.067 173.682L370.839 169.033C370.328 167.116 369.127 165.494 367.499 164.521C365.871 163.548 363.949 163.303 362.152 163.84L361.301 164.096C359.51 164.644 357.994 165.926 357.084 167.663C356.174 169.399 355.944 171.449 356.443 173.366L357.671 178.016C358.182 179.932 359.383 181.554 361.011 182.527C362.639 183.5 364.561 183.745 366.358 183.209Z" fill="#ED7D2B"/>
<path d="M366.149 178.094L366.566 177.964C367.459 177.692 368.214 177.053 368.667 176.188C369.121 175.323 369.236 174.301 368.987 173.346L368.374 171.03C368.12 170.079 367.524 169.274 366.717 168.79C365.91 168.305 364.957 168.18 364.064 168.443L363.647 168.57C362.755 168.842 361.999 169.481 361.546 170.346C361.093 171.212 360.979 172.233 361.228 173.188L361.839 175.506C362.094 176.456 362.689 177.261 363.496 177.746C364.303 178.23 365.256 178.355 366.149 178.094Z" fill="#F99746"/>
<path d="M342.314 185.471L342.126 187.439L343.008 187.609L343.515 185.642L342.314 185.471Z" fill="#ED7D2B"/>
<path d="M363.447 182.61V185.671H364.325L364.812 182.61H363.447Z" fill="#ED7D2B"/>
<path d="M487.422 328.424H22.7279C22.4089 328.424 22.1503 328.7 22.1503 329.04V329.383C22.1503 329.724 22.4089 330 22.7279 330H487.422C487.741 330 488 329.724 488 329.383V329.04C488 328.7 487.741 328.424 487.422 328.424Z" fill="#233862"/>
</g>
<defs>
<clipPath id="clip0_51_1567">
<rect width="488" height="330" fill="white"/>
</clipPath>
</defs>
</svg>
