<svg xmlns="http://www.w3.org/2000/svg" viewBox="0 0 206.74 206.58"><defs><style>.cls-1{fill:#fff;}</style></defs><g id="Слой_2" data-name="Слой 2"><g id="Слой_1-2" data-name="Слой 1"><path class="cls-1" d="M103.45,0c3.23.63,6,1.9,7.51,5.09a8.73,8.73,0,0,1-6.06,12.39,19.28,19.28,0,0,1-4,.33q-36.91,0-73.83,0c-2.66,0-5.08.45-7,2.43A8,8,0,0,0,17.6,25.8c0,.47,0,.94,0,1.41q0,76,0,152.09a13.61,13.61,0,0,0,.25,3.2A8.1,8.1,0,0,0,26,188.76c8.2.06,16.4,0,24.6,0h51c2.84,0,5.51.51,7.6,2.62a8.73,8.73,0,0,1-4.7,14.87,23.32,23.32,0,0,1-3.82.29q-36.21,0-72.41,0c-6.61,0-12.84-1.27-18.15-5.51C3.65,195.9,0,189.23,0,180.88Q0,103.33,0,25.76A25.63,25.63,0,0,1,24.19.26,10.82,10.82,0,0,0,25.57,0Z"/><path class="cls-1" d="M206.74,105.72a15.84,15.84,0,0,1-3.73,5.2q-25.15,24.75-50.27,49.56c-2.6,2.57-5.56,3.73-9.15,2.69a8.33,8.33,0,0,1-6.1-6.38,8.2,8.2,0,0,1,2.27-8.16c6.13-6.14,12.38-12.16,18.47-18.33,5.85-5.92,11.58-12,17.41-18-.42-.36-1.31-.06-2.11-.06q-46.69,0-93.39,0a30.05,30.05,0,0,1-4-.27,8.69,8.69,0,0,1,0-17.22,28.48,28.48,0,0,1,4-.27q46.59,0,93.19,0a5,5,0,0,0,2.58-.24c-.13-.92-.91-1.31-1.45-1.85q-17-16.81-34-33.58c-2.48-2.44-3.77-5.25-3-8.72a8.74,8.74,0,0,1,14.71-4.42c4.12,3.86,8.1,7.87,12.12,11.84Q183.64,76.55,203,95.68a15.84,15.84,0,0,1,3.73,5.2Z"/></g></g></svg>