<svg width="50" height="32" viewBox="0 0 50 32" fill="none" xmlns="http://www.w3.org/2000/svg">
<g clip-path="url(#clip0_48_339)">
<path d="M49.9999 16.3895C49.5668 17.4771 48.6954 17.8678 47.4078 17.8655C32.3744 17.847 17.341 17.8428 2.30764 17.8528C0.980937 17.8528 0.0442853 17.1258 0.00645393 16.0728C-0.0313774 15.0557 0.825698 14.2328 2.0076 14.1576C2.21763 14.1449 2.43027 14.1507 2.6416 14.1507C17.5445 14.1507 32.4475 14.1468 47.3504 14.1391C48.6393 14.1391 49.5551 14.4997 49.9999 15.6105V16.3895Z" fill="white"/>
<path d="M50 2.28737C49.7743 2.59481 49.6086 2.98086 49.3047 3.19122C48.9537 3.43394 48.4763 3.53796 48.0419 3.67897C47.8827 3.72867 47.6883 3.69284 47.5083 3.69284C32.5062 3.69284 17.5042 3.69284 2.50207 3.69284C2.1292 3.70549 1.7563 3.66848 1.39583 3.58304C0.943639 3.44924 0.55845 3.17962 0.306894 2.82082C0.0553367 2.46201 -0.0467663 2.03659 0.0182463 1.61815C0.0813208 1.19252 0.31068 0.799914 0.666483 0.508531C1.02228 0.217148 1.48205 0.0453984 1.96591 0.0231164C2.17594 0.012714 2.38858 0.0161815 2.59991 0.0161815C17.5046 0.0161815 32.4093 0.0107876 47.3139 0C48.6041 0 49.5173 0.334032 50 1.42166V2.28737Z" fill="white"/>
<path d="M50 30.5784C49.9426 30.6778 49.8813 30.7748 49.8291 30.8754C49.4756 31.5458 48.8924 31.9283 48.0536 31.985C47.8266 32.0012 47.5983 32 47.3713 32C32.4528 32 17.5346 32 2.61687 32C2.25988 32.0132 1.90235 31.9908 1.55106 31.933C0.559623 31.7238 -0.108296 30.8292 0.0156341 29.9357C0.075258 29.5019 0.30703 29.1009 0.669547 28.8045C1.03207 28.5081 1.50172 28.3355 1.9946 28.3176C2.19028 28.3106 2.38596 28.3176 2.58034 28.3176C17.5311 28.3176 32.4814 28.3133 47.4314 28.3049C48.7241 28.3049 49.5917 28.6967 50 29.7993V30.5784Z" fill="white"/>
</g>
<defs>
<clipPath id="clip0_48_339">
<rect width="50" height="32" fill="white"/>
</clipPath>
</defs>
</svg>
