<svg xmlns="http://www.w3.org/2000/svg" viewBox="0 0 383.28 276.86"><defs><style>.cls-1{fill:#fff;}</style></defs><g id="Слой_2" data-name="Слой 2"><g id="Слой_1-2" data-name="Слой 1"><path class="cls-1" d="M383.28,141.8c-3.32,9.41-10,12.79-19.87,12.77q-172.86-.24-345.72-.11c-10.17,0-17.35-6.29-17.64-15.4-.29-8.8,6.28-15.92,15.34-16.57,1.61-.11,3.24-.06,4.86-.06q171.36,0,342.72-.1c9.88,0,16.9,3.12,20.31,12.73Z"/><path class="cls-1" d="M383.28,19.79c-1.73,2.66-3,6-5.33,7.82-2.69,2.1-6.35,3-9.68,4.22-1.22.43-2.71.12-4.09.12q-172.5,0-345,0A28.58,28.58,0,0,1,10.7,31,15.67,15.67,0,0,1,.14,14,15.89,15.89,0,0,1,15.07.2C16.68.11,18.31.14,19.93.14Q191.31.14,362.69,0c9.89,0,16.89,2.89,20.59,12.3Z"/><path class="cls-1" d="M383.28,264.56c-.44.86-.91,1.7-1.31,2.57-2.71,5.8-7.18,9.11-13.61,9.6-1.74.14-3.49.13-5.23.13q-171.54,0-343.07,0a36.4,36.4,0,0,1-8.17-.58C4.29,274.47-.83,266.73.12,259a15.94,15.94,0,0,1,15.17-14c1.5-.06,3,0,4.49,0q171.91,0,343.81-.11c9.91,0,16.56,3.39,19.69,12.93Z"/></g></g></svg>