<svg width="48" height="48" viewBox="0 0 48 48" fill="none" xmlns="http://www.w3.org/2000/svg">
<path d="M0 17.8451C0.458906 16.4181 1.29304 15.7797 2.54828 15.8198C4.35691 15.8767 6.16824 15.8198 7.97957 15.8432C8.3064 15.8546 8.62461 15.7125 8.87039 15.4455C12.601 11.6111 16.3353 7.77453 20.0731 3.93569C20.7857 3.19376 21.5659 2.72254 22.5215 3.15366C22.9192 3.30894 23.2715 3.60499 23.5348 4.00528C23.7982 4.40557 23.9611 4.89257 24.0035 5.40617C24.0471 5.82729 24.0678 6.25156 24.0656 6.67613C24.0656 18.1927 24.0656 29.7081 24.0656 41.2224C24.0651 41.6088 24.0471 41.9948 24.0116 42.3787C23.8037 44.6045 21.8925 45.6673 20.4483 44.3037C19.2093 43.134 18.0188 41.8574 16.8311 40.6275C14.2018 37.925 11.5725 35.2213 8.94327 32.5165C8.6727 32.2239 8.32237 32.0698 7.96337 32.0854C6.18443 32.1054 4.4055 32.0854 2.62656 32.0854C1.86262 32.0854 1.13107 31.935 0.569583 31.1931C0.326349 30.8458 0.13363 30.4489 0 30.02L0 17.8451Z" fill="#5D6571"/>
<path d="M47.999 23.9744C47.9288 32.3294 45.7666 39.752 41.4664 46.2121C41.1093 46.7857 40.5839 47.1618 40.0042 47.2588C39.4245 47.3558 38.8373 47.1658 38.3701 46.7301C37.1203 45.5671 36.8341 43.9563 37.6359 42.5426C38.2162 41.5166 38.8695 40.5374 39.4229 39.4947C41.1642 36.2033 42.3191 32.4903 42.8107 28.6031C43.8905 19.9139 42.1439 12.1471 37.6062 5.36617C37.0177 4.49056 36.5777 3.58822 36.8557 2.42187C36.973 1.86511 37.2082 1.35722 37.5371 0.950659C37.866 0.544098 38.2766 0.253609 38.7264 0.109201C39.682 -0.225 40.4622 0.232855 41.0965 1.14188C44.5186 5.98387 46.7786 11.9143 47.6211 18.263C47.8861 20.1487 48.0126 22.0604 47.999 23.9744Z" fill="#5D6571"/>
<path d="M37.4739 23.657C37.4253 28.7034 36.297 32.9812 34.0483 36.7977C33.7229 37.3873 33.2255 37.7979 32.6607 37.9431C32.096 38.0883 31.5077 37.9569 31.0195 37.5764C29.8075 36.6507 29.3513 34.9864 29.9641 33.5994C30.2691 32.9076 30.6821 32.286 30.9736 31.5942C33.3843 25.836 33.1629 20.2481 30.2232 14.8508C30.0936 14.6102 29.9533 14.3829 29.8102 14.149C28.9329 12.6418 29.1812 11.0309 30.4823 9.8211C31.5243 8.85192 32.839 9.1527 33.7217 10.5664C35.7722 13.7802 37.0401 17.6511 37.3767 21.7253C37.4415 22.4773 37.455 23.2326 37.4739 23.657Z" fill="#5D6571"/>
</svg>
