<svg width="90" height="33" viewBox="0 0 90 33" fill="none" xmlns="http://www.w3.org/2000/svg">
<g clip-path="url(#clip0_51_1628)">
<path d="M46.4653 10.9301L50.7471 10.6568C50.8448 11.348 51.0239 11.8623 51.3169 12.2321C51.7891 12.8107 52.4403 13.1 53.3032 13.1C53.9381 13.1 54.4428 12.9554 54.7847 12.65C55.1104 12.4089 55.3057 12.0231 55.3057 11.6212C55.3057 11.2355 55.1266 10.8658 54.8173 10.6246C54.4917 10.3353 53.7265 10.046 52.5217 9.78876C50.5517 9.35476 49.1353 8.77609 48.305 8.03669C47.4747 7.3455 47.0025 6.33284 47.0351 5.25588C47.0351 4.51647 47.263 3.77706 47.6863 3.16625C48.1748 2.47507 48.8423 1.92855 49.64 1.62314C50.5029 1.25344 51.7077 1.06055 53.2218 1.06055C55.0778 1.06055 56.4942 1.39811 57.4711 2.08929C58.4479 2.7644 59.034 3.85743 59.2131 5.35232L54.9801 5.59343C54.8661 4.95047 54.6382 4.48432 54.2638 4.17892C53.8893 3.87351 53.4009 3.72884 52.7659 3.72884C52.2449 3.72884 51.8542 3.84136 51.5937 4.05032C51.3495 4.24321 51.1867 4.53254 51.203 4.85402C51.203 5.09514 51.3332 5.32017 51.5286 5.46484C51.7402 5.65773 52.2449 5.83454 53.0427 5.99528C55.0127 6.41321 56.4128 6.83113 57.2757 7.26513C58.1386 7.69913 58.7572 8.22957 59.1317 8.85646C59.5224 9.49942 59.7178 10.2389 59.7015 10.9943C59.7015 11.8945 59.441 12.7946 58.92 13.5501C58.3828 14.3378 57.6339 14.9486 56.7547 15.3183C55.8267 15.7201 54.6545 15.9291 53.2543 15.9291C50.7797 15.9291 49.0702 15.4629 48.1096 14.5146C47.1491 13.5662 46.5792 12.3767 46.4653 10.9301ZM1.02569 15.688V1.31774H8.53112C9.91498 1.31774 10.9895 1.43025 11.7221 1.67136C12.4385 1.8964 13.0734 2.36255 13.4967 2.98944C13.9689 3.68062 14.1968 4.48432 14.1805 5.32017C14.2294 6.73469 13.4967 8.08491 12.2431 8.79217C11.7547 9.06542 11.2174 9.25831 10.6639 9.35476C11.0709 9.46727 11.4779 9.66016 11.8361 9.8852C12.1129 10.1103 12.3408 10.3675 12.5525 10.6407C12.7967 10.914 13.0083 11.2194 13.1874 11.5409L15.369 15.704H10.2569L7.84732 11.2837C7.53799 10.7211 7.2775 10.3514 7.03329 10.1746C6.70767 9.9495 6.31693 9.83698 5.92619 9.83698H5.53546V15.6719H1.02569V15.688ZM5.53546 7.13654H7.4403C7.84732 7.10439 8.23806 7.0401 8.6288 6.94365C8.92185 6.89543 9.18235 6.73469 9.36143 6.49358C9.80101 5.91491 9.73589 5.09514 9.19863 4.59684C8.90557 4.35573 8.33575 4.22714 7.52171 4.22714H5.53546V7.13654ZM0 28.0007L4.28184 27.7274C4.37952 28.4186 4.55861 28.933 4.85166 29.3027C5.30753 29.8813 5.97504 30.1868 6.83792 30.1868C7.47287 30.1868 7.97757 30.0421 8.31946 29.7367C8.64508 29.4795 8.84045 29.1098 8.84045 28.7079C8.84045 28.3222 8.66136 27.9525 8.35203 27.7114C8.02641 27.422 7.26122 27.1327 6.04016 26.8755C4.07019 26.4415 2.65376 25.8628 1.82344 25.1234C0.993126 24.4322 0.520984 23.4196 0.553546 22.3426C0.553546 21.6032 0.781476 20.8638 1.20478 20.253C1.6932 19.5618 2.36071 19.0153 3.15847 18.7099C4.02135 18.3402 5.22612 18.1473 6.74023 18.1473C8.59624 18.1473 10.0127 18.4849 10.9895 19.176C11.9664 19.8672 12.5362 20.9442 12.7153 22.4391L8.48227 22.6802C8.36831 22.0372 8.14038 21.5711 7.76592 21.2657C7.40774 20.9603 6.90304 20.8156 6.26809 20.8317C5.74711 20.8317 5.35637 20.9442 5.09588 21.1692C4.83538 21.3621 4.68886 21.6514 4.70514 21.9729C4.70514 22.214 4.83538 22.4391 5.03075 22.5837C5.2424 22.7766 5.74711 22.9534 6.54486 23.1142C8.51483 23.5321 9.91498 23.95 10.7779 24.384C11.6407 24.818 12.2594 25.3485 12.6339 25.9754C13.0246 26.6183 13.22 27.3577 13.22 28.0971C13.22 28.9973 12.9432 29.8813 12.4385 30.6368C11.9012 31.4245 11.1523 32.0353 10.2732 32.405C9.34515 32.8068 8.17294 33.0158 6.77279 33.0158C4.29812 33.0158 2.58864 32.5496 1.62808 31.6013C0.667511 30.6368 0.130246 29.4473 0 28.0007Z" fill="#D2448D"/>
<path d="M21.6534 26.8757L25.5933 28.0491C25.3817 29.0296 24.9421 29.9619 24.3397 30.7817C23.7862 31.505 23.0535 32.0676 22.2232 32.4373C21.3766 32.807 20.3021 32.9999 18.9996 32.9999C17.4204 32.9999 16.1179 32.7749 15.1248 32.3248C14.1154 31.8747 13.2525 31.071 12.5199 29.9298C11.7873 28.7885 11.4291 27.3258 11.4291 25.5416C11.4291 23.1626 12.064 21.3302 13.3502 20.0603C14.6364 18.7905 16.4435 18.1475 18.788 18.1475C20.6277 18.1475 22.0604 18.5172 23.1187 19.2405C24.1606 19.9799 24.9421 21.1051 25.4631 22.6161L21.4906 23.4841C21.3929 23.1465 21.2464 22.809 21.051 22.5196C20.8068 22.1821 20.4975 21.9249 20.123 21.732C19.7485 21.5391 19.3252 21.4588 18.9019 21.4588C17.8763 21.4588 17.0948 21.8606 16.5575 22.6804C16.1505 23.2751 15.9388 24.2235 15.9388 25.5094C15.9388 27.1007 16.1831 28.1938 16.6715 28.7885C17.1599 29.3833 17.8437 29.6726 18.7391 29.6726C19.602 29.6726 20.2532 29.4315 20.6928 28.9653C21.1324 28.467 21.458 27.7759 21.6534 26.8757ZM30.852 18.3886H35.3455V23.4198H40.2623V18.3886H44.7883V32.7588H40.2623V26.94H35.3455V32.7588H30.852V18.3886Z" fill="#D2448D"/>
<path d="M44.1697 25.5736C44.1697 23.2268 44.8372 21.3943 46.1559 20.0923C47.4747 18.7903 49.3307 18.1313 51.6914 18.1313C54.1172 18.1313 55.9732 18.7743 57.292 20.0602C58.6107 21.3461 59.262 23.1464 59.262 25.461C59.262 27.1488 58.9689 28.5151 58.3991 29.5921C57.8455 30.653 56.9826 31.521 55.9244 32.0996C54.8336 32.6944 53.4823 32.9998 51.8705 32.9998C50.2261 32.9998 48.8748 32.7426 47.8003 32.2282C46.6932 31.6817 45.7815 30.8298 45.1791 29.785C44.5116 28.6598 44.1697 27.2613 44.1697 25.5736ZM48.6632 25.5896C48.6632 27.0363 48.94 28.0811 49.4772 28.7241C50.0145 29.351 50.7634 29.6724 51.7077 29.6724C52.6682 29.6724 53.4172 29.367 53.9544 28.7402C54.4917 28.1133 54.7522 27.0042 54.7522 25.3968C54.7522 24.0465 54.4754 23.0499 53.9219 22.4391C53.3683 21.8122 52.6194 21.5068 51.6751 21.5068C50.8448 21.4747 50.047 21.8283 49.4935 22.4552C48.94 23.0821 48.6632 24.1269 48.6632 25.5896ZM63.8694 25.5736C63.8694 23.2268 64.5369 21.3943 65.8557 20.0923C67.1744 18.7903 69.0304 18.1313 71.3911 18.1313C73.8169 18.1313 75.6892 18.7743 76.9917 20.0602C78.2942 21.3461 78.9617 23.1464 78.9617 25.461C78.9617 27.1488 78.6686 28.5151 78.0988 29.5921C77.5452 30.653 76.6824 31.521 75.6241 32.0996C74.5333 32.6944 73.182 32.9998 71.5702 32.9998C69.9258 32.9998 68.5745 32.7426 67.5 32.2282C66.3929 31.6817 65.4812 30.8298 64.8788 29.785C64.2113 28.6598 63.8694 27.2613 63.8694 25.5736ZM68.3629 25.5896C68.3629 27.0363 68.6397 28.0811 69.1769 28.7241C69.7142 29.351 70.4631 29.6724 71.4074 29.6724C72.368 29.6724 73.1169 29.367 73.6541 28.7402C74.1914 28.1133 74.4519 27.0042 74.4519 25.3968C74.4519 24.0465 74.1751 23.0499 73.6216 22.4391C73.068 21.8122 72.3191 21.5068 71.3748 21.5068C70.5445 21.4747 69.7305 21.8283 69.1932 22.4552C68.6397 23.0821 68.3629 24.1269 68.3629 25.5896Z" fill="#D2448D"/>
<path d="M78.4895 18.3887H82.983V29.2226H90V32.7589H78.4732V18.3887H78.4895Z" fill="#D2448D"/>
<path d="M73.5367 17.5589C78.0607 14.1929 79.4557 8.48721 76.6526 4.81472C73.8495 1.14223 67.9097 0.89369 63.3857 4.2596C58.8617 7.6255 57.4667 13.3312 60.2698 17.0037C63.0729 20.6762 69.0127 20.9248 73.5367 17.5589Z" stroke="#D2448D" stroke-miterlimit="10"/>
<path d="M63.8857 9.85316L65.5137 8.72797L67.5163 11.541C67.8582 11.991 68.1187 12.4733 68.314 13.0037C68.428 13.4056 68.3954 13.8396 68.2326 14.2253C68.021 14.7076 67.6791 15.1094 67.2232 15.3987C66.686 15.7684 66.2301 15.9774 65.8394 16.0417C65.4649 16.106 65.0742 16.0417 64.716 15.881C64.3252 15.6881 63.9833 15.4148 63.7229 15.0612L65.123 13.7753C65.237 13.9521 65.3835 14.1128 65.5463 14.2414C65.6603 14.3218 65.7905 14.37 65.937 14.37C66.051 14.37 66.165 14.3218 66.2464 14.2575C66.4092 14.161 66.5231 13.9682 66.5069 13.7753C66.458 13.502 66.3441 13.2287 66.165 13.0198L63.8857 9.85316ZM68.7699 11.6374L70.2514 10.4801C70.4142 10.673 70.6259 10.8176 70.8538 10.898C71.1794 10.9945 71.5213 10.9302 71.7981 10.7212C71.9935 10.5926 72.1563 10.4158 72.2214 10.1908C72.3191 9.90137 72.1563 9.57989 71.8632 9.48345C71.8144 9.46737 71.7656 9.4513 71.7167 9.4513C71.5213 9.43523 71.1794 9.5156 70.6747 9.72456C69.8444 10.0622 69.1932 10.1908 68.7048 10.1425C68.2326 10.0943 67.793 9.85315 67.5326 9.4513C67.3372 9.17804 67.2395 8.85656 67.2232 8.53508C67.2232 8.16538 67.3209 7.79567 67.5326 7.49027C67.8419 7.05627 68.2163 6.68656 68.6722 6.39723C69.356 5.93109 69.9584 5.70605 70.4794 5.70605C71.0004 5.70605 71.4888 5.94717 71.9446 6.44546L70.4794 7.58671C70.1863 7.21701 69.6328 7.13664 69.2583 7.42597L69.2095 7.4742C69.0467 7.57064 68.9327 7.71531 68.8676 7.89213C68.8187 8.02072 68.8513 8.16539 68.9327 8.27789C68.9978 8.35826 69.0955 8.42256 69.2095 8.42256C69.3397 8.43864 69.5676 8.37435 69.8933 8.22968C70.7073 7.89213 71.326 7.69923 71.7493 7.63493C72.1075 7.57064 72.4819 7.6028 72.8238 7.74746C73.1331 7.87605 73.3936 8.10108 73.5727 8.37434C73.8006 8.69582 73.9309 9.0816 73.9472 9.48345C73.9635 9.90137 73.8495 10.3033 73.6216 10.6569C73.3285 11.0909 72.954 11.4606 72.5145 11.7499C71.619 12.3607 70.8864 12.6179 70.3003 12.5215C69.6653 12.425 69.1443 12.1036 68.7699 11.6374Z" fill="#D2448D"/>
</g>
<defs>
<clipPath id="clip0_51_1628">
<rect width="90" height="33" fill="white"/>
</clipPath>
</defs>
</svg>
