<svg width="48" height="45" viewBox="0 0 48 45" fill="none" xmlns="http://www.w3.org/2000/svg">
<path fill-rule="evenodd" clip-rule="evenodd" d="M16.3858 19.1954L31.0849 5.43788C33.492 3.18737 37.3932 3.18737 39.8003 5.43788L42.1945 7.67877C44.6019 9.93191 44.6019 13.5862 42.1945 15.837L27.4253 29.6602C26.3478 30.6686 24.8868 31.2354 23.363 31.2354H15.9951C15.166 31.2354 14.4998 30.5961 14.5204 29.8204L14.7053 22.8614C14.7423 21.4832 15.3438 20.1707 16.3858 19.1954ZM40.1084 9.63131L37.7153 7.39148C36.4601 6.21793 34.4252 6.21793 33.1706 7.39095L31.9613 8.52275L38.8992 15.0162L40.109 13.8839C41.3634 12.7111 41.3634 10.8059 40.1084 9.63131ZM36.813 16.9687L29.8751 10.4753L18.4721 21.1479C17.9653 21.6223 17.6727 22.2607 17.6547 22.9305L17.5061 28.4724L23.3631 28.474C24.0115 28.474 24.6367 28.263 25.1341 27.8814L25.3391 27.7076L36.813 16.9687ZM22.6696 3.82118C23.4843 3.82118 24.1448 4.43932 24.1448 5.20184C24.1448 5.90082 23.5898 6.47848 22.8698 6.5699L22.6696 6.58251H15.3155C10.3559 6.58251 7.14341 9.66178 6.95873 14.4437L6.95032 14.8831V30.1882C6.95032 35.0787 10.0066 38.2954 14.8685 38.4804L15.3155 38.4888H32.6712C37.6431 38.4888 40.8458 35.4161 41.0299 30.6282L41.0383 30.1882V22.7731C41.0383 22.0106 41.6988 21.3925 42.5135 21.3925C43.2603 21.3925 43.8775 21.9119 43.9752 22.5858L43.9886 22.7731V30.1882C43.9886 36.5615 39.6752 41.0427 33.1313 41.2431L32.6712 41.2501H15.3155C8.67062 41.2501 4.20646 36.9135 4.00697 30.6297L4 30.1882V14.8831C4 8.51597 8.32451 4.02886 14.8562 3.82819L15.3155 3.82118H22.6696Z" fill="white"/>
</svg>
