<svg xmlns="http://www.w3.org/2000/svg" viewBox="0 0 610.48 381.29"><defs><style>.cls-1{fill:#e0e0e0;}.cls-2{fill:#f0f0f0;}.cls-3{fill:#263238;}.cls-4{fill:#e8505b;}.cls-5{opacity:0.2;}.cls-6{fill:#fff;}.cls-7{fill:#e6e6e6;}.cls-8{opacity:0.1;}.cls-9{fill:#455a64;}.cls-10{fill:#e5baab;}.cls-11{fill:#d78776;}</style></defs><g id="Слой_2" data-name="Слой 2"><g id="Background_Complete" data-name="Background Complete"><polygon class="cls-1" points="526.02 212.6 532.05 223.11 538.09 233.61 544.16 223.13 550.24 212.65 541.87 212.64 541.95 172.15 534.47 172.14 534.39 212.62 526.02 212.6"/><polygon class="cls-1" points="547.51 184.81 551.11 191.07 554.71 197.33 558.33 191.09 561.96 184.84 556.96 184.83 557.01 160.69 552.55 160.68 552.5 184.82 547.51 184.81"/><polygon class="cls-1" points="133.41 21 127.37 10.5 121.34 0 115.26 10.48 109.19 20.95 117.56 20.97 117.48 61.45 124.95 61.47 125.04 20.98 133.41 21"/><polygon class="cls-1" points="109.56 47.63 105.91 41.28 102.27 34.93 98.59 41.27 94.92 47.6 99.98 47.61 99.93 72.08 104.45 72.09 104.5 47.62 109.56 47.63"/><path class="cls-2" d="M551.22,347.05c-15-9.79-18.76-28.54-18.59-45.48,0-2.82-.36-5.79.94-8.3s4.43-4.28,7-3.16c2.15.94,3.13,3.36,4.37,5.35a16.71,16.71,0,0,0,6.87,6.17c1.84.89,4.11,1.4,5.89.38,2.43-1.4,2.64-4.78,2.56-7.59q-.25-7.85-.49-15.7a25.53,25.53,0,0,1,.66-8.37c.82-2.68,2.71-5.21,5.4-6s6.08.65,6.72,3.38a27.17,27.17,0,0,1,.16,3.5,3,3,0,0,0,1.82,2.74c1.15.3,2.26-.52,3.1-1.36,2.86-2.91,4.77-6.61,6.54-10.29s3.49-7.44,6.08-10.6,6.22-5.7,10.29-6,8.48,2,9.61,6-1.12,8-3.59,11.27a63.31,63.31,0,0,1-12.92,12.77,5.21,5.21,0,0,0-2.16,2.4c-.57,1.88,1.28,3.7,3.16,4.27,2.14.65,4.44.38,6.67.58s4.65,1.12,5.54,3.17c1.24,2.84-1.12,5.91-3.47,7.94a54.73,54.73,0,0,1-15.88,9.56c-2.08.81-4.27,1.52-5.92,3s-2.61,4-1.54,6,3.7,2.53,5.89,2.07,4.11-1.67,6.19-2.5c3.87-1.55,8.93-1.41,11.52,1.87a8.79,8.79,0,0,1,1.15,7.84,20.38,20.38,0,0,1-4.15,7,54.66,54.66,0,0,1-23,16.77c-9,3.32-17.39,4.37-26.48,1.33"/><path class="cls-1" d="M606,247.9l-.27.27-.84.76c-.73.67-1.81,1.65-3.16,3a105.89,105.89,0,0,0-10.6,11.83c-2.06,2.65-4.19,5.65-6.42,8.92s-4.57,6.77-6.9,10.55A127.9,127.9,0,0,0,571,295.36c-1,2.18-2,4.45-2.91,6.76s-1.89,4.67-2.85,7a256,256,0,0,0-9.48,27.29,124.54,124.54,0,0,0-4.17,23.17,91.13,91.13,0,0,0,.14,15.88c.2,1.87.38,3.31.54,4.29.07.47.13.84.17,1.11s0,.39,0,.39-.47-2-.91-5.77a87.2,87.2,0,0,1-.28-15.92,121.63,121.63,0,0,1,4.1-23.26A248.22,248.22,0,0,1,564.89,309l2.85-7.05c.94-2.3,1.88-4.59,2.93-6.78a126.41,126.41,0,0,1,6.78-12.2c2.34-3.78,4.71-7.28,6.94-10.54s4.4-6.26,6.47-8.9a99.77,99.77,0,0,1,10.73-11.77c1.37-1.29,2.47-2.26,3.22-2.9l.86-.73Z"/><path class="cls-1" d="M570.77,295.14a7.7,7.7,0,0,1-.28-1.2c-.17-.77-.37-1.9-.6-3.29-.46-2.79-1-6.66-1.53-10.93s-1.13-8.13-1.65-10.9c-.26-1.39-.48-2.51-.64-3.28a6.8,6.8,0,0,1-.21-1.21,6.38,6.38,0,0,1,.37,1.17c.21.77.48,1.88.77,3.26.6,2.77,1.23,6.63,1.78,10.9s1,8.07,1.41,10.95c.18,1.33.34,2.45.46,3.31A6.07,6.07,0,0,1,570.77,295.14Z"/><path class="cls-1" d="M607.21,287.51a1.22,1.22,0,0,1-.38.08l-1.08.11c-.94.1-2.3.24-4,.47-3.34.43-7.94,1.19-13,2.25s-9.55,2.23-12.79,3.17c-1.62.46-2.92.87-3.82,1.15l-1,.32a1.88,1.88,0,0,1-.38.08,1.68,1.68,0,0,1,.35-.16l1-.4c.89-.32,2.18-.78,3.8-1.27,3.22-1,7.74-2.23,12.78-3.31s9.67-1.78,13-2.13c1.68-.19,3-.28,4-.33l1.08,0Z"/><path class="cls-1" d="M555.82,335.66a2.52,2.52,0,0,1-.26-.44l-.65-1.3c-.56-1.12-1.33-2.77-2.26-4.82-1.86-4.1-4.25-9.84-6.81-16.21s-4.91-12.12-6.69-16.24L537,291.77c-.23-.54-.43-1-.58-1.33a3.14,3.14,0,0,1-.17-.47,2,2,0,0,1,.25.44c.17.33.39.76.65,1.29.56,1.13,1.33,2.78,2.26,4.83,1.86,4.1,4.25,9.83,6.81,16.2s4.91,12.12,6.7,16.25c.88,2,1.61,3.67,2.13,4.87l.58,1.33A2.62,2.62,0,0,1,555.82,335.66Z"/><path class="cls-1" d="M604.07,319a3.2,3.2,0,0,1-.48.2l-1.41.49L597,321.49c-4.36,1.51-10.37,3.66-17,6.05s-12.66,4.5-17,5.94c-2.2.71-4,1.28-5.22,1.64l-1.43.42a3.27,3.27,0,0,1-.5.12,2,2,0,0,1,.48-.2l1.4-.49,5.17-1.78c4.37-1.5,10.37-3.66,17-6.05s12.65-4.5,17-5.93c2.19-.72,4-1.28,5.21-1.65l1.43-.42A1.75,1.75,0,0,1,604.07,319Z"/></g><g id="Floor"><path class="cls-3" d="M605.71,379.79c0,.14-135.6.26-302.84.26S0,379.93,0,379.79s135.57-.26,302.87-.26S605.71,379.64,605.71,379.79Z"/></g><g id="Plant"><path class="cls-4" d="M62.31,348.75a18.68,18.68,0,0,0-11.62-1.41c-2.11.34-4.31,1-5.74,2.56s-1.71,4.37-.06,5.73a5.47,5.47,0,0,0,3.62.91c3.07,0,6.48-.57,8.93,1.28,1.4,1.05,2.33,2.8,4,3.32a4,4,0,0,0,4.35-1.94,6.72,6.72,0,0,0,.49-5A7.58,7.58,0,0,0,62.31,348.75Z"/><path class="cls-4" d="M70.4,333.12c-2.16,3.08-6.36,2.06-8.3.18s-2.77-4.62-3.52-7.22c-1.72-5.95-3.44-12.19-2.17-18.25a10.19,10.19,0,0,1,2.33-5,5.31,5.31,0,0,1,5-1.67c2.12.56,3.43,2.64,4.39,4.61a43.56,43.56,0,0,1,4.29,18.67c0,3-.34,6.16-2,8.64"/><g class="cls-5"><path d="M70.4,333.12c-2.16,3.08-6.36,2.06-8.3.18s-2.77-4.62-3.52-7.22c-1.72-5.95-3.44-12.19-2.17-18.25a10.19,10.19,0,0,1,2.33-5,5.31,5.31,0,0,1,5-1.67c2.12.56,3.43,2.64,4.39,4.61a43.56,43.56,0,0,1,4.29,18.67c0,3-.34,6.16-2,8.64"/></g><path class="cls-4" d="M76.34,337.55a11.25,11.25,0,0,1-1.75-10.34,19.9,19.9,0,0,1,6.12-8.88,32.84,32.84,0,0,1,11-6.46A11.66,11.66,0,0,1,96.6,311a5.18,5.18,0,0,1,4.14,2.5c1.15,2.2,0,4.87-1.15,7.05a84.48,84.48,0,0,1-7.2,11c-2.16,2.78-4.63,5.53-7.92,6.78s-6.7,1.11-8.45-1.17"/><path class="cls-3" d="M70.55,379.67a6.49,6.49,0,0,1-.2-1.4c-.09-1-.22-2.3-.37-3.83a55.08,55.08,0,0,0-.86-5.61,42.46,42.46,0,0,0-2-6.63,24.56,24.56,0,0,0-3.38-6,12.77,12.77,0,0,0-4.28-3.56,12.19,12.19,0,0,0-3.6-1.12,6.65,6.65,0,0,1-1.4-.2,6.22,6.22,0,0,1,1.42,0,11,11,0,0,1,3.76,1,12.82,12.82,0,0,1,4.51,3.59A24,24,0,0,1,67.62,362a40,40,0,0,1,2,6.73,46.87,46.87,0,0,1,.75,5.69c.12,1.62.17,2.94.19,3.85A6.43,6.43,0,0,1,70.55,379.67Z"/><path class="cls-3" d="M70.29,376.73a2.39,2.39,0,0,1,0-.65v-1.86c0-1.62,0-4-.08-6.84-.14-5.77-.64-13.74-1.6-22.5s-2.25-16.64-3.42-22.29c-.27-1.42-.55-2.69-.81-3.81s-.46-2.08-.67-2.86-.32-1.34-.43-1.81a2.62,2.62,0,0,1-.12-.64,2.37,2.37,0,0,1,.23.61l.54,1.78c.24.77.48,1.73.76,2.85s.6,2.38.9,3.8a209.13,209.13,0,0,1,3.6,22.31c1,8.78,1.39,16.77,1.43,22.55,0,2.89,0,5.24-.1,6.85,0,.76-.09,1.37-.11,1.86A3.33,3.33,0,0,1,70.29,376.73Z"/><path class="cls-3" d="M70.25,361.32a11.68,11.68,0,0,1,0-1.95,51.11,51.11,0,0,1,.6-5.26,72.27,72.27,0,0,1,4.92-16.75,48.25,48.25,0,0,1,9.42-14.68,23.68,23.68,0,0,1,2.22-2.06c.34-.28.64-.57.94-.8l.86-.59a13.23,13.23,0,0,1,1.64-1.05A58.3,58.3,0,0,0,85.5,323a50.65,50.65,0,0,0-9.19,14.62,71.91,71.91,0,0,0-3.23,9,77.47,77.47,0,0,0-1.82,7.6c-.4,2.19-.63,4-.77,5.21A13.23,13.23,0,0,1,70.25,361.32Z"/></g><g id="Windows"><rect class="cls-6" x="149.35" y="36.05" width="307.37" height="239.17"/><path class="cls-3" d="M456.72,275.22c0-1.79-.08-94.8-.21-239.17l.21.21-307.34.05h0l.26-.26c0,86.21,0,167.75,0,239.17l-.24-.24,307.37.24-307.37.23h-.23v-.23c0-71.42,0-153,0-239.17v-.26h.29l307.34,0h.22v.22C456.81,180.42,456.72,273.43,456.72,275.22Z"/><path class="cls-3" d="M233.87,255.13c-.14,0-.26-26-.26-58.06s.12-58.07.26-58.07.26,26,.26,58.07S234,255.13,233.87,255.13Z"/><path class="cls-3" d="M367.26,255.13c-.14,0-.26-26-.26-58.06s.12-58.07.26-58.07.26,26,.26,58.07S367.41,255.13,367.26,255.13Z"/><path class="cls-3" d="M279.41,255.13c-.14,0-.26-33.24-.26-74.23s.12-74.23.26-74.23.26,33.23.26,74.23S279.55,255.13,279.41,255.13Z"/><path class="cls-3" d="M187.1,255.13c-.14,0-.26-33.24-.26-74.23s.12-74.23.26-74.23.26,33.23.26,74.23S187.24,255.13,187.1,255.13Z"/><path class="cls-3" d="M419.62,255.13c-.15,0-.26-33.24-.26-74.23s.11-74.23.26-74.23.26,33.23.26,74.23S419.76,255.13,419.62,255.13Z"/><path class="cls-3" d="M319.34,255.13c-.14,0-.26-38.38-.26-85.7s.12-85.72.26-85.72.26,38.37.26,85.72S319.49,255.13,319.34,255.13Z"/><path class="cls-3" d="M235,139a1.09,1.09,0,1,1-1.09-1.09A1.09,1.09,0,0,1,235,139Z"/><circle class="cls-3" cx="279.41" cy="106.67" r="1.09"/><path class="cls-3" d="M279.41,110.49a3.82,3.82,0,1,1,3.82-3.82A3.82,3.82,0,0,1,279.41,110.49Zm0-7.39a3.57,3.57,0,1,0,3.57,3.57A3.57,3.57,0,0,0,279.41,103.1Z"/><circle class="cls-3" cx="319.34" cy="83.71" r="1.09"/><circle class="cls-3" cx="367.26" cy="140.09" r="1.09"/><circle class="cls-3" cx="419.64" cy="106.67" r="1.09"/><path class="cls-3" d="M188.19,107.76a1.09,1.09,0,1,1-1.09-1.09A1.09,1.09,0,0,1,188.19,107.76Z"/><path class="cls-4" d="M429.93,159.21a3.72,3.72,0,0,1-.86.28,18.32,18.32,0,0,0-2.47.85,23.7,23.7,0,0,0-7.93,6c-3,3.22-5.95,7.7-9.69,12.74a60,60,0,0,1-6.58,7.63,36.65,36.65,0,0,1-4.27,3.54,30.17,30.17,0,0,1-5.14,2.81,29.06,29.06,0,0,1-12.33,2.07,32.51,32.51,0,0,1-6.63-.83,17.3,17.3,0,0,1-6.41-2.82,20.78,20.78,0,0,1-5-5.23c-1.39-2-2.63-4.12-3.83-6.27-2.39-4.33-4.88-8.69-7.7-13.07s-5.35-9.11-8.23-13.7a65.63,65.63,0,0,0-10.06-13A29.38,29.38,0,0,0,326,135.4a22.37,22.37,0,0,0-8-2.35,28.65,28.65,0,0,0-8.55.48,28.94,28.94,0,0,0-8.11,3.08,42.15,42.15,0,0,0-12.68,11.83A130.47,130.47,0,0,0,279.6,163a150,150,0,0,1-8.78,14.25,70.08,70.08,0,0,1-10.63,12.12c-1,.85-2,1.71-3.09,2.46a36.46,36.46,0,0,1-3.26,2.13,28.42,28.42,0,0,1-7.08,2.91,22.63,22.63,0,0,1-3.71.69,12.76,12.76,0,0,1-1.85.11c-.62,0-1.24,0-1.85,0a28.76,28.76,0,0,1-7.1-1.32,48.07,48.07,0,0,1-12-6.26c-3.56-2.45-6.82-5-10-7.28a53.67,53.67,0,0,0-9.5-5.76,31.23,31.23,0,0,0-9.45-2.68,23.12,23.12,0,0,0-8.49.55,15.79,15.79,0,0,0-1.84.59,11.71,11.71,0,0,0-1.71.68,21.28,21.28,0,0,0-3,1.66,32.43,32.43,0,0,0-4.52,3.61l-1.57,1.72a16.91,16.91,0,0,0-1.26,1.47l-1.59,2.09a4.26,4.26,0,0,1-.58.69,3.26,3.26,0,0,1,.45-.78c.34-.5.83-1.24,1.48-2.19A12.38,12.38,0,0,1,169.9,183l1.53-1.79a32,32,0,0,1,4.51-3.8,23.27,23.27,0,0,1,3.05-1.77,13.24,13.24,0,0,1,1.76-.73,16.13,16.13,0,0,1,1.89-.64,23.9,23.9,0,0,1,8.78-.7,31.86,31.86,0,0,1,9.76,2.65,53.76,53.76,0,0,1,9.73,5.76c3.23,2.28,6.5,4.78,10,7.18a47.3,47.3,0,0,0,11.71,6,26.63,26.63,0,0,0,6.75,1.21c.58,0,1.17,0,1.75,0a13,13,0,0,0,1.76-.11,23.48,23.48,0,0,0,3.5-.67,32,32,0,0,0,12.83-7.26,69,69,0,0,0,10.36-11.9,147.17,147.17,0,0,0,8.66-14.14,132.31,132.31,0,0,1,9.15-14.75,43.89,43.89,0,0,1,13.16-12.26,29.9,29.9,0,0,1,17.58-3.75,24.25,24.25,0,0,1,8.58,2.52,30.85,30.85,0,0,1,7.11,5.11,66.65,66.65,0,0,1,10.28,13.31c2.89,4.65,5.45,9.33,8.18,13.73s5.33,8.85,7.68,13.16,4.73,8.53,8.39,11.12a16.08,16.08,0,0,0,6,2.66,32.36,32.36,0,0,0,6.38.84,28.07,28.07,0,0,0,11.86-1.89,29.1,29.1,0,0,0,5-2.66,35.1,35.1,0,0,0,4.18-3.39,62.37,62.37,0,0,0,6.57-7.44c3.77-4.95,6.85-9.42,9.93-12.62a23.18,23.18,0,0,1,8.26-5.9,14.35,14.35,0,0,1,2.56-.72A5,5,0,0,1,429.93,159.21Z"/><rect class="cls-3" x="186.01" y="62.89" width="53.59" height="2.98"/><rect class="cls-3" x="186.01" y="69.87" width="26.48" height="2.98"/><path class="cls-3" d="M153.49,16.53H452.22A4.51,4.51,0,0,1,456.72,21V36a0,0,0,0,1,0,0H149a0,0,0,0,1,0,0V21A4.51,4.51,0,0,1,153.49,16.53Z"/><path class="cls-6" d="M164.94,26.67a2.1,2.1,0,1,1-2.1-2.1A2.1,2.1,0,0,1,164.94,26.67Z"/><path class="cls-6" d="M174.1,26.67a2.1,2.1,0,1,1-2.1-2.1A2.1,2.1,0,0,1,174.1,26.67Z"/><path class="cls-6" d="M183.26,26.67a2.1,2.1,0,1,1-2.09-2.1A2.1,2.1,0,0,1,183.26,26.67Z"/><rect class="cls-7" x="30.82" y="176.79" width="126.21" height="35.39" rx="3.23"/><path class="cls-6" d="M57.43,200.38a7.69,7.69,0,1,1-1.19-10.81A7.69,7.69,0,0,1,57.43,200.38Z"/><path class="cls-3" d="M55.75,193a35.77,35.77,0,0,1-4.16,4.42l-1,1-.18.18-.17-.18a24.19,24.19,0,0,1-3.11-3.47A24.84,24.84,0,0,1,50.58,198h-.36l1-1A35.34,35.34,0,0,1,55.75,193Z"/><path class="cls-3" d="M144.72,191.89c0,.14-16.05.26-35.83.26s-35.84-.12-35.84-.26,16-.26,35.84-.26S144.72,191.74,144.72,191.89Z"/><path class="cls-3" d="M115.32,198.88c0,.15-9.27.27-20.71.27s-20.72-.12-20.72-.27,9.28-.26,20.72-.26S115.32,198.74,115.32,198.88Z"/><rect class="cls-1" x="68.08" y="91.53" width="124.43" height="51.67" rx="2.62"/><path class="cls-4" d="M93.93,107.86a5.8,5.8,0,1,1-5.8-5.8A5.8,5.8,0,0,1,93.93,107.86Z"/><rect class="cls-4" x="99.73" y="103.85" width="40.42" height="2.24"/><rect class="cls-6" x="99.73" y="108.95" width="78.62" height="2.24"/><path class="cls-4" d="M93.93,125.69a5.8,5.8,0,1,1-5.8-5.8A5.8,5.8,0,0,1,93.93,125.69Z"/><rect class="cls-4" x="99.73" y="121.68" width="20.64" height="2.24"/><rect class="cls-6" x="99.73" y="126.78" width="78.62" height="2.24"/><rect class="cls-1" x="90.01" y="227.42" width="160.54" height="68.24" rx="3.96"/><path class="cls-4" d="M119.38,260.39l-.09-13.84A17.71,17.71,0,0,0,107.87,251a16.38,16.38,0,0,0-5.51,14.34c.08.66.18,1.33.33,2a.09.09,0,0,0,0,0h0l16.68-3.76Z"/><path class="cls-4" d="M136.56,256.13a16.4,16.4,0,0,0-13.46-9.42l-.52-.05-.34,0c-.33,0-.67,0-1,0h-.1l.1,13.84,0,3.25,16.68,3.64h0a16.57,16.57,0,0,0,.37-3.59A17.91,17.91,0,0,0,136.56,256.13Z"/><g class="cls-5"><path d="M136.56,256.13a16.4,16.4,0,0,0-13.46-9.42l-.52-.05-.34,0c-.33,0-.67,0-1,0h-.1l.1,13.84,0,3.25,16.68,3.64h0a16.57,16.57,0,0,0,.37-3.59A17.91,17.91,0,0,0,136.56,256.13Z"/></g><path class="cls-4" d="M120.27,265.37l-16.68,3.76A17.09,17.09,0,0,0,137,269l-16.68-3.64"/><g class="cls-8"><path d="M120.27,265.37l-16.68,3.76A17.09,17.09,0,0,0,137,269l-16.68-3.64"/></g><rect class="cls-6" x="149.5" y="250.69" width="84.73" height="3.84"/><rect class="cls-6" x="149.5" y="260.81" width="84.73" height="3.84"/><rect class="cls-6" x="149.5" y="272" width="45.8" height="3.84"/><rect class="cls-7" x="277.14" y="179.03" width="167.39" height="161.17" rx="8.41"/><rect class="cls-3" x="288.84" y="289.44" width="5.49" height="1.58"/><rect class="cls-3" x="301.27" y="297.9" width="7.03" height="1.58"/><rect class="cls-3" x="325.72" y="297.9" width="7.03" height="1.58"/><rect class="cls-3" x="350.18" y="297.9" width="7.03" height="1.58"/><rect class="cls-3" x="374.64" y="297.9" width="7.03" height="1.58"/><rect class="cls-3" x="399.09" y="297.9" width="7.03" height="1.58"/><rect class="cls-3" x="423.55" y="297.9" width="7.03" height="1.58"/><rect class="cls-3" x="288.84" y="268.3" width="5.49" height="1.58"/><rect class="cls-3" x="288.84" y="228.5" width="5.49" height="1.58"/><rect class="cls-3" x="288.84" y="208.5" width="5.49" height="1.58"/><rect class="cls-3" x="289.12" y="248.4" width="5.49" height="1.58"/><path class="cls-3" d="M430.38,291l-.59,0-1.73,0-6.64.05-24.45.08-80.66.07H296.94V291c0-27,.06-50.7.09-67.72,0-8.48.06-15.29.07-20,0-2.33,0-4.14,0-5.39,0-.6,0-1.06,0-1.39s0-.47,0-.47,0,.16,0,.47,0,.79,0,1.39c0,1.25,0,3.06.05,5.39,0,4.7,0,11.51.07,20,0,17,.06,40.75.09,67.72l-.25-.25h19.11l80.66.08,24.45.08,6.64.05,1.73,0Z"/><path class="cls-3" d="M431.93,249.19c0,.15-29,.26-64.71.26s-64.71-.11-64.71-.26,29-.26,64.71-.26S431.93,249.05,431.93,249.19Z"/><path class="cls-3" d="M431.93,229.29c0,.15-29,.26-64.71.26s-64.71-.11-64.71-.26,29-.26,64.71-.26S431.93,229.15,431.93,229.29Z"/><path class="cls-3" d="M431.93,209.3c0,.14-29,.26-64.71.26s-64.71-.12-64.71-.26,29-.26,64.71-.26S431.93,209.15,431.93,209.3Z"/><path class="cls-3" d="M431.93,269.09c0,.14-29,.26-64.71.26s-64.71-.12-64.71-.26,29-.26,64.71-.26S431.93,269,431.93,269.09Z"/><path class="cls-4" d="M303.84,286.74V269.09l11-17.08,7.46,5.73,15.33-23.81,9,6.37,12.57-22,10.22,8.33,15.33-29.14,16.5,32.57,13.36-16.3,15.72-4.49v77.44Z"/><path class="cls-3" d="M431.93,203l-.28,0-.82,0-3.19,0-12.06.07.11,0L402.77,220l-.06.08h-.1l-32.36,0,.21-.13-13.6,22.65c-4.64,7.71-9.13,15.16-13.36,22.21l-.2.32-.22-.31c-6.39-8.79-12.3-16.92-17.53-24.1h.35l-16,24.91-4.46,6.89-1.18,1.8c-.27.4-.43.6-.43.6s.12-.22.37-.64.65-1,1.13-1.83l4.37-6.95,15.83-25,.17-.26.18.25c5.25,7.17,11.18,15.28,17.59,24.06l-.41,0,13.34-22.21L370,219.76l.07-.13h.15l32.36.05-.17.08c5.08-6.55,9.48-12.25,13-16.82l0-.06h.07l12.06.07,3.19,0,.82,0A.9.9,0,0,1,431.93,203Z"/><path class="cls-3" d="M331,246.31a1.25,1.25,0,1,1-1.24-1.19A1.23,1.23,0,0,1,331,246.31Z"/><path class="cls-3" d="M368.35,225.1a1.24,1.24,0,0,1-2.48,0,1.24,1.24,0,0,1,2.48,0Z"/><path class="cls-3" d="M397.37,219.88a1.24,1.24,0,1,1-1.24-1.19A1.22,1.22,0,0,1,397.37,219.88Z"/><ellipse class="cls-6" cx="309.29" cy="319.06" rx="8.03" ry="7.73"/><rect class="cls-6" x="329.24" y="313.88" width="94.32" height="2.89"/><rect class="cls-6" x="329.24" y="321.11" width="39.16" height="2.89"/><rect class="cls-7" x="390.65" y="53.85" width="111.14" height="92.18" rx="4.94"/><rect class="cls-4" x="410.04" y="90.75" width="5.99" height="45.23"/><rect class="cls-4" x="437.27" y="87.08" width="5.99" height="48.9"/><rect class="cls-4" x="465.48" y="80.87" width="5.99" height="55.11"/><rect class="cls-4" x="452.23" y="113.96" width="5.99" height="22.02"/><g class="cls-5"><rect x="452.23" y="113.96" width="5.99" height="22.02"/></g><rect class="cls-4" x="417.03" y="85.91" width="5.99" height="50.08"/><g class="cls-8"><rect x="417.03" y="85.91" width="5.99" height="50.08"/></g><rect class="cls-4" x="444.74" y="75.42" width="5.99" height="60.57"/><g class="cls-8"><rect x="444.74" y="75.42" width="5.99" height="60.57"/></g><rect class="cls-4" x="480.93" y="75.42" width="5.99" height="60.57"/><g class="cls-5"><rect x="480.93" y="75.42" width="5.99" height="60.57"/></g><rect class="cls-4" x="473.11" y="63.46" width="5.99" height="72.53"/><g class="cls-8"><rect x="473.11" y="63.46" width="5.99" height="72.53"/></g><rect class="cls-4" x="424.36" y="104.2" width="5.99" height="31.78"/><g class="cls-5"><rect x="424.36" y="104.2" width="5.99" height="31.78"/></g><path class="cls-3" d="M495.5,138.73c0,.14-21.38.26-47.75.26s-47.75-.12-47.75-.26,21.38-.26,47.75-.26S495.5,138.59,495.5,138.73Z"/><rect class="cls-3" x="397.23" y="127.94" width="3.66" height="1.21"/><rect class="cls-3" x="397.23" y="111.84" width="3.66" height="1.21"/><rect class="cls-3" x="397.23" y="81.55" width="3.66" height="1.21"/><rect class="cls-3" x="397.23" y="66.33" width="3.66" height="1.21"/><rect class="cls-3" x="397.41" y="96.7" width="3.66" height="1.21"/><rect class="cls-4" x="262.66" y="46.35" width="114" height="31.96" rx="3.23"/><path class="cls-6" d="M286.69,67.67a6.94,6.94,0,1,1-1.07-9.77A6.94,6.94,0,0,1,286.69,67.67Z"/><path class="cls-3" d="M281.26,70.29a7,7,0,0,1-.75-13.9,6.79,6.79,0,0,1,.78,0,7,7,0,0,1,5.42,11.33h0A6.9,6.9,0,0,1,282,70.25,6.79,6.79,0,0,1,281.26,70.29Zm0-13.89a6.62,6.62,0,0,0-.77,0,6.92,6.92,0,1,0,6.15,11.21h0a6.92,6.92,0,0,0-5.38-11.25Z"/><path class="cls-4" d="M285.18,61a28.94,28.94,0,0,1-3.74,4l-.92.89-.18.18-.18-.18a20.9,20.9,0,0,1-2.79-3.15,19.22,19.22,0,0,1,3.15,2.79h-.35l.9-.9A29.66,29.66,0,0,1,285.18,61Z"/><path class="cls-6" d="M365.54,60c0,.15-14.49.26-32.37.26s-32.36-.11-32.36-.26,14.49-.26,32.36-.26S365.54,59.85,365.54,60Z"/><path class="cls-6" d="M339,66.31c0,.15-8.38.27-18.71.27s-18.71-.12-18.71-.27,8.37-.26,18.71-.26S339,66.17,339,66.31Z"/></g><g id="Speech_Bubble" data-name="Speech Bubble"><path class="cls-3" d="M551.5,107.17s-.13.17-.41.48-.69.78-1.27,1.35a24.7,24.7,0,0,1-5.8,4,19.93,19.93,0,0,1-2.23,1l-1.23.44-1.32.34a24,24,0,0,1-2.85.55c-.5.06-1,.08-1.53.12a10.49,10.49,0,0,1-1.59,0,24,24,0,0,1-13.67-4.39l.16,0-11.89,2.29-.66.13.44-.51,6.55-7.54,0,.31a27,27,0,0,1-2.92-5.21,26.12,26.12,0,0,1-1.59-6,24,24,0,0,1,28.21-26.72,22.6,22.6,0,0,1,6.82,2.36,23.26,23.26,0,0,1,5.5,4,23.72,23.72,0,0,1,4.91,27.57l-.67,1.32c-.23.4-.48.75-.69,1.09a13.87,13.87,0,0,1-1.17,1.66l-.79,1a2.2,2.2,0,0,1-.29.32,3,3,0,0,1,.25-.35l.74-1a15.33,15.33,0,0,0,1.13-1.67c.2-.34.44-.7.66-1.1l.65-1.31a23.91,23.91,0,0,0,2.09-7.2,23.43,23.43,0,0,0-.88-9.84,23.16,23.16,0,0,0-6.24-10.14,23.39,23.39,0,0,0-12.11-6.2,23.57,23.57,0,0,0-27.61,26.19,23.75,23.75,0,0,0,4.4,11l.12.17-.13.14L508,113.35l-.22-.38,11.89-2.25.09,0,.07,0a23.79,23.79,0,0,0,13.43,4.4,11.69,11.69,0,0,0,1.57,0c.51,0,1-.06,1.51-.11a25.75,25.75,0,0,0,2.82-.51l1.31-.33,1.22-.43a20.37,20.37,0,0,0,2.21-.92,25.22,25.22,0,0,0,5.82-3.92c.59-.55,1-1,1.31-1.3Z"/><polygon class="cls-3" points="533.84 86.55 529.82 85.22 525.81 83.89 526.66 88.03 527.52 92.17 529.7 90.23 539.11 100.79 541.06 99.05 531.65 88.49 533.84 86.55"/></g><g id="Character_2" data-name="Character 2"><path class="cls-4" d="M514.37,365.11l-6.48-6.5L520,346.4l9.58,9.42-.7.8c-3.16,3.55-16.28,17.85-19.2,19.42C506.42,377.8,514.37,365.11,514.37,365.11Z"/><path class="cls-3" d="M525.08,360.15A6,6,0,0,1,524,356a5.71,5.71,0,0,1,1.94-3.73l3.41,3.37Z"/><path class="cls-3" d="M510.66,371.49s-2.55,4.67-1.5,4.81,14.85-13.8,20.41-20.48l-.3-.26-16,16.41S511.4,370.81,510.66,371.49Z"/><path class="cls-9" d="M529.46,355.37l-.19.23-.56.64-2.1,2.31c-1.79,1.94-4.3,4.59-7.13,7.46s-5.46,5.4-7.38,7.21l-2.29,2.13-.63.57-.23.18a1.1,1.1,0,0,1,.2-.21l.61-.6,2.24-2.18c1.89-1.83,4.5-4.39,7.33-7.25s5.35-5.49,7.17-7.41l2.15-2.27.59-.61C529.38,355.43,529.45,355.36,529.46,355.37Z"/><path class="cls-9" d="M513.5,372.15a6.75,6.75,0,0,0-1.47-.63,7.07,7.07,0,0,0-1.6-.09,2.36,2.36,0,0,1,1.65-.12A2.38,2.38,0,0,1,513.5,372.15Z"/><path class="cls-9" d="M515.24,366.74a1.92,1.92,0,0,1-.85-.08,2,2,0,0,1-.81-.28,1.69,1.69,0,0,1,.85.07C514.89,366.55,515.25,366.68,515.24,366.74Z"/><path class="cls-9" d="M515.7,365.23c0,.06-.32.12-.72.15s-.72,0-.72-.07.31-.12.71-.14S515.69,365.17,515.7,365.23Z"/><path class="cls-9" d="M515.16,363.46s-.2.36-.55.72-.66.61-.7.57.21-.36.55-.71S515.12,363.42,515.16,363.46Z"/><path class="cls-9" d="M514.56,362.44a2.56,2.56,0,0,1-1.32,1.56c0-.05.31-.35.67-.78A6.67,6.67,0,0,1,514.56,362.44Z"/><path class="cls-9" d="M513.76,366.1a3.22,3.22,0,0,1-.78.78,6.82,6.82,0,0,1-1,.65,3.14,3.14,0,0,1-.67.28.58.58,0,0,1-.44-.05.4.4,0,0,1-.19-.42,2,2,0,0,1,2.18-1.37,2.14,2.14,0,0,1,.78.26c.16.11.24.18.23.19a3.21,3.21,0,0,0-1-.3,1.91,1.91,0,0,0-1.1.24,1.72,1.72,0,0,0-.87,1c0,.21.17.31.39.25a3,3,0,0,0,.62-.25,7.93,7.93,0,0,0,1-.6C513.44,366.37,513.74,366.07,513.76,366.1Z"/><path class="cls-9" d="M513.6,366.34a1.11,1.11,0,0,1-.63-.45,1.71,1.71,0,0,1-.36-.78,1.12,1.12,0,0,1,.24-1.05.43.43,0,0,1,.6.11,1.15,1.15,0,0,1,.22.48,3.48,3.48,0,0,1,.11.85,1.45,1.45,0,0,1-.13.76s0-.3,0-.76a3.67,3.67,0,0,0-.14-.79c-.06-.28-.29-.64-.52-.48s-.21.57-.18.84a2,2,0,0,0,.29.73A3.66,3.66,0,0,0,513.6,366.34Z"/><path class="cls-9" d="M525.87,352.31a12.64,12.64,0,0,0-.86.93,5.58,5.58,0,0,0-1.14,2.77,5.51,5.51,0,0,0,.52,2.95c.34.71.67,1.07.64,1.1s-.1-.08-.25-.25a4.94,4.94,0,0,1-.52-.78,5.21,5.21,0,0,1,.63-5.88,4.39,4.39,0,0,1,.69-.66C525.75,352.36,525.86,352.29,525.87,352.31Z"/><path class="cls-9" d="M519.53,348.54a30.09,30.09,0,0,1,2.62,2.38,30.93,30.93,0,0,1,2.47,2.52,28.92,28.92,0,0,1-2.62-2.37A31.93,31.93,0,0,1,519.53,348.54Z"/><path class="cls-9" d="M522.37,360.5a9.45,9.45,0,0,1-1.59,2,10.25,10.25,0,0,1-1.91,1.65c0-.05.8-.8,1.76-1.79S522.32,360.47,522.37,360.5Z"/><path class="cls-9" d="M524.74,358.11c.06,0,.1.23.2.49s.22.47.18.51-.26-.13-.37-.43S524.68,358.1,524.74,358.11Z"/><path class="cls-9" d="M524.51,356.09c.06,0,.1.21.11.46s0,.46-.1.46-.11-.2-.11-.46S524.45,356.09,524.51,356.09Z"/><path class="cls-9" d="M525.27,354.29s-.13.21-.24.46-.15.46-.21.47-.12-.27,0-.57S525.25,354.24,525.27,354.29Z"/><path class="cls-9" d="M525.94,353.13s0,.16,0,.3-.16.24-.21.21-.05-.15,0-.29S525.89,353.11,525.94,353.13Z"/><path class="cls-4" d="M464.83,375.86l.22-9.18,17.19.31-.18,13.42-1.07,0c-4.75.18-24.15.58-27.3-.44C450.17,378.89,464.83,375.86,464.83,375.86Z"/><path class="cls-3" d="M475.83,380.17a6,6,0,0,1,2.25-3.63,5.77,5.77,0,0,1,4-1.17l-.08,4.8Z"/><path class="cls-3" d="M457.66,377.59s-5.14,1.39-4.52,2.24,20.25,1.19,28.92.58l0-.38-22.89-.2S458.66,377.65,457.66,377.59Z"/><path class="cls-9" d="M482.3,380l-.29,0-.85,0-3.13.08c-2.64.05-6.28.07-10.31,0s-7.68-.2-10.31-.34l-3.13-.18-.84-.07-.3,0h.3l.85,0,3.12.11c2.64.1,6.28.22,10.31.28s7.67.07,10.31.06h4.27Z"/><path class="cls-9" d="M459.14,380.1a7.08,7.08,0,0,0-.55-1.5,7.35,7.35,0,0,0-1-1.22,2.32,2.32,0,0,1,1.23,1.11A2.29,2.29,0,0,1,459.14,380.1Z"/><path class="cls-9" d="M464.26,377.61c-.05,0-.29-.27-.53-.67s-.4-.74-.35-.77.28.27.53.67S464.31,377.58,464.26,377.61Z"/><path class="cls-9" d="M465.66,376.9s-.3-.14-.6-.41-.49-.53-.45-.57.3.14.6.41S465.7,376.86,465.66,376.9Z"/><path class="cls-9" d="M466.57,375.29a1.86,1.86,0,0,1-.9.1,2,2,0,0,1-.9-.11,2.28,2.28,0,0,1,.9-.1A2.31,2.31,0,0,1,466.57,375.29Z"/><path class="cls-9" d="M466.89,374.16a1.73,1.73,0,0,1-1,.27,1.68,1.68,0,0,1-1-.16,6.15,6.15,0,0,1,1,0A5.06,5.06,0,0,1,466.89,374.16Z"/><path class="cls-9" d="M463.7,376.1a3,3,0,0,1-1.1,0,7.23,7.23,0,0,1-1.17-.28,3,3,0,0,1-.67-.29.61.61,0,0,1-.27-.35.44.44,0,0,1,.18-.44,2,2,0,0,1,2.49.64,2.09,2.09,0,0,1,.35.74.63.63,0,0,1,0,.3,3.1,3.1,0,0,0-.49-.95,2,2,0,0,0-.93-.63,1.73,1.73,0,0,0-1.32.07c-.17.12-.11.33.08.45a3.46,3.46,0,0,0,.62.28,7.24,7.24,0,0,0,1.13.31C463.28,376.06,463.7,376.07,463.7,376.1Z"/><path class="cls-9" d="M463.41,376.15a1.12,1.12,0,0,1-.11-.77,1.82,1.82,0,0,1,.32-.8,1.09,1.09,0,0,1,.92-.54.44.44,0,0,1,.34.51,1.36,1.36,0,0,1-.2.49,3.17,3.17,0,0,1-.53.66,1.68,1.68,0,0,1-.64.44s.22-.2.53-.54a3.76,3.76,0,0,0,.48-.66c.15-.23.26-.64,0-.7s-.57.24-.74.46a1.65,1.65,0,0,0-.32.71A4.07,4.07,0,0,0,463.41,376.15Z"/><path class="cls-9" d="M482,375.32a11.08,11.08,0,0,0-1.26,0,5.39,5.39,0,0,0-4.57,3.51c-.27.73-.31,1.23-.35,1.22a1.33,1.33,0,0,1,0-.35,4.56,4.56,0,0,1,.2-.92,5.25,5.25,0,0,1,4.69-3.61,5.15,5.15,0,0,1,.95,0C481.92,375.27,482,375.3,482,375.32Z"/><path class="cls-9" d="M480.38,368.13a33.22,33.22,0,0,1,.08,3.54,27.35,27.35,0,0,1-.12,3.53,33.22,33.22,0,0,1-.08-3.54A29.69,29.69,0,0,1,480.38,368.13Z"/><path class="cls-9" d="M473.69,378.46a14.43,14.43,0,0,1-5,0c0-.06,1.13,0,2.51,0S473.69,378.4,473.69,378.46Z"/><path class="cls-9" d="M477.06,378.51s-.09.23-.21.49-.19.48-.25.48-.08-.27.06-.57S477,378.47,477.06,378.51Z"/><path class="cls-9" d="M478.36,377s-.08.22-.26.4-.36.28-.4.24.08-.22.26-.39S478.32,376.91,478.36,377Z"/><path class="cls-9" d="M480.19,376.26c0,.06-.24.05-.5.14s-.44.21-.48.17.1-.27.42-.37S480.2,376.21,480.19,376.26Z"/><path class="cls-9" d="M481.49,375.94c0,.06-.08.14-.23.19s-.27.06-.29,0,.08-.14.22-.19S481.47,375.89,481.49,375.94Z"/><path class="cls-10" d="M474.05,179.23c-6.38,18.82-17.86,52.89-17.86,52.89a29.69,29.69,0,0,1-4.76,2.28,12.77,12.77,0,0,1-3.5.35,1.1,1.1,0,0,0-1.07,1.77c.71.68,3.65,1.17,7,.16s.85,4.07-.24,5.74-4.2,7.17-4,7.92c.37,1.09,1.71.63,2.76-1.07s4.23-6.62,4.69-6.37c.91.51-4.57,9.25-4.57,9.25s-1.26,1.54-.29,2.29c1.74,1.35,7.1-8.05,7.59-9,.34-.64.8-.14.4.52s-5.09,8.36-3.67,9.24,4.72-6.79,6.07-8.22c1.53-1.61-3.07,6.42-1.74,7.38.5.36.92.56,3.23-4.09a139,139,0,0,0,5.14-13.94c4.89-9.82,18.92-40.16,23.56-60.81"/><path class="cls-4" d="M477.43,133.31s13.63-3.94,16.32,16.93c1.69,13.07,5.52,44.65,7,60.89.14,1.52-.82.92-.71,2.19.13,1.47,1.44,2.66,1.44,3.71,0,3.35-3.83,3.29-3.83,3.29L462,222s-3.3.07-3.32-2.82c0-2.19,1.43-3.17,1.54-4.53,1.51-19.53,1.49-68.15,3.69-74.83C466,133.47,467.34,133.34,477.43,133.31Z"/><path class="cls-3" d="M480.12,134.32a7,7,0,0,1,.84.89c.5.56,1.2,1.33,1.94,2.2s1.38,1.7,1.82,2.32a5.73,5.73,0,0,1,.64,1,10.35,10.35,0,0,1-.76-1c-.46-.59-1.11-1.4-1.85-2.27s-1.43-1.66-1.9-2.25A5.93,5.93,0,0,1,480.12,134.32Z"/><path class="cls-3" d="M481.69,134a2.54,2.54,0,0,1-.56.27l-1.58.65c-1.34.54-3.2,1.24-5.28,2s-4,1.32-5.35,1.73l-1.64.46a2.52,2.52,0,0,1-.61.14,3.29,3.29,0,0,1,.58-.21l1.62-.53c1.37-.45,3.26-1.07,5.34-1.78s3.94-1.41,5.29-1.9l1.6-.59A4.9,4.9,0,0,1,481.69,134Z"/><path class="cls-3" d="M466.81,135.35a9.7,9.7,0,0,1,.1,1.91,9.56,9.56,0,0,1-.1,1.9,8.35,8.35,0,0,1-.11-1.9A8.47,8.47,0,0,1,466.81,135.35Z"/><path class="cls-1" d="M491.21,140.77c0,.06-6.06.1-13.53.1s-13.53,0-13.53-.1,6.06-.11,13.53-.11S491.21,140.71,491.21,140.77Z"/><path class="cls-1" d="M493,145.22h-.31l-.87,0-3.21-.11-10.6-.33-10.6-.2-3.22,0-.87,0a1.92,1.92,0,0,1-.31,0,1.09,1.09,0,0,1,.31,0l.87,0,3.22,0c2.71,0,6.46,0,10.6.13s7.89.25,10.6.39l3.21.18.87.07Z"/><path class="cls-1" d="M493.37,149.15c0,.06-6.84.11-15.28.11s-15.28,0-15.28-.11,6.84-.1,15.28-.1S493.37,149.09,493.37,149.15Z"/><path class="cls-1" d="M494.16,153.41c0,.06-7.1.11-15.84.11s-15.85-.05-15.85-.11,7.09-.1,15.85-.1S494.16,153.35,494.16,153.41Z"/><path class="cls-1" d="M494.88,158.09c0,.06-7.26.1-16.2.1s-16.21,0-16.21-.1,7.26-.11,16.21-.11S494.88,158,494.88,158.09Z"/><path class="cls-1" d="M495.32,162.76c0,.06-7.35.11-16.42.11s-16.43-.05-16.43-.11,7.35-.1,16.43-.1S495.32,162.71,495.32,162.76Z"/><path class="cls-1" d="M495.89,167.78c0,.05-7.48.1-16.71.1s-16.71,0-16.71-.1,7.48-.11,16.71-.11S495.89,167.72,495.89,167.78Z"/><path class="cls-1" d="M496.45,172.12c0,.06-7.6.1-17,.1s-17,0-17-.1,7.61-.11,17-.11S496.45,172.06,496.45,172.12Z"/><path class="cls-1" d="M497.17,176.89c0,.05-7.76.1-17.35.1s-17.35-.05-17.35-.1,7.77-.11,17.35-.11S497.17,176.83,497.17,176.89Z"/><path class="cls-1" d="M497.58,181.65c0,.06-7.86.11-17.55.11s-17.56,0-17.56-.11,7.86-.1,17.56-.1S497.58,181.6,497.58,181.65Z"/><path class="cls-1" d="M498.13,186.42c0,.06-8,.11-17.83.11s-17.83-.05-17.83-.11,8-.1,17.83-.1S498.13,186.37,498.13,186.42Z"/><path class="cls-1" d="M498.67,191.19c0,.06-8.11.1-18.1.1s-18.1,0-18.1-.1,8.1-.1,18.1-.1S498.67,191.13,498.67,191.19Z"/><path class="cls-1" d="M499.2,196c0,.06-8.41.1-18.79.1s-18.78,0-18.78-.1,8.41-.11,18.78-.11S499.2,195.9,499.2,196Z"/><path class="cls-1" d="M499.71,200.73c0,.05-8.68.1-19.39.1s-19.38-.05-19.38-.1,8.68-.11,19.38-.11S499.71,200.67,499.71,200.73Z"/><path class="cls-1" d="M500.2,205.49c0,.06-8.82.11-19.71.11s-19.7,0-19.7-.11,8.82-.1,19.7-.1S500.2,205.44,500.2,205.49Z"/><path class="cls-1" d="M500.66,210.26c0,.06-8.93.11-19.93.11s-19.94-.05-19.94-.11,8.92-.1,19.94-.1S500.66,210.2,500.66,210.26Z"/><path class="cls-1" d="M500.4,215c0,.06-9,0-20.1-.08s-20.09-.23-20.09-.28,9,0,20.09.07S500.4,215,500.4,215Z"/><path class="cls-1" d="M500.4,219.43c0,.06-9.33.19-20.83.31s-20.83.15-20.83.09,9.32-.19,20.83-.3S500.4,219.37,500.4,219.43Z"/><path class="cls-4" d="M473.51,197.08a9.15,9.15,0,0,0,6.52-1.69,20,20,0,0,0,4.65-5.13,48.08,48.08,0,0,0,8.08-23.63,104.3,104.3,0,0,0-.09-12.92,105.6,105.6,0,0,1-6.27,24.41,62.34,62.34,0,0,1-10.88,18.06"/><g class="cls-5"><path d="M473.51,197.08a9.15,9.15,0,0,0,6.52-1.69,20,20,0,0,0,4.65-5.13,48.08,48.08,0,0,0,8.08-23.63,104.3,104.3,0,0,0-.09-12.92,105.6,105.6,0,0,1-6.27,24.41,62.34,62.34,0,0,1-10.88,18.06"/></g><path class="cls-3" d="M496,201.41a36.7,36.7,0,0,1-3.56,3.37,46.71,46.71,0,0,1-4.26,3.18,46.75,46.75,0,0,1-11.75,5.56,45,45,0,0,1-5.16,1.29,36.53,36.53,0,0,1-4.85.63,1.45,1.45,0,0,1,.33-.06l1-.13c.84-.09,2-.28,3.52-.58a47.3,47.3,0,0,0,5.13-1.33,52.22,52.22,0,0,0,6-2.38,52.87,52.87,0,0,0,5.66-3.16,49.63,49.63,0,0,0,4.28-3.13c1.16-1,2.08-1.78,2.68-2.37l.71-.66Z"/><path class="cls-3" d="M486.21,178.86l-.2-.05-.56-.18-2.05-.71-6.72-2.5c-2.62-1-5-1.74-6.79-2.25l-2.09-.59-.56-.16a.8.8,0,0,1-.2-.07l.21,0,.57.13c.5.11,1.22.29,2.11.52,1.77.48,4.2,1.23,6.83,2.2s5,1.9,6.69,2.55l2,.77.54.22C486.15,178.82,486.21,178.85,486.21,178.86Z"/><path class="cls-3" d="M486.21,178.86s.09-.27.28-.78l.81-2.22c.68-1.93,1.68-4.74,2.65-8.28a116.48,116.48,0,0,0,2.32-12.67,15.78,15.78,0,0,0-.32-7.49,10.15,10.15,0,0,0-2-3.42,15.16,15.16,0,0,0-1.45-1.44,6.14,6.14,0,0,0-1.7-1.15,6.78,6.78,0,0,0-4-.41,9.48,9.48,0,0,0-3.66,1.51c-2.25,1.44-3.29,3.94-4.07,6.19L471,161c-1.16,3.44-2.1,6.25-2.76,8.25-.32.93-.58,1.68-.76,2.24s-.28.77-.28.77.07-.27.24-.79l.72-2.25c.65-2,1.57-4.82,2.7-8.27s2.52-7.66,4-12.26a19.45,19.45,0,0,1,1.49-3.44,8.48,8.48,0,0,1,2.64-2.86,9.57,9.57,0,0,1,3.74-1.54,7,7,0,0,1,4.13.42,6.57,6.57,0,0,1,1.75,1.18,15.59,15.59,0,0,1,1.47,1.46,10.56,10.56,0,0,1,2,3.49,16,16,0,0,1,.31,7.58,113.64,113.64,0,0,1-2.37,12.69c-1,3.54-2,6.34-2.72,8.27S486.21,178.86,486.21,178.86Z"/><path class="cls-3" d="M494.66,236.09l.79,58.14a66.56,66.56,0,0,0,1.25,11.95c1.08,5.36,3,12.36,6.08,16.7,4.72,6.58,21.32,25.2,21.32,25.2l-14,16.33s-29.63-23.6-31.54-45.4c-1-11.07,0-77.26,0-77.26Z"/><path class="cls-3" d="M462,222l-.36,150.41h23.16l4.08-130.87s6.71-4.41,7.89-10.05c1.59-7.63.88-11.19.88-11.19Z"/><rect class="cls-9" x="460.58" y="368.81" width="25.16" height="3.63"/><rect class="cls-9" x="503.71" y="353.29" width="25.16" height="3.63" transform="translate(-96.65 485.36) rotate(-46.52)"/><path class="cls-3" d="M522.65,346s0,.07-.14.18l-.43.47-1.61,1.72c-1.35,1.46-3.18,3.51-5.29,5.7l-5.48,5.51L508,361.27l-.46.44-.17.15s0-.07.14-.18l.43-.47,1.64-1.7L515,354l5.34-5.65c.69-.72,1.25-1.29,1.65-1.68l.46-.44Z"/><path class="cls-9" d="M479.64,221.23s0,.13-.08.38a5.38,5.38,0,0,1-.35,1.08,7,7,0,0,1-1,1.57c-.47.56-1.09,1.14-1.77,1.8a18.07,18.07,0,0,0-2.12,2.32c-.67,1-.61,2.28-.69,3.61-.09,2.7-.19,5.76-.3,9.15s-.24,7.11-.37,11.09-.23,8.25-.36,12.73c-.23,9-.58,18.82-.78,29.17-.35,20.69-.66,39.42-.89,53q-.39,19.86-.42,21.95s0-.52,0-1.52,0-2.49.05-4.37c.06-3.82.14-9.3.23-16.06.21-13.59.5-32.32.83-53,.21-10.34.56-20.2.8-29.17.13-4.48.26-8.74.37-12.73s.28-7.69.4-11.08.24-6.46.34-9.15c.08-1.32,0-2.67.72-3.66A17,17,0,0,1,476.4,226a22.9,22.9,0,0,0,1.78-1.78,6.38,6.38,0,0,0,1.36-2.61C479.6,221.36,479.64,221.23,479.64,221.23Z"/><path class="cls-9" d="M465.8,223c-.05,0-.2-.14-.33-.39s-.2-.47-.15-.49.2.15.33.39S465.85,223,465.8,223Z"/><path class="cls-9" d="M467.12,224.53s-.23-.08-.43-.28-.33-.38-.29-.42.24.09.44.28S467.16,224.48,467.12,224.53Z"/><path class="cls-9" d="M468.82,225.59s-.25,0-.49-.15-.43-.27-.4-.32.25,0,.49.14S468.84,225.53,468.82,225.59Z"/><path class="cls-9" d="M470.74,226.12c0,.06-.24.06-.51,0s-.49-.15-.47-.2.24-.06.51,0S470.74,226.07,470.74,226.12Z"/><path class="cls-9" d="M472.73,226.05c0,.06-.21.13-.48.17s-.51,0-.51-.05.21-.11.48-.16S472.72,226,472.73,226.05Z"/><path class="cls-9" d="M474.6,225.37s-.16.18-.41.3-.48.16-.5.11.17-.19.41-.3S474.57,225.32,474.6,225.37Z"/><path class="cls-9" d="M476.21,224.18s-.1.22-.32.4-.41.3-.44.25.1-.23.31-.4S476.17,224.14,476.21,224.18Z"/><path class="cls-9" d="M477.41,222.59s0,.24-.18.48-.32.39-.36.36,0-.25.18-.48S477.36,222.56,477.41,222.59Z"/><path class="cls-9" d="M477.93,221.34c.06,0,.08.1,0,.2s-.1.16-.15.14-.07-.11,0-.2S477.88,221.32,477.93,221.34Z"/><path class="cls-9" d="M471.78,230c-.06,0-.09-.23-.09-.5s.07-.5.13-.5.09.23.08.5S471.84,230,471.78,230Z"/><path class="cls-9" d="M471.72,232c-.06,0-.1-.23-.09-.5s.06-.5.12-.5.09.23.09.5S471.77,232,471.72,232Z"/><path class="cls-9" d="M471.65,234c-.06,0-.1-.23-.09-.51s.06-.49.12-.49.1.22.09.5S471.71,234,471.65,234Z"/><path class="cls-9" d="M471.59,236c-.06,0-.1-.23-.09-.51s.06-.5.12-.49.09.22.09.5S471.64,236,471.59,236Z"/><path class="cls-9" d="M471.52,238s-.09-.23-.08-.51.06-.5.11-.49.1.22.09.5S471.58,238,471.52,238Z"/><path class="cls-9" d="M471.46,240s-.09-.23-.09-.51.07-.5.12-.49.1.22.09.5S471.52,240,471.46,240Z"/><path class="cls-9" d="M471.4,242s-.09-.23-.09-.51.07-.5.12-.49.1.22.09.5S471.46,242,471.4,242Z"/><path class="cls-9" d="M471.35,244c-.06,0-.1-.23-.09-.51s.06-.49.11-.49.1.22.09.5S471.4,244,471.35,244Z"/><path class="cls-9" d="M471.29,246c-.06,0-.1-.23-.09-.5s.06-.5.12-.5.09.22.09.5S471.35,246,471.29,246Z"/><path class="cls-9" d="M471.23,248c-.06,0-.1-.23-.09-.5s.06-.5.12-.5.1.23.09.5S471.29,248,471.23,248Z"/><path class="cls-9" d="M471.18,250c-.06,0-.1-.22-.09-.5s.06-.5.12-.5.09.23.09.5S471.24,250,471.18,250Z"/><path class="cls-9" d="M471.12,252c-.05,0-.09-.22-.09-.5s.06-.5.12-.5.1.23.09.51S471.18,252,471.12,252Z"/><path class="cls-9" d="M471.07,254c-.05,0-.1-.23-.09-.51s.06-.5.12-.49.1.22.09.5S471.13,254,471.07,254Z"/><path class="cls-9" d="M471,256c-.06,0-.1-.23-.09-.5s.06-.5.12-.5.1.22.09.5S471.08,256,471,256Z"/><path class="cls-9" d="M471,258c-.06,0-.1-.22-.09-.5s.06-.5.12-.5.1.23.09.5S471,258,471,258Z"/><path class="cls-9" d="M470.92,260c-.05,0-.1-.23-.09-.51s.06-.5.12-.5.1.23.09.51S471,260,470.92,260Z"/><path class="cls-9" d="M470.87,262c-.05,0-.09-.23-.09-.5s.06-.5.12-.5.1.22.09.5S470.93,262,470.87,262Z"/><path class="cls-9" d="M470.83,264c-.06,0-.1-.22-.09-.5s.05-.5.11-.5.1.23.09.51S470.89,264,470.83,264Z"/><path class="cls-9" d="M470.78,266c-.06,0-.1-.23-.09-.51s.06-.5.11-.49.1.22.1.5S470.84,266,470.78,266Z"/><path class="cls-9" d="M470.74,268c-.06,0-.1-.22-.1-.5s.06-.5.12-.5.1.23.09.5S470.79,268,470.74,268Z"/><path class="cls-9" d="M470.69,270c-.06,0-.1-.23-.09-.51s.06-.5.11-.5.1.23.1.51S470.75,270,470.69,270Z"/><path class="cls-9" d="M470.65,272c-.06,0-.1-.23-.1-.5s.06-.5.12-.5.1.23.09.5S470.71,272,470.65,272Z"/><path class="cls-9" d="M470.6,274c-.05,0-.09-.23-.09-.51s.06-.5.12-.5.1.23.09.51S470.66,274,470.6,274Z"/><path class="cls-9" d="M470.56,276c-.06,0-.1-.23-.09-.5s.06-.5.11-.5.1.23.1.5S470.62,276,470.56,276Z"/><path class="cls-9" d="M470.52,278c-.06,0-.1-.23-.09-.51s.05-.5.11-.5.1.23.1.51S470.58,278,470.52,278Z"/><path class="cls-9" d="M470.48,280c-.06,0-.1-.22-.09-.5s.05-.5.11-.5.1.23.09.5S470.54,280,470.48,280Z"/><path class="cls-9" d="M470.44,282c-.06,0-.1-.23-.09-.51s0-.5.11-.49.1.22.09.5S470.5,282,470.44,282Z"/><path class="cls-9" d="M470.4,284c-.06,0-.1-.22-.09-.5s.05-.5.11-.5.1.23.09.5S470.46,284,470.4,284Z"/><path class="cls-9" d="M470.36,286.05c-.06,0-.1-.23-.09-.5s.05-.5.11-.5.1.22.09.5S470.42,286.05,470.36,286.05Z"/><path class="cls-9" d="M470.32,288.06c-.06,0-.1-.23-.09-.51s0-.5.11-.5.1.23.09.51S470.38,288.06,470.32,288.06Z"/><path class="cls-9" d="M470.28,290.06c-.06,0-.1-.23-.09-.5s.05-.5.11-.5.1.22.1.5S470.34,290.06,470.28,290.06Z"/><path class="cls-9" d="M470.24,292.07c-.05,0-.1-.23-.09-.51s.06-.5.11-.5.1.23.1.51S470.3,292.07,470.24,292.07Z"/><path class="cls-9" d="M470.21,294.07c-.06,0-.1-.22-.1-.5s.06-.5.12-.5.1.23.09.5S470.26,294.07,470.21,294.07Z"/><path class="cls-9" d="M470.17,296.08c-.06,0-.1-.23-.1-.5s.06-.5.12-.5.1.22.09.5S470.23,296.08,470.17,296.08Z"/><path class="cls-9" d="M470.13,298.09c-.06,0-.1-.23-.09-.51s0-.5.11-.5.1.23.09.51S470.19,298.09,470.13,298.09Z"/><path class="cls-9" d="M470.09,300.09s-.1-.22-.09-.5.06-.5.11-.5.1.23.1.5S470.15,300.09,470.09,300.09Z"/><path class="cls-9" d="M470.06,302.1c-.06,0-.1-.23-.1-.5s.06-.51.12-.5.1.22.09.5S470.11,302.1,470.06,302.1Z"/><path class="cls-9" d="M470,304.1c-.06,0-.1-.22-.09-.5s.05-.5.11-.5.1.23.09.51S470.08,304.11,470,304.1Z"/><path class="cls-9" d="M470,306.11c-.05,0-.1-.23-.09-.5s.05-.5.11-.5.1.22.1.5S470,306.11,470,306.11Z"/><path class="cls-9" d="M470,308.12c-.06,0-.1-.23-.1-.51s.06-.5.12-.5.1.23.09.51S470,308.12,470,308.12Z"/><path class="cls-9" d="M469.91,310.12c-.06,0-.1-.22-.09-.5s.05-.5.11-.5.1.23.09.5S470,310.12,469.91,310.12Z"/><path class="cls-9" d="M469.87,312.13c-.05,0-.1-.23-.09-.5s.05-.5.11-.5.1.22.1.5S469.93,312.13,469.87,312.13Z"/><path class="cls-9" d="M469.84,314.14c-.06,0-.1-.23-.1-.51s.06-.5.12-.5.1.23.09.51S469.89,314.14,469.84,314.14Z"/><path class="cls-9" d="M469.8,316.14c-.06,0-.1-.22-.1-.5s.06-.5.12-.5.1.22.09.5S469.86,316.14,469.8,316.14Z"/><path class="cls-9" d="M469.76,318.15c-.05,0-.1-.23-.09-.51s.05-.5.11-.5.1.23.1.51S469.82,318.15,469.76,318.15Z"/><path class="cls-9" d="M469.73,320.15c-.06,0-.1-.22-.1-.5s.06-.5.11-.5.1.23.1.5S469.78,320.15,469.73,320.15Z"/><path class="cls-9" d="M469.69,322.16c-.06,0-.1-.23-.1-.5s.06-.51.12-.5.1.22.09.5S469.75,322.16,469.69,322.16Z"/><path class="cls-9" d="M469.65,324.16c-.06,0-.1-.22-.09-.5s.05-.5.11-.5.1.23.09.51S469.71,324.17,469.65,324.16Z"/><path class="cls-9" d="M469.61,326.17c-.06,0-.1-.23-.09-.5s.05-.5.11-.5.1.22.1.5S469.67,326.17,469.61,326.17Z"/><path class="cls-9" d="M469.57,328.18c-.05,0-.1-.23-.09-.51s.06-.5.11-.5.1.23.1.51S469.63,328.18,469.57,328.18Z"/><path class="cls-9" d="M469.53,330.18s-.09-.23-.09-.5.06-.5.11-.5.1.22.1.5S469.59,330.18,469.53,330.18Z"/><path class="cls-9" d="M469.5,332.19c-.06,0-.1-.23-.1-.51s.06-.5.12-.5.1.23.09.51S469.55,332.19,469.5,332.19Z"/><path class="cls-9" d="M469.46,334.19c-.06,0-.1-.23-.1-.5s.06-.5.12-.5.1.22.09.5S469.51,334.19,469.46,334.19Z"/><path class="cls-9" d="M469.42,336.19c-.06,0-.1-.22-.1-.5s.06-.5.12-.5.1.23.09.51S469.47,336.2,469.42,336.19Z"/><path class="cls-9" d="M469.37,338.2c-.05,0-.09-.23-.09-.5s.06-.5.12-.5.09.22.09.5S469.43,338.2,469.37,338.2Z"/><path class="cls-9" d="M469.33,340.2c-.05,0-.1-.22-.09-.5s.06-.5.11-.5.1.23.1.5S469.39,340.2,469.33,340.2Z"/><path class="cls-9" d="M469.29,342.21c-.06,0-.1-.23-.09-.51s.05-.5.11-.5.1.23.1.51S469.35,342.21,469.29,342.21Z"/><path class="cls-9" d="M469.25,344.21c-.06,0-.1-.23-.09-.5s0-.5.11-.5.1.22.09.5S469.31,344.21,469.25,344.21Z"/><path class="cls-9" d="M469.21,346.21c-.06,0-.1-.22-.1-.5s.06-.5.12-.5.1.23.09.5S469.26,346.21,469.21,346.21Z"/><path class="cls-9" d="M469.16,348.22c-.06,0-.1-.23-.09-.51s.06-.5.11-.5.1.23.1.51S469.22,348.22,469.16,348.22Z"/><path class="cls-9" d="M469.12,350.22c-.06,0-.1-.23-.1-.5s.06-.5.12-.5.1.22.09.5S469.17,350.22,469.12,350.22Z"/><path class="cls-9" d="M469.07,352.22c-.06,0-.1-.23-.09-.5s.06-.5.11-.5.1.23.1.5S469.13,352.22,469.07,352.22Z"/><path class="cls-9" d="M469,354.22s-.1-.22-.09-.5.06-.5.12-.5.1.23.09.5S469.08,354.22,469,354.22Z"/><path class="cls-9" d="M469,356.22c-.06,0-.1-.22-.1-.5s.06-.5.12-.5.1.23.09.51S469,356.23,469,356.22Z"/><path class="cls-9" d="M468.93,358.23c-.06,0-.1-.23-.1-.51s.06-.5.12-.49.1.22.09.5S469,358.23,468.93,358.23Z"/><path class="cls-9" d="M468.88,360.23c-.06,0-.1-.23-.09-.51s0-.5.11-.49.1.22.09.5S468.93,360.23,468.88,360.23Z"/><path class="cls-9" d="M468.83,362.23c-.06,0-.1-.23-.09-.51s.05-.49.11-.49.1.22.09.5S468.88,362.23,468.83,362.23Z"/><path class="cls-9" d="M468.77,364.23s-.09-.23-.09-.51.06-.49.12-.49.1.22.09.5S468.83,364.23,468.77,364.23Z"/><path class="cls-9" d="M468.72,366.23c-.06,0-.1-.23-.09-.51s.06-.49.12-.49.1.22.09.5S468.78,366.23,468.72,366.23Z"/><path class="cls-9" d="M468.67,368.13c-.06,0-.1-.2-.09-.45s.06-.45.11-.45.1.2.1.45S468.73,368.13,468.67,368.13Z"/><path class="cls-10" d="M467,138.6c-.1-2-.65-10.86-.65-10.86s-6.27-.39-6.92-6.55-.9-20.44-.9-20.44h0a21.75,21.75,0,0,1,21.86.61l1.56,1,.16,7.25-.35,6.52-.27,17.74-14.45,4.78S467,138.62,467,138.6Z"/><path class="cls-3" d="M459.52,110.65a.79.79,0,1,0,.76-.82A.79.79,0,0,0,459.52,110.65Z"/><path class="cls-3" d="M459.46,110.38c.11.09.67-.43,1.52-.51s1.51.3,1.59.18-.07-.24-.36-.42a2,2,0,0,0-1.28-.27,2.06,2.06,0,0,0-1.2.53C459.49,110.13,459.41,110.33,459.46,110.38Z"/><path class="cls-3" d="M469.23,109.61a.79.79,0,1,0,1.11.16A.8.8,0,0,0,469.23,109.61Z"/><path class="cls-3" d="M468.91,110c.1.1.67-.43,1.51-.51s1.51.3,1.6.18-.08-.24-.37-.41a2.09,2.09,0,0,0-2.48.26C468.93,109.71,468.85,109.92,468.91,110Z"/><path class="cls-3" d="M466.15,117.29a4.59,4.59,0,0,1-1.4.17.75.75,0,0,1-.79-.33,1.42,1.42,0,0,1,0-.92l.48-1.8a26.05,26.05,0,0,1,1.48-4.56,25.31,25.31,0,0,1-1,4.67l-.51,1.8a1.21,1.21,0,0,0-.09.66c0,.12.22.16.44.16A4.29,4.29,0,0,1,466.15,117.29Z"/><path class="cls-6" d="M469,118c.84-.61-2.32,1.52-4.06,1.6a2.38,2.38,0,0,0,2.86.68C469.59,119.4,469,118,469,118Z"/><path class="cls-11" d="M466.39,127.85a15.38,15.38,0,0,0,8.06-3.12s-1.65,4.62-7.86,4.64Z"/><path class="cls-3" d="M478.74,97.13a24.54,24.54,0,0,0-5.69-3.58,8.31,8.31,0,0,0-6.56-.1c-.94.44-1.76,1.11-2.72,1.49-2,.78-4.52.2-6.29,1.46a4.3,4.3,0,0,0-1,5.37,6.39,6.39,0,0,0,4.87,3.06,13.06,13.06,0,0,0,5.85-.85c1.11-.39,2.31-.85,3.4-.43s1.76,1.55,2.88,1.65,2.11-.63,2.82,0a2,2,0,0,1,.44,1.09c.38,2.12,1.64,6.42,2,8.55,1.4.61,2-1.27,3.57-1.3.25-4.71,2.27-9.43,1.09-14a4.76,4.76,0,0,0-1.8-2.89,2.36,2.36,0,0,0-3.13.35"/><path class="cls-10" d="M479.69,108.64c.11-.08,4.14-1.56,4.86,3.43S480,116.13,480,116,479.69,108.64,479.69,108.64Z"/><path class="cls-11" d="M481.24,114s.1,0,.25.09a.82.82,0,0,0,.65-.08,2.18,2.18,0,0,0,.72-2.07,3,3,0,0,0-.42-1.21,1,1,0,0,0-.75-.57.44.44,0,0,0-.48.31c0,.15,0,.25,0,.26s-.12-.07-.11-.28a.56.56,0,0,1,.16-.34.64.64,0,0,1,.46-.2,1.25,1.25,0,0,1,1,.64,3.09,3.09,0,0,1,.5,1.35,2.27,2.27,0,0,1-1,2.33.93.93,0,0,1-.81,0C481.27,114.14,481.22,114,481.24,114Z"/><path class="cls-3" d="M477.67,93.79c.14,0,.44.76.67,1.77s.31,1.85.17,1.88-.44-.76-.67-1.77S477.53,93.83,477.67,93.79Z"/><path class="cls-3" d="M479.86,94c.14,0-.09.86-.49,1.8s-.85,1.65-1,1.6.09-.87.5-1.81S479.73,94,479.86,94Z"/><path class="cls-10" d="M467.79,172.6a11.22,11.22,0,0,1-1.77,3.93c-2.84,3.1-27.39-23.59-27.39-23.59a27.43,27.43,0,0,1-.19-5.2,12.31,12.31,0,0,1,1.06-3.3c.56-.91-.28-2-1.18-1.66s-2.5,2.84-2.91,6.25-4-.82-5.1-2.47-4.84-6.62-5.61-6.69c-1.13-.1-1.25,1.29-.13,2.91s4.34,6.43,3.92,6.75c-.81.62-6.57-7.77-6.57-7.77S421,140,420,140.6c-1.91,1,4.49,9.58,5.12,10.39.43.55-.19.77-.63.15s-5.57-7.89-6.92-7,4.28,6.95,5,8.72c.87,2-4.59-5.29-6-4.47-.53.31-.87.61,2.43,4.52a133.71,133.71,0,0,0,10.6,10.13c7,8.3,31.08,35.88,42.36,34.33a8.32,8.32,0,0,0,6.2-3.87,86.63,86.63,0,0,0,7.67-14.81Z"/></g><g id="Character_1" data-name="Character 1"><path class="cls-4" d="M202.36,374l-.23-9.18-17.18.31.18,13.42,1.07,0c4.74.18,24.15.58,27.3-.44C217,377,202.36,374,202.36,374Z"/><path class="cls-3" d="M191.29,378.32A6,6,0,0,0,189,374.7a5.78,5.78,0,0,0-4-1.18l.08,4.8Z"/><path class="cls-3" d="M209.52,375.72s5.15,1.39,4.52,2.24-20.24,1.19-28.91.58l0-.38L208,378S208.52,375.78,209.52,375.72Z"/><path class="cls-9" d="M184.88,378.15H186l3.12,0c2.64,0,6.29,0,10.32-.06s7.67-.18,10.3-.28l3.13-.12.85,0h.3l-.3,0-.85.06-3.12.19c-2.64.13-6.28.27-10.31.34s-7.68.05-10.32,0l-3.12-.08-.85,0A1.16,1.16,0,0,1,184.88,378.15Z"/><path class="cls-9" d="M208,378.23a2.33,2.33,0,0,1,.38-1.61,2.36,2.36,0,0,1,1.22-1.11,7.63,7.63,0,0,0-1,1.22A7.25,7.25,0,0,0,208,378.23Z"/><path class="cls-9" d="M202.93,375.74c-.05,0,.11-.38.35-.78s.48-.69.53-.66-.11.37-.35.77S203,375.77,202.93,375.74Z"/><path class="cls-9" d="M201.52,375s.17-.3.46-.57.56-.45.6-.41-.17.29-.46.57S201.56,375.07,201.52,375Z"/><path class="cls-9" d="M200.62,373.42a2.28,2.28,0,0,1,.89-.11,2,2,0,0,1,.9.1,1.94,1.94,0,0,1-.9.11A2,2,0,0,1,200.62,373.42Z"/><path class="cls-9" d="M200.29,372.28a6.79,6.79,0,0,1,1,.07,5.14,5.14,0,0,1,1,0,1.73,1.73,0,0,1-1,.16A1.7,1.7,0,0,1,200.29,372.28Z"/><path class="cls-9" d="M203.48,374.23s.43,0,1.08-.17a7.33,7.33,0,0,0,1.14-.31,3.37,3.37,0,0,0,.61-.28c.2-.12.26-.33.08-.45a1.7,1.7,0,0,0-1.31-.07,2.05,2.05,0,0,0-.94.63,2.68,2.68,0,0,0-.48.95s0-.11,0-.3a1.92,1.92,0,0,1,.35-.74,2,2,0,0,1,2.49-.64.44.44,0,0,1,.18.44.61.61,0,0,1-.27.35,3.16,3.16,0,0,1-.67.29,7.23,7.23,0,0,1-1.17.28A3,3,0,0,1,203.48,374.23Z"/><path class="cls-9" d="M203.77,374.28a3.48,3.48,0,0,0,0-.74,1.93,1.93,0,0,0-.32-.71c-.18-.22-.46-.49-.74-.46s-.16.47,0,.7a4.18,4.18,0,0,0,.47.66c.32.34.56.51.54.54a1.68,1.68,0,0,1-.64-.44,3.39,3.39,0,0,1-.53-.66,1.08,1.08,0,0,1-.2-.49.45.45,0,0,1,.33-.52,1.14,1.14,0,0,1,.93.55,1.82,1.82,0,0,1,.32.8A1,1,0,0,1,203.77,374.28Z"/><path class="cls-9" d="M185.15,373.44a1.49,1.49,0,0,1,.34-.08,4.29,4.29,0,0,1,.94,0,5.33,5.33,0,0,1,2.91,1.08,5.22,5.22,0,0,1,1.78,2.53,4.07,4.07,0,0,1,.21.92,1.07,1.07,0,0,1,0,.35s-.07-.49-.35-1.22a5.36,5.36,0,0,0-4.56-3.51C185.64,373.39,185.16,373.48,185.15,373.44Z"/><path class="cls-9" d="M186.81,366.26a29.69,29.69,0,0,1,.12,3.53,29,29,0,0,1-.09,3.54,29.94,29.94,0,0,1-.12-3.54A28.82,28.82,0,0,1,186.81,366.26Z"/><path class="cls-9" d="M193.49,376.58c0-.06,1.13,0,2.52,0s2.5-.09,2.51,0a10.28,10.28,0,0,1-2.51.24A9.56,9.56,0,0,1,193.49,376.58Z"/><path class="cls-9" d="M190.13,376.64c0-.05.26.1.4.4s.11.57.05.57-.12-.23-.24-.48S190.08,376.68,190.13,376.64Z"/><path class="cls-9" d="M188.83,375.08s.22.07.4.25.29.35.25.39-.22-.07-.4-.25S188.79,375.12,188.83,375.08Z"/><path class="cls-9" d="M187,374.39c0-.05.24-.17.56-.06s.46.34.42.37-.23-.1-.48-.17S187,374.45,187,374.39Z"/><path class="cls-9" d="M185.7,374.07c0-.05.15-.05.3,0s.24.14.22.19-.15.06-.29,0S185.68,374.12,185.7,374.07Z"/><path class="cls-10" d="M262.55,116.61s14.67-15.15,16-14.47-5.38,6.84-4.49,7.64,8,6.17-3.42,14.69Z"/><path class="cls-11" d="M275.18,112.22a3,3,0,0,1-.24.45c-.23.38-.46.77-.71,1.17-.34.56-.7,1.13-1.07,1.73a2.54,2.54,0,0,1-.87.89,1.09,1.09,0,0,1-1.31-.19,1.17,1.17,0,0,1,.09-1.32c.22-.37.44-.69.65-1,.38-.59.75-1.16,1.11-1.7s.52-.77.76-1.14a2.85,2.85,0,0,1,.31-.4,2,2,0,0,1-.24.44l-.71,1.18L271.88,114l-.64,1c-.19.34-.35.78-.1,1.09a.91.91,0,0,0,1.06.14,2.3,2.3,0,0,0,.8-.81c.38-.6.75-1.16,1.11-1.71l.76-1.13A3.56,3.56,0,0,1,275.18,112.22Z"/><path class="cls-11" d="M275.92,113.89s0,.15-.05.43a5.92,5.92,0,0,1-.38,1.13,6.71,6.71,0,0,1-.94,1.49,2.74,2.74,0,0,1-.81.69.93.93,0,0,1-1.15-.11,1.13,1.13,0,0,1-.15-1.15,4.58,4.58,0,0,1,.55-.9c.38-.53.68-1,.94-1.47s.49-.76.66-1a1.52,1.52,0,0,1,.27-.34s-.06.14-.21.38-.39.68-.59,1-.54,1-.91,1.5a3.94,3.94,0,0,0-.52.86.93.93,0,0,0,.12.94.72.72,0,0,0,.9.07,2.43,2.43,0,0,0,.75-.64,6.5,6.5,0,0,0,1-1.43A11.49,11.49,0,0,0,275.92,113.89Z"/><path class="cls-10" d="M267.09,113.49l5.37-.36a.7.7,0,0,1,.29,0c.29.1.33.49.26.79a3,3,0,0,1-1.86,2,8.9,8.9,0,0,1-2.77.47l-2.57.15"/><path class="cls-11" d="M265.81,116.52a3.39,3.39,0,0,1,.58-.07l1.58-.13a18.66,18.66,0,0,0,2.32-.26,3.61,3.61,0,0,0,2.32-1.44,1.35,1.35,0,0,0,.24-1.28c-.1-.16-.33-.11-.57-.1l-.68,0-2.35.14-1.58.07a2.14,2.14,0,0,1-.58,0,3.91,3.91,0,0,1,.57-.08l1.58-.14,2.35-.18.67,0c.12,0,.23,0,.37,0a.5.5,0,0,1,.38.19,1,1,0,0,1,.09.8,2.31,2.31,0,0,1-.32.72,3.74,3.74,0,0,1-2.45,1.5,14.46,14.46,0,0,1-2.35.22l-1.59.07A2.39,2.39,0,0,1,265.81,116.52Z"/><path class="cls-11" d="M276.83,115.37a2.77,2.77,0,0,1-.12.32,8.22,8.22,0,0,0-.27.88,4.92,4.92,0,0,1-.51,1.32,1.8,1.8,0,0,1-.59.61.72.72,0,0,1-.48.12.64.64,0,0,1-.43-.29,1,1,0,0,1-.06-.94c.1-.28.22-.52.32-.76l.58-1.26a6.76,6.76,0,0,1,.58-1.14,8.17,8.17,0,0,1-.44,1.2l-.54,1.28c-.17.47-.57,1-.27,1.5a.43.43,0,0,0,.63.12,1.67,1.67,0,0,0,.54-.55,5,5,0,0,0,.52-1.25A2.84,2.84,0,0,1,276.83,115.37Z"/><path class="cls-11" d="M270,120.82c-.06,0,.22-1,.3-2.29s-.07-2.29,0-2.3a5.88,5.88,0,0,1,.21,2.32A5.76,5.76,0,0,1,270,120.82Z"/><path class="cls-3" d="M200.3,111.57a11.42,11.42,0,0,0,5.44,9.71,25.77,25.77,0,0,1,2.69,1.6,3.41,3.41,0,0,1,1.45,2.66c-.07,1.63-1.72,2.67-3.18,3.41a4,4,0,1,1-5.83,5.6,7.46,7.46,0,0,1-5.48,6.62,10.39,10.39,0,0,1-8.7-1.78,17.53,17.53,0,0,1-5.55-7.2"/><path class="cls-10" d="M192.87,140.16c-.26-1.55.37-8,.37-8s5.93-.63,6.29-6.52,0-19.45,0-19.45l-10.81-5.28-11.88,9,1.8,29.42Z"/><path class="cls-3" d="M198.35,116a.76.76,0,1,1-.75-.75A.76.76,0,0,1,198.35,116Z"/><path class="cls-3" d="M199.08,115.22c-.1.1-.66-.37-1.47-.42s-1.42.35-1.5.24.06-.23.33-.41a2,2,0,0,1,1.2-.32,1.94,1.94,0,0,1,1.16.46C199.05,115,199.12,115.18,199.08,115.22Z"/><path class="cls-3" d="M189.62,116a.75.75,0,1,1-.75-.75A.75.75,0,0,1,189.62,116Z"/><path class="cls-3" d="M190.09,115.22c-.1.1-.65-.37-1.46-.42s-1.42.35-1.51.24.06-.23.33-.41a2,2,0,0,1,2.37.14C190.06,115,190.14,115.18,190.09,115.22Z"/><path class="cls-3" d="M193,122a5.12,5.12,0,0,1,1.31-.16c.21,0,.42,0,.47-.19a1.1,1.1,0,0,0-.11-.65c-.18-.55-.37-1.1-.56-1.67-.38-1.19-.72-2.27-.94-3.06a5.76,5.76,0,0,1-.31-1.29,5.19,5.19,0,0,1,.52,1.22c.28.77.64,1.84,1,3,.18.58.36,1.12.53,1.68a1.25,1.25,0,0,1,.08.84.71.71,0,0,1-.7.31A5.94,5.94,0,0,1,193,122Z"/><path class="cls-6" d="M190.34,122.84c-.82-.55,2.26,1.35,3.92,1.35a2.25,2.25,0,0,1-2.69.76C189.84,124.22,190.34,122.84,190.34,122.84Z"/><path class="cls-11" d="M193.24,132.12a14.71,14.71,0,0,1-7.8-2.64s1.77,4.32,7.67,4.08Z"/><path class="cls-3" d="M197.05,101.83c-5.83-6.06-9.83-4.8-12.12-4.8a18.4,18.4,0,0,0-12.75,7.36h0c-1.63,1.69-4,7.21-4.22,9.15a46.35,46.35,0,0,0,.06,5.89c0,2-.46,4.08-1.93,5.38-.94.83-2.24,1.3-2.8,2.41a3.12,3.12,0,0,0,1.29,3.78,7,7,0,0,0,4.2.86,5.93,5.93,0,0,0,4.8,6.31,5.7,5.7,0,0,0,4.21-1.1,32.34,32.34,0,0,0,3.13,2.69q.38-12.84-.53-25.68c3.92-.7,11-2.81,12.19-9.1,1.57,3.58,3.95,5.53,7.11,8.24C199.69,113.22,202.89,107.89,197.05,101.83Z"/><path class="cls-3" d="M180.82,111.81a9.51,9.51,0,0,1,2.4,0,12.31,12.31,0,0,0,5.58-.65,5.15,5.15,0,0,0,2.33-1.89,6.45,6.45,0,0,0,.94-2.32c.27-1.42.14-2.35.23-2.35a4.82,4.82,0,0,1,.13,2.42,6.39,6.39,0,0,1-.89,2.52,5.52,5.52,0,0,1-2.53,2.1,11.47,11.47,0,0,1-5.82.54A12.85,12.85,0,0,1,180.82,111.81Z"/><path class="cls-3" d="M165.5,126.21a3.54,3.54,0,0,0,1-.13,2.63,2.63,0,0,0,1.59-1.91,6.42,6.42,0,0,0-.71-3.81,15,15,0,0,1-.84-2.29,7.79,7.79,0,0,1-.16-2.65,11,11,0,0,1,1.75-4.74,18.13,18.13,0,0,1,2.66-3.13c.84-.81,1.56-1.41,2.07-1.82a4,4,0,0,1,.82-.59c.06.07-1,1-2.63,2.67a19.57,19.57,0,0,0-2.51,3.13,10.7,10.7,0,0,0-1.65,4.53A7.55,7.55,0,0,0,167,118a16.31,16.31,0,0,0,.78,2.23,6.58,6.58,0,0,1,.63,4.07,2.75,2.75,0,0,1-1.89,2,1.92,1.92,0,0,1-.77,0C165.57,126.27,165.49,126.23,165.5,126.21Z"/><path class="cls-3" d="M208.23,117.8s.2.22.19.71a2.22,2.22,0,0,1-1,1.72,3,3,0,0,1-2.95,0,6.26,6.26,0,0,1-2.49-2.6,16,16,0,0,1-2.07-6.08,7.74,7.74,0,0,1,0-2.66c.08,0,.11,1,.4,2.6a17.88,17.88,0,0,0,2.15,5.88,6,6,0,0,0,2.25,2.43,2.67,2.67,0,0,0,2.54.08,2.09,2.09,0,0,0,1-1.43C208.28,118.06,208.19,117.82,208.23,117.8Z"/><path class="cls-3" d="M199.13,210.33s20.05,65.08,18.79,86.09S202,369.62,202,369.62Z"/><path class="cls-3" d="M170.82,199.25c-.45-.12-9.24,12.8-9.53,23.9a27.73,27.73,0,0,0,.12,3.27,40.76,40.76,0,0,0,2.77,11.33c7.43,18.77,15.1,41,15.22,46.1.39,15.63,3.44,87.46,3.44,87.46l21.61-1.53-.71-85.92-5.27-85.32Z"/><path class="cls-9" d="M182.62,198.88c.13,0,.19,2.4.19,6.75s-.21,10.67.08,18.46c.09,1.95.15,4,.33,6.11s.33,4.32.56,6.6c.47,4.56,1.13,9.41,1.94,14.5s1.73,10.42,2.51,16,1.39,11.33,1.71,17.27.28,11.76.39,17.37.21,11,.36,16.17c.3,10.3.67,19.57,1,27.36l.68,18.45c.06,2.16.11,3.85.15,5s0,1.75,0,1.75c-.06-1.41-.4-9.92-1-25.21-.32-7.79-.7-17.06-1-27.37-.16-5.15-.29-10.56-.38-16.17s0-11.42-.39-17.35-.93-11.71-1.71-17.27-1.69-10.88-2.49-16-1.46-10-1.92-14.51c-.23-2.28-.43-4.49-.55-6.61s-.23-4.17-.32-6.11c-.26-7.8,0-14.11,0-18.47,0-2.18,0-3.87,0-5A7,7,0,0,0,182.62,198.88Z"/><rect class="cls-9" x="182.73" y="368.21" width="21.72" height="3.27"/><path class="cls-9" d="M184.09,199.54c-.06,0-.11-.22-.12-.5s0-.5.09-.5.11.22.12.5S184.15,199.54,184.09,199.54Z"/><path class="cls-9" d="M184.15,201.54c-.06,0-.11-.22-.12-.5s0-.5.09-.5.11.22.12.5S184.21,201.54,184.15,201.54Z"/><path class="cls-9" d="M184.21,203.54c-.06,0-.11-.22-.12-.5s0-.5.09-.5.11.22.12.5S184.27,203.54,184.21,203.54Z"/><path class="cls-9" d="M184.27,205.54c-.06,0-.11-.22-.12-.5s0-.5.09-.5.11.22.12.49S184.32,205.54,184.27,205.54Z"/><path class="cls-9" d="M184.33,207.54c-.06,0-.12-.22-.12-.5s0-.5.09-.5.11.22.11.49S184.38,207.53,184.33,207.54Z"/><path class="cls-9" d="M184.38,209.54s-.11-.23-.12-.5,0-.5.09-.5.12.22.12.49S184.44,209.53,184.38,209.54Z"/><path class="cls-9" d="M184.44,211.53c-.06,0-.11-.22-.12-.49s0-.5.09-.51.11.23.12.5S184.5,211.53,184.44,211.53Z"/><path class="cls-9" d="M184.5,213.53c-.06,0-.11-.22-.12-.49s0-.5.09-.51.11.22.12.5S184.56,213.53,184.5,213.53Z"/><path class="cls-9" d="M184.56,215.53c-.06,0-.11-.22-.12-.49s0-.51.09-.51.11.22.12.5S184.62,215.53,184.56,215.53Z"/><path class="cls-9" d="M184.62,217.53c-.06,0-.11-.22-.12-.49s0-.51.09-.51.11.22.12.5S184.67,217.53,184.62,217.53Z"/><path class="cls-9" d="M184.68,219.53c-.06,0-.11-.22-.12-.5s0-.5.09-.5.11.22.12.5S184.73,219.53,184.68,219.53Z"/><path class="cls-9" d="M184.69,221.54c-.06,0-.11-.23-.11-.51s0-.5.1-.5.11.23.11.5S184.74,221.53,184.69,221.54Z"/><path class="cls-9" d="M184.71,223.54c-.05,0-.1-.22-.11-.5s0-.5.1-.5.1.22.11.5S184.77,223.54,184.71,223.54Z"/><path class="cls-9" d="M184.76,225.54c-.06,0-.11-.22-.12-.5s0-.5.09-.5.11.22.12.5S184.82,225.54,184.76,225.54Z"/><path class="cls-9" d="M184.82,227.54s-.11-.22-.12-.49,0-.51.09-.51.11.22.12.5S184.88,227.54,184.82,227.54Z"/><path class="cls-9" d="M184.91,229.54c-.06,0-.11-.21-.13-.49s0-.5.08-.51.12.22.13.5S185,229.54,184.91,229.54Z"/><path class="cls-9" d="M185,231.54c-.06,0-.12-.21-.14-.49s0-.5.08-.51.12.22.13.5S185.07,231.54,185,231.54Z"/><path class="cls-9" d="M185.15,233.54c-.06,0-.12-.21-.14-.49s0-.5.07-.51.12.22.14.5S185.2,233.54,185.15,233.54Z"/><path class="cls-9" d="M185.3,235.54c-.06,0-.12-.22-.15-.49s0-.51.07-.51.12.22.14.49S185.35,235.53,185.3,235.54Z"/><path class="cls-9" d="M185.47,237.53c-.06,0-.12-.21-.15-.49s0-.5.06-.51.12.22.15.49S185.53,237.53,185.47,237.53Z"/><path class="cls-9" d="M185.67,239.52c-.06,0-.13-.21-.16-.49s0-.5.06-.5.12.21.15.48S185.72,239.52,185.67,239.52Z"/><path class="cls-9" d="M185.88,241.51s-.12-.21-.15-.49,0-.5,0-.5.13.21.16.48S185.94,241.5,185.88,241.51Z"/><path class="cls-9" d="M186.12,243.49c-.05,0-.13-.21-.16-.48s0-.5,0-.51.13.21.17.48S186.18,243.49,186.12,243.49Z"/><path class="cls-9" d="M186.38,245.47s-.13-.2-.17-.48,0-.5,0-.5.13.2.17.48S186.44,245.47,186.38,245.47Z"/><path class="cls-9" d="M186.66,247.45s-.13-.21-.17-.48,0-.5,0-.51.14.21.17.48S186.72,247.44,186.66,247.45Z"/><path class="cls-9" d="M187,249.42c-.06,0-.14-.2-.18-.48s0-.5,0-.51.13.21.18.48S187,249.41,187,249.42Z"/><path class="cls-9" d="M187.27,251.4c-.06,0-.14-.21-.18-.48s0-.5,0-.51.14.2.18.48S187.32,251.39,187.27,251.4Z"/><path class="cls-9" d="M187.59,253.37c-.06,0-.14-.21-.18-.48s0-.5,0-.51.14.21.18.48S187.65,253.36,187.59,253.37Z"/><path class="cls-9" d="M187.92,255.34c-.06,0-.14-.21-.19-.48s0-.5,0-.51.14.2.19.48S188,255.33,187.92,255.34Z"/><path class="cls-9" d="M188.25,257.3c-.05,0-.14-.2-.18-.47s0-.5,0-.51.14.2.19.47S188.31,257.29,188.25,257.3Z"/><path class="cls-9" d="M188.59,259.27c-.06,0-.14-.2-.19-.47s0-.5,0-.51.14.2.19.47S188.64,259.26,188.59,259.27Z"/><path class="cls-9" d="M188.92,261.24c-.06,0-.14-.21-.19-.48s0-.5,0-.51.14.21.19.48S189,261.23,188.92,261.24Z"/><path class="cls-9" d="M189.24,263.2c-.05,0-.14-.2-.18-.47s0-.5,0-.51.14.2.18.47S189.3,263.19,189.24,263.2Z"/><path class="cls-9" d="M189.56,265.17c-.06,0-.14-.2-.18-.48s0-.49,0-.5.14.2.18.47S189.61,265.16,189.56,265.17Z"/><path class="cls-9" d="M189.86,267.14c-.06,0-.14-.2-.18-.48s0-.5,0-.5.14.2.18.47S189.91,267.13,189.86,267.14Z"/><path class="cls-9" d="M190.14,269.11s-.13-.2-.17-.47,0-.5,0-.51.14.2.18.48S190.2,269.11,190.14,269.11Z"/><path class="cls-9" d="M190.41,271.09c-.06,0-.13-.21-.17-.48s0-.5,0-.51.13.21.17.48S190.47,271.08,190.41,271.09Z"/><path class="cls-9" d="M190.66,273.07c-.06,0-.13-.21-.17-.48s0-.5,0-.51.13.21.16.48S190.71,273.06,190.66,273.07Z"/><path class="cls-9" d="M190.88,275.05c-.06,0-.13-.21-.16-.48s0-.5.05-.51.13.21.16.49S190.94,275.05,190.88,275.05Z"/><path class="cls-9" d="M191.08,277c-.05,0-.12-.21-.15-.49s0-.5.06-.5.12.21.15.48S191.14,277,191.08,277Z"/><path class="cls-9" d="M191.26,279s-.12-.21-.14-.49,0-.5.06-.5.12.21.14.48S191.32,279,191.26,279Z"/><path class="cls-9" d="M191.42,281c-.06,0-.12-.21-.14-.49s0-.5.07-.5.12.21.14.49S191.48,281,191.42,281Z"/><path class="cls-9" d="M191.56,283c-.06,0-.12-.22-.14-.49s0-.51.07-.51.12.22.14.49S191.61,283,191.56,283Z"/><path class="cls-9" d="M191.67,285c-.06,0-.12-.22-.13-.5s0-.5.08-.5.11.22.13.49S191.73,285,191.67,285Z"/><path class="cls-9" d="M191.76,287c-.06,0-.11-.22-.13-.5s0-.5.09-.5.11.22.12.5S191.82,287,191.76,287Z"/><path class="cls-9" d="M191.83,289c-.06,0-.11-.22-.12-.49s0-.5.09-.5.11.22.12.49S191.89,289,191.83,289Z"/><path class="cls-9" d="M191.88,291c-.06,0-.11-.22-.12-.5s0-.5.1-.5.11.22.11.5S191.94,291,191.88,291Z"/><path class="cls-9" d="M191.91,293c-.06,0-.11-.22-.11-.5s0-.5.1-.5.1.22.11.5S192,293,191.91,293Z"/><path class="cls-9" d="M191.92,295c-.06,0-.1-.22-.11-.5s.05-.5.11-.5.1.23.1.5S192,295,191.92,295Z"/><path class="cls-9" d="M191.94,297c-.06,0-.11-.22-.11-.5s0-.5.1-.5.11.23.11.5S192,297,191.94,297Z"/><path class="cls-9" d="M192,299c-.06,0-.1-.22-.11-.5s0-.5.1-.5.11.23.11.5S192,299,192,299Z"/><path class="cls-9" d="M192,301c-.06,0-.11-.22-.11-.5s0-.5.1-.5.1.23.11.5S192.05,301,192,301Z"/><path class="cls-9" d="M192,303c-.06,0-.11-.22-.11-.5s0-.5.09-.5.11.23.12.5S192.08,303,192,303Z"/><path class="cls-9" d="M192.06,305c-.06,0-.11-.22-.12-.5s0-.5.1-.5.11.22.11.5S192.11,305,192.06,305Z"/><path class="cls-9" d="M192.1,307c-.06,0-.11-.22-.12-.5s0-.5.1-.5.1.22.11.5S192.15,307,192.1,307Z"/><path class="cls-9" d="M192.14,309c-.06,0-.11-.22-.12-.5s0-.5.1-.5.11.22.11.5S192.2,309,192.14,309Z"/><path class="cls-9" d="M192.19,311c-.06,0-.11-.22-.12-.5s0-.5.09-.5.11.22.12.5S192.24,311,192.19,311Z"/><path class="cls-9" d="M192.24,313c-.06,0-.11-.22-.12-.5s0-.5.09-.5.11.22.12.5S192.29,313,192.24,313Z"/><path class="cls-9" d="M192.29,315c-.06,0-.11-.22-.12-.5s0-.5.09-.5.11.22.12.5S192.35,315,192.29,315Z"/><path class="cls-9" d="M192.35,317c-.06,0-.11-.22-.12-.5s0-.5.09-.5.11.22.12.5S192.4,317,192.35,317Z"/><path class="cls-9" d="M192.41,319c-.06,0-.11-.22-.12-.5s0-.5.09-.5.11.22.12.5S192.46,319,192.41,319Z"/><path class="cls-9" d="M192.47,321c-.06,0-.11-.22-.12-.5s0-.5.09-.5.11.22.12.49S192.53,321,192.47,321Z"/><path class="cls-9" d="M192.53,323c-.05,0-.11-.22-.12-.5s0-.5.09-.5.11.22.12.49S192.59,323,192.53,323Z"/><path class="cls-9" d="M192.6,325c-.06,0-.11-.22-.12-.5s0-.5.09-.5.11.22.12.49S192.66,325,192.6,325Z"/><path class="cls-9" d="M192.67,327c-.06,0-.11-.22-.12-.49s0-.5.08-.51.12.22.13.5S192.73,327,192.67,327Z"/><path class="cls-9" d="M192.74,329c-.06,0-.11-.22-.12-.49s0-.5.08-.51.12.22.13.5S192.8,329,192.74,329Z"/><path class="cls-9" d="M192.81,331c-.05,0-.11-.22-.12-.49s0-.51.09-.51.11.22.12.5S192.87,331,192.81,331Z"/><path class="cls-9" d="M192.89,333c-.06,0-.12-.22-.13-.5s0-.5.09-.5.11.22.12.5S192.94,333,192.89,333Z"/><path class="cls-9" d="M193,335c-.06,0-.11-.22-.12-.5s0-.5.08-.5.12.22.13.5S193,335,193,335Z"/><path class="cls-9" d="M193,337c-.06,0-.11-.22-.12-.5s0-.5.08-.5.11.22.12.49S193.1,337,193,337Z"/><path class="cls-9" d="M193.12,339c-.06,0-.12-.22-.13-.5s0-.5.09-.5.11.22.12.49S193.17,339,193.12,339Z"/><path class="cls-9" d="M193.2,341c-.06,0-.12-.22-.13-.49s0-.5.09-.5.11.21.12.49S193.25,341,193.2,341Z"/><path class="cls-9" d="M193.27,343c-.05,0-.11-.22-.12-.49s0-.5.08-.51.12.22.13.5S193.33,343,193.27,343Z"/><path class="cls-9" d="M193.35,345s-.11-.22-.12-.49,0-.51.08-.51.12.22.13.5S193.41,345,193.35,345Z"/><path class="cls-9" d="M193.43,347c-.05,0-.11-.22-.12-.5s0-.5.08-.5.12.22.13.5S193.49,347,193.43,347Z"/><path class="cls-9" d="M193.51,349c-.06,0-.11-.22-.12-.5s0-.5.08-.5.12.22.13.49S193.57,349,193.51,349Z"/><path class="cls-9" d="M193.59,351c-.06,0-.11-.22-.12-.5s0-.5.08-.5.11.22.13.49S193.65,351,193.59,351Z"/><path class="cls-9" d="M193.67,353c-.06,0-.11-.22-.12-.5s0-.5.08-.5.11.22.12.49S193.73,353,193.67,353Z"/><path class="cls-9" d="M193.75,355c-.06,0-.11-.22-.13-.49s0-.5.09-.51.11.22.12.5S193.81,355,193.75,355Z"/><path class="cls-9" d="M193.83,357c-.06,0-.12-.22-.13-.49s0-.5.09-.51.11.22.12.5S193.88,357,193.83,357Z"/><path class="cls-9" d="M193.9,359c-.06,0-.11-.22-.12-.5s0-.5.08-.5.12.22.13.5S194,359,193.9,359Z"/><path class="cls-9" d="M194,361c-.06,0-.12-.22-.13-.5s0-.5.09-.5.11.22.12.5S194,361,194,361Z"/><path class="cls-9" d="M194.05,363c-.06,0-.11-.22-.12-.5s0-.5.08-.5.12.22.13.49S194.11,363,194.05,363Z"/><path class="cls-9" d="M194.12,365c-.06,0-.11-.22-.12-.5s0-.5.09-.5.11.22.12.49S194.18,365,194.12,365Z"/><path class="cls-9" d="M194.19,367c-.06,0-.11-.22-.12-.49s0-.51.09-.51.11.22.12.5S194.25,367,194.19,367Z"/><path class="cls-9" d="M194.26,369c-.06,0-.11-.22-.12-.5s0-.5.09-.5.11.22.12.49S194.32,369,194.26,369Z"/><path class="cls-9" d="M194.31,370.42c-.06,0-.11-.1-.12-.23s0-.22.1-.22.11.09.11.22S194.36,370.41,194.31,370.42Z"/><path class="cls-9" d="M200,221.41a1.08,1.08,0,0,1-.92,0,1.66,1.66,0,0,1-.87-.67,2.9,2.9,0,0,1-.47-1.38c-.18-2.15-.32-5.1-.51-8.36s-.31-6.08-.42-8.36l-.11-2.54c0-.25,0-.47,0-.69a1.44,1.44,0,0,1,0-.24.92.92,0,0,1,0,.24c0,.21,0,.44.06.69,0,.72.1,1.56.17,2.53.13,2.28.3,5.17.48,8.36s.32,6.07.44,8.35a3.07,3.07,0,0,0,.42,1.34,1.81,1.81,0,0,0,.81.66A1.39,1.39,0,0,0,200,221.41Z"/><path class="cls-9" d="M164,236.77a2.89,2.89,0,0,0,.79-.24,3,3,0,0,0,1.47-1.62,7.75,7.75,0,0,0,.36-3.31,34.65,34.65,0,0,0-2.34-11.21l.09.05-2.36.38-.64.1-.23,0,.22-.06.64-.14,2.34-.45h.06l0,.05a32.92,32.92,0,0,1,2,7.13,33.45,33.45,0,0,1,.39,4.14,7.68,7.68,0,0,1-.41,3.36,3.16,3.16,0,0,1-1.57,1.65A1.7,1.7,0,0,1,164,236.77Z"/><path class="cls-9" d="M165.16,223.39a9.08,9.08,0,0,1-1.91.54,10.78,10.78,0,0,1-1.95.33,9.08,9.08,0,0,1,1.91-.54A9.81,9.81,0,0,1,165.16,223.39Z"/><path class="cls-9" d="M273.47,124.88l-11.21-9.18c-30.44,27.47-69.68,24.35-69.68,24.35v.06c-1.75-.28-11-1.76-14.06-1.82-2.39,0-7.92-.49-11.83,3.21h0l-.28.28c-3.54,3.46-39,38.38-35.22,47,4,9.1,37.64,28.89,37.64,28.89L177,202.89s-2.54-1.66-6-4l27.5-.71,1.22-20.59s4.69-5.25,4.69-9c0-2.61-1.44-6.94-3.3-11.43C244.44,153.51,273.47,124.88,273.47,124.88Zm-121.89,59c.33-1.08,7.37-8.79,13.73-15.59,2.21,13.45,5.19,28.95,5.48,30.48C163.15,193.58,151.18,185.22,151.58,183.87Z"/><path class="cls-6" d="M202.76,173.09a10,10,0,0,1-1,0,11.11,11.11,0,0,1-2.89-.35,5.39,5.39,0,0,1-3.53-2.82,3.24,3.24,0,0,1,0-2.85A2.91,2.91,0,0,1,198,165.4a3,3,0,0,1,2.52,2.36,4.43,4.43,0,0,1-1,3.69,8.76,8.76,0,0,1-7.64,3.14,9,9,0,0,1-4.36-1.48,6.83,6.83,0,0,1-2.88-3.82,3.94,3.94,0,0,1,.13-2.51,3.41,3.41,0,0,1,1.86-1.74,2.51,2.51,0,0,1,2.55.32,2.76,2.76,0,0,1,.89,2.45,5.35,5.35,0,0,1-.87,2.46,7.88,7.88,0,0,1-1.77,1.87,9.73,9.73,0,0,1-4.6,1.89,9.22,9.22,0,0,1-8.54-3.15,4.88,4.88,0,0,1-.94-2,3.64,3.64,0,0,1,.28-2.19,2.63,2.63,0,0,1,1.58-1.43,2.87,2.87,0,0,1,2.06.18,3.62,3.62,0,0,1,2.14,3.12,4.7,4.7,0,0,1-1.38,3.26,7.15,7.15,0,0,1-5.58,2.14,8.68,8.68,0,0,1-4.36-1.4,7.25,7.25,0,0,1-2.1-2,5.3,5.3,0,0,1-.53-.86s.18.3.58.83a7.47,7.47,0,0,0,2.12,1.93,8.55,8.55,0,0,0,4.3,1.34,7,7,0,0,0,5.41-2.12,4.43,4.43,0,0,0,1.29-3.11,3.34,3.34,0,0,0-2-2.88,2.58,2.58,0,0,0-1.87-.17,2.39,2.39,0,0,0-1.42,1.3,3.39,3.39,0,0,0-.24,2,4.5,4.5,0,0,0,.89,1.92,8.88,8.88,0,0,0,8.26,3,9.31,9.31,0,0,0,4.46-1.83,8,8,0,0,0,1.7-1.79,5.06,5.06,0,0,0,.82-2.32,2.45,2.45,0,0,0-.78-2.18,2.16,2.16,0,0,0-2.23-.27,3,3,0,0,0-1.69,1.58,3.65,3.65,0,0,0-.13,2.31,6.6,6.6,0,0,0,2.76,3.64,8.7,8.7,0,0,0,4.21,1.44,8.47,8.47,0,0,0,7.41-3,4.16,4.16,0,0,0,1-3.47,2.75,2.75,0,0,0-2.3-2.2,2.69,2.69,0,0,0-2.46,1.58,3.1,3.1,0,0,0,0,2.69,5.23,5.23,0,0,0,3.41,2.77,11.31,11.31,0,0,0,2.85.41h1Z"/><path class="cls-6" d="M198.83,192.08l-.49.34c-.33.21-.81.53-1.45.92a12.25,12.25,0,0,1-2.46,1.21,8.18,8.18,0,0,1-3.6.32,6.84,6.84,0,0,1-4.06-1.62,3.76,3.76,0,0,1-1.12-2.21,2.6,2.6,0,0,1,1-2.39,2.24,2.24,0,0,1,1.32-.5,1.9,1.9,0,0,1,1.36.48,2.83,2.83,0,0,1,.86,2.72,4.74,4.74,0,0,1-1.64,2.48,9.34,9.34,0,0,1-2.65,1.54,10.19,10.19,0,0,1-5.94.37,7.4,7.4,0,0,1-4.63-3,2.83,2.83,0,0,1-.24-2.6,2.59,2.59,0,0,1,2-1.45,1.53,1.53,0,0,1,1.17.34,1.75,1.75,0,0,1,.62,1,2.54,2.54,0,0,1-.42,2.09,6.17,6.17,0,0,1-3,2.06,7.61,7.61,0,0,1-2.7.41,6.59,6.59,0,0,1-1.7-.26,4.2,4.2,0,0,1-.57-.2,9,9,0,0,0,2.27.34,7.73,7.73,0,0,0,2.65-.46,6,6,0,0,0,2.84-2,2.34,2.34,0,0,0,.37-1.9,1.44,1.44,0,0,0-1.54-1.14,2.34,2.34,0,0,0-1.76,1.32,2.56,2.56,0,0,0,.24,2.34,7.12,7.12,0,0,0,4.45,2.86,9.83,9.83,0,0,0,5.76-.37,8.9,8.9,0,0,0,2.56-1.47,4.41,4.41,0,0,0,1.54-2.32,2.55,2.55,0,0,0-.75-2.43,1.81,1.81,0,0,0-2.31,0,2.34,2.34,0,0,0-.92,2.14,3.51,3.51,0,0,0,1,2.06,6.65,6.65,0,0,0,3.91,1.58,8,8,0,0,0,3.52-.27,12.18,12.18,0,0,0,2.44-1.14l1.49-.88Z"/><path class="cls-6" d="M213.89,138.74a4.11,4.11,0,0,1,1.11.77,5.27,5.27,0,0,1,1.65,3.25,5.48,5.48,0,0,1-.31,2.55,5.73,5.73,0,0,1-1.74,2.38,6.19,6.19,0,0,1-3,1.31,5.42,5.42,0,0,1-1.75,0,2.41,2.41,0,0,1-1.59-.89,1.13,1.13,0,0,1-.17-1,1.49,1.49,0,0,1,.56-.78,2.82,2.82,0,0,1,1.69-.49,4.13,4.13,0,0,1,3,1.31,4.42,4.42,0,0,1,1.15,2.71,5.4,5.4,0,0,1-.45,2.53,6.22,6.22,0,0,1-2.46,2.72,5.25,5.25,0,0,1-.89.45,1.07,1.07,0,0,1-.33.11s.44-.19,1.16-.66a6.32,6.32,0,0,0,2.32-2.71,5.11,5.11,0,0,0,.39-2.42,4.19,4.19,0,0,0-1.1-2.53,3.88,3.88,0,0,0-2.76-1.21,2.59,2.59,0,0,0-1.51.44.94.94,0,0,0-.31,1.32,2.17,2.17,0,0,0,1.39.76,5.31,5.31,0,0,0,1.64,0,5.91,5.91,0,0,0,2.84-1.24,5.26,5.26,0,0,0,.5-7.87A11.9,11.9,0,0,0,213.89,138.74Z"/><path class="cls-6" d="M228.5,135.18a1.82,1.82,0,0,1,.49.61,1.65,1.65,0,0,1,.17.91,3.12,3.12,0,0,1-.41,1.16,11.48,11.48,0,0,1-1.82,2.55,18.87,18.87,0,0,0-2.46,2.86,10.84,10.84,0,0,0-1.65,6.52,17.32,17.32,0,0,0,.52,2.79,3.12,3.12,0,0,1-.3-.71,9.29,9.29,0,0,1-.44-2.07,10.66,10.66,0,0,1,1.6-6.7,18.72,18.72,0,0,1,2.52-2.89,11.47,11.47,0,0,0,1.84-2.46,3.33,3.33,0,0,0,.43-1.07,1.58,1.58,0,0,0-.11-.84C228.68,135.4,228.48,135.2,228.5,135.18Z"/><path class="cls-6" d="M239.53,147a3.26,3.26,0,0,1-1.49.31,4.34,4.34,0,0,1-3.59-1.91,6.44,6.44,0,0,1-.2-6,7.09,7.09,0,0,1,2.21-2.93,4.35,4.35,0,0,1,3.82-.79,3.1,3.1,0,0,1,1.68,1.17,3.05,3.05,0,0,1,.55,1.91,2.41,2.41,0,0,1-.83,1.73,2.75,2.75,0,0,1-1.73.63,4.27,4.27,0,0,1-3.09-1.19,5.53,5.53,0,0,1-1.49-2.48,5.89,5.89,0,0,1,.25-4.11,4,4,0,0,1,.85-1.27,10,10,0,0,0-.74,1.32,5.93,5.93,0,0,0-.15,4A5.29,5.29,0,0,0,237,139.7a4,4,0,0,0,2.9,1.1,2.49,2.49,0,0,0,1.54-.58,2.05,2.05,0,0,0,.73-1.52,2.75,2.75,0,0,0-2-2.76,4.08,4.08,0,0,0-3.55.73,7.11,7.11,0,0,0-2.13,2.8,6.31,6.31,0,0,0,.12,5.8,4.29,4.29,0,0,0,3.41,1.91A5.54,5.54,0,0,0,239.53,147Z"/><path class="cls-6" d="M247.44,126.78a2.08,2.08,0,0,1,.61.25,7.87,7.87,0,0,1,1.51,1,7.73,7.73,0,0,1,1.72,2.06,10.14,10.14,0,0,1,1.13,3.08,9.85,9.85,0,0,1-.67,5.85,8.09,8.09,0,0,1-.9,1.56,2.11,2.11,0,0,1-.43.5,19.63,19.63,0,0,0,1.13-2.15,10.14,10.14,0,0,0,.56-5.7,10.33,10.33,0,0,0-1.07-3,7.85,7.85,0,0,0-1.62-2A17.83,17.83,0,0,0,247.44,126.78Z"/><path class="cls-6" d="M263.83,132.82a4.16,4.16,0,0,1-1.27.3A4.54,4.54,0,0,1,261,133a3.74,3.74,0,0,1-1.73-1.1,6.13,6.13,0,0,1-1.53-5,3.85,3.85,0,0,1,1.61-2.69,3.08,3.08,0,0,1,1.62-.55,2.49,2.49,0,0,1,1.67.58,2.35,2.35,0,0,1,.89,1.53,2.19,2.19,0,0,1-.51,1.64,3.29,3.29,0,0,1-2.93,1.07,5.94,5.94,0,0,1-4.41-2.76,3.27,3.27,0,0,1-.59-2,4.2,4.2,0,0,1,.42-1.48c.17-.39.32-.68.42-.88a1.06,1.06,0,0,1,.16-.29,1.69,1.69,0,0,1-.11.32c-.1.26-.22.55-.36.89a4.34,4.34,0,0,0-.35,1.45,3.07,3.07,0,0,0,.6,1.84,5.75,5.75,0,0,0,4.24,2.59,3,3,0,0,0,2.67-1,1.88,1.88,0,0,0,.44-1.42,2.08,2.08,0,0,0-.77-1.32,2.43,2.43,0,0,0-2.93,0,3.62,3.62,0,0,0-1.5,2.48,6,6,0,0,0,1.41,4.79,3.77,3.77,0,0,0,3.1,1.26C263.38,133,263.82,132.78,263.83,132.82Z"/><path class="cls-6" d="M199,182.31a5.22,5.22,0,0,1-.94.83,8.84,8.84,0,0,1-3.11,1.39,15.24,15.24,0,0,1-5,.3,42.27,42.27,0,0,1-6.07-1.21,31.9,31.9,0,0,0-6-1,12.86,12.86,0,0,0-4.91.7A8.71,8.71,0,0,0,170,185c-.59.54-.85.91-.87.88a5.29,5.29,0,0,1,.79-1,8.32,8.32,0,0,1,2.89-1.8,12.78,12.78,0,0,1,5-.77,29.86,29.86,0,0,1,6.11,1,44,44,0,0,0,6,1.22,15.49,15.49,0,0,0,5-.22A9.92,9.92,0,0,0,199,182.31Z"/><path class="cls-6" d="M156.62,151.73a2.41,2.41,0,0,1,1.86-.36,4.81,4.81,0,0,1,2.05.95c.73.51,1.46,1.19,2.34,1.86s1.68,1.61,2.7,2.4a8.7,8.7,0,0,0,3.69,1.64,16.85,16.85,0,0,0,9.19-1.33c3.12-1.24,6-2.75,8.84-3.52a14.82,14.82,0,0,1,4.13-.59,12.33,12.33,0,0,1,3.58.64,8.05,8.05,0,0,1,4.18,3.08,3.53,3.53,0,0,1,.4.72,2.21,2.21,0,0,1,.23.56,2.26,2.26,0,0,1,.14.47,9.1,9.1,0,0,0-.87-1.69,8.1,8.1,0,0,0-4.16-2.93,11.51,11.51,0,0,0-3.51-.59,14.36,14.36,0,0,0-4,.61c-2.81.77-5.66,2.28-8.8,3.53a17,17,0,0,1-9.37,1.32,8.86,8.86,0,0,1-3.79-1.72c-1-.82-1.85-1.72-2.69-2.43s-1.59-1.38-2.29-1.89a4.92,4.92,0,0,0-2-1A3.09,3.09,0,0,0,156.62,151.73Z"/><path class="cls-6" d="M202.06,140a5.19,5.19,0,0,1,.14.81,7,7,0,0,1-.14,2.35,8.19,8.19,0,0,1-1.66,3.32,7.1,7.1,0,0,1-4.22,2.45,8,8,0,0,1-5.77-1.28,6.18,6.18,0,0,1-2.21-2.52,1.79,1.79,0,0,1,.18-1.78,2.37,2.37,0,0,1,1.65-.84,2.22,2.22,0,0,1,1.79.6,2.82,2.82,0,0,1,.78,1.77,4.09,4.09,0,0,1-1.64,3.48,10.18,10.18,0,0,1-3.66,1.68,12.58,12.58,0,0,1-4.12.52,6.84,6.84,0,0,1-3.88-1.45,4.63,4.63,0,0,1-1.81-3.56,3.62,3.62,0,0,1,1.82-3.36,3.31,3.31,0,0,1,3.63.4,3,3,0,0,1,.57,3.41,4.6,4.6,0,0,1-2.38,2.34,10.84,10.84,0,0,1-5.9.76,12.6,12.6,0,0,1-7.54-4,10.79,10.79,0,0,1-1.39-1.9c-.25-.47-.37-.73-.37-.73a13.31,13.31,0,0,0,1.85,2.55,12.61,12.61,0,0,0,7.48,3.82,10.71,10.71,0,0,0,5.76-.78,4.33,4.33,0,0,0,2.24-2.2,2.74,2.74,0,0,0-.51-3.1,3.05,3.05,0,0,0-3.31-.35,3.37,3.37,0,0,0-1.65,3.09,4.38,4.38,0,0,0,1.7,3.33,6.64,6.64,0,0,0,3.71,1.38,12,12,0,0,0,4-.51,9.89,9.89,0,0,0,3.56-1.62,3.77,3.77,0,0,0,1.53-3.22,2.49,2.49,0,0,0-.69-1.58,1.93,1.93,0,0,0-1.56-.52,2,2,0,0,0-1.44.72,1.49,1.49,0,0,0-.16,1.51,6,6,0,0,0,2.11,2.41,7.75,7.75,0,0,0,5.58,1.27,6.94,6.94,0,0,0,4.13-2.35,8.2,8.2,0,0,0,1.67-3.23A8.39,8.39,0,0,0,202.06,140Z"/><path class="cls-6" d="M151,157.51a1.57,1.57,0,0,1,.39-.16c.27-.1.66-.23,1.18-.37a7,7,0,0,1,4.47.18,6.52,6.52,0,0,1,2.58,1.8,5.23,5.23,0,0,1,1.36,3.32,5,5,0,0,1-1.51,3.66,5,5,0,0,1-4,1.33,3.57,3.57,0,0,1-2-.91,2.12,2.12,0,0,1-.65-2,3.15,3.15,0,0,1,1.22-1.69,4.86,4.86,0,0,1,1.8-.81,6.81,6.81,0,0,1,8.44,5.56,4.78,4.78,0,0,1,0,1.65,9.76,9.76,0,0,0-.14-1.63,7,7,0,0,0-2.13-3.82,6.73,6.73,0,0,0-6.12-1.48,4.71,4.71,0,0,0-1.69.77,2.85,2.85,0,0,0-1.1,1.52,1.83,1.83,0,0,0,.57,1.75,3.21,3.21,0,0,0,1.84.82,4.62,4.62,0,0,0,5.2-4.67,5,5,0,0,0-1.27-3.16,6.29,6.29,0,0,0-2.46-1.76,6.88,6.88,0,0,0-4.36-.27c-.52.12-.92.23-1.19.31A3.24,3.24,0,0,1,151,157.51Z"/><path class="cls-6" d="M155.31,179.2a1.59,1.59,0,0,0,.1-.86,5.28,5.28,0,0,0-1-2.19,3.23,3.23,0,0,0-3.1-1.24c-1.34.05-2.79.64-4.44.52a5.35,5.35,0,0,1-5.1-5.52,4.24,4.24,0,0,1,.63-2.38,2.12,2.12,0,0,1,.64-.65,7.64,7.64,0,0,0-.53.71,4.3,4.3,0,0,0-.52,2.32,5.6,5.6,0,0,0,1.15,3.3,5.48,5.48,0,0,0,3.76,1.91c1.54.12,3-.45,4.39-.5a4.72,4.72,0,0,1,2,.29,2.79,2.79,0,0,1,1.33,1.11,5.12,5.12,0,0,1,.9,2.31C155.58,178.94,155.32,179.22,155.31,179.2Z"/><path class="cls-6" d="M144.27,201.54a4.17,4.17,0,0,0,1.37-.36,2.49,2.49,0,0,0,1.13-1.16,4.14,4.14,0,0,0,.21-2.15,15.52,15.52,0,0,0-.65-2.61,7.94,7.94,0,0,0-1.34-2.74,3,3,0,0,0-2.92-1.07,1.77,1.77,0,0,0-1.2,1.08,2.45,2.45,0,0,0,0,1.73,2.82,2.82,0,0,0,2.77,1.77,4.79,4.79,0,0,0,3.07-1.13,14.42,14.42,0,0,0,3.5-4.55,11.08,11.08,0,0,0,1.12-3.72c.1-.92,0-1.44.08-1.44a6.27,6.27,0,0,1,0,1.45,10.43,10.43,0,0,1-1,3.8,14.14,14.14,0,0,1-3.52,4.68,5.07,5.07,0,0,1-3.26,1.22,3.7,3.7,0,0,1-1.82-.48,2.75,2.75,0,0,1-1.24-1.5,2.84,2.84,0,0,1,0-2,2.11,2.11,0,0,1,1.41-1.26,3.24,3.24,0,0,1,3.22,1.19,8,8,0,0,1,1.36,2.84,14.43,14.43,0,0,1,.63,2.67,4.23,4.23,0,0,1-.28,2.25,2.57,2.57,0,0,1-1.22,1.19,2.81,2.81,0,0,1-1,.26A1.38,1.38,0,0,1,144.27,201.54Z"/><path class="cls-6" d="M157.41,209.24a3.14,3.14,0,0,0,.78-.19,2.75,2.75,0,0,0,1.41-1.56,4.26,4.26,0,0,0-.14-3.12c-.41-1.15-1.16-2.32-1.61-3.71a5.32,5.32,0,0,1-.27-2.12,3.82,3.82,0,0,1,.73-1.87,4.81,4.81,0,0,1,2.78-1.81,6.47,6.47,0,0,1,2.24-.13,2.64,2.64,0,0,1,.8.16,9.08,9.08,0,0,0-3,.18,4.71,4.71,0,0,0-2.61,1.77,3.63,3.63,0,0,0-.65,1.73,4.93,4.93,0,0,0,.26,2c.43,1.35,1.17,2.52,1.58,3.71a4.42,4.42,0,0,1,.07,3.31,2.76,2.76,0,0,1-1.57,1.58A1.38,1.38,0,0,1,157.41,209.24Z"/><path class="cls-3" d="M163.59,170.13a7.69,7.69,0,0,1,.94-1.26c.64-.79,1.59-1.9,2.77-3.26s2.61-3,4.14-4.81c.76-.92,1.54-1.89,2.33-2.92a19.62,19.62,0,0,0,2.16-3.33,16.51,16.51,0,0,0,2-7.32,8.21,8.21,0,0,0-2.07-5.67,6.57,6.57,0,0,0-3.59-2,11.56,11.56,0,0,0-1.55-.12s.13-.05.4-.09a4.65,4.65,0,0,1,1.18,0,6.59,6.59,0,0,1,3.82,2,8.45,8.45,0,0,1,2.29,5.92,16.79,16.79,0,0,1-2,7.57,19.58,19.58,0,0,1-2.23,3.4c-.8,1-1.59,2-2.37,2.92-1.55,1.82-3,3.41-4.22,4.74l-2.9,3.15A9.49,9.49,0,0,1,163.59,170.13Z"/><path class="cls-3" d="M152.42,183.88a13.5,13.5,0,0,1-3.46,1.31,13.35,13.35,0,0,1-3.61.81,13.44,13.44,0,0,1,3.47-1.31A13,13,0,0,1,152.42,183.88Z"/><path class="cls-3" d="M152,183.75c.07.13-1.12.87-2.26,2.11s-1.79,2.48-1.93,2.42a6.78,6.78,0,0,1,4.19-4.53Z"/><path class="cls-3" d="M202.35,160a9.36,9.36,0,0,1-1.16-2.06,56.52,56.52,0,0,1-2.18-5.28,52.31,52.31,0,0,1-1.6-5.48,10.31,10.31,0,0,1-.39-2.34,12.06,12.06,0,0,1,.75,2.25c.41,1.39,1,3.31,1.74,5.4s1.47,4,2,5.3A12,12,0,0,1,202.35,160Z"/><path class="cls-3" d="M191.79,169.61a6.44,6.44,0,0,1-1.32,2A13.33,13.33,0,0,1,180,176.19a6.37,6.37,0,0,1-2.39-.44c0-.09.93.09,2.4.07a14.62,14.62,0,0,0,10.21-4.42C191.22,170.35,191.71,169.56,191.79,169.61Z"/><path class="cls-10" d="M184.81,219s-6.91,1.5-7.82.74,1.32-1.58,1.32-1.58-2,.24-2.05-.48.73-1.23.73-1.23Z"/><path class="cls-10" d="M175.48,205.62s9.72,4.38,9.84,4.71.42,7.27-.51,8.7-13.65-5.55-13.65-5.55Z"/><path class="cls-11" d="M182.67,217.41a2,2,0,0,1-.49,0l-1.32-.17a28.93,28.93,0,0,1-4.31-.92,12.74,12.74,0,0,1-4-1.92l-1.11-.75a2.18,2.18,0,0,1-.38-.3,2.68,2.68,0,0,1,.43.23l1.13.7a14.24,14.24,0,0,0,3.94,1.84,36.61,36.61,0,0,0,4.27,1l1.31.24A3,3,0,0,1,182.67,217.41Z"/><path class="cls-11" d="M182.62,217.58a7.9,7.9,0,0,1-2.23.56,7.53,7.53,0,0,1-2.29.12c0-.06,1-.13,2.26-.32S182.61,217.52,182.62,217.58Z"/></g></g></svg>