<svg width="40" height="32" viewBox="0 0 40 32" fill="none" xmlns="http://www.w3.org/2000/svg">
<g clip-path="url(#clip0_51_1875)">
<path d="M0 12.0749C0.382409 11.1092 1.07749 10.6772 2.1235 10.7044C3.63064 10.7428 5.14003 10.7044 6.64942 10.7202C6.92177 10.7279 7.18694 10.6317 7.39174 10.4511C10.5005 7.85621 13.6123 5.25984 16.727 2.66196C17.3209 2.15988 17.971 1.84099 18.7673 2.13274C19.0987 2.23782 19.3923 2.43817 19.6117 2.70906C19.8312 2.97995 19.9669 3.30952 20.0022 3.65709C20.0386 3.94208 20.0559 4.2292 20.054 4.51651C20.054 12.3101 20.054 20.103 20.054 27.8951C20.0536 28.1566 20.0386 28.4179 20.009 28.6777C19.8358 30.1839 18.2432 30.9031 17.0397 29.9804C16.0072 29.1888 15.0152 28.3248 14.0254 27.4926C11.8344 25.6636 9.64346 23.834 7.45248 22.0035C7.22702 21.8056 6.93508 21.7013 6.63592 21.7118C5.15353 21.7254 3.67113 21.7118 2.18873 21.7118C1.55213 21.7118 0.942526 21.61 0.474637 21.1079C0.271948 20.8729 0.111354 20.6043 0 20.3141L0 12.0749Z" fill="#785CAD"/>
<path d="M39.9977 16.2228C39.9393 21.8769 38.1374 26.9001 34.554 31.2718C34.2565 31.66 33.8187 31.9145 33.3356 31.9801C32.8526 32.0458 32.3633 31.9172 31.9739 31.6224C30.9324 30.8353 30.694 29.7452 31.362 28.7885C31.8457 28.0942 32.39 27.4315 32.8512 26.7259C34.3022 24.4985 35.2646 21.9858 35.6743 19.3552C36.5741 13.4749 35.1186 8.21888 31.3373 3.63C30.8469 3.03745 30.4803 2.42681 30.712 1.63749C30.8097 1.26072 31.0057 0.917012 31.2798 0.641878C31.5538 0.366744 31.8959 0.170161 32.2708 0.0724348C33.0671 -0.15373 33.7172 0.156116 34.2459 0.771283C37.0975 4.04802 38.9807 8.06132 39.6828 12.3577C39.9037 13.6339 40.0091 14.9275 39.9977 16.2228Z" fill="#785CAD"/>
<path d="M31.2271 16.0079C31.1866 19.423 30.2463 22.3179 28.3725 24.9007C28.1013 25.2997 27.6869 25.5775 27.2162 25.6758C26.7456 25.774 26.2554 25.6851 25.8486 25.4277C24.8386 24.8012 24.4584 23.6749 24.9691 22.7363C25.2233 22.2681 25.5674 21.8475 25.8104 21.3793C27.8191 17.4825 27.6347 13.701 25.185 10.0485C25.077 9.88565 24.9601 9.73186 24.8409 9.57354C24.1098 8.55354 24.3167 7.46343 25.401 6.64471C26.2693 5.98884 27.3648 6.19238 28.1003 7.14906C29.809 9.32395 30.8656 11.9435 31.1461 14.7007C31.2001 15.2096 31.2113 15.7207 31.2271 16.0079Z" fill="#785CAD"/>
</g>
<defs>
<clipPath id="clip0_51_1875">
<rect width="40" height="32" fill="white"/>
</clipPath>
</defs>
</svg>
