<svg width="142" height="114" viewBox="0 0 142 114" fill="none" xmlns="http://www.w3.org/2000/svg">
<path d="M0 42.8726C1.3576 39.4442 3.82524 37.9106 7.53868 38.007C12.8892 38.1435 18.2478 38.007 23.6063 38.0632C24.5732 38.0904 25.5145 37.7491 26.2416 37.1077C37.2781 27.8956 48.3253 18.6782 59.3831 9.45543C61.4913 7.67296 63.7993 6.54085 66.6263 7.57661C67.8028 7.94966 68.845 8.66093 69.6241 9.62262C70.4032 10.5843 70.8852 11.7543 71.0105 12.9882C71.1395 14 71.2009 15.0193 71.1942 16.0393C71.1942 43.7077 71.1942 71.3733 71.1942 99.0363C71.1927 99.9646 71.1394 100.892 71.0345 101.814C70.4196 107.162 64.7656 109.715 60.4931 106.439C56.8276 103.629 53.3058 100.562 49.792 97.6072C42.0138 91.1143 34.2355 84.6187 26.4572 78.1205C25.6568 77.4177 24.6204 77.0474 23.5584 77.0847C18.2957 77.1329 13.033 77.0847 7.77027 77.0847C5.51026 77.0847 3.34609 76.7234 1.68502 74.941C0.965451 74.1066 0.395322 73.1531 0 72.1227L0 42.8726Z" fill="#D2448D"/>
<path d="M141.998 57.5983C141.79 77.6711 135.393 95.5038 122.672 111.024C121.615 112.402 120.061 113.306 118.346 113.539C116.631 113.772 114.894 113.315 113.512 112.269C109.814 109.474 108.968 105.604 111.34 102.208C113.057 99.7432 114.989 97.3907 116.626 94.8856C121.778 86.978 125.194 78.0576 126.649 68.7187C129.843 47.8429 124.676 29.1833 111.252 12.8922C109.511 10.7885 108.209 8.62067 109.032 5.81851C109.379 4.48091 110.075 3.26071 111.048 2.28395C112.021 1.30719 113.235 0.609293 114.566 0.262353C117.393 -0.540559 119.701 0.559431 121.578 2.74335C131.701 14.3762 138.387 28.6239 140.88 43.8765C141.664 48.4071 142.038 52.9998 141.998 57.5983Z" fill="#D2448D"/>
<path d="M110.86 56.8353C110.716 68.9592 107.378 79.2365 100.726 88.4058C99.7634 89.8223 98.292 90.8086 96.6212 91.1574C94.9504 91.5063 93.2102 91.1905 91.766 90.2766C88.1803 88.0525 86.8307 84.054 88.6435 80.7219C89.5459 79.0599 90.7678 77.5665 91.6302 75.9044C98.7616 62.0703 98.1068 48.6456 89.4102 35.6785C89.0268 35.1004 88.6116 34.5545 88.1883 33.9924C85.5929 30.3713 86.3276 26.5012 90.1768 23.5947C93.2593 21.2663 97.1485 21.9889 99.7599 25.3852C105.826 33.1063 109.577 42.4062 110.573 52.1944C110.764 54.001 110.804 55.8156 110.86 56.8353Z" fill="#D2448D"/>
</svg>
