<svg xmlns="http://www.w3.org/2000/svg" viewBox="0 0 150.42 166.86"><defs><style>.cls-1{fill:#fff;}</style></defs><g id="Слой_2" data-name="Слой 2"><g id="Слой_1-2" data-name="Слой 1"><path class="cls-1" d="M78.47,166.86H72a25.75,25.75,0,0,1-7.44-2.75Q38,148.8,11.52,133.53C3.9,129.16.06,122.67,0,114Q0,83.53,0,53.09c0-8.71,3.86-15.2,11.49-19.57Q37.78,18.49,64,3.27c7.53-4.36,15-4.36,22.53,0,17.32,10,34.61,20.1,52,30,8.12,4.62,11.95,11.42,11.93,20.66,0,19.74,0,39.49,0,59.24a29.81,29.81,0,0,1-.41,5.34c-1.22,6.66-5,11.52-10.8,14.88Q113.73,148,88.31,162.74A31.19,31.19,0,0,1,78.47,166.86Zm1.75-25.79c0,4.28,0,8.57,0,12.85,0,1.36.25,1.64,1.52.9q10.95-6.39,22-12.68a2.52,2.52,0,0,0,1.42-2.48c0-8.41,0-16.81,0-25.22,0-1.71-.11-1.77-1.58-.93-7.29,4.2-14.56,8.42-21.86,12.58a2.59,2.59,0,0,0-1.46,2.61C80.26,132.82,80.22,137,80.22,141.07Zm-10-40.32c0-4.18,0-8.36,0-12.53a2.61,2.61,0,0,0-1.49-2.6C61.49,81.48,54.27,77.29,47,73.12c-1.54-.89-1.71-.79-1.71,1,0,8.35,0,16.7,0,25a2.62,2.62,0,0,0,1.51,2.59q11,6.28,22,12.68c1.14.67,1.45.52,1.43-.81C70.17,109.31,70.2,105,70.2,100.75Zm10,0c0,4.28,0,8.57,0,12.85,0,1.33.31,1.48,1.44.82q11-6.42,22.12-12.76a2.42,2.42,0,0,0,1.36-2.35q0-12.69,0-25.38c0-1.41-.4-1.59-1.59-.9q-11,6.39-22,12.69a2.37,2.37,0,0,0-1.35,2.34C80.25,92.29,80.22,96.52,80.22,100.75Zm-10,40.56c0-4.17,0-8.35,0-12.53A2.73,2.73,0,0,0,68.7,126q-11-6.24-21.85-12.6c-1.26-.73-1.55-.44-1.55.91q0,12.69,0,25.38a2.4,2.4,0,0,0,1.36,2.35q11.09,6.34,22.12,12.77c1.17.69,1.45.44,1.44-.85C70.17,149.77,70.2,145.54,70.2,141.31ZM35.07,80.45c0-4.22,0-8.45,0-12.68a2.37,2.37,0,0,0-1.34-2.34c-7.33-4.2-14.64-8.45-22-12.67-1.33-.77-1.56-.63-1.56.92,0,8.51,0,17,0,25.52a2.16,2.16,0,0,0,1.22,2.08q11.06,6.36,22.09,12.77c1.22.71,1.58.46,1.57-.92C35,88.91,35.07,84.68,35.07,80.45Zm105.13-14c0-4.23,0-8.46,0-12.68,0-1.65-.2-1.76-1.65-.93C131.28,57,124,61.24,116.73,65.4a2.51,2.51,0,0,0-1.4,2.48c0,8.4,0,16.8,0,25.2,0,1.71.12,1.77,1.62.91,7.28-4.19,14.54-8.4,21.83-12.57a2.5,2.5,0,0,0,1.41-2.48C140.17,74.77,140.2,70.6,140.2,66.43ZM99.57,63.15a11.2,11.2,0,0,0-1-.73Q87.52,56,76.47,49.65a2.26,2.26,0,0,0-2.55,0c-7.31,4.25-14.64,8.46-22,12.7-1.48.85-1.47,1,0,1.84,7.32,4.24,14.65,8.44,22,12.7a2.38,2.38,0,0,0,2.7,0c2.56-1.54,5.15-3,7.73-4.49L98.4,64.28C98.85,64,99.44,63.88,99.57,63.15Zm35-20.07c-.15-.52-.66-.66-1.07-.9q-11-6.34-21.95-12.7a2.28,2.28,0,0,0-2.56-.06q-11.19,6.49-22.4,12.92c-1,.56-1,.9,0,1.48q11.28,6.47,22.53,13a1.77,1.77,0,0,0,2,.12l22.8-13.18C134.22,43.59,134.54,43.47,134.61,43.08ZM39.92,29c-.32.16-.82.37-1.28.63C31.36,33.82,24.1,38,16.81,42.2c-1.27.73-1.17,1.1,0,1.77q11,6.3,22,12.68a2.48,2.48,0,0,0,2.84,0q11-6.39,22-12.68c1.18-.68,1.28-1,0-1.75C56.25,38,49,33.77,41.62,29.55A2.89,2.89,0,0,0,39.92,29Zm-4.85,91.84c0-4.18,0-8.35,0-12.53a2.49,2.49,0,0,0-1.42-2.48c-7.3-4.17-14.57-8.4-21.86-12.59-1.47-.84-1.58-.77-1.59,1,0,6.83,0,13.67,0,20.5A10.35,10.35,0,0,0,15.5,124c6,3.54,12,7,18,10.44,1.33.77,1.54.63,1.54-.95C35.08,129.29,35.07,125.06,35.07,120.83Zm80.28,0c0,4.23,0,8.46,0,12.69,0,1.54.25,1.68,1.58.91,6-3.44,11.94-6.87,17.87-10.37a10.43,10.43,0,0,0,5.37-9.44c.06-6.84,0-13.67,0-20.51,0-1.7-.11-1.77-1.62-.9-7.29,4.2-14.56,8.42-21.86,12.59a2.51,2.51,0,0,0-1.39,2.5C115.38,112.52,115.35,116.7,115.35,120.88ZM99.69,23c-.06-.56-.49-.64-.79-.82C92.74,18.61,86.61,15,80.42,11.54a10.13,10.13,0,0,0-10.41,0C63.81,15,57.69,18.63,51.52,22.16c-.86.5-1,.81,0,1.37Q62.91,30.1,74.31,36.71a1.67,1.67,0,0,0,1.82,0L99,23.52C99.23,23.36,99.47,23.15,99.69,23Z"/></g></g></svg>