<svg width="488" height="330" viewBox="0 0 488 330" fill="none" xmlns="http://www.w3.org/2000/svg">
<mask id="mask0_51_1501" style="mask-type:alpha" maskUnits="userSpaceOnUse" x="40" y="0" width="376" height="330">
<path d="M40 16C40 7.16345 47.1634 0 56 0H400C408.837 0 416 7.16344 416 16V314C416 322.837 408.837 330 400 330H56C47.1634 330 40 322.837 40 314V16Z" fill="#EAE8ED"/>
</mask>
<g mask="url(#mask0_51_1501)">
</g>
<path d="M344.069 57.3738C281.396 77.1115 150.148 119.045 83.2266 140.445C80.0929 162.83 81.9485 185.633 88.6602 207.217C147.878 187.722 313.63 134.421 377.85 113.791C370.852 92.7387 359.32 73.4795 344.069 57.3738Z" fill="#FFD869"/>
<path d="M138.019 281.537C164.757 302.606 197.815 314.038 231.85 313.986C294.34 313.986 348.016 276.235 371.344 222.288C304.386 239.157 198.907 266.016 138.019 281.537Z" fill="#FFD869"/>
<path d="M387.968 181.417C388.956 173.845 389.378 166.21 389.23 158.575C319.641 166.614 148.395 187.23 88.9214 194.406C93.68 215.997 103.087 236.289 116.487 253.869C181.117 245.677 307.04 230.268 376.966 221.737C382.471 208.868 386.173 195.3 387.968 181.417Z" fill="#FFD869"/>
<path d="M335.06 50.4642C307.964 25.3525 271.7 10 231.85 10C164.617 10 107.587 53.6979 87.5815 114.256C155.518 96.5558 272.501 66.5101 335.06 50.4642Z" fill="#FFD869"/>
<path d="M49.7588 114.565C49.6875 114.559 49.6204 114.529 49.569 114.479C49.5175 114.43 49.4849 114.364 49.4766 114.292C49.4683 114.221 49.4849 114.15 49.5235 114.089C49.5622 114.029 49.6205 113.984 49.6885 113.962L191.717 80.2627C191.797 80.2438 191.881 80.2574 191.951 80.3006C192.021 80.3437 192.071 80.4129 192.09 80.4928C192.109 80.5728 192.095 80.657 192.052 80.7269C192.009 80.7968 191.94 80.8467 191.86 80.8656L49.8412 114.557C49.814 114.562 49.7865 114.565 49.7588 114.565Z" fill="#19283F"/>
<path d="M285.359 81.6234C285.287 81.6207 285.218 81.5927 285.164 81.5442C285.11 81.4957 285.075 81.4298 285.064 81.358C285.054 81.2862 285.069 81.2131 285.107 81.1514C285.146 81.0897 285.204 81.0434 285.273 81.0205L398.177 48.0948C398.253 48.078 398.333 48.091 398.401 48.131C398.468 48.1711 398.518 48.2352 398.54 48.3105C398.562 48.3858 398.554 48.4666 398.519 48.5366C398.484 48.6066 398.423 48.6606 398.349 48.6877L285.444 81.6093C285.416 81.6185 285.388 81.6232 285.359 81.6234Z" fill="#19283F"/>
<path d="M48.6259 219.351C48.5528 219.35 48.4824 219.324 48.4272 219.276C48.372 219.228 48.3355 219.162 48.3242 219.09C48.3129 219.017 48.3275 218.944 48.3654 218.881C48.4033 218.819 48.4622 218.772 48.5315 218.748L175.227 178.736C175.306 178.712 175.391 178.719 175.463 178.757C175.536 178.796 175.591 178.861 175.615 178.939C175.64 179.018 175.632 179.103 175.594 179.175C175.556 179.248 175.491 179.303 175.412 179.327L48.7183 219.337C48.6884 219.347 48.6572 219.352 48.6259 219.351Z" fill="#19283F"/>
<path d="M179.181 303.93L177.742 305.537L185.072 320.896C185.072 320.896 186.711 327.215 195.162 327.765L179.181 303.93Z" fill="#2D6AAB"/>
<path d="M309.382 210.665L355.408 308.188L345.521 312.111C345.521 312.111 317.829 281.7 317.873 261.335C317.873 261.335 281.07 230.071 282.151 213.579C283.232 197.087 301.134 193.184 309.382 210.665Z" fill="#F9724D"/>
<g style="mix-blend-mode:multiply">
<path d="M318.767 224.784L294.804 241.314L277.738 222.058L312.646 208.597L318.767 224.784Z" fill="#EF92C8"/>
</g>
<path d="M237.609 232.435C237.609 232.435 241.209 246.72 279.142 254.96C279.142 254.96 264.263 256.478 242.874 299.201L249.947 303.104C249.947 303.104 297.566 265.154 301.467 256.26C305.368 247.367 264.836 216.359 264.836 216.359C264.836 216.359 237.262 216.2 237.609 232.435Z" fill="#F9724D"/>
<g style="mix-blend-mode:multiply">
<path d="M259.217 221.725C259.217 221.725 244.903 229.044 244.821 247.829L228.407 236.776L243.461 209.723L270.962 216.355L287.653 232.539L283.61 285.08L279.895 284.75L259.217 221.725Z" fill="#EF92C8"/>
</g>
<path d="M213.165 194.768C220.426 193.811 236.149 182.038 264.836 216.359L233.901 237.863L213.165 194.768Z" fill="#1D2647"/>
<path d="M235.815 220.529C235.815 220.529 249.903 269.498 242.846 280.048C236.016 290.227 192.523 307.284 192.523 307.284L186.165 302.949C186.165 302.949 210.69 269.989 225.406 269.989C225.406 269.989 204.151 238.068 210.139 218.031C216.128 197.994 235.815 220.529 235.815 220.529Z" fill="#F9724D"/>
<g style="mix-blend-mode:multiply">
<path d="M218.727 265.72C218.727 265.72 223.807 246.762 244.105 250.119L242.615 244.451C242.615 244.451 213.649 246.26 214.012 254.341C214.376 262.422 218.727 265.72 218.727 265.72Z" fill="#EF92C8"/>
</g>
<path d="M242.583 249.421C242.583 249.421 224.303 242.327 217.562 255.959C217.562 255.959 190.926 212.39 213.165 194.768C235.404 177.147 236.169 219.251 236.169 219.251L242.583 249.421Z" fill="#2D6AAB"/>
<path d="M227.831 248.475C227.746 248.473 227.664 248.447 227.593 248.401C227.522 248.355 227.465 248.29 227.429 248.213C225.407 243.712 223.691 239.079 222.292 234.346C219.279 224.042 218.769 216.102 220.802 210.744C221.981 207.635 224.034 205.43 226.9 204.192C226.955 204.167 227.015 204.154 227.075 204.152C227.135 204.151 227.195 204.161 227.251 204.183C227.307 204.205 227.358 204.238 227.401 204.28C227.444 204.321 227.479 204.371 227.503 204.427C227.527 204.482 227.539 204.541 227.54 204.602C227.541 204.662 227.529 204.721 227.507 204.777C227.484 204.833 227.451 204.884 227.408 204.926C227.366 204.969 227.316 205.003 227.26 205.026C224.627 206.162 222.74 208.195 221.65 211.067C216.959 223.429 228.138 247.58 228.25 247.822C228.301 247.93 228.307 248.055 228.266 248.168C228.226 248.281 228.142 248.373 228.033 248.424C227.97 248.456 227.901 248.473 227.831 248.475Z" fill="white"/>
<path d="M213.165 194.768C213.165 194.768 242.583 156.398 314.607 204.533C314.607 204.533 308.564 227.324 291.641 228.813C274.717 230.302 236.165 219.251 236.165 219.251L213.165 194.768Z" fill="#EF92C8"/>
<g style="mix-blend-mode:multiply">
<path d="M213.165 194.768C213.165 194.768 242.615 167.484 255.212 210.131C260.298 227.348 313.53 217.94 313.53 217.94L283.583 237.855L226.155 227.101L213.165 194.768Z" fill="#EF92C8"/>
</g>
<path d="M263.255 214.518L297.151 316.889H307.703C307.703 316.889 306.096 271.78 292.034 257.062C292.034 257.062 303.225 207.474 291.074 196.276C278.923 185.077 257.178 196.167 263.255 214.518Z" fill="#F9724D"/>
<path d="M264.305 217.691C264.305 217.691 259.535 197.853 279.138 194.764C298.741 191.675 296.703 221.126 296.703 221.126C296.703 221.126 303.062 191.213 279.755 189.05C256.447 186.888 261.049 214.976 264.305 217.691Z" fill="#19283F"/>
<path d="M340.327 192.903C335.377 190.045 327.372 194.646 322.449 203.179C321.517 204.787 320.738 206.479 320.123 208.233L312.202 202.946L298.028 227.101L319.859 220.899C320.426 222.11 321.343 223.124 322.491 223.809C327.44 226.667 336.572 223.56 341.496 215.024C346.419 206.489 345.274 195.761 340.327 192.903Z" fill="#F9724D"/>
<g style="mix-blend-mode:multiply">
<path d="M314.038 203.525C314.038 203.525 302.747 226.267 302.375 226.341C302.004 226.416 296.349 227.933 296.349 227.933L310.316 199.256L314.038 203.525Z" fill="#EF92C8"/>
</g>
<path d="M326.111 210.993C326.079 210.992 326.048 210.987 326.018 210.977C325.955 210.952 325.903 210.904 325.875 210.842C325.848 210.78 325.845 210.709 325.87 210.645C326.147 209.918 327.589 206.312 328.961 206.67C329.076 206.696 329.183 206.751 329.272 206.829C329.36 206.907 329.428 207.007 329.467 207.118C329.805 208.047 328.431 210.068 328.152 210.464C328.132 210.492 328.107 210.515 328.079 210.533C328.05 210.551 328.018 210.564 327.985 210.569C327.952 210.575 327.918 210.574 327.885 210.567C327.852 210.559 327.821 210.545 327.793 210.526C327.765 210.506 327.742 210.481 327.724 210.453C327.706 210.424 327.694 210.392 327.688 210.359C327.682 210.326 327.683 210.292 327.691 210.259C327.698 210.226 327.712 210.194 327.732 210.167C328.361 209.275 329.166 207.791 328.985 207.295C328.973 207.262 328.952 207.232 328.925 207.21C328.898 207.187 328.865 207.172 328.831 207.166C328.152 206.985 326.95 209.246 326.35 210.826C326.332 210.875 326.299 210.917 326.256 210.947C326.214 210.977 326.163 210.993 326.111 210.993Z" fill="#19283F"/>
<path d="M297.669 265.977C297.618 265.977 297.569 265.962 297.526 265.934C297.484 265.905 297.451 265.865 297.432 265.819C295.64 261.566 291.88 257.281 291.841 257.239L291.761 257.146L291.781 257.026L295.244 236.498C295.248 236.463 295.258 236.429 295.276 236.399C295.293 236.368 295.316 236.341 295.344 236.32C295.372 236.299 295.404 236.283 295.438 236.275C295.472 236.266 295.508 236.265 295.542 236.271C295.577 236.276 295.61 236.289 295.64 236.308C295.669 236.327 295.694 236.352 295.714 236.382C295.733 236.411 295.747 236.444 295.753 236.478C295.759 236.513 295.758 236.549 295.75 236.583L292.307 256.998C292.872 257.653 296.229 261.646 297.906 265.626C297.919 265.657 297.926 265.69 297.926 265.724C297.927 265.758 297.92 265.791 297.908 265.823C297.895 265.854 297.876 265.883 297.852 265.907C297.829 265.931 297.8 265.95 297.769 265.963C297.737 265.974 297.703 265.979 297.669 265.977Z" fill="#19283F"/>
<path d="M198.278 288.551C198.278 288.551 199.361 299.446 207.402 301.011L193.859 307.282C193.859 307.282 187.987 302.211 189.365 298.752L198.278 288.551Z" fill="white"/>
<path d="M195.413 306.564L197.259 317.551C197.575 318.508 198.085 319.389 198.756 320.14C199.427 320.891 200.245 321.496 201.16 321.917C205.618 323.956 213.012 327.757 206.249 327.757H196.388C194.627 327.758 192.902 327.255 191.417 326.309C189.932 325.362 188.748 324.01 188.005 322.413L179.167 303.923L180.617 302.516C182.566 300.635 185.05 299.404 187.728 298.993L189.359 298.742C189.359 298.742 189.917 306.005 195.413 306.564Z" fill="#1D2647"/>
<path d="M245.536 293.686L251.672 283.207C251.672 283.207 254.816 292.265 262.638 292.769L249.947 303.104C249.947 303.104 243.77 296.701 245.536 293.686Z" fill="white"/>
<path d="M235.343 298.861L233.903 300.469L241.235 315.827C241.235 315.827 242.872 322.146 251.325 322.696L235.343 298.861Z" fill="#2D6AAB"/>
<path d="M251.584 301.496L253.422 312.483C253.737 313.44 254.246 314.321 254.917 315.072C255.588 315.823 256.406 316.428 257.321 316.848C261.778 318.888 269.173 322.689 262.409 322.689H252.566C250.805 322.69 249.081 322.187 247.596 321.24C246.111 320.294 244.927 318.942 244.184 317.345L235.345 298.855L236.794 297.448C238.744 295.567 241.229 294.336 243.907 293.925L245.538 293.674C245.538 293.674 246.088 300.937 251.584 301.496Z" fill="#1D2647"/>
<path d="M297.151 316.888L281.512 329.751H289.684C293.543 329.751 297.275 328.371 300.206 325.86L305.479 321.344L308.215 323.271C309.135 323.923 310.235 324.274 311.362 324.276H316.664L307.703 316.888C307.703 316.888 300.005 312.041 297.151 316.888Z" fill="#F9724D"/>
<path d="M347.275 307.241L337.834 322.439H339.557C341.31 322.439 343 321.79 344.302 320.616L350.706 314.84L355.189 320.222C355.769 320.915 356.493 321.472 357.311 321.854C358.129 322.236 359.021 322.434 359.924 322.433H372.033L355.579 307.304C355.579 307.304 350.272 302.418 347.275 307.241Z" fill="#F9724D"/>
<path d="M319.859 221.156C319.809 221.156 319.759 221.141 319.717 221.113C319.675 221.085 319.642 221.044 319.622 220.997C318.846 218.913 318.469 216.702 318.51 214.478C318.511 214.41 318.539 214.345 318.588 214.297C318.638 214.25 318.704 214.224 318.772 214.226C318.84 214.227 318.905 214.255 318.952 214.305C318.999 214.354 319.025 214.42 319.024 214.488C318.991 216.64 319.355 218.78 320.096 220.801C320.122 220.863 320.122 220.934 320.096 220.997C320.071 221.06 320.021 221.11 319.958 221.136C319.927 221.15 319.893 221.156 319.859 221.156Z" fill="#19283F"/>
<path d="M343.723 204.614C343.302 204.658 334.208 205.49 334.208 205.49C334.208 205.49 332.4 209.188 331.864 209.578C331.327 209.968 329.2 210.394 329.2 210.394C329.2 210.394 330.586 206.344 329.839 206.131C329.216 205.952 326.774 206.043 325.331 209.696C325.04 210.427 324.509 211.037 323.826 211.425C323.142 211.814 322.347 211.958 321.571 211.835L319.859 211.568C319.859 211.568 314.177 200.801 323.877 191.313C333.577 181.825 354.456 193.552 354.456 193.552C354.456 193.552 350.885 203.866 343.723 204.614Z" fill="#19283F"/>
<path d="M337.583 219.179C337 219.178 336.419 219.14 335.841 219.064C335.794 219.058 335.748 219.043 335.707 219.019C335.666 218.995 335.629 218.964 335.6 218.926C335.571 218.888 335.55 218.845 335.537 218.799C335.525 218.753 335.522 218.705 335.528 218.658C335.534 218.611 335.549 218.565 335.573 218.524C335.596 218.483 335.628 218.446 335.666 218.417C335.703 218.388 335.746 218.367 335.792 218.354C335.838 218.342 335.886 218.339 335.934 218.345C338.143 218.626 339.686 218.286 340.445 218.043C339.441 217.026 338.963 215.406 339.089 213.314C339.161 212.196 339.363 211.09 339.692 210.018C339.727 209.933 339.792 209.864 339.876 209.825C339.96 209.787 340.055 209.781 340.142 209.81C340.23 209.839 340.303 209.9 340.347 209.981C340.392 210.062 340.404 210.156 340.381 210.245C340.363 210.302 338.573 215.887 341.353 217.864C341.404 217.9 341.444 217.949 341.471 218.005C341.498 218.061 341.51 218.124 341.505 218.186C341.501 218.248 341.481 218.308 341.447 218.36C341.413 218.412 341.366 218.455 341.311 218.483C341.247 218.518 339.939 219.179 337.583 219.179Z" fill="#19283F"/>
<path d="M337.454 209.429C337.303 210.263 336.835 210.874 336.406 210.798C335.976 210.721 335.751 209.994 335.899 209.152C336.048 208.31 336.518 207.705 336.948 207.783C337.378 207.862 337.603 208.597 337.454 209.429Z" fill="#19283F"/>
<path d="M342.928 210.271C342.779 211.103 342.311 211.716 341.881 211.638C341.451 211.559 341.226 210.834 341.375 209.992C341.524 209.15 341.994 208.547 342.422 208.623C342.85 208.7 343.079 209.437 342.928 210.271Z" fill="#19283F"/>
<path d="M331.325 223.803C331.296 223.803 331.267 223.798 331.239 223.789C331.135 223.751 328.692 222.822 327.222 218.793C327.198 218.728 327.201 218.657 327.23 218.595C327.259 218.533 327.311 218.485 327.375 218.462C327.439 218.438 327.51 218.441 327.572 218.47C327.634 218.499 327.682 218.551 327.706 218.616C329.08 222.402 331.384 223.296 331.406 223.304C331.462 223.325 331.51 223.366 331.539 223.418C331.569 223.47 331.58 223.531 331.57 223.591C331.559 223.65 331.528 223.704 331.482 223.742C331.436 223.781 331.378 223.803 331.317 223.803H331.325Z" fill="#19283F"/>
<path d="M289.684 330C289.625 329.999 289.567 329.979 289.522 329.941C289.476 329.903 289.445 329.851 289.433 329.793C289.421 329.735 289.43 329.674 289.458 329.622C289.486 329.569 289.531 329.528 289.586 329.505C290.526 329.115 295.574 325.148 298.113 323.102C298.166 323.06 298.234 323.04 298.302 323.047C298.37 323.055 298.432 323.089 298.474 323.142C298.517 323.196 298.537 323.264 298.529 323.332C298.522 323.4 298.487 323.462 298.434 323.504C298.133 323.747 291.024 329.465 289.782 329.98C289.751 329.993 289.718 330 289.684 330Z" fill="#19283F"/>
<path d="M286.247 330C286.188 329.999 286.13 329.979 286.085 329.941C286.039 329.903 286.008 329.851 285.996 329.793C285.984 329.735 285.993 329.674 286.021 329.622C286.049 329.569 286.094 329.528 286.149 329.505C287.089 329.115 292.137 325.148 294.676 323.102C294.729 323.06 294.797 323.04 294.865 323.047C294.933 323.055 294.995 323.089 295.037 323.142C295.08 323.196 295.1 323.264 295.092 323.332C295.085 323.4 295.05 323.462 294.997 323.504C294.696 323.747 287.587 329.465 286.345 329.98C286.314 329.993 286.281 330 286.247 330Z" fill="#19283F"/>
<path d="M283.407 330C283.347 330 283.29 329.979 283.244 329.941C283.199 329.903 283.167 329.851 283.156 329.793C283.144 329.735 283.153 329.674 283.181 329.622C283.209 329.57 283.254 329.528 283.308 329.505C284.246 329.116 289.296 325.148 291.833 323.102C291.86 323.081 291.89 323.065 291.923 323.056C291.955 323.046 291.989 323.043 292.023 323.047C292.056 323.051 292.089 323.061 292.119 323.077C292.148 323.093 292.175 323.115 292.196 323.142C292.217 323.168 292.233 323.198 292.243 323.231C292.252 323.263 292.255 323.297 292.251 323.331C292.248 323.365 292.238 323.397 292.221 323.427C292.205 323.457 292.183 323.483 292.157 323.504C291.853 323.748 284.746 329.465 283.505 329.98C283.474 329.993 283.44 330 283.407 330Z" fill="#19283F"/>
<path d="M350.712 315.092C350.673 315.092 350.634 315.082 350.599 315.064C350.564 315.047 350.534 315.021 350.511 314.989C350.491 314.963 350.475 314.932 350.467 314.899C350.458 314.867 350.456 314.833 350.461 314.799C350.466 314.766 350.477 314.733 350.494 314.704C350.511 314.675 350.534 314.65 350.561 314.63L353.271 312.59C353.326 312.549 353.394 312.531 353.462 312.541C353.53 312.55 353.591 312.586 353.632 312.641C353.673 312.696 353.69 312.764 353.681 312.832C353.671 312.9 353.635 312.961 353.58 313.002L350.871 315.042C350.825 315.075 350.769 315.093 350.712 315.092Z" fill="#19283F"/>
<path d="M361.404 322.691C361.369 322.691 361.335 322.684 361.303 322.67C361.27 322.656 361.242 322.636 361.218 322.61L354.749 315.739C354.703 315.689 354.677 315.623 354.679 315.555C354.681 315.487 354.71 315.422 354.76 315.375C354.809 315.328 354.875 315.303 354.943 315.305C355.012 315.307 355.076 315.336 355.123 315.385L361.591 322.258C361.625 322.295 361.648 322.341 361.656 322.39C361.665 322.439 361.658 322.49 361.639 322.535C361.619 322.581 361.586 322.62 361.545 322.648C361.503 322.675 361.454 322.69 361.404 322.691Z" fill="#19283F"/>
<path d="M364.681 322.69C364.646 322.691 364.611 322.683 364.579 322.67C364.547 322.656 364.518 322.635 364.494 322.61L357.483 315.228C357.457 315.204 357.436 315.175 357.422 315.143C357.407 315.111 357.4 315.076 357.399 315.041C357.399 315.005 357.406 314.97 357.42 314.938C357.433 314.905 357.454 314.876 357.479 314.852C357.505 314.827 357.535 314.808 357.568 314.796C357.602 314.784 357.637 314.779 357.672 314.781C357.707 314.783 357.742 314.793 357.773 314.809C357.805 314.825 357.833 314.847 357.855 314.874L364.868 322.256C364.891 322.281 364.909 322.31 364.921 322.341C364.933 322.373 364.939 322.406 364.938 322.44C364.937 322.474 364.929 322.507 364.916 322.538C364.902 322.569 364.882 322.597 364.858 322.62C364.834 322.643 364.807 322.661 364.776 322.673C364.746 322.685 364.713 322.691 364.681 322.69Z" fill="#19283F"/>
<path d="M368.086 322.504C368.019 322.504 367.955 322.478 367.907 322.431L360.29 315.019C360.262 314.997 360.24 314.969 360.225 314.937C360.209 314.905 360.2 314.871 360.198 314.835C360.196 314.8 360.202 314.765 360.214 314.732C360.227 314.698 360.246 314.668 360.27 314.643C360.295 314.617 360.325 314.597 360.357 314.584C360.39 314.571 360.425 314.564 360.461 314.565C360.496 314.566 360.531 314.574 360.563 314.589C360.595 314.604 360.624 314.625 360.647 314.652L368.264 322.062C368.301 322.097 368.327 322.143 368.337 322.193C368.348 322.243 368.343 322.295 368.324 322.343C368.305 322.39 368.272 322.431 368.229 322.46C368.187 322.488 368.137 322.504 368.086 322.504Z" fill="#19283F"/>
<path d="M209.995 327.759H72.1001C75.9991 321.247 79.0022 314.438 84.1988 308.91C89.3954 303.381 96.0223 298.897 103.497 297.607C110.971 296.317 119.312 298.672 124 304.641C126.764 308.158 129.104 313.267 133.576 313.221C136.92 313.184 139.345 310.089 142.414 308.741C148.286 306.154 155.188 310.728 157.972 316.51C159.256 319.179 160.272 322.425 163.012 323.545C167.833 325.51 173.046 319.001 177.941 320.803C179.908 321.529 181.211 323.45 183.112 324.336C185.755 325.566 188.825 324.537 191.687 323.997C197.514 322.869 204.804 324.867 209.995 327.759Z" fill="#EF92C8"/>
<path d="M264.239 322.691H210.973C215.515 322.691 219.667 313.982 224.092 316.479C225.962 317.532 227.696 319.895 229.598 320.534C233.443 321.818 237.175 315.86 241.048 316.464C243.31 316.816 245.411 319.383 247.637 320.432C252.741 322.837 259.476 317.6 264.239 322.691Z" fill="#EF92C8"/>
<path d="M316.198 292.076C316.154 292.076 316.11 292.065 316.072 292.043C316.034 292.021 316.003 291.989 315.981 291.951C315.959 291.913 315.948 291.869 315.948 291.825C315.948 291.781 315.96 291.738 315.983 291.7C328.182 271.191 345.148 252.784 365.044 238.47C384.941 224.157 407.777 213.923 431.096 208.881C431.159 208.871 431.223 208.886 431.275 208.922C431.327 208.958 431.363 209.013 431.377 209.075C431.39 209.137 431.379 209.202 431.347 209.256C431.314 209.31 431.262 209.35 431.201 209.367C407.951 214.391 385.176 224.599 365.334 238.874C345.491 253.149 328.573 271.504 316.41 291.954C316.389 291.991 316.358 292.022 316.32 292.043C316.283 292.065 316.241 292.076 316.198 292.076Z" fill="#19283F"/>
<path d="M286.137 315.441H286.119C286.086 315.439 286.054 315.43 286.025 315.416C285.996 315.401 285.97 315.381 285.949 315.356C285.928 315.332 285.911 315.303 285.901 315.272C285.891 315.241 285.887 315.208 285.89 315.176C287.095 298.431 292.731 281.814 302.16 267.143C311.589 252.472 324.367 240.44 339.089 232.386C339.147 232.355 339.216 232.347 339.279 232.366C339.343 232.385 339.396 232.428 339.428 232.486C339.459 232.544 339.467 232.612 339.448 232.676C339.429 232.739 339.386 232.793 339.328 232.825C324.678 240.837 311.969 252.797 302.568 267.412C293.167 282.027 287.573 298.563 286.368 315.218C286.362 315.277 286.335 315.331 286.293 315.372C286.251 315.413 286.195 315.437 286.137 315.441Z" fill="#19283F"/>
<path d="M118.426 328.074H0.315374C0.231732 328.074 0.151515 328.041 0.0923709 327.982C0.0332268 327.923 0 327.843 0 327.759C0 327.675 0.0332268 327.595 0.0923709 327.536C0.151515 327.477 0.231732 327.443 0.315374 327.443H118.43C118.514 327.443 118.594 327.477 118.653 327.536C118.712 327.595 118.745 327.675 118.745 327.759C118.745 327.843 118.712 327.923 118.653 327.982C118.594 328.041 118.514 328.074 118.43 328.074H118.426Z" fill="#19283F"/>
<path d="M487.683 323.619H379.911C379.827 323.619 379.747 323.586 379.688 323.526C379.629 323.467 379.596 323.387 379.596 323.303C379.596 323.22 379.629 323.139 379.688 323.08C379.747 323.021 379.827 322.988 379.911 322.988H487.683C487.766 322.988 487.846 323.021 487.906 323.08C487.965 323.139 487.998 323.22 487.998 323.303C487.998 323.387 487.965 323.467 487.906 323.526C487.846 323.586 487.766 323.619 487.683 323.619Z" fill="#19283F"/>
<path d="M331.325 323.561H321.346C321.278 323.561 321.212 323.534 321.164 323.486C321.116 323.437 321.089 323.372 321.089 323.304C321.089 323.235 321.116 323.17 321.164 323.122C321.212 323.073 321.278 323.046 321.346 323.046H331.325C331.394 323.046 331.459 323.073 331.507 323.122C331.555 323.17 331.583 323.235 331.583 323.304C331.583 323.372 331.555 323.437 331.507 323.486C331.459 323.534 331.394 323.561 331.325 323.561Z" fill="#19283F"/>
<path d="M283.407 322.948H241.193C241.125 322.948 241.059 322.921 241.011 322.872C240.963 322.824 240.936 322.759 240.936 322.69C240.936 322.622 240.963 322.557 241.011 322.508C241.059 322.46 241.125 322.433 241.193 322.433H283.407C283.475 322.433 283.54 322.46 283.588 322.508C283.637 322.557 283.664 322.622 283.664 322.69C283.664 322.759 283.637 322.824 283.588 322.872C283.54 322.921 283.475 322.948 283.407 322.948Z" fill="#19283F"/>
</svg>
