<svg width="48" height="46" viewBox="0 0 48 46" fill="none" xmlns="http://www.w3.org/2000/svg">
<path fill-rule="evenodd" clip-rule="evenodd" d="M16.3858 19.6219L31.0849 5.55872C33.492 3.2582 37.3932 3.2582 39.8003 5.55872L42.1945 7.8494C44.6019 10.1526 44.6019 13.8882 42.1945 16.1889L27.4253 30.3193C26.3478 31.3501 24.8868 31.9295 23.363 31.9295H15.9951C15.166 31.9295 14.4998 31.276 14.5204 30.4831L14.7053 23.3694C14.7423 21.9606 15.3438 20.6189 16.3858 19.6219ZM40.1084 9.84534L37.7153 7.55573C36.4601 6.35611 34.4252 6.35611 33.1706 7.55519L31.9613 8.71214L38.8992 15.3499L40.109 14.1924C41.3634 12.9935 41.3634 11.046 40.1084 9.84534ZM36.813 17.3458L29.8751 10.7081L18.4721 21.6179C17.9653 22.1028 17.6727 22.7553 17.6547 23.44L17.5061 29.1051L23.3631 29.1068C24.0115 29.1068 24.6367 28.891 25.1341 28.501L25.3391 28.3233L36.813 17.3458ZM22.6696 3.90602C23.4843 3.90602 24.1448 4.5379 24.1448 5.31737C24.1448 6.03188 23.5898 6.62238 22.8698 6.71583L22.6696 6.72871H15.3155C10.3559 6.72871 7.14341 9.87642 6.95873 14.7646L6.95032 15.2137V30.859C6.95032 35.8581 10.0066 39.1463 14.8685 39.3354L15.3155 39.344H32.6712C37.6431 39.344 40.8458 36.2031 41.0299 31.3087L41.0383 30.859V23.2791C41.0383 22.4997 41.6988 21.8678 42.5135 21.8678C43.2603 21.8678 43.8775 22.3987 43.9752 23.0876L43.9886 23.2791V30.859C43.9886 37.374 39.6752 41.9547 33.1313 42.1596L32.6712 42.1667H15.3155C8.67062 42.1667 4.20646 37.7337 4.00697 31.3103L4 30.859V15.2137C4 8.70514 8.32451 4.11832 14.8562 3.91319L15.3155 3.90602H22.6696Z" fill="white"/>
</svg>
