<svg xmlns="http://www.w3.org/2000/svg" viewBox="0 0 2981.62 1774.83"><defs><style>.cls-1{fill:#ebf3fa;}.cls-2{fill:#cde0fb;}.cls-3{fill:#dfebfd;}.cls-4{fill:#f99746;}.cls-5{fill:#aec3ff;}.cls-6{fill:#fff7f0;}.cls-7{fill:#f9dec7;}.cls-8{fill:#ffb27d;}.cls-9{fill:#233862;}.cls-10{fill:#2b478b;}.cls-11{fill:#ed975d;}.cls-12{fill:#95b3ef;}.cls-13{fill:#ed7d2b;}.cls-14{fill:#fff;}.cls-15{fill:#1b3770;}.cls-16{fill:#e8c2a3;}.cls-17{fill:#f78248;}.cls-18{fill:#699dee;}.cls-19{fill:#4b87dd;}.cls-20{fill:#f9ddbf;}.cls-21{fill:#1f4075;}.cls-22{fill:#ef7e29;}.cls-23{fill:#ed985f;}.cls-24{fill:#2c3a64;}.cls-25{fill:#afcdfb;}.cls-26{fill:#ea642f;}.cls-27{fill:#ef873a;}.cls-28{fill:#a6c7ed;}.cls-29{fill:#e3f0ff;}.cls-30{fill:#1c3d72;}.cls-31{fill:#fca56b;}.cls-32{fill:#163560;}.cls-33{fill:#1f4d84;}.cls-34{opacity:0.5;}.cls-35{fill:#b3cff9;}.cls-36{fill:#2e3552;}</style></defs><g id="Слой_2" data-name="Слой 2"><g id="Слой_1-2" data-name="Слой 1"><g id="Слой_2-2" data-name="Слой 2"><g id="_лой_1" data-name=" лой 1"><path class="cls-1" d="M208.38,1769s-314.92-88.79-170.47-495.34S457,1042.53,377.6,687C272.93,218.14,716.16-100.69,1203.45,29.16S1560.13,303.41,2132.77,158c698.11-177.2,757,560,595.08,804.92s442,280.19,192.54,806.11Z"/><path class="cls-2" d="M2409.75,846.73s80.68-164.53,125.81-149.92S2409.75,846.73,2409.75,846.73Z"/><path class="cls-2" d="M2351.71,921.16S2545,731.75,2620.12,766.25s-45.78,71.61-91.89,81.7S2351.71,921.16,2351.71,921.16Z"/><path class="cls-2" d="M2836.12,1635.34c69.05-45.37,3.46-165.48,3.46-165.48s-161.07-43.36-172.51-67.58S2812,1412.46,2812,1412.46c-11.31-50.49-112.18-155.54-112.18-155.54s-152.12,58.6-157.24,32.31,137.35-45,137.35-45c-29.73-42.7-99.48-68.83-99.48-68.83-108.1-25.75-135.59,114.36-135.59,114.36s-53.15,19.17-125.59,6.2h0s-13.82-3.76-35.64-5l4.24,12.92c3.81-.08,7.53,0,11.17.21h.22c2.29.23,5.54.57,9.53,1.06h0c9,1.41,15.6,2.2,20.27,2.54h0c28.11,3.88,65.27,10.59,75.62,19.74a26.38,26.38,0,0,1,5-4.71l-5,4.71c-40.11,37.62-11.79,150.72,21,208.14s41.38,24.9,58.69-17.48-12.88-109.43-8.56-133.57,25.22,2.23,35.51,44.31-24,76-8.6,144.43,156.71,78,156.71,78c-29.21-41.13-30.86-131.5-16.11-139.82s53,113.74,64,131.13S2767.07,1680.7,2836.12,1635.34Z"/><path class="cls-3" d="M655.43,1031S553.66,823.48,496.74,841.92,655.43,1031,655.43,1031Z"/><path class="cls-3" d="M728.62,1124.9s-243.79-239-338.53-195.39,57.75,90.31,115.91,103S728.62,1124.9,728.62,1124.9Z"/><path class="cls-2" d="M269,1262.09c1.25-72.61,121.26-80.33,121.26-80.33s107.9,99.28,131.3,96.36-75.68-102.89-75.68-102.89c42.82-15.33,168.27,10.24,168.27,10.24s27.94,140.55,49.88,132-31.1-123.18-31.1-123.18c45.7,2,97.85,41.57,97.85,41.57,69.89,68.2-21.26,154.47-21.26,154.47s10.74,48.49,54.4,96.2h0s9.28,8.48,20.48,24.11l-11.58,2.93q-2.59-4.29-5.41-8.2h0l-.09-.11c-1.25-1.59-3-3.85-5.23-6.59h0c-5.29-6-9-10.59-11.41-13.86h0c-16.09-19.06-156.62,32.66-214.7,35.27S498,1501,521.37,1468.26s87.34-41.84,103.24-56.4-13.49-17.68-49.6-5.55-45.21,53.58-103.25,74.25-131.57-79.75-131.57-79.75c44.27,2.38,112.24-38.85,111.45-53.73s-109.42,14.06-127.48,14.11S267.72,1334.69,269,1262.09Z"/><path class="cls-4" d="M1489.54,1763.79H632.28a33.77,33.77,0,0,1-33.72-33.8h0V584.67a33.78,33.78,0,0,1,33.73-33.81c.4,0,.81,0,1.21,0l889.72,41V1730A33.76,33.76,0,0,1,1489.54,1763.79Z"/><path class="cls-4" d="M1557,1763.79h857.25A33.76,33.76,0,0,0,2448,1730h0V584.67a33.76,33.76,0,0,0-33.74-33.8c-.4,0-.8,0-1.2,0l-889.79,41V1730a33.78,33.78,0,0,0,33.73,33.81Z"/><path class="cls-5" d="M663.43,600.57l-27.8,22.58a16.93,16.93,0,0,0-6.21,13.17V1746.66a16.63,16.63,0,0,0,16.44,16.83H715.1a16.65,16.65,0,0,0,16.45-16.86c0-.33,0-.65,0-1Z"/><path class="cls-5" d="M2384.73,600.57l27.79,22.58a17,17,0,0,1,6.23,13.17V1746.66a16.64,16.64,0,0,1-16.44,16.83H2333.1a16.66,16.66,0,0,1-16.45-16.88c0-.32,0-.64,0-1Z"/><path class="cls-6" d="M1491.53,1763.79H685c-17.51,0-31.76-14.63-31.76-32.67V624.59c0-18.53,14.94-33.34,32.92-32.64l704,27.2c74.33,2.87,133.09,65.72,133.09,142.25v969.7C1523.22,1749.16,1509.05,1763.79,1491.53,1763.79Z"/><path class="cls-6" d="M1552.37,1763.79h811.79c16.08,0,29.11-13.42,29.11-30V621.8c0-16.94-13.76-30.59-30.21-30l-721.67,27.89c-66,2.55-118.14,58.35-118.14,126.29v987.79C1523.22,1750.37,1536.29,1763.79,1552.37,1763.79Z"/><rect class="cls-7" x="1521.07" y="812.17" width="4.37" height="718.5"/><path class="cls-8" d="M1945.38,740.44a5.78,5.78,0,0,1,1,6.2h0c-1.52,4.12-6.48,8.68-12.25,13.24-.73.6-1.39,1.13-2,1.62l-.44.38-.34.31c-5.37,4.88-3.37,6-13.05,16-11,11.31-18.56,11.45-20.7,10.41-1.8-.9,1.93-6.92,6.06-13.67.2-.33.39-.66.6-1,.55-.9,1.06-1.81,1.64-2.72,4.84-8.13,3.65-12,2.6-24.14-.86-9.89-15-55.32-15-55.32l21-3.46s6.07,36.14,13,41.74c3.71,3,7.87,3.06,11.44,5.3l.73.47A27.78,27.78,0,0,1,1945.38,740.44Z"/><path class="cls-9" d="M1945.38,740.44a5.78,5.78,0,0,1,1,6.2h0c-1.85,4.1-6.69,8.66-12.26,13.2-.73.59-1.38,1.14-1.95,1.66l-.44.38-.34.31c-5.37,4.88-3.37,6-13.05,16-11,11.31-18.56,11.45-20.7,10.41-1.8-.9,1.93-6.92,6.06-13.67a46.69,46.69,0,0,0,19.61-14.24c6.65-8.37,11.13-19.14,15.66-25.42l.73.48A27.43,27.43,0,0,1,1945.38,740.44Z"/><path class="cls-8" d="M1776.34,726.15c-1.34,6.46-10.59,5.29-20.86,2.72s-7.87.42-22.52-1.3-19.06-7.24-19.5-9.42c-.4-1.93,6.86-2.57,14.65-3.42,1-.09,2-.21,2.94-.33,8.79-1,15.26-6.66,23.3-11.25,7.59-4.35,19-22.24,19-22.24l20.12,1.74s-10.67,16-14.82,22.91c-2.44,4.09-2.35,9.53-2.12,13.7A25.64,25.64,0,0,1,1776.34,726.15Z"/><path class="cls-9" d="M1755.48,728.87c-10.29-2.58-7.87.42-22.52-1.3s-19.06-7.24-19.5-9.42c-.4-1.93,6.86-2.57,14.65-3.42l.06.16a41.36,41.36,0,0,0,21,6.68c9.95.31,20.52-2.46,27.39-2.31a26.06,26.06,0,0,1-.2,6.89C1775,732.61,1765.77,731.46,1755.48,728.87Z"/><path class="cls-9" d="M1922.64,707.88s-1.39.91-3.49,2.07a46.38,46.38,0,0,1-9.17,4,37.11,37.11,0,0,1-9.44,1.23c-1.2,0-2.41,0-3.62-.13l-24.1-66.28-4.35-12-4.64-12.71-1.61-4.43-7.84-21.58s19.17-49.19,38.73-25.74a47.18,47.18,0,0,1,6.7,12.11c1.43,3.48,2.79,7.41,4.08,11.65,1,3.17,1.91,6.56,2.81,10.07,2.43,9.53,4.59,20.12,6.48,30.7C1919.47,672.12,1922.64,707.88,1922.64,707.88Z"/><path class="cls-10" d="M2052.15,603.52l-97.72,4.11c-21.41-4.43-39.47-15.76-51.76-21.83l-2.86-1.42c-4.23-2.12-7.07-3.5-8.25-3.75-7.42-1.55-11.26,10.59-17.56,25.46-1.29,3-2.67,6.18-4.24,9.35a47,47,0,0,1-6,8.58l-1.61,1.92c-21.63,25.26-77.29,72.3-77.29,72.3h-1.72c-3.4-.07-11-.37-14.62-1.77a22.29,22.29,0,0,1-4.75-2.46,10.86,10.86,0,0,1-2.25-2s66.62-130.24,101.12-165.74h0a20.65,20.65,0,0,1,1.48-1.48c3.76-3.68,7.11-6.12,9.89-7,11.76-3.7,87.78.43,87.78.43l2.43-4,4.06-.29h.7l3.38-.25h0l4.68-.33,7-.49,18.85-1.38,3-.22,34.74-2.47s1.58,3.58,3.73,9.53c.84,2.32,1.75,5,2.69,7.93C2053.22,545.62,2061.25,580.51,2052.15,603.52Z"/><path class="cls-9" d="M2074.38,379.31c-17.36-14.83-29.75-18.49-31.47-41.95-.93-12.71-18-54.86-47-51.18a44.58,44.58,0,0,1-7.3.42,27,27,0,0,0-14.69,3.7c-13.93,8.14-39.57,83.53-22.24,110a19.23,19.23,0,0,0,13.77,8.87l2.22,1.25h0c3.11,1.75,6.53,3.66,10.14,5.72,20.44,11.52,47.2,26.75,60.91,34.45h0l2.34,1.33,4,2.21c1.6.88,2.54,1.37,2.62,1.37a60.52,60.52,0,0,0,8.47,2.39c6.89,1.43,16.55,2.23,23.29-2.12a37.16,37.16,0,0,0,7.41-6.35C2100.72,433.81,2104.39,404.91,2074.38,379.31Z"/><path class="cls-8" d="M1988.33,396.61c-.12.07,13.34,4.78,22.38.85,8.47-3.69,15-17.6,14.9-17.61-3.86-.2-8.07-3.61-11.17-25.76l-1.66.57-27.69,9.75s1.94,8.87,3.18,17.32C1989.31,388.83,1989.85,395.62,1988.33,396.61Z"/><path class="cls-11" d="M1985.09,364.41s1.18,6.22,2.82,15.11c15.88-2.74,22.59-16.3,24.87-24.86Z"/><path class="cls-8" d="M1980.92,373.18s37.83-4.81,34.47-28.33-.73-40-25-37.88-27.7,11.71-28.5,19.83S1971,373.85,1980.92,373.18Z"/><path class="cls-9" d="M1963.35,313.93s24,21,40.49,22.82,22.71-3.44,22.71-3.44a64.38,64.38,0,0,1-15.39-21.18,11.56,11.56,0,0,0-9.53-6.88C1989.92,304.16,1967.66,303.54,1963.35,313.93Z"/><path class="cls-9" d="M1978.53,312.18s-8.15,7.76-10.75,13.55c-2.5,5.58-3.32,19-1.41,24.35,0,0-12.44-24.6-5.21-36.47C1968.78,301,1978.53,312.18,1978.53,312.18Z"/><path class="cls-5" d="M1956.11,452.06c.61,76.52-.11,60.53,8.21,67.84,2,1.77,7.67,2.85,15.12,3.39,23.44,1.73,64.72-1.85,66.32-6.17,5.51-15,1.72-19.65,6.4-42.59.49-2.43,1.06-5.08,1.79-7.95,3.88-15.75,7.58-21.09-5.6-46.53-11.94-23-24.35-41.76-25.53-41.09-32.08,18.74-34.55,2.78-34.55,2.78S1955.82,414.74,1956.11,452.06Z"/><path class="cls-10" d="M1922.64,707.88s-1.39.91-3.49,2.07a46.38,46.38,0,0,1-9.17,4,37.11,37.11,0,0,1-9.44,1.23c-1.2,0-2.41,0-3.62-.13l-24.1-66.28,7.07-12L1898,606.07l5.93-10.07c1,3.18,1.91,6.57,2.81,10.07,2.43,9.53,4.59,20.12,6.48,30.71C1919.47,672.12,1922.64,707.88,1922.64,707.88Z"/><path class="cls-5" d="M1988.27,381.73s-32.92,5.35-36.88,19.48l-27.26,97.18s16.68,3.12,24.47-4.55S1976,422.39,1976,422.39Z"/><path class="cls-12" d="M1979.44,523.29c23.44,1.73,64.72-1.85,66.32-6.17,5.51-15,1.72-19.65,6.4-42.59l-11.09-31.94s1.62,35.5-8.91,44.75-43,17.72-48.11,25.48A28.45,28.45,0,0,0,1979.44,523.29Z"/><path class="cls-8" d="M2006.42,508.56s-23.1-5.29-26.85-3.29-12.93,9.44-14.1,12,8.34-1.92,11.42-2.72c2-.52,7.22,1.34,9.81,2.22,10.9,3.72,17.6,1.9,17.6,1.9Z"/><path class="cls-5" d="M2022.84,378.94s31.06,2.12,41.71,17.21c15,21.23,44.41,111.46,27.11,123.35-19.5,13.38-88.28,2.91-88.28,2.91s-2.21-10.72,1.06-15.88S2059.5,493.37,2062,491s-29.57-46.84-29.51-54S2022.84,378.94,2022.84,378.94Z"/><path class="cls-8" d="M1978.4,511.71s-4.89,6.21-6.49,6.95a4.69,4.69,0,0,1-2.62.54l3.31-5.85Z"/><path class="cls-8" d="M1979.59,505.27,1965.44,512a2.55,2.55,0,0,0,2.33.93,33.88,33.88,0,0,0,6.12-1.63Z"/><polygon class="cls-4" points="1974.93 525.27 1863.4 524.48 1830.44 440.82 1941.8 441.6 1974.93 525.27"/><polygon class="cls-13" points="1862.12 521.23 2009.39 522.26 2009.36 525.51 1863.4 524.48 1862.12 521.23"/><path class="cls-14" d="M1891.84,483c-.81-2.94.9-5.29,3.83-5.29a7.6,7.6,0,0,1,6.8,5.35c.82,2.94-.9,5.3-3.83,5.3A7.64,7.64,0,0,1,1891.84,483Z"/><rect class="cls-10" x="693.2" y="1609.97" width="745.3" height="153.09" rx="74.98"/><path class="cls-7" d="M1105.59,1666.15l-.53,33.45a53.57,53.57,0,0,0,52.71,54.44h0l395.67,6.36.12-6.66a68.22,68.22,0,0,1-36.77-61.64l.2-11.77a68.18,68.18,0,0,1,38.7-60.43v-.14L1160,1613.41A53.6,53.6,0,0,0,1105.59,1666.15Z"/><path class="cls-15" d="M1563.83,1763.08H1147c-26.89,0-48-33.65-48-76.6s21.06-76.59,48-76.59h416.85a6.27,6.27,0,0,1,0,12.54H1147c-19.2,0-35.42,29.33-35.42,64s16.22,64.06,35.42,64.06h416.85a6.27,6.27,0,0,1,0,12.54Z"/><rect class="cls-16" x="1165.58" y="1650.65" width="358.48" height="0.98"/><rect class="cls-16" x="1382.88" y="1664.63" width="136.08" height="0.9"/><rect class="cls-16" x="1281.56" y="1712.17" width="237.4" height="0.9"/><path class="cls-17" d="M1210.1,1651.14s18.39,7.7,20.58,33.69,0,39.82,0,39.82l-22.24-10.59L1186,1724.65V1684s-.83-32.89-31.42-32.89Z"/><rect class="cls-18" x="671.37" y="1494.73" width="556.22" height="115.24" rx="49.08"/><path class="cls-7" d="M979.14,1537l-.41,25.15a40.18,40.18,0,0,0,39.36,40.92l295.3,4.74.08-5a51.3,51.3,0,0,1-27.43-46.33l.13-8.85a51.33,51.33,0,0,1,28.89-45.43v-.09l-295.28-4.78a40.14,40.14,0,0,0-40.64,39.64Z"/><path class="cls-19" d="M1321.12,1609.81H1010c-20.06,0-35.79-25.29-35.79-57.57s15.73-57.58,35.79-57.58h311.1a4.71,4.71,0,1,1,0,9.42H1010c-14.32,0-26.47,22.06-26.47,48.16s12.11,48.14,26.47,48.14h311.1a4.72,4.72,0,0,1,0,9.43Z"/><rect class="cls-16" x="1066.81" y="1525.35" width="224.63" height="0.68"/><rect class="cls-16" x="1186.08" y="1535.82" width="101.57" height="0.68"/><rect class="cls-16" x="1110.47" y="1571.56" width="177.17" height="0.68"/><path class="cls-8" d="M2290.36,1399.2s5.73,17.62,5.23,21.65-4.08,17.81-6.65,21.34-3.83-14.37-5.86-17.06-.41,6.74-1.84,7.61-4.43-6.93-5.71-9.68,3.18-12.91,3.18-20S2290.36,1399.2,2290.36,1399.2Z"/><path class="cls-9" d="M2155.76,1259.18c-1.59-20.22,20.37-34.07,37.71-23.55.36.21.71.43,1.06.65,25.95,16.71,81.95,94.67,85.76,102.47s15.23,69.88,15.23,69.88-14.05,5.15-20.63-.19c0,0-22.79-58.92-26.17-61.87s-91.19-52.22-91.94-70.68C2156.62,1271.05,2156.23,1265.18,2155.76,1259.18Z"/><rect class="cls-4" x="1930.1" y="1245.08" width="116.8" height="23.22" transform="translate(-302.68 723.85) rotate(-19.2)"/><polygon class="cls-20" points="1907.87 1284.88 1937.34 1286.91 1929.71 1264.98 1907.87 1284.88"/><path class="cls-20" d="M2038.87,1256.63l-7.67-21.83h0l5.53-1.94a7.67,7.67,0,0,1,9.77,4.7h0l2.43,6.9a8.15,8.15,0,0,1-5,10.38l-5.08,1.78Z"/><path class="cls-21" d="M2312.48,1715.43s10.46,9.53,8.47,16.34-11.49,11.3-12.76,19.6-6.35,12.81-11,12.81h-21.89s-3.39-5.84,4.78-7.59,11.25-11.5,10.74-20.56a158.33,158.33,0,0,1,.76-21.11l17.36-4Z"/><path class="cls-21" d="M2184.1,1740.16s1.87,21.73-2.73,24l-58.79-.13s0-6.78,9.44-8.29,26-7,28.84-19.35S2184.1,1740.16,2184.1,1740.16Z"/><path class="cls-4" d="M2134.46,1433.15s3.1,38.12,6.74,83.89c5,62.21,10.91,138.62,11.5,153.1,1.06,25.14,5.11,65.34,5.11,65.34s9.69,9.53,29.09,5.53c0,0,17.29-57.4,22.24-118.14l.22-3c4.6-61.83,11.74-192,11.74-192Z"/><path class="cls-22" d="M2134.46,1433.15s3.1,38.12,6.74,83.89l67.94,105.83.22-3c4.6-61.83,11.74-192,11.74-192Z"/><path class="cls-4" d="M2148.61,1437.67s55.9,138,92.65,202.81,48.25,82.94,48.25,82.94,21.06-8.3,23-14c0,0-14.06-125.18-38.67-155.66-13.91-17.23-30.25-69-31-87.08s-5-53.9-5-53.9Z"/><path class="cls-8" d="M2196.81,1230.69s-37.45,19-59.38,12.71a51.26,51.26,0,0,1,14.52-12.1c-.84-4.37-1.5-8.15-1.91-11.36a103.46,103.46,0,0,1-1.14-11.65l14.36-11.77,13.61-11.25C2176.4,1216.16,2196.81,1230.69,2196.81,1230.69Z"/><path class="cls-10" d="M2234,1423.7c-15.12,9.16-29.44,16-46.19,19.9-19.75,4.69-44.05,3.3-52.17,4.54a3.44,3.44,0,0,1-2.37-.59c-.63-.33-4.23-24.44-7.81-54.86-.16-1.22-.33-2.46-.39-3.7l-.06-.41c-1.4-11.89-2.62-24.35-3.68-36.91-.87-9.74-1.58-19.38-2.12-28.43-.62-11.32-.88-21.73-.62-30.29.11-3.9.33-7.41.68-10.48,2.12-17.77,10.59-30.46,18.61-39.92l6.62-7.54a36.26,36.26,0,0,0,22.91-5.84c8.09-5.3,16.85-11.65,18.5-10.67,12.4,6.77,22.44,24.93,29.65,48.14a265.66,265.66,0,0,1,9.33,44.57c.65,5,1.21,10.09,1.64,15.18.08.95.14,1.89.22,2.81,1,13.91,2.56,27,4.32,38.59,2.37,15.71,5.07,28.87,7,38.12,1,4.71,1.68,8.36,2.11,11C2240.61,1419.17,2236,1422.43,2234,1423.7Z"/><path class="cls-23" d="M2177.36,1197.05s-9.21,17.61-27.32,22.84a103.06,103.06,0,0,1-1.14-11.64l14.36-11.77Z"/><path class="cls-8" d="M2142.23,1207.91s36.19,5.17,39.18-17.06S2191,1154.3,2168,1150s-28.59,3.66-31.42,10.85S2132.9,1206,2142.23,1207.91Z"/><path class="cls-24" d="M2193.62,1146.87c.31-.38,1.05-.69,2.74-.82a6.81,6.81,0,0,0-3.18-.82c-.4-2.33-1.72-6.45-5.77-7.41a5.06,5.06,0,0,1,2.52,3.59c-4.75-4.69-14.82-8-42.41-5.29-36.37,3.6-23.91,26.69-19.13,29.37s16.5-5.17,25.3-4.65,10.72,13.19,13.76,14.82,1.78-1.37,5.77-3.28,4.52,4.78,3.44,9.15,4.58,10,4.58,10l5.48-6.15c5.48-6.14,10.25-31.76,7.59-37.18Z"/><path class="cls-9" d="M2182.12,1294.93s-30.51,23.22-62.86,28.31c-.62-11.32-.88-21.73-.62-30.29Z"/><path class="cls-8" d="M1994.73,1265c-.48-.52-6.7-21.32-17.46-19.8-7,1-18.49,5-15.45,14.3,1.21,3.64,22.6,16.16,22.6,16.16Z"/><path class="cls-10" d="M2185.9,1250.08c17.39,10.41,16,36.33-2.63,44.38l-1.14.47c-28.66,11.5-113.89,12.77-133.24,10.66-21-2.3-65.84-28.07-65.84-28.07s4-14.45,12.1-16.71c0,0,47.4,13.42,65.65,14.47,11.52.66,95.37-44.12,110.88-34C2175.72,1243.91,2180.77,1247,2185.9,1250.08Z"/><polygon class="cls-7" points="1769.08 1661.99 1575.16 1671.53 1575.16 1477.61 1769.08 1468.08 1769.08 1661.99"/><polygon class="cls-6" points="1589.73 1648.66 1647 1542.57 1689.12 1597.95 1710.15 1573.92 1754.72 1640.55 1589.73 1648.66"/><path class="cls-6" d="M1674.3,1526.41a15.73,15.73,0,0,1,14.82-15.55,14,14,0,0,1,14.8,13.1q0,.49,0,1a15.75,15.75,0,0,1-14.83,15.55,14,14,0,0,1-14.8-13.1C1674.3,1527.07,1674.3,1526.74,1674.3,1526.41Z"/><polygon class="cls-7" points="2345.33 920.51 2065.96 934.23 2065.96 654.87 2345.33 641.14 2345.33 920.51"/><polygon class="cls-6" points="2086.93 901.29 2169.46 748.47 2230.14 828.24 2260.43 793.64 2324.64 889.61 2086.93 901.29"/><path class="cls-6" d="M2208.78,725.17a22.67,22.67,0,0,1,21.36-22.4,20.12,20.12,0,0,1,21.32,18.84q0,.74,0,1.47a22.66,22.66,0,0,1-21.35,22.43,20.11,20.11,0,0,1-21.32-18.84C2208.78,726.17,2208.77,725.67,2208.78,725.17Z"/><polygon class="cls-4" points="1848.34 1131.29 1575.16 1144.71 1575.16 1128.8 1848.34 1115.37 1848.34 1131.29"/><polygon class="cls-7" points="1721.62 1169.72 1575.16 1176.92 1575.16 1168.96 1721.62 1161.77 1721.62 1169.72"/><polygon class="cls-7" points="1678.69 1198.3 1575.16 1203.4 1575.16 1195.43 1678.69 1190.35 1678.69 1198.3"/><polygon class="cls-7" points="1802.32 1192.22 1698.79 1197.32 1698.79 1189.37 1802.32 1184.27 1802.32 1192.22"/><polygon class="cls-7" points="1943.22 1185.31 1817.08 1191.51 1817.08 1183.55 1943.22 1177.35 1943.22 1185.31"/><polygon class="cls-7" points="1665.03 1224.9 1575.16 1229.33 1575.16 1221.37 1665.03 1216.95 1665.03 1224.9"/><polygon class="cls-7" points="1772.37 1219.63 1682.48 1224.04 1682.48 1216.09 1772.37 1211.68 1772.37 1219.63"/><polygon class="cls-7" points="1894.69 1213.62 1785.17 1219 1785.17 1211.04 1894.69 1205.66 1894.69 1213.62"/><polygon class="cls-4" points="1848.34 951.73 1575.16 965.15 1575.16 949.24 1848.34 935.81 1848.34 951.73"/><polygon class="cls-7" points="1721.62 990.16 1575.16 997.36 1575.16 989.4 1721.62 982.2 1721.62 990.16"/><polygon class="cls-7" points="1896.5 981.57 1750.05 988.76 1750.05 980.8 1896.5 973.61 1896.5 981.57"/><polygon class="cls-7" points="1678.69 1018.74 1575.16 1023.84 1575.16 1015.87 1678.69 1010.79 1678.69 1018.74"/><polygon class="cls-7" points="1802.32 1012.66 1698.79 1017.76 1698.79 1009.79 1802.32 1004.71 1802.32 1012.66"/><polygon class="cls-7" points="1943.22 1005.74 1817.08 1011.94 1817.08 1003.98 1943.22 997.79 1943.22 1005.74"/><polygon class="cls-7" points="1665.03 1045.34 1575.16 1049.76 1575.16 1041.8 1665.03 1037.39 1665.03 1045.34"/><polygon class="cls-7" points="1772.37 1040.07 1682.48 1044.48 1682.48 1036.53 1772.37 1032.12 1772.37 1040.07"/><polygon class="cls-7" points="1894.69 1034.05 1785.17 1039.44 1785.17 1031.48 1894.69 1026.1 1894.69 1034.05"/><polygon class="cls-4" points="2256.55 973.87 2064.38 983.31 2064.38 972.12 2256.55 962.67 2256.55 973.87"/><polygon class="cls-7" points="2167.41 1000.91 2064.38 1005.97 2064.38 1000.37 2167.41 995.31 2167.41 1000.91"/><polygon class="cls-7" points="2290.44 994.86 2187.41 999.93 2187.41 994.32 2290.44 989.26 2290.44 994.86"/><polygon class="cls-7" points="2137.21 1021.01 2064.38 1024.6 2064.38 1019 2137.21 1015.42 2137.21 1021.01"/><polygon class="cls-7" points="2224.18 1016.74 2151.36 1020.32 2151.36 1014.72 2224.18 1011.14 2224.18 1016.74"/><polygon class="cls-7" points="2323.3 1011.87 2234.56 1016.23 2234.56 1010.63 2323.3 1006.27 2323.3 1011.87"/><polygon class="cls-7" points="2127.62 1039.73 2064.38 1042.83 2064.38 1037.24 2127.62 1034.13 2127.62 1039.73"/><polygon class="cls-7" points="2203.11 1036.01 2139.89 1039.13 2139.89 1033.52 2203.11 1030.42 2203.11 1036.01"/><polygon class="cls-7" points="2289.17 1031.79 2212.12 1035.57 2212.12 1029.98 2289.17 1026.18 2289.17 1031.79"/><polygon class="cls-4" points="1848.34 1318.6 1575.16 1332.03 1575.16 1316.11 1848.34 1302.68 1848.34 1318.6"/><polygon class="cls-7" points="1721.62 1357.04 1575.16 1364.24 1575.16 1356.28 1721.62 1349.08 1721.62 1357.04"/><polygon class="cls-7" points="1896.5 1348.44 1750.05 1355.64 1750.05 1347.69 1896.5 1340.49 1896.5 1348.44"/><polygon class="cls-7" points="1678.69 1385.62 1575.16 1390.71 1575.16 1382.76 1678.69 1377.66 1678.69 1385.62"/><polygon class="cls-7" points="1802.32 1379.55 1698.79 1384.63 1698.79 1376.68 1802.32 1371.59 1802.32 1379.55"/><polygon class="cls-7" points="1943.22 1372.62 1817.08 1378.82 1817.08 1370.87 1943.22 1364.66 1943.22 1372.62"/><polygon class="cls-7" points="1665.03 1412.22 1575.16 1416.64 1575.16 1408.68 1665.03 1404.26 1665.03 1412.22"/><polygon class="cls-7" points="1772.37 1406.94 1682.48 1411.37 1682.48 1403.4 1772.37 1398.99 1772.37 1406.94"/><polygon class="cls-7" points="1894.69 1400.94 1785.17 1406.32 1785.17 1398.36 1894.69 1392.97 1894.69 1400.94"/><polygon class="cls-4" points="2030.1 1568.12 1819.09 1578.49 1819.09 1562.57 2030.1 1552.2 2030.1 1568.12"/><polygon class="cls-7" points="1932.2 1605.14 1819.09 1610.7 1819.09 1602.74 1932.2 1597.18 1932.2 1605.14"/><polygon class="cls-7" points="2067.29 1598.5 1954.18 1604.06 1954.18 1596.11 2067.29 1590.55 2067.29 1598.5"/><polygon class="cls-7" points="1899.05 1633.24 1819.09 1637.17 1819.09 1629.22 1899.05 1625.29 1899.05 1633.24"/><polygon class="cls-7" points="1994.55 1628.55 1914.58 1632.48 1914.58 1624.53 1994.55 1620.59 1994.55 1628.55"/><polygon class="cls-7" points="2103.38 1623.2 2005.94 1627.99 2005.94 1620.03 2103.38 1615.24 2103.38 1623.2"/><polygon class="cls-7" points="1888.51 1659.69 1819.09 1663.1 1819.09 1655.15 1888.51 1651.73 1888.51 1659.69"/><polygon class="cls-7" points="1971.41 1655.61 1901.98 1659.02 1901.98 1651.07 1971.41 1647.65 1971.41 1655.61"/><polygon class="cls-7" points="2065.9 1650.96 1981.3 1655.13 1981.3 1647.17 2065.9 1643.01 2065.9 1650.96"/><polygon class="cls-7" points="1423.12 1016.02 1118.68 1004.97 1118.68 700.53 1423.12 711.59 1423.12 1016.02"/><polygon class="cls-6" points="1141.56 971.02 1231.47 812.17 1297.6 904.76 1330.62 869.87 1400.57 980.42 1141.56 971.02"/><path class="cls-6" d="M1274.33,790.45a22.23,22.23,0,0,1,22-22.45c.43,0,.86,0,1.28,0a24.36,24.36,0,0,1,23.3,24.12,22.24,22.24,0,0,1-22,22.45c-.43,0-.85,0-1.28,0A24.35,24.35,0,0,1,1274.33,790.45Z"/><polygon class="cls-4" points="1386.74 1136.07 1113.57 1126.15 1113.57 1110.24 1386.74 1120.16 1386.74 1136.07"/><polygon class="cls-7" points="1260.02 1163.68 1113.57 1158.36 1113.57 1150.41 1260.02 1155.73 1260.02 1163.68"/><polygon class="cls-7" points="1217.09 1188.59 1113.57 1184.83 1113.57 1176.88 1217.09 1180.63 1217.09 1188.59"/><polygon class="cls-7" points="1340.73 1193.08 1237.19 1189.32 1237.19 1181.37 1340.73 1185.12 1340.73 1193.08"/><polygon class="cls-7" points="1481.62 1198.2 1355.48 1193.61 1355.48 1185.66 1481.62 1190.24 1481.62 1198.2"/><polygon class="cls-7" points="1203.45 1214.03 1113.57 1210.77 1113.57 1202.8 1203.45 1206.06 1203.45 1214.03"/><polygon class="cls-7" points="1310.77 1217.92 1220.9 1214.66 1220.9 1206.7 1310.77 1209.96 1310.77 1217.92"/><polygon class="cls-7" points="1433.1 1222.36 1323.58 1218.39 1323.58 1210.43 1433.1 1214.41 1433.1 1222.36"/><polygon class="cls-4" points="1386.74 1323.39 1113.57 1313.46 1113.57 1297.55 1386.74 1307.47 1386.74 1323.39"/><polygon class="cls-7" points="1260.02 1350.99 1113.57 1345.67 1113.57 1337.72 1260.02 1343.04 1260.02 1350.99"/><polygon class="cls-7" points="1434.91 1357.34 1288.45 1352.03 1288.45 1344.07 1434.91 1349.39 1434.91 1357.34"/><polygon class="cls-7" points="1217.09 1375.9 1113.57 1372.15 1113.57 1364.19 1217.09 1367.95 1217.09 1375.9"/><polygon class="cls-7" points="1340.73 1380.39 1237.19 1376.64 1237.19 1368.68 1340.73 1372.44 1340.73 1380.39"/><polygon class="cls-7" points="1481.62 1385.51 1355.48 1380.93 1355.48 1372.97 1481.62 1377.56 1481.62 1385.51"/><polygon class="cls-7" points="1203.45 1401.34 1113.57 1398.08 1113.57 1390.12 1203.45 1393.39 1203.45 1401.34"/><polygon class="cls-7" points="1310.77 1405.23 1220.9 1401.97 1220.9 1394.01 1310.77 1397.28 1310.77 1405.23"/><polygon class="cls-7" points="1433.1 1409.67 1323.58 1405.7 1323.58 1397.74 1433.1 1401.72 1433.1 1409.67"/><polygon class="cls-4" points="998.59 671.05 725.4 661.13 725.4 645.23 998.59 655.14 998.59 671.05"/><polygon class="cls-7" points="871.85 698.66 725.4 693.34 725.4 685.39 871.85 690.71 871.85 698.66"/><polygon class="cls-7" points="1046.74 705.01 900.29 699.7 900.29 691.75 1046.74 697.06 1046.74 705.01"/><polygon class="cls-7" points="828.93 723.57 725.4 719.82 725.4 711.86 828.93 715.62 828.93 723.57"/><polygon class="cls-7" points="952.56 728.06 849.03 724.3 849.03 716.35 952.56 720.11 952.56 728.06"/><polygon class="cls-7" points="1093.46 733.18 967.31 728.6 967.31 720.64 1093.46 725.23 1093.46 733.18"/><polygon class="cls-7" points="815.28 749.01 725.4 745.75 725.4 737.79 815.28 741.06 815.28 749.01"/><polygon class="cls-7" points="922.62 752.9 832.73 749.64 832.73 741.69 922.62 744.95 922.62 752.9"/><polygon class="cls-7" points="1044.93 757.35 935.42 753.37 935.42 745.42 1044.93 749.39 1044.93 757.35"/><path class="cls-25" d="M857.83,349.1l24-5.7,78.91,107-27.18,6.46-17-23.9-50,11.89L862,473.86l-26.47,6.36Zm43.84,63-24.8-34.58-6.59,42.05Z"/><path class="cls-25" d="M992.28,279.07c3.42-34.36,32.11-59.94,69.24-56.25,22.78,2.27,34.71,12.17,44.83,24.35l-17.71,16.72c-8.47-9.38-15.88-15.18-29.74-16.55-20.37-2-36.73,13.44-38.82,34.5-2.06,20.72,10.59,39.41,31.28,41.48,13.77,1.36,22.82-3.32,33.18-11l15.14,19.79c-13.77,12.06-28.28,18-51.6,15.63C1012.49,344.21,988.8,314.11,992.28,279.07Z"/><path class="cls-25" d="M1358.4,246.26l55.66-9c13.72-2.2,25.11-.18,33.07,5.57,6.35,4.6,10.19,10.83,11.57,19.4,2.19,13.53-3.8,22.24-11.58,28.41,14.73,3.07,24.6,9.73,27.25,26.17,3.54,21.93-12.51,35.77-39.57,40.15l-57,9.21Zm57.88,40.41c11.64-1.89,18.4-6.84,16.94-16.1-1.27-7.87-8.16-11.33-19.29-9.53l-26,4.24,4.1,25.35Zm14.82,47.17c11.65-1.88,18-7.13,16.51-16.38-1.29-8-8.09-12-21.62-9.86l-30.5,4.93,4.24,26.37Z"/><path class="cls-25" d="M1149.51,446.62c2.93-34.4,32.12-60.36,68.82-57.18,21.79,1.85,34.43,8.84,46.14,20.64l-18.54,18.84c-8.67-8.58-16.6-13.77-30.6-15-19.36-1.65-36.21,14.16-38,35.08-1.88,22.13,12,39.68,33.39,41.5,9.69.83,18.54-.87,25.69-5.14l1.47-17.28-26.8-2.28,2-23,52.56,4.47-4.47,52.55a78.9,78.9,0,0,1-53.33,14.82C1170.12,511.41,1146.44,482.76,1149.51,446.62Z"/><path class="cls-25" d="M2625.09,576.56a66.26,66.26,0,0,1-37.47,2.72c-36.67-7.76-57.18-40.66-50-74.77,7.15-33.79,39.65-55.82,76.32-48.06s57.18,40.66,50,74.77a61.45,61.45,0,0,1-17.75,31.9l10,13-20.55,15Zm-15.74-21.24-15.88-20.55,20.59-15.15,15.78,21.78a40.78,40.78,0,0,0,6.75-16c4.31-20.37-7-40.5-28.09-45s-39.18,9.1-43.55,29.81c-4.31,20.37,7,40.5,28.09,45A39.15,39.15,0,0,0,2609.35,555.32Z"/><path class="cls-25" d="M2351.71,320l24.42-3.33,66.44,66.46-10-74.12,26.13-3.54L2475,425.84l-22.53,3.08L2383.8,360.3l10.36,76.51L2368,440.35Z"/><path class="cls-25" d="M1559.62,383.83l28.48,3,16.53,84.41,35.63-79.34,22.77,2.37,18.56,85,33.54-79.2,27.78,2.89L1689,520.26l-23.13-2.4L1646.83,436l-35.48,76.24-23.13-2.41Z"/><path class="cls-17" d="M311.45,1728.13a34.72,34.72,0,0,0,.27,4.33,35.5,35.5,0,0,0,35.26,31.2H846.61a35.54,35.54,0,0,0,1.23-71.06H347a35.52,35.52,0,0,0-35.53,35.52Z"/><path class="cls-17" d="M349.56,1686.13H520.87a5.48,5.48,0,0,0,5.46-5.45h0a5.48,5.48,0,0,0-5.46-5.46H349.56a5.47,5.47,0,0,0-5.45,5.46h0A5.47,5.47,0,0,0,349.56,1686.13Z"/><rect class="cls-26" x="359.02" y="1686.13" width="18.57" height="6.43"/><path class="cls-26" d="M315.76,1745.08A35.57,35.57,0,0,0,347,1763.61H452.86v-18.53Z"/><path class="cls-4" d="M948.26,1717.68v20.82a25.12,25.12,0,0,1-25.12,25.12H402.72a25.08,25.08,0,0,1-25.12-25.12v-20.82a25.1,25.1,0,0,1,25.11-25.12H923.19A25.1,25.1,0,0,1,948.26,1717.68Z"/><path class="cls-27" d="M947.42,1745.08a25.1,25.1,0,0,1-24.23,18.53H402.72a25.12,25.12,0,0,1-24.25-18.53Z"/><path class="cls-2" d="M896.61,1728.22c0,11,4,20.9,10.33,27.43l.43.44a25.2,25.2,0,0,0,17.83,7.78c10.59,0,36.66-15.88,52.84-26.47,8.06-5.3,13.67-9.2,13.67-9.2s-5.61-3.94-13.67-9.2c-16.18-10.59-42.31-26.48-52.84-26.48a23.62,23.62,0,0,0-8.75,1.7,28.57,28.57,0,0,0-12.05,9.53,39.13,39.13,0,0,0-7.23,17.39v.23A43.56,43.56,0,0,0,896.61,1728.22Z"/><path class="cls-28" d="M896.61,1728.22c0,11,4,20.9,10.33,27.43l80.12-27.53-89.92-6.71A44.34,44.34,0,0,0,896.61,1728.22Z"/><path class="cls-29" d="M904.4,1703.78l79.93,21.82-67.83-31.35A28.64,28.64,0,0,0,904.4,1703.78Z"/><path class="cls-4" d="M972.83,1728.22c0,4.23,2.11,7.86,5.21,9.2,8.06-5.29,13.67-9.2,13.67-9.2s-5.61-3.94-13.67-9.2C975,1720.35,972.83,1724,972.83,1728.22Z"/><path class="cls-9" d="M740.72,1766h0a9.24,9.24,0,0,0,8.39-5.83l215.34-661.59c1.06-3.24-1-5.89-4.56-5.91h0a9.23,9.23,0,0,0-8.38,5.82L736.16,1760.07C735.11,1763.3,737.16,1766,740.72,1766Z"/><path class="cls-9" d="M567.17,1765h0a9.2,9.2,0,0,0,8.38-5.82l215.34-661.6c1.06-3.24-1-5.88-4.56-5.9h0a9.22,9.22,0,0,0-8.38,5.83L562.6,1759.05C561.56,1762.28,563.6,1764.93,567.17,1765Z"/><path class="cls-9" d="M754.05,1189.72l174.27,1a8.69,8.69,0,0,0,7.91-5.49h0c1-3-.94-5.55-4.31-5.57l-174.27-1.06a8.72,8.72,0,0,0-7.91,5.5h0C748.74,1187.2,750.68,1189.69,754.05,1189.72Z"/><path class="cls-9" d="M716.45,1305.23l174.27,1.06a8.7,8.7,0,0,0,7.91-5.5h0c1-3-.94-5.55-4.31-5.57l-174.27-1.06a8.73,8.73,0,0,0-7.91,5.5h0C711.14,1302.71,713.09,1305.21,716.45,1305.23Z"/><path class="cls-9" d="M680.23,1416.48l174.28,1.06a8.72,8.72,0,0,0,7.91-5.5h0c1-3-.94-5.54-4.3-5.57l-174.29-1a8.73,8.73,0,0,0-7.91,5.49h0C674.94,1414,676.88,1416.46,680.23,1416.48Z"/><path class="cls-9" d="M639.47,1541.78l174.27,1a8.68,8.68,0,0,0,7.91-5.5h0c1-3-.94-5.55-4.31-5.57l-174.27-1.06a8.74,8.74,0,0,0-7.91,5.51h0C634.17,1539.2,636.11,1541.71,639.47,1541.78Z"/><path class="cls-9" d="M596.79,1672.82l174.28,1.06a8.73,8.73,0,0,0,7.92-5.5h0c1-3.05-1-5.55-4.31-5.57l-174.29-1.06a8.76,8.76,0,0,0-7.91,5.5h0C591.5,1670.29,593.44,1672.8,596.79,1672.82Z"/><path class="cls-8" d="M919.13,948.74s2.06-4.64,3.39-6.83,7-8.63,8-7.17,4.85,11.26,2.78,14,.14,7.52-10.12,10.41Z"/><path class="cls-22" d="M805.15,919.47s52.49,43.83,73,39.77c16-3.17,40.59-11.59,40.59-11.59l4.91,12.57s-22,29.89-45,30.08c-35.91.31-62.47-15.54-62.47-15.54Z"/><path class="cls-30" d="M713.06,1381.78s1.52,24.59,6.28,24.94h24.13l30-.18s-.19-7.22-9-8.75-23.45-7.7-28.76-19.28C730.14,1366.38,713.06,1381.78,713.06,1381.78Z"/><path class="cls-10" d="M711.33,1383.49s9.12,3,16.23,3a60.21,60.21,0,0,0,15.16-2.12s1.72-16.6,11.17-53.18c4.94-19.17,12-43.81,22.08-74.45,27.82-84.7,36.28-134.16,37.06-138.85a.84.84,0,0,1,.06-.37H813L727.47,1080s10.59,116.67-2.91,161.45a187.54,187.54,0,0,0-4.9,21.45C711.13,1311.47,711.33,1383.49,711.33,1383.49Z"/><path class="cls-9" d="M753.89,1331.2c4.94-19.18,12-43.82,22.08-74.45,27.82-84.71,36.28-134.17,37.06-138.86v-.41l-85.53-37.56s10.59,116.68-2.91,161.46C722.65,1247.63,753.89,1331.2,753.89,1331.2Z"/><path class="cls-30" d="M779.9,1381.78s1.53,24.59,6.28,24.94h24.13l30-.18s-.19-7.22-9-8.75-23.44-7.7-28.76-19.28C797,1366.38,779.9,1381.78,779.9,1381.78Z"/><path class="cls-10" d="M828.36,1082.68s1,75.6-12,168.42-8.64,132.23-8.64,132.23-9,2.91-12.62,3.17a57.4,57.4,0,0,1-18.71-2.11s-18.72-92.87-13.35-139.33-25.65-159.43-25.65-159.43Z"/><path class="cls-8" d="M767.7,905.76l16.7,11,15.21-4.31c2.77-4,3.51-11.65,3.56-18.22a114.68,114.68,0,0,0-.61-12.15L780,872.09l-8.41-3.71c0,.13.66,6.91.75,7.89C774,893.83,767.7,905.76,767.7,905.76Z"/><path class="cls-4" d="M828.74,1103.69c-20.79,20.12-99.43,16.69-104.28-5.42s5.3-188.18,40.79-198.61c7.41-2.12,46.74,10.59,46.74,10.59A250.19,250.19,0,0,1,822.23,947c.78,4,3.08,46.44,4.79,86.15.81,18.57,1.48,36.54,1.83,49.7C829.16,1095.16,829.18,1103.25,828.74,1103.69Z"/><path class="cls-31" d="M774.07,876.59c4.56,7.72,20.66,14.49,29.13,17.59a109.6,109.6,0,0,0-.61-12.15l-22.52-9.94C775.06,872,772,873.14,774.07,876.59Z"/><path class="cls-8" d="M811.06,880.66s-36.29,11.33-43-11.39-15.88-36.54,7-44.73,30-.86,34.06,6.18S820.33,877.13,811.06,880.66Z"/><path class="cls-32" d="M807.68,828.53S805.37,855,799.9,853.8s-11.48-3.6-10.68,4.38S783.93,879.8,776,879.77c-16.94-.08-35.27-43.42-30.65-51.68C758.73,804.37,827,799.58,807.68,828.53Z"/><path class="cls-22" d="M802.34,900.23c-.47-.19-27-12.1-30.12-11.07s-7,10.5-7,10.5L812,910.25S808.31,902.75,802.34,900.23Z"/><path class="cls-33" d="M967.63,1028.85,818.81,1169c-2.93,2.76-6.6,3.62-8.18,2l-5-5.29c-1.58-1.68-.48-5.3,2.44-8l148.83-140.13c2.91-2.74,6.59-3.62,8.17-1.94l5,5.3C971.64,1022.49,970.55,1026.11,967.63,1028.85Z"/><path class="cls-17" d="M884.12,1107.48,818.81,1169c-2.93,2.76-6.6,3.62-8.18,2l-5-5.29c-1.58-1.68-.48-5.3,2.44-8l65.31-61.5Z"/><path class="cls-33" d="M933.44,976a116.65,116.65,0,1,0,193.33-117.23c-.59-.6-1.2-1.19-1.83-1.76a116.65,116.65,0,0,0-191.5,119Zm33.32-107.61a107.46,107.46,0,1,1,4.65,151.89l0,0a107.33,107.33,0,0,1-4.77-151.72Z"/><g class="cls-34"><path class="cls-35" d="M1123.26,1015.52a107.44,107.44,0,1,1-4.64-151.87h0a107,107,0,0,1,5.3,151.15Z"/></g><path class="cls-22" d="M828.85,1082.82c-82-58.42-75.18-136.4-75.18-136.4,30,16.94,59.71,54.28,73.36,86.7C827.83,1051.69,828.5,1069.66,828.85,1082.82Z"/><path class="cls-4" d="M909.78,1056.21c5.79-1.33,9.67-5.7,10.48-6.46,0,0,2.46.16-.41,5.43-.23.44-.77,1.56-1.17,2.37a.5.5,0,0,0,.23.68.46.46,0,0,0,.2,0c3.34.25,6.69-1.06,13.12.27.89.18,1.14,2.31,1.11,3.18a8.23,8.23,0,0,1-1.72,5.59c-1.06,1.38-3.93,2.84-10.37,5.43-2.45,1-9.47.25-16-2l-5.3-2.43,1.63-9.76,1.32.28C905,1059.31,907.6,1056.75,909.78,1056.21Z"/><path class="cls-4" d="M779.11,910.23s-73.68,14,21.68,120.71c15.25,17.07,97.65,39.28,97.65,39.28s8.36-7.1,4.15-12.86c0,0-56.74-41.2-69.22-47.75-5.62-3-21.8-65.76-31-80.88S779.11,910.23,779.11,910.23Z"/><path class="cls-8" d="M921.12,950a37.1,37.1,0,0,0,2.88-7c.48-2.43,3.51-9.53,4.77-10.77.5-.49,2.12.15,2.34,2.3a12.35,12.35,0,0,1-1.19,4.66c-1.31,3.29-1.06,7.77-1.55,9.25C927.22,952.16,921.12,950,921.12,950Z"/><path class="cls-36" d="M2977.6,1774.83l-2957-1.06a4,4,0,0,1-4-4v-3.18a4,4,0,0,1,4-4l2957,1.06a4,4,0,0,1,4,4v3.18A4,4,0,0,1,2977.6,1774.83Z"/></g></g></g></g></svg>