<svg width="48" height="52" viewBox="0 0 48 52" fill="none" xmlns="http://www.w3.org/2000/svg">
<g opacity="0.4">
<path fill-rule="evenodd" clip-rule="evenodd" d="M32.0401 23.6463C35.6821 23.6463 38.6341 20.4483 38.6341 16.5028C38.6341 12.5594 35.6821 9.35925 32.0401 9.35925" fill="white"/>
<path d="M32.0401 23.6463C35.6821 23.6463 38.6341 20.4483 38.6341 16.5028C38.6341 12.5594 35.6821 9.35925 32.0401 9.35925" stroke="white" stroke-width="2" stroke-linecap="round" stroke-linejoin="round"/>
</g>
<path fill-rule="evenodd" clip-rule="evenodd" d="M35.0723 31.4087C36.1603 31.4888 37.2403 31.6578 38.3063 31.9135C39.7843 32.232 41.5643 32.8885 42.1963 34.325C42.6003 35.2458 42.6003 36.3183 42.1963 37.2392C41.5663 38.6757 39.7843 39.3322 38.3063 39.6615" fill="white"/>
<path d="M35.0723 31.4087C36.1603 31.4888 37.2403 31.6578 38.3063 31.9135C39.7843 32.232 41.5643 32.8885 42.1963 34.325C42.6003 35.2458 42.6003 36.3183 42.1963 37.2392C41.5663 38.6757 39.7843 39.3322 38.3063 39.6615" stroke="white" stroke-width="2" stroke-linecap="round" stroke-linejoin="round"/>
<path fill-rule="evenodd" clip-rule="evenodd" d="M19.1828 32.9474C26.5628 32.9474 32.8668 34.1586 32.8668 38.9967C32.8668 43.8371 26.6028 45.0894 19.1828 45.0894C11.8028 45.0894 5.50079 43.8804 5.50079 39.0401C5.50079 34.1997 11.7628 32.9474 19.1828 32.9474Z" stroke="white" stroke-width="2" stroke-linecap="round" stroke-linejoin="round"/>
<path opacity="0.4" fill-rule="evenodd" clip-rule="evenodd" d="M19.1828 26.0408C14.3148 26.0408 10.4148 21.8137 10.4148 16.54C10.4148 11.2685 14.3148 7.04132 19.1828 7.04132C24.0508 7.04132 27.9528 11.2685 27.9528 16.54C27.9528 21.8137 24.0508 26.0408 19.1828 26.0408Z" fill="white" stroke="white" stroke-width="2" stroke-linecap="round" stroke-linejoin="round"/>
</svg>
